M48
;GenerationSoftware,Autodesk,EAGLE,9.0.0*%
;CreationDate,2018-04-23T14:01:40Z*%
FMAT,2
ICI,OFF
METRIC,TZ,000.000
T4C0.350
T3C0.450
T2C0.500
T1C1.100
%
G90
M71
T1
X13000Y11000
X11000Y11000
T2
X9000Y11000
X15000Y11000
T3
X8500Y24500
X15000Y24500
T4
X19000Y24500
X17000Y24500
X8500Y13500
X8500Y14500
X5000Y24500
X5000Y14500
X16500Y12500
X16500Y11000
X17500Y18000
X14500Y13000
X7000Y24500
X5000Y18000
X6500Y18000
X5000Y13000
X5000Y21000
X17500Y14500
X19000Y14500
X19000Y18000
X19000Y21250
M30