G04 EAGLE Gerber X2 export*
%TF.Part,Single*%
%TF.FileFunction,Legend,Bot,1*%
%TF.FilePolarity,Positive*%
%TF.GenerationSoftware,Autodesk,EAGLE,9.0.0*%
%TF.CreationDate,2018-04-23T14:01:41Z*%
G75*
%MOMM*%
%FSLAX34Y34*%
%LPD*%
%AMOC8*
5,1,8,0,0,1.08239X$1,22.5*%
G01*
%ADD10C,0.304800*%
%ADD11R,0.300000X0.060000*%
%ADD12R,0.420000X0.060000*%
%ADD13R,0.480000X0.060000*%
%ADD14R,0.540000X0.060000*%
%ADD15R,0.900000X0.060000*%
%ADD16R,1.440000X0.060000*%
%ADD17R,1.740000X0.060000*%
%ADD18R,1.980000X0.060000*%
%ADD19R,2.160000X0.060000*%
%ADD20R,2.340000X0.060000*%
%ADD21R,2.520000X0.060000*%
%ADD22R,2.580000X0.060000*%
%ADD23R,1.020000X0.060000*%
%ADD24R,0.660000X0.060000*%
%ADD25R,0.780000X0.060000*%
%ADD26R,0.360000X0.060000*%
%ADD27R,0.600000X0.060000*%
%ADD28R,0.060000X0.060000*%
%ADD29R,0.240000X0.060000*%
%ADD30R,0.720000X0.060000*%
%ADD31R,0.840000X0.060000*%
%ADD32R,0.960000X0.060000*%
%ADD33R,1.080000X0.060000*%
%ADD34R,1.140000X0.060000*%
%ADD35R,1.260000X0.060000*%
%ADD36R,1.380000X0.060000*%
%ADD37R,0.180000X0.060000*%
%ADD38R,1.560000X0.060000*%
%ADD39R,1.680000X0.060000*%
%ADD40R,1.800000X0.060000*%
%ADD41R,1.860000X0.060000*%
%ADD42R,2.100000X0.060000*%
%ADD43R,2.220000X0.060000*%
%ADD44R,1.200000X0.060000*%
%ADD45R,1.320000X0.060000*%
%ADD46R,2.040000X0.060000*%
%ADD47R,1.920000X0.060000*%
%ADD48R,0.120000X0.060000*%
%ADD49R,1.620000X0.060000*%
%ADD50R,1.500000X0.060000*%
%ADD51C,0.203200*%
%ADD52C,0.101600*%


D10*
X60000Y100000D02*
X71667Y100000D01*
X81667Y100000D02*
X93333Y100000D01*
X103333Y100000D02*
X115000Y100000D01*
X125000Y100000D02*
X136667Y100000D01*
X146667Y100000D02*
X158333Y100000D01*
X168333Y100000D02*
X180000Y100000D01*
D11*
X183400Y148600D03*
D12*
X183400Y149200D03*
D13*
X183100Y149800D03*
X183100Y150400D03*
D14*
X182800Y151000D03*
D13*
X182500Y151600D03*
D14*
X182200Y152200D03*
D13*
X181900Y152800D03*
X181900Y153400D03*
D14*
X181600Y154000D03*
D13*
X181300Y154600D03*
X181300Y155200D03*
X180700Y155800D03*
X180700Y156400D03*
X180700Y157000D03*
X180700Y157600D03*
D12*
X180400Y158200D03*
D13*
X180100Y158800D03*
X180100Y159400D03*
X180100Y160000D03*
D15*
X152800Y160000D03*
D13*
X180100Y160600D03*
D16*
X153100Y160600D03*
D13*
X180100Y161200D03*
D17*
X153400Y161200D03*
D13*
X180100Y161800D03*
D18*
X154000Y161800D03*
D13*
X180100Y162400D03*
D19*
X154300Y162400D03*
D13*
X180100Y163000D03*
D20*
X154600Y163000D03*
D13*
X180100Y163600D03*
D21*
X154900Y163600D03*
D13*
X180100Y164200D03*
D22*
X155200Y164200D03*
D13*
X180100Y164800D03*
D23*
X163000Y164800D03*
D24*
X145000Y164800D03*
D13*
X180100Y165400D03*
D25*
X164200Y165400D03*
D14*
X144400Y165400D03*
D13*
X180100Y166000D03*
D24*
X164800Y166000D03*
D13*
X144100Y166000D03*
X180100Y166600D03*
D14*
X165400Y166600D03*
D13*
X144100Y166600D03*
X180100Y167200D03*
D26*
X165700Y167200D03*
D13*
X144100Y167200D03*
X180100Y167800D03*
X144100Y167800D03*
D12*
X180400Y168400D03*
D13*
X144100Y168400D03*
X180700Y169000D03*
X144100Y169000D03*
X180700Y169600D03*
D12*
X144400Y169600D03*
D13*
X180700Y170200D03*
D12*
X144400Y170200D03*
D13*
X181300Y170800D03*
D12*
X144400Y170800D03*
D13*
X181300Y171400D03*
D12*
X144400Y171400D03*
D14*
X181600Y172000D03*
D13*
X144100Y172000D03*
X181900Y172600D03*
X144100Y172600D03*
D14*
X182200Y173200D03*
D13*
X144100Y173200D03*
D14*
X182200Y173800D03*
X143800Y173800D03*
X182800Y174400D03*
D13*
X143500Y174400D03*
D27*
X183100Y175000D03*
D14*
X143200Y175000D03*
X183400Y175600D03*
X142600Y175600D03*
X184000Y176200D03*
D27*
X142300Y176200D03*
X184300Y176800D03*
X141700Y176800D03*
D14*
X184600Y177400D03*
D24*
X141400Y177400D03*
D14*
X185200Y178000D03*
D24*
X140800Y178000D03*
D27*
X185500Y178600D03*
X140500Y178600D03*
X186100Y179200D03*
D14*
X140200Y179200D03*
X186400Y179800D03*
X139600Y179800D03*
D27*
X186700Y180400D03*
D13*
X139300Y180400D03*
D27*
X187300Y181000D03*
D13*
X139300Y181000D03*
D14*
X187600Y181600D03*
D13*
X139300Y181600D03*
D14*
X188200Y182200D03*
D13*
X139300Y182200D03*
D14*
X188200Y182800D03*
X139600Y182800D03*
X188800Y183400D03*
D13*
X139900Y183400D03*
D14*
X188800Y184000D03*
D13*
X139900Y184000D03*
D14*
X189400Y184600D03*
X140200Y184600D03*
D13*
X189700Y185200D03*
X140500Y185200D03*
D14*
X190000Y185800D03*
X140800Y185800D03*
D13*
X190300Y186400D03*
X141100Y186400D03*
D14*
X190600Y187000D03*
D28*
X172600Y187000D03*
D14*
X141400Y187000D03*
D13*
X190900Y187600D03*
D29*
X172300Y187600D03*
D13*
X141700Y187600D03*
X190900Y188200D03*
D11*
X172000Y188200D03*
D13*
X141700Y188200D03*
D14*
X191200Y188800D03*
D12*
X171400Y188800D03*
D13*
X142300Y188800D03*
X191500Y189400D03*
D14*
X170800Y189400D03*
D13*
X142300Y189400D03*
X191500Y190000D03*
D24*
X170200Y190000D03*
D13*
X142300Y190000D03*
X191500Y190600D03*
D30*
X169900Y190600D03*
D12*
X142600Y190600D03*
X191800Y191200D03*
D31*
X169300Y191200D03*
D13*
X142900Y191200D03*
X192100Y191800D03*
D32*
X168700Y191800D03*
D13*
X142900Y191800D03*
X192100Y192400D03*
D33*
X168100Y192400D03*
D13*
X142900Y192400D03*
X192100Y193000D03*
D34*
X167800Y193000D03*
D13*
X142900Y193000D03*
X192100Y193600D03*
D35*
X167200Y193600D03*
D12*
X143200Y193600D03*
D13*
X192100Y194200D03*
D36*
X166600Y194200D03*
D26*
X142900Y194200D03*
D13*
X192100Y194800D03*
D16*
X166300Y194800D03*
D37*
X143200Y194800D03*
D13*
X192100Y195400D03*
D38*
X165700Y195400D03*
D13*
X192100Y196000D03*
D39*
X165100Y196000D03*
D13*
X192100Y196600D03*
D40*
X164500Y196600D03*
D13*
X192100Y197200D03*
D41*
X164200Y197200D03*
D13*
X192100Y197800D03*
D18*
X163600Y197800D03*
D13*
X192100Y198400D03*
D42*
X163000Y198400D03*
D13*
X192100Y199000D03*
D19*
X162700Y199000D03*
D13*
X192100Y199600D03*
D43*
X162400Y199600D03*
D12*
X191800Y200200D03*
D43*
X162400Y200200D03*
D13*
X191500Y200800D03*
D43*
X162400Y200800D03*
D13*
X191500Y201400D03*
D19*
X162700Y201400D03*
D13*
X191500Y202000D03*
D42*
X163000Y202000D03*
D13*
X190900Y202600D03*
D18*
X163600Y202600D03*
D13*
X190900Y203200D03*
D41*
X164200Y203200D03*
D13*
X190900Y203800D03*
D17*
X164800Y203800D03*
D14*
X190600Y204400D03*
D39*
X165100Y204400D03*
D13*
X190300Y205000D03*
D38*
X165700Y205000D03*
D14*
X190000Y205600D03*
D16*
X166300Y205600D03*
D13*
X189700Y206200D03*
D36*
X166600Y206200D03*
D14*
X189400Y206800D03*
D35*
X167200Y206800D03*
D14*
X188800Y207400D03*
D34*
X167800Y207400D03*
D14*
X188800Y208000D03*
D23*
X168400Y208000D03*
D14*
X188200Y208600D03*
D32*
X168700Y208600D03*
D27*
X187900Y209200D03*
D31*
X169300Y209200D03*
D14*
X187600Y209800D03*
D30*
X169900Y209800D03*
D14*
X187000Y210400D03*
D27*
X170500Y210400D03*
X186700Y211000D03*
D14*
X170800Y211000D03*
X186400Y211600D03*
D12*
X171400Y211600D03*
D13*
X186100Y212200D03*
D11*
X172000Y212200D03*
D29*
X129700Y212200D03*
D12*
X186400Y212800D03*
D37*
X172600Y212800D03*
D28*
X152800Y212800D03*
D11*
X129400Y212800D03*
D26*
X186100Y213400D03*
D29*
X152500Y213400D03*
D12*
X128800Y213400D03*
D26*
X151900Y214000D03*
D14*
X128200Y214000D03*
D12*
X151600Y214600D03*
D24*
X127600Y214600D03*
D14*
X151000Y215200D03*
D30*
X127300Y215200D03*
D24*
X150400Y215800D03*
D31*
X126700Y215800D03*
D25*
X149800Y216400D03*
D32*
X126100Y216400D03*
D31*
X149500Y217000D03*
D33*
X125500Y217000D03*
D32*
X148900Y217600D03*
D34*
X125200Y217600D03*
D33*
X148300Y218200D03*
D35*
X124600Y218200D03*
D44*
X147700Y218800D03*
D36*
X124000Y218800D03*
D35*
X147400Y219400D03*
D16*
X123700Y219400D03*
D36*
X146800Y220000D03*
D38*
X123100Y220000D03*
D36*
X146800Y220600D03*
D39*
X122500Y220600D03*
D36*
X146800Y221200D03*
D40*
X121900Y221200D03*
D36*
X146800Y221800D03*
D41*
X121600Y221800D03*
D45*
X147100Y222400D03*
D18*
X121000Y222400D03*
D44*
X147700Y223000D03*
D42*
X120400Y223000D03*
D33*
X148300Y223600D03*
D19*
X120100Y223600D03*
D23*
X148600Y224200D03*
D43*
X119800Y224200D03*
D15*
X149200Y224800D03*
D43*
X119800Y224800D03*
D25*
X149800Y225400D03*
D43*
X119800Y225400D03*
D24*
X150400Y226000D03*
D43*
X119800Y226000D03*
D27*
X150700Y226600D03*
D42*
X120400Y226600D03*
D13*
X151300Y227200D03*
D46*
X120700Y227200D03*
D26*
X151900Y227800D03*
D47*
X121300Y227800D03*
D29*
X152500Y228400D03*
D40*
X121900Y228400D03*
D48*
X152500Y229000D03*
D39*
X122500Y229000D03*
D49*
X122800Y229600D03*
D50*
X123400Y230200D03*
D36*
X124000Y230800D03*
D35*
X124600Y231400D03*
D44*
X124900Y232000D03*
D33*
X125500Y232600D03*
D32*
X126100Y233200D03*
D15*
X126400Y233800D03*
D25*
X127000Y234400D03*
D24*
X127600Y235000D03*
D14*
X128200Y235600D03*
D13*
X128500Y236200D03*
D26*
X129100Y236800D03*
D29*
X129700Y237400D03*
D28*
X130000Y238000D03*
D51*
X210000Y120000D02*
X30000Y120000D01*
X30000Y320000D01*
X210000Y320000D01*
X210000Y120000D01*
D52*
X204492Y105508D02*
X202799Y105508D01*
X202733Y105510D01*
X202668Y105516D01*
X202603Y105525D01*
X202539Y105538D01*
X202475Y105555D01*
X202413Y105576D01*
X202352Y105600D01*
X202292Y105628D01*
X202235Y105659D01*
X202179Y105694D01*
X202125Y105731D01*
X202073Y105772D01*
X202024Y105816D01*
X201978Y105862D01*
X201934Y105911D01*
X201893Y105963D01*
X201856Y106017D01*
X201821Y106072D01*
X201790Y106130D01*
X201762Y106190D01*
X201738Y106251D01*
X201717Y106313D01*
X201700Y106377D01*
X201687Y106441D01*
X201678Y106506D01*
X201672Y106571D01*
X201670Y106637D01*
X201670Y107201D01*
X201672Y107267D01*
X201678Y107332D01*
X201687Y107397D01*
X201700Y107461D01*
X201717Y107525D01*
X201738Y107587D01*
X201762Y107648D01*
X201790Y107708D01*
X201821Y107766D01*
X201856Y107821D01*
X201893Y107875D01*
X201934Y107927D01*
X201978Y107976D01*
X202024Y108022D01*
X202073Y108066D01*
X202125Y108107D01*
X202179Y108144D01*
X202235Y108179D01*
X202292Y108210D01*
X202352Y108238D01*
X202413Y108262D01*
X202475Y108283D01*
X202539Y108300D01*
X202603Y108313D01*
X202668Y108322D01*
X202733Y108328D01*
X202799Y108330D01*
X204492Y108330D01*
X204492Y110588D01*
X201670Y110588D01*
X199288Y110588D02*
X197595Y105508D01*
X195901Y110588D01*
X42516Y108330D02*
X41670Y108330D01*
X41670Y105508D01*
X43363Y105508D01*
X43429Y105510D01*
X43494Y105516D01*
X43559Y105525D01*
X43623Y105538D01*
X43687Y105555D01*
X43749Y105576D01*
X43810Y105600D01*
X43870Y105628D01*
X43928Y105659D01*
X43983Y105694D01*
X44037Y105731D01*
X44089Y105772D01*
X44138Y105816D01*
X44184Y105862D01*
X44228Y105911D01*
X44269Y105963D01*
X44306Y106017D01*
X44341Y106073D01*
X44372Y106130D01*
X44400Y106190D01*
X44424Y106251D01*
X44445Y106313D01*
X44462Y106377D01*
X44475Y106441D01*
X44484Y106506D01*
X44490Y106571D01*
X44492Y106637D01*
X44492Y109459D01*
X44490Y109525D01*
X44484Y109590D01*
X44475Y109655D01*
X44462Y109719D01*
X44445Y109783D01*
X44424Y109845D01*
X44400Y109906D01*
X44372Y109966D01*
X44341Y110024D01*
X44306Y110079D01*
X44269Y110133D01*
X44228Y110185D01*
X44184Y110234D01*
X44138Y110280D01*
X44089Y110324D01*
X44037Y110365D01*
X43983Y110402D01*
X43928Y110437D01*
X43870Y110468D01*
X43810Y110496D01*
X43749Y110520D01*
X43687Y110541D01*
X43623Y110558D01*
X43559Y110571D01*
X43494Y110580D01*
X43429Y110586D01*
X43363Y110588D01*
X41670Y110588D01*
X38640Y110588D02*
X38640Y105508D01*
X35818Y105508D02*
X38640Y110588D01*
X35818Y110588D02*
X35818Y105508D01*
X32788Y105508D02*
X32788Y110588D01*
X31377Y110588D01*
X31303Y110586D01*
X31230Y110580D01*
X31156Y110571D01*
X31084Y110557D01*
X31012Y110540D01*
X30941Y110519D01*
X30871Y110494D01*
X30803Y110466D01*
X30736Y110434D01*
X30672Y110399D01*
X30609Y110360D01*
X30548Y110319D01*
X30489Y110274D01*
X30433Y110226D01*
X30379Y110175D01*
X30328Y110121D01*
X30280Y110065D01*
X30235Y110006D01*
X30194Y109945D01*
X30155Y109883D01*
X30120Y109818D01*
X30088Y109751D01*
X30060Y109683D01*
X30035Y109613D01*
X30014Y109542D01*
X29997Y109470D01*
X29983Y109398D01*
X29974Y109324D01*
X29968Y109251D01*
X29966Y109177D01*
X29965Y109177D02*
X29965Y106919D01*
X29966Y106919D02*
X29968Y106845D01*
X29974Y106772D01*
X29983Y106698D01*
X29997Y106626D01*
X30014Y106554D01*
X30035Y106483D01*
X30060Y106413D01*
X30088Y106345D01*
X30120Y106278D01*
X30155Y106214D01*
X30194Y106151D01*
X30235Y106090D01*
X30280Y106031D01*
X30328Y105975D01*
X30379Y105921D01*
X30433Y105870D01*
X30489Y105822D01*
X30548Y105777D01*
X30609Y105736D01*
X30672Y105697D01*
X30736Y105662D01*
X30803Y105630D01*
X30871Y105602D01*
X30941Y105577D01*
X31012Y105556D01*
X31084Y105539D01*
X31156Y105525D01*
X31230Y105516D01*
X31303Y105510D01*
X31377Y105508D01*
X32788Y105508D01*
M02*
