G04 EAGLE Gerber X2 export*
%TF.Part,Single*%
%TF.FileFunction,Legend,Top,1*%
%TF.FilePolarity,Positive*%
%TF.GenerationSoftware,Autodesk,EAGLE,9.0.0*%
%TF.CreationDate,2018-04-23T14:01:41Z*%
G75*
%MOMM*%
%FSLAX34Y34*%
%LPD*%
%AMOC8*
5,1,8,0,0,1.08239X$1,22.5*%
G01*
%ADD10C,0.304800*%
%ADD11C,0.152400*%
%ADD12C,0.127000*%
%ADD13C,0.200000*%
%ADD14C,0.101600*%


D10*
X25000Y235000D02*
X25000Y222500D01*
X60000Y100000D02*
X71667Y100000D01*
X81667Y100000D02*
X93333Y100000D01*
X103333Y100000D02*
X115000Y100000D01*
X125000Y100000D02*
X136667Y100000D01*
X146667Y100000D02*
X158333Y100000D01*
X168333Y100000D02*
X180000Y100000D01*
D11*
X70780Y146900D02*
X70780Y163100D01*
X99220Y163100D02*
X99220Y146900D01*
X90220Y146900D02*
X79780Y146900D01*
X89280Y163100D02*
X90220Y163100D01*
X80720Y163100D02*
X79780Y163100D01*
X98280Y163100D02*
X99220Y163100D01*
X71720Y163100D02*
X70780Y163100D01*
X70780Y146900D02*
X71720Y146900D01*
X98280Y146900D02*
X99220Y146900D01*
D12*
X70635Y175635D02*
X70635Y182493D01*
X70635Y175635D02*
X73683Y175635D01*
X76954Y175635D02*
X76954Y182493D01*
X78859Y182493D01*
X78944Y182491D01*
X79030Y182485D01*
X79115Y182476D01*
X79199Y182462D01*
X79283Y182445D01*
X79366Y182424D01*
X79448Y182400D01*
X79528Y182372D01*
X79608Y182340D01*
X79686Y182304D01*
X79762Y182266D01*
X79836Y182223D01*
X79908Y182178D01*
X79979Y182129D01*
X80047Y182077D01*
X80112Y182023D01*
X80175Y181965D01*
X80236Y181904D01*
X80294Y181841D01*
X80348Y181776D01*
X80400Y181708D01*
X80449Y181637D01*
X80494Y181565D01*
X80537Y181491D01*
X80575Y181415D01*
X80611Y181337D01*
X80643Y181257D01*
X80671Y181177D01*
X80695Y181095D01*
X80716Y181012D01*
X80733Y180928D01*
X80747Y180844D01*
X80756Y180759D01*
X80762Y180673D01*
X80764Y180588D01*
X80764Y177540D01*
X80762Y177455D01*
X80756Y177369D01*
X80747Y177284D01*
X80733Y177200D01*
X80716Y177116D01*
X80695Y177033D01*
X80671Y176951D01*
X80643Y176871D01*
X80611Y176791D01*
X80575Y176713D01*
X80537Y176637D01*
X80494Y176563D01*
X80449Y176491D01*
X80400Y176420D01*
X80348Y176352D01*
X80294Y176287D01*
X80236Y176224D01*
X80175Y176163D01*
X80112Y176105D01*
X80047Y176051D01*
X79979Y175999D01*
X79908Y175950D01*
X79836Y175905D01*
X79762Y175862D01*
X79686Y175824D01*
X79608Y175788D01*
X79528Y175756D01*
X79448Y175728D01*
X79366Y175704D01*
X79283Y175683D01*
X79199Y175666D01*
X79115Y175652D01*
X79030Y175643D01*
X78944Y175637D01*
X78859Y175635D01*
X76954Y175635D01*
X84513Y177540D02*
X84513Y180588D01*
X84515Y180673D01*
X84521Y180759D01*
X84530Y180844D01*
X84544Y180928D01*
X84561Y181012D01*
X84582Y181095D01*
X84606Y181177D01*
X84634Y181257D01*
X84666Y181337D01*
X84702Y181415D01*
X84740Y181491D01*
X84783Y181565D01*
X84828Y181637D01*
X84877Y181708D01*
X84929Y181776D01*
X84983Y181841D01*
X85041Y181904D01*
X85102Y181965D01*
X85165Y182023D01*
X85230Y182077D01*
X85298Y182129D01*
X85369Y182178D01*
X85441Y182223D01*
X85515Y182266D01*
X85591Y182304D01*
X85669Y182340D01*
X85749Y182372D01*
X85829Y182400D01*
X85911Y182424D01*
X85994Y182445D01*
X86078Y182462D01*
X86162Y182476D01*
X86247Y182485D01*
X86333Y182491D01*
X86418Y182493D01*
X86503Y182491D01*
X86589Y182485D01*
X86674Y182476D01*
X86758Y182462D01*
X86842Y182445D01*
X86925Y182424D01*
X87007Y182400D01*
X87087Y182372D01*
X87167Y182340D01*
X87245Y182304D01*
X87321Y182266D01*
X87395Y182223D01*
X87467Y182178D01*
X87538Y182129D01*
X87606Y182077D01*
X87671Y182023D01*
X87734Y181965D01*
X87795Y181904D01*
X87853Y181841D01*
X87907Y181776D01*
X87959Y181708D01*
X88008Y181637D01*
X88053Y181565D01*
X88096Y181491D01*
X88134Y181415D01*
X88170Y181337D01*
X88202Y181257D01*
X88230Y181177D01*
X88254Y181095D01*
X88275Y181012D01*
X88292Y180928D01*
X88306Y180844D01*
X88315Y180759D01*
X88321Y180673D01*
X88323Y180588D01*
X88323Y177540D01*
X88321Y177455D01*
X88315Y177369D01*
X88306Y177284D01*
X88292Y177200D01*
X88275Y177116D01*
X88254Y177033D01*
X88230Y176951D01*
X88202Y176871D01*
X88170Y176791D01*
X88134Y176713D01*
X88096Y176637D01*
X88053Y176563D01*
X88008Y176491D01*
X87959Y176420D01*
X87907Y176352D01*
X87853Y176287D01*
X87795Y176224D01*
X87734Y176163D01*
X87671Y176105D01*
X87606Y176051D01*
X87538Y175999D01*
X87467Y175950D01*
X87395Y175905D01*
X87321Y175862D01*
X87245Y175824D01*
X87167Y175788D01*
X87087Y175756D01*
X87007Y175728D01*
X86925Y175704D01*
X86842Y175683D01*
X86758Y175666D01*
X86674Y175652D01*
X86589Y175643D01*
X86503Y175637D01*
X86418Y175635D01*
X86333Y175637D01*
X86247Y175643D01*
X86162Y175652D01*
X86078Y175666D01*
X85994Y175683D01*
X85911Y175704D01*
X85829Y175728D01*
X85749Y175756D01*
X85669Y175788D01*
X85591Y175824D01*
X85515Y175862D01*
X85441Y175905D01*
X85369Y175950D01*
X85298Y175999D01*
X85230Y176051D01*
X85165Y176105D01*
X85102Y176163D01*
X85041Y176224D01*
X84983Y176287D01*
X84929Y176352D01*
X84877Y176420D01*
X84828Y176491D01*
X84783Y176563D01*
X84740Y176637D01*
X84702Y176713D01*
X84666Y176791D01*
X84634Y176871D01*
X84606Y176951D01*
X84582Y177033D01*
X84561Y177116D01*
X84544Y177200D01*
X84530Y177284D01*
X84521Y177369D01*
X84515Y177455D01*
X84513Y177540D01*
X95000Y185000D02*
X145000Y185000D01*
X95000Y185000D02*
X95000Y226000D01*
X95000Y235000D01*
X104000Y235000D01*
X145000Y235000D01*
X145000Y185000D01*
X95000Y226000D02*
X104000Y235000D01*
X102795Y210000D02*
X102800Y210422D01*
X102816Y210844D01*
X102842Y211266D01*
X102878Y211686D01*
X102924Y212106D01*
X102981Y212524D01*
X103048Y212941D01*
X103126Y213357D01*
X103213Y213770D01*
X103311Y214180D01*
X103418Y214589D01*
X103536Y214994D01*
X103663Y215397D01*
X103801Y215796D01*
X103948Y216192D01*
X104105Y216584D01*
X104271Y216972D01*
X104447Y217356D01*
X104632Y217736D01*
X104827Y218110D01*
X105030Y218480D01*
X105243Y218845D01*
X105464Y219205D01*
X105695Y219559D01*
X105933Y219907D01*
X106181Y220249D01*
X106436Y220585D01*
X106700Y220915D01*
X106972Y221238D01*
X107252Y221554D01*
X107539Y221864D01*
X107834Y222166D01*
X108136Y222461D01*
X108446Y222748D01*
X108762Y223028D01*
X109085Y223300D01*
X109415Y223564D01*
X109751Y223819D01*
X110093Y224067D01*
X110441Y224305D01*
X110795Y224536D01*
X111155Y224757D01*
X111520Y224970D01*
X111890Y225173D01*
X112264Y225368D01*
X112644Y225553D01*
X113028Y225729D01*
X113416Y225895D01*
X113808Y226052D01*
X114204Y226199D01*
X114603Y226337D01*
X115006Y226464D01*
X115411Y226582D01*
X115820Y226689D01*
X116230Y226787D01*
X116643Y226874D01*
X117059Y226952D01*
X117476Y227019D01*
X117894Y227076D01*
X118314Y227122D01*
X118734Y227158D01*
X119156Y227184D01*
X119578Y227200D01*
X120000Y227205D01*
X120422Y227200D01*
X120844Y227184D01*
X121266Y227158D01*
X121686Y227122D01*
X122106Y227076D01*
X122524Y227019D01*
X122941Y226952D01*
X123357Y226874D01*
X123770Y226787D01*
X124180Y226689D01*
X124589Y226582D01*
X124994Y226464D01*
X125397Y226337D01*
X125796Y226199D01*
X126192Y226052D01*
X126584Y225895D01*
X126972Y225729D01*
X127356Y225553D01*
X127736Y225368D01*
X128110Y225173D01*
X128480Y224970D01*
X128845Y224757D01*
X129205Y224536D01*
X129559Y224305D01*
X129907Y224067D01*
X130249Y223819D01*
X130585Y223564D01*
X130915Y223300D01*
X131238Y223028D01*
X131554Y222748D01*
X131864Y222461D01*
X132166Y222166D01*
X132461Y221864D01*
X132748Y221554D01*
X133028Y221238D01*
X133300Y220915D01*
X133564Y220585D01*
X133819Y220249D01*
X134067Y219907D01*
X134305Y219559D01*
X134536Y219205D01*
X134757Y218845D01*
X134970Y218480D01*
X135173Y218110D01*
X135368Y217736D01*
X135553Y217356D01*
X135729Y216972D01*
X135895Y216584D01*
X136052Y216192D01*
X136199Y215796D01*
X136337Y215397D01*
X136464Y214994D01*
X136582Y214589D01*
X136689Y214180D01*
X136787Y213770D01*
X136874Y213357D01*
X136952Y212941D01*
X137019Y212524D01*
X137076Y212106D01*
X137122Y211686D01*
X137158Y211266D01*
X137184Y210844D01*
X137200Y210422D01*
X137205Y210000D01*
X137200Y209578D01*
X137184Y209156D01*
X137158Y208734D01*
X137122Y208314D01*
X137076Y207894D01*
X137019Y207476D01*
X136952Y207059D01*
X136874Y206643D01*
X136787Y206230D01*
X136689Y205820D01*
X136582Y205411D01*
X136464Y205006D01*
X136337Y204603D01*
X136199Y204204D01*
X136052Y203808D01*
X135895Y203416D01*
X135729Y203028D01*
X135553Y202644D01*
X135368Y202264D01*
X135173Y201890D01*
X134970Y201520D01*
X134757Y201155D01*
X134536Y200795D01*
X134305Y200441D01*
X134067Y200093D01*
X133819Y199751D01*
X133564Y199415D01*
X133300Y199085D01*
X133028Y198762D01*
X132748Y198446D01*
X132461Y198136D01*
X132166Y197834D01*
X131864Y197539D01*
X131554Y197252D01*
X131238Y196972D01*
X130915Y196700D01*
X130585Y196436D01*
X130249Y196181D01*
X129907Y195933D01*
X129559Y195695D01*
X129205Y195464D01*
X128845Y195243D01*
X128480Y195030D01*
X128110Y194827D01*
X127736Y194632D01*
X127356Y194447D01*
X126972Y194271D01*
X126584Y194105D01*
X126192Y193948D01*
X125796Y193801D01*
X125397Y193663D01*
X124994Y193536D01*
X124589Y193418D01*
X124180Y193311D01*
X123770Y193213D01*
X123357Y193126D01*
X122941Y193048D01*
X122524Y192981D01*
X122106Y192924D01*
X121686Y192878D01*
X121266Y192842D01*
X120844Y192816D01*
X120422Y192800D01*
X120000Y192795D01*
X119578Y192800D01*
X119156Y192816D01*
X118734Y192842D01*
X118314Y192878D01*
X117894Y192924D01*
X117476Y192981D01*
X117059Y193048D01*
X116643Y193126D01*
X116230Y193213D01*
X115820Y193311D01*
X115411Y193418D01*
X115006Y193536D01*
X114603Y193663D01*
X114204Y193801D01*
X113808Y193948D01*
X113416Y194105D01*
X113028Y194271D01*
X112644Y194447D01*
X112264Y194632D01*
X111890Y194827D01*
X111520Y195030D01*
X111155Y195243D01*
X110795Y195464D01*
X110441Y195695D01*
X110093Y195933D01*
X109751Y196181D01*
X109415Y196436D01*
X109085Y196700D01*
X108762Y196972D01*
X108446Y197252D01*
X108136Y197539D01*
X107834Y197834D01*
X107539Y198136D01*
X107252Y198446D01*
X106972Y198762D01*
X106700Y199085D01*
X106436Y199415D01*
X106181Y199751D01*
X105933Y200093D01*
X105695Y200441D01*
X105464Y200795D01*
X105243Y201155D01*
X105030Y201520D01*
X104827Y201890D01*
X104632Y202264D01*
X104447Y202644D01*
X104271Y203028D01*
X104105Y203416D01*
X103948Y203808D01*
X103801Y204204D01*
X103663Y204603D01*
X103536Y205006D01*
X103418Y205411D01*
X103311Y205820D01*
X103213Y206230D01*
X103126Y206643D01*
X103048Y207059D01*
X102981Y207476D01*
X102924Y207894D01*
X102878Y208314D01*
X102842Y208734D01*
X102816Y209156D01*
X102800Y209578D01*
X102795Y210000D01*
X110635Y240635D02*
X110635Y247493D01*
X110635Y240635D02*
X113683Y240635D01*
X116975Y240635D02*
X120023Y240635D01*
X116975Y240635D02*
X116975Y247493D01*
X120023Y247493D01*
X119261Y244445D02*
X116975Y244445D01*
X123293Y247493D02*
X123293Y240635D01*
X123293Y247493D02*
X125198Y247493D01*
X125283Y247491D01*
X125369Y247485D01*
X125454Y247476D01*
X125538Y247462D01*
X125622Y247445D01*
X125705Y247424D01*
X125787Y247400D01*
X125867Y247372D01*
X125947Y247340D01*
X126025Y247304D01*
X126101Y247266D01*
X126175Y247223D01*
X126247Y247178D01*
X126318Y247129D01*
X126386Y247077D01*
X126451Y247023D01*
X126514Y246965D01*
X126575Y246904D01*
X126633Y246841D01*
X126687Y246776D01*
X126739Y246708D01*
X126788Y246637D01*
X126833Y246565D01*
X126876Y246491D01*
X126914Y246415D01*
X126950Y246337D01*
X126982Y246257D01*
X127010Y246177D01*
X127034Y246095D01*
X127055Y246012D01*
X127072Y245928D01*
X127086Y245844D01*
X127095Y245759D01*
X127101Y245673D01*
X127103Y245588D01*
X127103Y242540D01*
X127101Y242455D01*
X127095Y242369D01*
X127086Y242284D01*
X127072Y242200D01*
X127055Y242116D01*
X127034Y242033D01*
X127010Y241951D01*
X126982Y241871D01*
X126950Y241791D01*
X126914Y241713D01*
X126876Y241637D01*
X126833Y241563D01*
X126788Y241491D01*
X126739Y241420D01*
X126687Y241352D01*
X126633Y241287D01*
X126575Y241224D01*
X126514Y241163D01*
X126451Y241105D01*
X126386Y241051D01*
X126318Y240999D01*
X126247Y240950D01*
X126175Y240905D01*
X126101Y240862D01*
X126025Y240824D01*
X125947Y240788D01*
X125867Y240756D01*
X125787Y240728D01*
X125705Y240704D01*
X125622Y240683D01*
X125538Y240666D01*
X125454Y240652D01*
X125369Y240643D01*
X125283Y240637D01*
X125198Y240635D01*
X123293Y240635D01*
D11*
X169230Y162810D02*
X169230Y147190D01*
X140780Y147190D02*
X140780Y162810D01*
D13*
X166500Y160000D03*
D12*
X153683Y175635D02*
X152159Y175635D01*
X152082Y175637D01*
X152005Y175643D01*
X151928Y175653D01*
X151852Y175666D01*
X151777Y175684D01*
X151703Y175705D01*
X151630Y175730D01*
X151558Y175759D01*
X151488Y175791D01*
X151419Y175826D01*
X151353Y175866D01*
X151288Y175908D01*
X151226Y175954D01*
X151166Y176003D01*
X151109Y176054D01*
X151054Y176109D01*
X151003Y176166D01*
X150954Y176226D01*
X150908Y176288D01*
X150866Y176353D01*
X150826Y176419D01*
X150791Y176488D01*
X150759Y176558D01*
X150730Y176630D01*
X150705Y176703D01*
X150684Y176777D01*
X150666Y176852D01*
X150653Y176928D01*
X150643Y177005D01*
X150637Y177082D01*
X150635Y177159D01*
X150635Y180969D01*
X150637Y181046D01*
X150643Y181123D01*
X150653Y181200D01*
X150666Y181276D01*
X150684Y181351D01*
X150705Y181425D01*
X150730Y181498D01*
X150759Y181570D01*
X150791Y181640D01*
X150826Y181709D01*
X150866Y181775D01*
X150908Y181840D01*
X150954Y181902D01*
X151003Y181962D01*
X151054Y182019D01*
X151109Y182074D01*
X151166Y182125D01*
X151226Y182174D01*
X151288Y182220D01*
X151353Y182262D01*
X151419Y182302D01*
X151488Y182337D01*
X151558Y182369D01*
X151630Y182398D01*
X151703Y182423D01*
X151777Y182444D01*
X151852Y182462D01*
X151928Y182475D01*
X152005Y182485D01*
X152082Y182491D01*
X152159Y182493D01*
X153683Y182493D01*
X157006Y182493D02*
X157006Y175635D01*
X157006Y179445D02*
X160816Y179445D01*
X160816Y182493D02*
X160816Y175635D01*
X167476Y179445D02*
X168619Y179445D01*
X168619Y175635D01*
X166333Y175635D01*
X166256Y175637D01*
X166179Y175643D01*
X166102Y175653D01*
X166026Y175666D01*
X165951Y175684D01*
X165877Y175705D01*
X165804Y175730D01*
X165732Y175759D01*
X165662Y175791D01*
X165593Y175826D01*
X165527Y175866D01*
X165462Y175908D01*
X165400Y175954D01*
X165340Y176003D01*
X165283Y176054D01*
X165228Y176109D01*
X165177Y176166D01*
X165128Y176226D01*
X165082Y176288D01*
X165040Y176353D01*
X165000Y176419D01*
X164965Y176488D01*
X164933Y176558D01*
X164904Y176630D01*
X164879Y176703D01*
X164858Y176777D01*
X164840Y176852D01*
X164827Y176928D01*
X164817Y177005D01*
X164811Y177082D01*
X164809Y177159D01*
X164809Y180969D01*
X164811Y181046D01*
X164817Y181123D01*
X164827Y181200D01*
X164840Y181276D01*
X164858Y181351D01*
X164879Y181425D01*
X164904Y181498D01*
X164933Y181570D01*
X164965Y181640D01*
X165000Y181709D01*
X165040Y181775D01*
X165082Y181840D01*
X165128Y181902D01*
X165177Y181962D01*
X165228Y182019D01*
X165283Y182074D01*
X165340Y182125D01*
X165400Y182174D01*
X165462Y182220D01*
X165527Y182262D01*
X165593Y182302D01*
X165662Y182337D01*
X165732Y182369D01*
X165804Y182398D01*
X165877Y182423D01*
X165951Y182444D01*
X166026Y182462D01*
X166102Y182475D01*
X166179Y182485D01*
X166256Y182491D01*
X166333Y182493D01*
X168619Y182493D01*
X135000Y125000D02*
X125000Y125000D01*
X130000Y120000D02*
X130000Y130000D01*
X115000Y125000D02*
X105000Y125000D01*
X115635Y175635D02*
X115635Y182493D01*
X117540Y182493D01*
X117625Y182491D01*
X117711Y182485D01*
X117796Y182476D01*
X117880Y182462D01*
X117964Y182445D01*
X118047Y182424D01*
X118129Y182400D01*
X118209Y182372D01*
X118289Y182340D01*
X118367Y182304D01*
X118443Y182266D01*
X118517Y182223D01*
X118589Y182178D01*
X118660Y182129D01*
X118728Y182077D01*
X118793Y182023D01*
X118856Y181965D01*
X118917Y181904D01*
X118975Y181841D01*
X119029Y181776D01*
X119081Y181708D01*
X119130Y181637D01*
X119175Y181565D01*
X119218Y181491D01*
X119256Y181415D01*
X119292Y181337D01*
X119324Y181257D01*
X119352Y181177D01*
X119376Y181095D01*
X119397Y181012D01*
X119414Y180928D01*
X119428Y180844D01*
X119437Y180759D01*
X119443Y180673D01*
X119445Y180588D01*
X119443Y180503D01*
X119437Y180417D01*
X119428Y180332D01*
X119414Y180248D01*
X119397Y180164D01*
X119376Y180081D01*
X119352Y179999D01*
X119324Y179919D01*
X119292Y179839D01*
X119256Y179761D01*
X119218Y179685D01*
X119175Y179611D01*
X119130Y179539D01*
X119081Y179468D01*
X119029Y179400D01*
X118975Y179335D01*
X118917Y179272D01*
X118856Y179211D01*
X118793Y179153D01*
X118728Y179099D01*
X118660Y179047D01*
X118589Y178998D01*
X118517Y178953D01*
X118443Y178910D01*
X118367Y178872D01*
X118289Y178836D01*
X118209Y178804D01*
X118129Y178776D01*
X118047Y178752D01*
X117964Y178731D01*
X117880Y178714D01*
X117796Y178700D01*
X117711Y178691D01*
X117625Y178685D01*
X117540Y178683D01*
X115635Y178683D01*
X117921Y178683D02*
X119445Y175635D01*
X122881Y180969D02*
X124786Y182493D01*
X124786Y175635D01*
X122881Y175635D02*
X126691Y175635D01*
X175635Y205635D02*
X175635Y212493D01*
X177540Y212493D01*
X177625Y212491D01*
X177711Y212485D01*
X177796Y212476D01*
X177880Y212462D01*
X177964Y212445D01*
X178047Y212424D01*
X178129Y212400D01*
X178209Y212372D01*
X178289Y212340D01*
X178367Y212304D01*
X178443Y212266D01*
X178517Y212223D01*
X178589Y212178D01*
X178660Y212129D01*
X178728Y212077D01*
X178793Y212023D01*
X178856Y211965D01*
X178917Y211904D01*
X178975Y211841D01*
X179029Y211776D01*
X179081Y211708D01*
X179130Y211637D01*
X179175Y211565D01*
X179218Y211491D01*
X179256Y211415D01*
X179292Y211337D01*
X179324Y211257D01*
X179352Y211177D01*
X179376Y211095D01*
X179397Y211012D01*
X179414Y210928D01*
X179428Y210844D01*
X179437Y210759D01*
X179443Y210673D01*
X179445Y210588D01*
X179443Y210503D01*
X179437Y210417D01*
X179428Y210332D01*
X179414Y210248D01*
X179397Y210164D01*
X179376Y210081D01*
X179352Y209999D01*
X179324Y209919D01*
X179292Y209839D01*
X179256Y209761D01*
X179218Y209685D01*
X179175Y209611D01*
X179130Y209539D01*
X179081Y209468D01*
X179029Y209400D01*
X178975Y209335D01*
X178917Y209272D01*
X178856Y209211D01*
X178793Y209153D01*
X178728Y209099D01*
X178660Y209047D01*
X178589Y208998D01*
X178517Y208953D01*
X178443Y208910D01*
X178367Y208872D01*
X178289Y208836D01*
X178209Y208804D01*
X178129Y208776D01*
X178047Y208752D01*
X177964Y208731D01*
X177880Y208714D01*
X177796Y208700D01*
X177711Y208691D01*
X177625Y208685D01*
X177540Y208683D01*
X175635Y208683D01*
X177921Y208683D02*
X179445Y205635D01*
X184976Y212494D02*
X185058Y212492D01*
X185139Y212486D01*
X185220Y212477D01*
X185301Y212463D01*
X185380Y212446D01*
X185459Y212425D01*
X185537Y212400D01*
X185613Y212371D01*
X185688Y212339D01*
X185762Y212303D01*
X185834Y212264D01*
X185903Y212222D01*
X185971Y212176D01*
X186036Y212127D01*
X186099Y212075D01*
X186159Y212020D01*
X186217Y211962D01*
X186272Y211902D01*
X186324Y211839D01*
X186373Y211774D01*
X186419Y211706D01*
X186461Y211637D01*
X186500Y211565D01*
X186536Y211491D01*
X186568Y211416D01*
X186597Y211340D01*
X186622Y211262D01*
X186643Y211183D01*
X186660Y211104D01*
X186674Y211023D01*
X186683Y210942D01*
X186689Y210861D01*
X186691Y210779D01*
X184976Y212493D02*
X184884Y212491D01*
X184792Y212485D01*
X184700Y212476D01*
X184608Y212462D01*
X184518Y212445D01*
X184428Y212424D01*
X184339Y212399D01*
X184251Y212370D01*
X184164Y212338D01*
X184079Y212302D01*
X183996Y212263D01*
X183914Y212220D01*
X183834Y212174D01*
X183756Y212124D01*
X183680Y212072D01*
X183607Y212016D01*
X183536Y211957D01*
X183467Y211895D01*
X183401Y211830D01*
X183338Y211763D01*
X183278Y211693D01*
X183220Y211621D01*
X183166Y211546D01*
X183115Y211469D01*
X183067Y211390D01*
X183023Y211309D01*
X182982Y211226D01*
X182944Y211142D01*
X182910Y211056D01*
X182880Y210969D01*
X186119Y209445D02*
X186178Y209504D01*
X186234Y209565D01*
X186287Y209628D01*
X186338Y209694D01*
X186385Y209762D01*
X186429Y209832D01*
X186470Y209904D01*
X186508Y209978D01*
X186542Y210053D01*
X186573Y210130D01*
X186600Y210208D01*
X186624Y210288D01*
X186645Y210368D01*
X186661Y210449D01*
X186674Y210531D01*
X186684Y210613D01*
X186689Y210696D01*
X186691Y210779D01*
X186119Y209445D02*
X182881Y205635D01*
X186691Y205635D01*
X185635Y177493D02*
X185635Y170635D01*
X185635Y177493D02*
X187540Y177493D01*
X187625Y177491D01*
X187711Y177485D01*
X187796Y177476D01*
X187880Y177462D01*
X187964Y177445D01*
X188047Y177424D01*
X188129Y177400D01*
X188209Y177372D01*
X188289Y177340D01*
X188367Y177304D01*
X188443Y177266D01*
X188517Y177223D01*
X188589Y177178D01*
X188660Y177129D01*
X188728Y177077D01*
X188793Y177023D01*
X188856Y176965D01*
X188917Y176904D01*
X188975Y176841D01*
X189029Y176776D01*
X189081Y176708D01*
X189130Y176637D01*
X189175Y176565D01*
X189218Y176491D01*
X189256Y176415D01*
X189292Y176337D01*
X189324Y176257D01*
X189352Y176177D01*
X189376Y176095D01*
X189397Y176012D01*
X189414Y175928D01*
X189428Y175844D01*
X189437Y175759D01*
X189443Y175673D01*
X189445Y175588D01*
X189443Y175503D01*
X189437Y175417D01*
X189428Y175332D01*
X189414Y175248D01*
X189397Y175164D01*
X189376Y175081D01*
X189352Y174999D01*
X189324Y174919D01*
X189292Y174839D01*
X189256Y174761D01*
X189218Y174685D01*
X189175Y174611D01*
X189130Y174539D01*
X189081Y174468D01*
X189029Y174400D01*
X188975Y174335D01*
X188917Y174272D01*
X188856Y174211D01*
X188793Y174153D01*
X188728Y174099D01*
X188660Y174047D01*
X188589Y173998D01*
X188517Y173953D01*
X188443Y173910D01*
X188367Y173872D01*
X188289Y173836D01*
X188209Y173804D01*
X188129Y173776D01*
X188047Y173752D01*
X187964Y173731D01*
X187880Y173714D01*
X187796Y173700D01*
X187711Y173691D01*
X187625Y173685D01*
X187540Y173683D01*
X185635Y173683D01*
X187921Y173683D02*
X189445Y170635D01*
X192881Y170635D02*
X194786Y170635D01*
X194871Y170637D01*
X194957Y170643D01*
X195042Y170652D01*
X195126Y170666D01*
X195210Y170683D01*
X195293Y170704D01*
X195375Y170728D01*
X195455Y170756D01*
X195535Y170788D01*
X195613Y170824D01*
X195689Y170862D01*
X195763Y170905D01*
X195835Y170950D01*
X195906Y170999D01*
X195974Y171051D01*
X196039Y171105D01*
X196102Y171163D01*
X196163Y171224D01*
X196221Y171287D01*
X196275Y171352D01*
X196327Y171420D01*
X196376Y171491D01*
X196421Y171563D01*
X196464Y171637D01*
X196502Y171713D01*
X196538Y171791D01*
X196570Y171871D01*
X196598Y171951D01*
X196622Y172033D01*
X196643Y172116D01*
X196660Y172200D01*
X196674Y172284D01*
X196683Y172369D01*
X196689Y172455D01*
X196691Y172540D01*
X196689Y172625D01*
X196683Y172711D01*
X196674Y172796D01*
X196660Y172880D01*
X196643Y172964D01*
X196622Y173047D01*
X196598Y173129D01*
X196570Y173209D01*
X196538Y173289D01*
X196502Y173367D01*
X196464Y173443D01*
X196421Y173517D01*
X196376Y173589D01*
X196327Y173660D01*
X196275Y173728D01*
X196221Y173793D01*
X196163Y173856D01*
X196102Y173917D01*
X196039Y173975D01*
X195974Y174029D01*
X195906Y174081D01*
X195835Y174130D01*
X195763Y174175D01*
X195689Y174218D01*
X195613Y174256D01*
X195535Y174292D01*
X195455Y174324D01*
X195375Y174352D01*
X195293Y174376D01*
X195210Y174397D01*
X195126Y174414D01*
X195042Y174428D01*
X194957Y174437D01*
X194871Y174443D01*
X194786Y174445D01*
X195167Y177493D02*
X192881Y177493D01*
X195167Y177493D02*
X195244Y177491D01*
X195321Y177485D01*
X195398Y177475D01*
X195474Y177462D01*
X195549Y177444D01*
X195623Y177423D01*
X195696Y177398D01*
X195768Y177369D01*
X195838Y177337D01*
X195907Y177302D01*
X195973Y177262D01*
X196038Y177220D01*
X196100Y177174D01*
X196160Y177125D01*
X196217Y177074D01*
X196272Y177019D01*
X196323Y176962D01*
X196372Y176902D01*
X196418Y176840D01*
X196460Y176775D01*
X196500Y176709D01*
X196535Y176640D01*
X196567Y176570D01*
X196596Y176498D01*
X196621Y176425D01*
X196642Y176351D01*
X196660Y176276D01*
X196673Y176200D01*
X196683Y176123D01*
X196689Y176046D01*
X196691Y175969D01*
X196689Y175892D01*
X196683Y175815D01*
X196673Y175738D01*
X196660Y175662D01*
X196642Y175587D01*
X196621Y175513D01*
X196596Y175440D01*
X196567Y175368D01*
X196535Y175298D01*
X196500Y175229D01*
X196460Y175163D01*
X196418Y175098D01*
X196372Y175036D01*
X196323Y174976D01*
X196272Y174919D01*
X196217Y174864D01*
X196160Y174813D01*
X196100Y174764D01*
X196038Y174718D01*
X195973Y174676D01*
X195907Y174636D01*
X195838Y174601D01*
X195768Y174569D01*
X195696Y174540D01*
X195623Y174515D01*
X195549Y174494D01*
X195474Y174476D01*
X195398Y174463D01*
X195321Y174453D01*
X195244Y174447D01*
X195167Y174445D01*
X193643Y174445D01*
X45635Y177493D02*
X45635Y170635D01*
X45635Y177493D02*
X47540Y177493D01*
X47625Y177491D01*
X47711Y177485D01*
X47796Y177476D01*
X47880Y177462D01*
X47964Y177445D01*
X48047Y177424D01*
X48129Y177400D01*
X48209Y177372D01*
X48289Y177340D01*
X48367Y177304D01*
X48443Y177266D01*
X48517Y177223D01*
X48589Y177178D01*
X48660Y177129D01*
X48728Y177077D01*
X48793Y177023D01*
X48856Y176965D01*
X48917Y176904D01*
X48975Y176841D01*
X49029Y176776D01*
X49081Y176708D01*
X49130Y176637D01*
X49175Y176565D01*
X49218Y176491D01*
X49256Y176415D01*
X49292Y176337D01*
X49324Y176257D01*
X49352Y176177D01*
X49376Y176095D01*
X49397Y176012D01*
X49414Y175928D01*
X49428Y175844D01*
X49437Y175759D01*
X49443Y175673D01*
X49445Y175588D01*
X49443Y175503D01*
X49437Y175417D01*
X49428Y175332D01*
X49414Y175248D01*
X49397Y175164D01*
X49376Y175081D01*
X49352Y174999D01*
X49324Y174919D01*
X49292Y174839D01*
X49256Y174761D01*
X49218Y174685D01*
X49175Y174611D01*
X49130Y174539D01*
X49081Y174468D01*
X49029Y174400D01*
X48975Y174335D01*
X48917Y174272D01*
X48856Y174211D01*
X48793Y174153D01*
X48728Y174099D01*
X48660Y174047D01*
X48589Y173998D01*
X48517Y173953D01*
X48443Y173910D01*
X48367Y173872D01*
X48289Y173836D01*
X48209Y173804D01*
X48129Y173776D01*
X48047Y173752D01*
X47964Y173731D01*
X47880Y173714D01*
X47796Y173700D01*
X47711Y173691D01*
X47625Y173685D01*
X47540Y173683D01*
X45635Y173683D01*
X47921Y173683D02*
X49445Y170635D01*
X52881Y172159D02*
X54405Y177493D01*
X52881Y172159D02*
X56691Y172159D01*
X55548Y173683D02*
X55548Y170635D01*
X55635Y240635D02*
X55635Y247493D01*
X57540Y247493D01*
X57625Y247491D01*
X57711Y247485D01*
X57796Y247476D01*
X57880Y247462D01*
X57964Y247445D01*
X58047Y247424D01*
X58129Y247400D01*
X58209Y247372D01*
X58289Y247340D01*
X58367Y247304D01*
X58443Y247266D01*
X58517Y247223D01*
X58589Y247178D01*
X58660Y247129D01*
X58728Y247077D01*
X58793Y247023D01*
X58856Y246965D01*
X58917Y246904D01*
X58975Y246841D01*
X59029Y246776D01*
X59081Y246708D01*
X59130Y246637D01*
X59175Y246565D01*
X59218Y246491D01*
X59256Y246415D01*
X59292Y246337D01*
X59324Y246257D01*
X59352Y246177D01*
X59376Y246095D01*
X59397Y246012D01*
X59414Y245928D01*
X59428Y245844D01*
X59437Y245759D01*
X59443Y245673D01*
X59445Y245588D01*
X59443Y245503D01*
X59437Y245417D01*
X59428Y245332D01*
X59414Y245248D01*
X59397Y245164D01*
X59376Y245081D01*
X59352Y244999D01*
X59324Y244919D01*
X59292Y244839D01*
X59256Y244761D01*
X59218Y244685D01*
X59175Y244611D01*
X59130Y244539D01*
X59081Y244468D01*
X59029Y244400D01*
X58975Y244335D01*
X58917Y244272D01*
X58856Y244211D01*
X58793Y244153D01*
X58728Y244099D01*
X58660Y244047D01*
X58589Y243998D01*
X58517Y243953D01*
X58443Y243910D01*
X58367Y243872D01*
X58289Y243836D01*
X58209Y243804D01*
X58129Y243776D01*
X58047Y243752D01*
X57964Y243731D01*
X57880Y243714D01*
X57796Y243700D01*
X57711Y243691D01*
X57625Y243685D01*
X57540Y243683D01*
X55635Y243683D01*
X57921Y243683D02*
X59445Y240635D01*
X62881Y240635D02*
X65167Y240635D01*
X65244Y240637D01*
X65321Y240643D01*
X65398Y240653D01*
X65474Y240666D01*
X65549Y240684D01*
X65623Y240705D01*
X65696Y240730D01*
X65768Y240759D01*
X65838Y240791D01*
X65907Y240826D01*
X65973Y240866D01*
X66038Y240908D01*
X66100Y240954D01*
X66160Y241003D01*
X66217Y241054D01*
X66272Y241109D01*
X66323Y241166D01*
X66372Y241226D01*
X66418Y241288D01*
X66460Y241353D01*
X66500Y241419D01*
X66535Y241488D01*
X66567Y241558D01*
X66596Y241630D01*
X66621Y241703D01*
X66642Y241777D01*
X66660Y241852D01*
X66673Y241928D01*
X66683Y242005D01*
X66689Y242082D01*
X66691Y242159D01*
X66691Y242921D01*
X66689Y242998D01*
X66683Y243075D01*
X66673Y243152D01*
X66660Y243228D01*
X66642Y243303D01*
X66621Y243377D01*
X66596Y243450D01*
X66567Y243522D01*
X66535Y243592D01*
X66500Y243661D01*
X66460Y243727D01*
X66418Y243792D01*
X66372Y243854D01*
X66323Y243914D01*
X66272Y243971D01*
X66217Y244026D01*
X66160Y244077D01*
X66100Y244126D01*
X66038Y244172D01*
X65973Y244214D01*
X65907Y244254D01*
X65838Y244289D01*
X65768Y244321D01*
X65696Y244350D01*
X65623Y244375D01*
X65549Y244396D01*
X65474Y244414D01*
X65398Y244427D01*
X65321Y244437D01*
X65244Y244443D01*
X65167Y244445D01*
X62881Y244445D01*
X62881Y247493D01*
X66691Y247493D01*
X55635Y212493D02*
X55635Y205635D01*
X55635Y212493D02*
X57540Y212493D01*
X57625Y212491D01*
X57711Y212485D01*
X57796Y212476D01*
X57880Y212462D01*
X57964Y212445D01*
X58047Y212424D01*
X58129Y212400D01*
X58209Y212372D01*
X58289Y212340D01*
X58367Y212304D01*
X58443Y212266D01*
X58517Y212223D01*
X58589Y212178D01*
X58660Y212129D01*
X58728Y212077D01*
X58793Y212023D01*
X58856Y211965D01*
X58917Y211904D01*
X58975Y211841D01*
X59029Y211776D01*
X59081Y211708D01*
X59130Y211637D01*
X59175Y211565D01*
X59218Y211491D01*
X59256Y211415D01*
X59292Y211337D01*
X59324Y211257D01*
X59352Y211177D01*
X59376Y211095D01*
X59397Y211012D01*
X59414Y210928D01*
X59428Y210844D01*
X59437Y210759D01*
X59443Y210673D01*
X59445Y210588D01*
X59443Y210503D01*
X59437Y210417D01*
X59428Y210332D01*
X59414Y210248D01*
X59397Y210164D01*
X59376Y210081D01*
X59352Y209999D01*
X59324Y209919D01*
X59292Y209839D01*
X59256Y209761D01*
X59218Y209685D01*
X59175Y209611D01*
X59130Y209539D01*
X59081Y209468D01*
X59029Y209400D01*
X58975Y209335D01*
X58917Y209272D01*
X58856Y209211D01*
X58793Y209153D01*
X58728Y209099D01*
X58660Y209047D01*
X58589Y208998D01*
X58517Y208953D01*
X58443Y208910D01*
X58367Y208872D01*
X58289Y208836D01*
X58209Y208804D01*
X58129Y208776D01*
X58047Y208752D01*
X57964Y208731D01*
X57880Y208714D01*
X57796Y208700D01*
X57711Y208691D01*
X57625Y208685D01*
X57540Y208683D01*
X55635Y208683D01*
X57921Y208683D02*
X59445Y205635D01*
X62881Y209445D02*
X65167Y209445D01*
X65244Y209443D01*
X65321Y209437D01*
X65398Y209427D01*
X65474Y209414D01*
X65549Y209396D01*
X65623Y209375D01*
X65696Y209350D01*
X65768Y209321D01*
X65838Y209289D01*
X65907Y209254D01*
X65973Y209214D01*
X66038Y209172D01*
X66100Y209126D01*
X66160Y209077D01*
X66217Y209026D01*
X66272Y208971D01*
X66323Y208914D01*
X66372Y208854D01*
X66418Y208792D01*
X66460Y208727D01*
X66500Y208661D01*
X66535Y208592D01*
X66567Y208522D01*
X66596Y208450D01*
X66621Y208377D01*
X66642Y208303D01*
X66660Y208228D01*
X66673Y208152D01*
X66683Y208075D01*
X66689Y207998D01*
X66691Y207921D01*
X66691Y207540D01*
X66689Y207455D01*
X66683Y207369D01*
X66674Y207284D01*
X66660Y207200D01*
X66643Y207116D01*
X66622Y207033D01*
X66598Y206951D01*
X66570Y206871D01*
X66538Y206791D01*
X66502Y206713D01*
X66464Y206637D01*
X66421Y206563D01*
X66376Y206491D01*
X66327Y206420D01*
X66275Y206352D01*
X66221Y206287D01*
X66163Y206224D01*
X66102Y206163D01*
X66039Y206105D01*
X65974Y206051D01*
X65906Y205999D01*
X65835Y205950D01*
X65763Y205905D01*
X65689Y205862D01*
X65613Y205824D01*
X65535Y205788D01*
X65455Y205756D01*
X65375Y205728D01*
X65293Y205704D01*
X65210Y205683D01*
X65126Y205666D01*
X65042Y205652D01*
X64957Y205643D01*
X64871Y205637D01*
X64786Y205635D01*
X64701Y205637D01*
X64615Y205643D01*
X64530Y205652D01*
X64446Y205666D01*
X64362Y205683D01*
X64279Y205704D01*
X64197Y205728D01*
X64117Y205756D01*
X64037Y205788D01*
X63959Y205824D01*
X63883Y205862D01*
X63809Y205905D01*
X63737Y205950D01*
X63666Y205999D01*
X63598Y206051D01*
X63533Y206105D01*
X63470Y206163D01*
X63409Y206224D01*
X63351Y206287D01*
X63297Y206352D01*
X63245Y206420D01*
X63196Y206491D01*
X63151Y206563D01*
X63108Y206637D01*
X63070Y206713D01*
X63034Y206791D01*
X63002Y206871D01*
X62974Y206951D01*
X62950Y207033D01*
X62929Y207116D01*
X62912Y207200D01*
X62898Y207284D01*
X62889Y207369D01*
X62883Y207455D01*
X62881Y207540D01*
X62881Y209445D01*
X62883Y209554D01*
X62889Y209662D01*
X62898Y209771D01*
X62912Y209879D01*
X62929Y209986D01*
X62951Y210093D01*
X62976Y210199D01*
X63004Y210304D01*
X63037Y210408D01*
X63073Y210510D01*
X63113Y210611D01*
X63156Y210711D01*
X63203Y210809D01*
X63254Y210906D01*
X63308Y211000D01*
X63365Y211093D01*
X63425Y211183D01*
X63489Y211272D01*
X63556Y211358D01*
X63625Y211441D01*
X63698Y211522D01*
X63774Y211600D01*
X63852Y211676D01*
X63933Y211749D01*
X64016Y211818D01*
X64102Y211885D01*
X64191Y211949D01*
X64281Y212009D01*
X64374Y212066D01*
X64468Y212120D01*
X64565Y212171D01*
X64663Y212218D01*
X64763Y212261D01*
X64864Y212301D01*
X64966Y212337D01*
X65070Y212370D01*
X65175Y212398D01*
X65281Y212423D01*
X65388Y212445D01*
X65495Y212462D01*
X65603Y212476D01*
X65712Y212485D01*
X65820Y212491D01*
X65929Y212493D01*
X187159Y135635D02*
X188683Y135635D01*
X187159Y135635D02*
X187082Y135637D01*
X187005Y135643D01*
X186928Y135653D01*
X186852Y135666D01*
X186777Y135684D01*
X186703Y135705D01*
X186630Y135730D01*
X186558Y135759D01*
X186488Y135791D01*
X186419Y135826D01*
X186353Y135866D01*
X186288Y135908D01*
X186226Y135954D01*
X186166Y136003D01*
X186109Y136054D01*
X186054Y136109D01*
X186003Y136166D01*
X185954Y136226D01*
X185908Y136288D01*
X185866Y136353D01*
X185826Y136419D01*
X185791Y136488D01*
X185759Y136558D01*
X185730Y136630D01*
X185705Y136703D01*
X185684Y136777D01*
X185666Y136852D01*
X185653Y136928D01*
X185643Y137005D01*
X185637Y137082D01*
X185635Y137159D01*
X185635Y140969D01*
X185637Y141046D01*
X185643Y141123D01*
X185653Y141200D01*
X185666Y141276D01*
X185684Y141351D01*
X185705Y141425D01*
X185730Y141498D01*
X185759Y141570D01*
X185791Y141640D01*
X185826Y141709D01*
X185866Y141775D01*
X185908Y141840D01*
X185954Y141902D01*
X186003Y141962D01*
X186054Y142019D01*
X186109Y142074D01*
X186166Y142125D01*
X186226Y142174D01*
X186288Y142220D01*
X186353Y142262D01*
X186419Y142302D01*
X186488Y142337D01*
X186558Y142369D01*
X186630Y142398D01*
X186703Y142423D01*
X186777Y142444D01*
X186852Y142462D01*
X186928Y142475D01*
X187005Y142485D01*
X187082Y142491D01*
X187159Y142493D01*
X188683Y142493D01*
X191762Y140969D02*
X193667Y142493D01*
X193667Y135635D01*
X191762Y135635D02*
X195572Y135635D01*
X118683Y145635D02*
X117159Y145635D01*
X117082Y145637D01*
X117005Y145643D01*
X116928Y145653D01*
X116852Y145666D01*
X116777Y145684D01*
X116703Y145705D01*
X116630Y145730D01*
X116558Y145759D01*
X116488Y145791D01*
X116419Y145826D01*
X116353Y145866D01*
X116288Y145908D01*
X116226Y145954D01*
X116166Y146003D01*
X116109Y146054D01*
X116054Y146109D01*
X116003Y146166D01*
X115954Y146226D01*
X115908Y146288D01*
X115866Y146353D01*
X115826Y146419D01*
X115791Y146488D01*
X115759Y146558D01*
X115730Y146630D01*
X115705Y146703D01*
X115684Y146777D01*
X115666Y146852D01*
X115653Y146928D01*
X115643Y147005D01*
X115637Y147082D01*
X115635Y147159D01*
X115635Y150969D01*
X115637Y151046D01*
X115643Y151123D01*
X115653Y151200D01*
X115666Y151276D01*
X115684Y151351D01*
X115705Y151425D01*
X115730Y151498D01*
X115759Y151570D01*
X115791Y151640D01*
X115826Y151709D01*
X115866Y151775D01*
X115908Y151840D01*
X115954Y151902D01*
X116003Y151962D01*
X116054Y152019D01*
X116109Y152074D01*
X116166Y152125D01*
X116226Y152174D01*
X116288Y152220D01*
X116353Y152262D01*
X116419Y152302D01*
X116488Y152337D01*
X116558Y152369D01*
X116630Y152398D01*
X116703Y152423D01*
X116777Y152444D01*
X116852Y152462D01*
X116928Y152475D01*
X117005Y152485D01*
X117082Y152491D01*
X117159Y152493D01*
X118683Y152493D01*
X123858Y152494D02*
X123940Y152492D01*
X124021Y152486D01*
X124102Y152477D01*
X124183Y152463D01*
X124262Y152446D01*
X124341Y152425D01*
X124419Y152400D01*
X124495Y152371D01*
X124570Y152339D01*
X124644Y152303D01*
X124716Y152264D01*
X124785Y152222D01*
X124853Y152176D01*
X124918Y152127D01*
X124981Y152075D01*
X125041Y152020D01*
X125099Y151962D01*
X125154Y151902D01*
X125206Y151839D01*
X125255Y151774D01*
X125301Y151706D01*
X125343Y151637D01*
X125382Y151565D01*
X125418Y151491D01*
X125450Y151416D01*
X125479Y151340D01*
X125504Y151262D01*
X125525Y151183D01*
X125542Y151104D01*
X125556Y151023D01*
X125565Y150942D01*
X125571Y150861D01*
X125573Y150779D01*
X123858Y152493D02*
X123766Y152491D01*
X123674Y152485D01*
X123582Y152476D01*
X123490Y152462D01*
X123400Y152445D01*
X123310Y152424D01*
X123221Y152399D01*
X123133Y152370D01*
X123046Y152338D01*
X122961Y152302D01*
X122878Y152263D01*
X122796Y152220D01*
X122716Y152174D01*
X122638Y152124D01*
X122562Y152072D01*
X122489Y152016D01*
X122418Y151957D01*
X122349Y151895D01*
X122283Y151830D01*
X122220Y151763D01*
X122160Y151693D01*
X122102Y151621D01*
X122048Y151546D01*
X121997Y151469D01*
X121949Y151390D01*
X121905Y151309D01*
X121864Y151226D01*
X121826Y151142D01*
X121792Y151056D01*
X121762Y150969D01*
X125001Y149445D02*
X125060Y149504D01*
X125116Y149565D01*
X125169Y149628D01*
X125220Y149694D01*
X125267Y149762D01*
X125311Y149832D01*
X125352Y149904D01*
X125390Y149978D01*
X125424Y150053D01*
X125455Y150130D01*
X125482Y150208D01*
X125506Y150288D01*
X125527Y150368D01*
X125543Y150449D01*
X125556Y150531D01*
X125566Y150613D01*
X125571Y150696D01*
X125573Y150779D01*
X125001Y149445D02*
X121762Y145635D01*
X125572Y145635D01*
X177159Y240635D02*
X178683Y240635D01*
X177159Y240635D02*
X177082Y240637D01*
X177005Y240643D01*
X176928Y240653D01*
X176852Y240666D01*
X176777Y240684D01*
X176703Y240705D01*
X176630Y240730D01*
X176558Y240759D01*
X176488Y240791D01*
X176419Y240826D01*
X176353Y240866D01*
X176288Y240908D01*
X176226Y240954D01*
X176166Y241003D01*
X176109Y241054D01*
X176054Y241109D01*
X176003Y241166D01*
X175954Y241226D01*
X175908Y241288D01*
X175866Y241353D01*
X175826Y241419D01*
X175791Y241488D01*
X175759Y241558D01*
X175730Y241630D01*
X175705Y241703D01*
X175684Y241777D01*
X175666Y241852D01*
X175653Y241928D01*
X175643Y242005D01*
X175637Y242082D01*
X175635Y242159D01*
X175635Y245969D01*
X175637Y246046D01*
X175643Y246123D01*
X175653Y246200D01*
X175666Y246276D01*
X175684Y246351D01*
X175705Y246425D01*
X175730Y246498D01*
X175759Y246570D01*
X175791Y246640D01*
X175826Y246709D01*
X175866Y246775D01*
X175908Y246840D01*
X175954Y246902D01*
X176003Y246962D01*
X176054Y247019D01*
X176109Y247074D01*
X176166Y247125D01*
X176226Y247174D01*
X176288Y247220D01*
X176353Y247262D01*
X176419Y247302D01*
X176488Y247337D01*
X176558Y247369D01*
X176630Y247398D01*
X176703Y247423D01*
X176777Y247444D01*
X176852Y247462D01*
X176928Y247475D01*
X177005Y247485D01*
X177082Y247491D01*
X177159Y247493D01*
X178683Y247493D01*
X181762Y240635D02*
X183667Y240635D01*
X183752Y240637D01*
X183838Y240643D01*
X183923Y240652D01*
X184007Y240666D01*
X184091Y240683D01*
X184174Y240704D01*
X184256Y240728D01*
X184336Y240756D01*
X184416Y240788D01*
X184494Y240824D01*
X184570Y240862D01*
X184644Y240905D01*
X184716Y240950D01*
X184787Y240999D01*
X184855Y241051D01*
X184920Y241105D01*
X184983Y241163D01*
X185044Y241224D01*
X185102Y241287D01*
X185156Y241352D01*
X185208Y241420D01*
X185257Y241491D01*
X185302Y241563D01*
X185345Y241637D01*
X185383Y241713D01*
X185419Y241791D01*
X185451Y241871D01*
X185479Y241951D01*
X185503Y242033D01*
X185524Y242116D01*
X185541Y242200D01*
X185555Y242284D01*
X185564Y242369D01*
X185570Y242455D01*
X185572Y242540D01*
X185570Y242625D01*
X185564Y242711D01*
X185555Y242796D01*
X185541Y242880D01*
X185524Y242964D01*
X185503Y243047D01*
X185479Y243129D01*
X185451Y243209D01*
X185419Y243289D01*
X185383Y243367D01*
X185345Y243443D01*
X185302Y243517D01*
X185257Y243589D01*
X185208Y243660D01*
X185156Y243728D01*
X185102Y243793D01*
X185044Y243856D01*
X184983Y243917D01*
X184920Y243975D01*
X184855Y244029D01*
X184787Y244081D01*
X184716Y244130D01*
X184644Y244175D01*
X184570Y244218D01*
X184494Y244256D01*
X184416Y244292D01*
X184336Y244324D01*
X184256Y244352D01*
X184174Y244376D01*
X184091Y244397D01*
X184007Y244414D01*
X183923Y244428D01*
X183838Y244437D01*
X183752Y244443D01*
X183667Y244445D01*
X184048Y247493D02*
X181762Y247493D01*
X184048Y247493D02*
X184125Y247491D01*
X184202Y247485D01*
X184279Y247475D01*
X184355Y247462D01*
X184430Y247444D01*
X184504Y247423D01*
X184577Y247398D01*
X184649Y247369D01*
X184719Y247337D01*
X184788Y247302D01*
X184854Y247262D01*
X184919Y247220D01*
X184981Y247174D01*
X185041Y247125D01*
X185098Y247074D01*
X185153Y247019D01*
X185204Y246962D01*
X185253Y246902D01*
X185299Y246840D01*
X185341Y246775D01*
X185381Y246709D01*
X185416Y246640D01*
X185448Y246570D01*
X185477Y246498D01*
X185502Y246425D01*
X185523Y246351D01*
X185541Y246276D01*
X185554Y246200D01*
X185564Y246123D01*
X185570Y246046D01*
X185572Y245969D01*
X185570Y245892D01*
X185564Y245815D01*
X185554Y245738D01*
X185541Y245662D01*
X185523Y245587D01*
X185502Y245513D01*
X185477Y245440D01*
X185448Y245368D01*
X185416Y245298D01*
X185381Y245229D01*
X185341Y245163D01*
X185299Y245098D01*
X185253Y245036D01*
X185204Y244976D01*
X185153Y244919D01*
X185098Y244864D01*
X185041Y244813D01*
X184981Y244764D01*
X184919Y244718D01*
X184854Y244676D01*
X184788Y244636D01*
X184719Y244601D01*
X184649Y244569D01*
X184577Y244540D01*
X184504Y244515D01*
X184430Y244494D01*
X184355Y244476D01*
X184279Y244463D01*
X184202Y244453D01*
X184125Y244447D01*
X184048Y244445D01*
X182524Y244445D01*
D14*
X40588Y218492D02*
X35508Y218492D01*
X40588Y218492D02*
X40588Y217081D01*
X40586Y217007D01*
X40580Y216934D01*
X40571Y216860D01*
X40557Y216788D01*
X40540Y216716D01*
X40519Y216645D01*
X40494Y216575D01*
X40466Y216507D01*
X40434Y216440D01*
X40399Y216376D01*
X40360Y216313D01*
X40319Y216252D01*
X40274Y216193D01*
X40226Y216137D01*
X40175Y216083D01*
X40121Y216032D01*
X40065Y215984D01*
X40006Y215939D01*
X39945Y215898D01*
X39883Y215859D01*
X39818Y215824D01*
X39751Y215792D01*
X39683Y215764D01*
X39613Y215739D01*
X39542Y215718D01*
X39470Y215701D01*
X39398Y215687D01*
X39324Y215678D01*
X39251Y215672D01*
X39177Y215670D01*
X39103Y215672D01*
X39030Y215678D01*
X38956Y215687D01*
X38884Y215701D01*
X38812Y215718D01*
X38741Y215739D01*
X38671Y215764D01*
X38603Y215792D01*
X38536Y215824D01*
X38472Y215859D01*
X38409Y215898D01*
X38348Y215939D01*
X38289Y215984D01*
X38233Y216032D01*
X38179Y216083D01*
X38128Y216137D01*
X38080Y216193D01*
X38035Y216252D01*
X37994Y216313D01*
X37955Y216376D01*
X37920Y216440D01*
X37888Y216507D01*
X37860Y216575D01*
X37835Y216645D01*
X37814Y216716D01*
X37797Y216788D01*
X37783Y216860D01*
X37774Y216934D01*
X37768Y217007D01*
X37766Y217081D01*
X37766Y218492D01*
X37766Y216799D02*
X35508Y215670D01*
X35508Y211550D02*
X35510Y211484D01*
X35516Y211419D01*
X35525Y211354D01*
X35538Y211290D01*
X35555Y211226D01*
X35576Y211164D01*
X35600Y211103D01*
X35628Y211043D01*
X35659Y210986D01*
X35694Y210930D01*
X35731Y210876D01*
X35772Y210824D01*
X35816Y210775D01*
X35862Y210729D01*
X35911Y210685D01*
X35963Y210644D01*
X36017Y210607D01*
X36072Y210572D01*
X36130Y210541D01*
X36190Y210513D01*
X36251Y210489D01*
X36313Y210468D01*
X36377Y210451D01*
X36441Y210438D01*
X36506Y210429D01*
X36571Y210423D01*
X36637Y210421D01*
X35508Y211550D02*
X35510Y211644D01*
X35515Y211738D01*
X35525Y211832D01*
X35538Y211925D01*
X35554Y212018D01*
X35575Y212110D01*
X35598Y212201D01*
X35626Y212291D01*
X35657Y212380D01*
X35691Y212467D01*
X35729Y212553D01*
X35771Y212638D01*
X35815Y212721D01*
X35863Y212802D01*
X35914Y212881D01*
X35968Y212958D01*
X36025Y213033D01*
X36085Y213106D01*
X36148Y213176D01*
X36214Y213243D01*
X39459Y213102D02*
X39525Y213100D01*
X39590Y213094D01*
X39655Y213085D01*
X39719Y213072D01*
X39783Y213055D01*
X39845Y213034D01*
X39906Y213010D01*
X39966Y212982D01*
X40024Y212951D01*
X40079Y212916D01*
X40133Y212879D01*
X40185Y212838D01*
X40234Y212794D01*
X40280Y212748D01*
X40324Y212699D01*
X40365Y212647D01*
X40402Y212593D01*
X40437Y212538D01*
X40468Y212480D01*
X40496Y212420D01*
X40520Y212359D01*
X40541Y212297D01*
X40558Y212233D01*
X40571Y212169D01*
X40580Y212104D01*
X40586Y212039D01*
X40588Y211973D01*
X40586Y211882D01*
X40580Y211792D01*
X40570Y211701D01*
X40557Y211611D01*
X40539Y211522D01*
X40518Y211434D01*
X40493Y211347D01*
X40465Y211261D01*
X40432Y211176D01*
X40396Y211092D01*
X40357Y211011D01*
X40314Y210931D01*
X40267Y210853D01*
X40218Y210777D01*
X40165Y210703D01*
X38471Y212537D02*
X38506Y212593D01*
X38544Y212647D01*
X38586Y212699D01*
X38630Y212748D01*
X38677Y212794D01*
X38727Y212838D01*
X38779Y212879D01*
X38833Y212916D01*
X38890Y212951D01*
X38948Y212982D01*
X39008Y213010D01*
X39070Y213034D01*
X39133Y213055D01*
X39197Y213072D01*
X39262Y213085D01*
X39327Y213094D01*
X39393Y213100D01*
X39459Y213102D01*
X37624Y210985D02*
X37589Y210929D01*
X37551Y210875D01*
X37509Y210824D01*
X37465Y210775D01*
X37418Y210728D01*
X37368Y210685D01*
X37316Y210644D01*
X37262Y210606D01*
X37206Y210572D01*
X37147Y210541D01*
X37087Y210513D01*
X37026Y210489D01*
X36963Y210468D01*
X36899Y210451D01*
X36834Y210438D01*
X36769Y210429D01*
X36703Y210423D01*
X36637Y210421D01*
X37625Y210985D02*
X38471Y212537D01*
X40588Y206894D02*
X35508Y206894D01*
X40588Y208305D02*
X40588Y205483D01*
X40588Y252928D02*
X35508Y252928D01*
X35508Y253492D02*
X35508Y252363D01*
X40588Y252363D02*
X40588Y253492D01*
X39177Y249950D02*
X36919Y249950D01*
X39177Y249949D02*
X39251Y249947D01*
X39324Y249941D01*
X39398Y249932D01*
X39470Y249918D01*
X39542Y249901D01*
X39613Y249880D01*
X39683Y249855D01*
X39751Y249827D01*
X39818Y249795D01*
X39882Y249760D01*
X39945Y249721D01*
X40006Y249680D01*
X40065Y249635D01*
X40121Y249587D01*
X40175Y249536D01*
X40226Y249482D01*
X40274Y249426D01*
X40319Y249367D01*
X40360Y249306D01*
X40399Y249244D01*
X40434Y249179D01*
X40466Y249112D01*
X40494Y249044D01*
X40519Y248974D01*
X40540Y248903D01*
X40557Y248831D01*
X40571Y248759D01*
X40580Y248685D01*
X40586Y248612D01*
X40588Y248538D01*
X40586Y248464D01*
X40580Y248391D01*
X40571Y248317D01*
X40557Y248245D01*
X40540Y248173D01*
X40519Y248102D01*
X40494Y248032D01*
X40466Y247964D01*
X40434Y247897D01*
X40399Y247833D01*
X40360Y247770D01*
X40319Y247709D01*
X40274Y247650D01*
X40226Y247594D01*
X40175Y247540D01*
X40121Y247489D01*
X40065Y247441D01*
X40006Y247396D01*
X39945Y247355D01*
X39883Y247316D01*
X39818Y247281D01*
X39751Y247249D01*
X39683Y247221D01*
X39613Y247196D01*
X39542Y247175D01*
X39470Y247158D01*
X39398Y247144D01*
X39324Y247135D01*
X39251Y247129D01*
X39177Y247127D01*
X36919Y247127D01*
X36845Y247129D01*
X36772Y247135D01*
X36698Y247144D01*
X36626Y247158D01*
X36554Y247175D01*
X36483Y247196D01*
X36413Y247221D01*
X36345Y247249D01*
X36278Y247281D01*
X36213Y247316D01*
X36151Y247355D01*
X36090Y247396D01*
X36031Y247441D01*
X35975Y247489D01*
X35921Y247540D01*
X35870Y247594D01*
X35822Y247650D01*
X35777Y247709D01*
X35736Y247770D01*
X35697Y247833D01*
X35662Y247897D01*
X35630Y247964D01*
X35602Y248032D01*
X35577Y248102D01*
X35556Y248173D01*
X35539Y248245D01*
X35525Y248317D01*
X35516Y248391D01*
X35510Y248464D01*
X35508Y248538D01*
X35510Y248612D01*
X35516Y248685D01*
X35525Y248759D01*
X35539Y248831D01*
X35556Y248903D01*
X35577Y248974D01*
X35602Y249044D01*
X35630Y249112D01*
X35662Y249179D01*
X35697Y249244D01*
X35736Y249306D01*
X35777Y249367D01*
X35822Y249426D01*
X35870Y249482D01*
X35921Y249536D01*
X35975Y249587D01*
X36031Y249635D01*
X36090Y249680D01*
X36151Y249721D01*
X36214Y249760D01*
X36278Y249795D01*
X36345Y249827D01*
X36413Y249855D01*
X36483Y249880D01*
X36554Y249901D01*
X36626Y249918D01*
X36698Y249932D01*
X36772Y249941D01*
X36845Y249947D01*
X36919Y249949D01*
X39459Y244463D02*
X40588Y243052D01*
X35508Y243052D01*
X35508Y244463D02*
X35508Y241641D01*
X38330Y238977D02*
X38330Y237284D01*
X38328Y237218D01*
X38322Y237153D01*
X38313Y237088D01*
X38300Y237024D01*
X38283Y236960D01*
X38262Y236898D01*
X38238Y236837D01*
X38210Y236777D01*
X38179Y236720D01*
X38144Y236664D01*
X38107Y236610D01*
X38066Y236558D01*
X38022Y236509D01*
X37976Y236463D01*
X37927Y236419D01*
X37875Y236378D01*
X37821Y236341D01*
X37766Y236306D01*
X37708Y236275D01*
X37648Y236247D01*
X37587Y236223D01*
X37525Y236202D01*
X37461Y236185D01*
X37397Y236172D01*
X37332Y236163D01*
X37267Y236157D01*
X37201Y236155D01*
X36919Y236155D01*
X36845Y236157D01*
X36772Y236163D01*
X36698Y236172D01*
X36626Y236186D01*
X36554Y236203D01*
X36483Y236224D01*
X36413Y236249D01*
X36345Y236277D01*
X36278Y236309D01*
X36213Y236344D01*
X36151Y236383D01*
X36090Y236424D01*
X36031Y236469D01*
X35975Y236517D01*
X35921Y236568D01*
X35870Y236622D01*
X35822Y236678D01*
X35777Y236737D01*
X35736Y236798D01*
X35697Y236861D01*
X35662Y236925D01*
X35630Y236992D01*
X35602Y237060D01*
X35577Y237130D01*
X35556Y237201D01*
X35539Y237273D01*
X35525Y237345D01*
X35516Y237419D01*
X35510Y237492D01*
X35508Y237566D01*
X35510Y237640D01*
X35516Y237713D01*
X35525Y237787D01*
X35539Y237859D01*
X35556Y237931D01*
X35577Y238002D01*
X35602Y238072D01*
X35630Y238140D01*
X35662Y238207D01*
X35697Y238272D01*
X35736Y238334D01*
X35777Y238395D01*
X35822Y238454D01*
X35870Y238510D01*
X35921Y238564D01*
X35975Y238615D01*
X36031Y238663D01*
X36090Y238708D01*
X36151Y238749D01*
X36214Y238788D01*
X36278Y238823D01*
X36345Y238855D01*
X36413Y238883D01*
X36483Y238908D01*
X36554Y238929D01*
X36626Y238946D01*
X36698Y238960D01*
X36772Y238969D01*
X36845Y238975D01*
X36919Y238977D01*
X38330Y238977D01*
X38423Y238975D01*
X38516Y238969D01*
X38609Y238960D01*
X38702Y238946D01*
X38793Y238929D01*
X38884Y238908D01*
X38974Y238883D01*
X39063Y238855D01*
X39151Y238823D01*
X39237Y238787D01*
X39322Y238748D01*
X39405Y238705D01*
X39486Y238659D01*
X39565Y238609D01*
X39642Y238557D01*
X39717Y238501D01*
X39789Y238442D01*
X39859Y238380D01*
X39927Y238316D01*
X39991Y238248D01*
X40053Y238178D01*
X40112Y238106D01*
X40168Y238031D01*
X40220Y237954D01*
X40270Y237875D01*
X40316Y237794D01*
X40359Y237711D01*
X40398Y237626D01*
X40434Y237540D01*
X40466Y237452D01*
X40494Y237363D01*
X40519Y237273D01*
X40540Y237182D01*
X40557Y237091D01*
X40571Y236998D01*
X40580Y236905D01*
X40586Y236812D01*
X40588Y236719D01*
X40588Y119492D02*
X35508Y119492D01*
X40588Y119492D02*
X40588Y118081D01*
X40586Y118007D01*
X40580Y117934D01*
X40571Y117860D01*
X40557Y117788D01*
X40540Y117716D01*
X40519Y117645D01*
X40494Y117575D01*
X40466Y117507D01*
X40434Y117440D01*
X40399Y117376D01*
X40360Y117313D01*
X40319Y117252D01*
X40274Y117193D01*
X40226Y117137D01*
X40175Y117083D01*
X40121Y117032D01*
X40065Y116984D01*
X40006Y116939D01*
X39945Y116898D01*
X39883Y116859D01*
X39818Y116824D01*
X39751Y116792D01*
X39683Y116764D01*
X39613Y116739D01*
X39542Y116718D01*
X39470Y116701D01*
X39398Y116687D01*
X39324Y116678D01*
X39251Y116672D01*
X39177Y116670D01*
X39103Y116672D01*
X39030Y116678D01*
X38956Y116687D01*
X38884Y116701D01*
X38812Y116718D01*
X38741Y116739D01*
X38671Y116764D01*
X38603Y116792D01*
X38536Y116824D01*
X38472Y116859D01*
X38409Y116898D01*
X38348Y116939D01*
X38289Y116984D01*
X38233Y117032D01*
X38179Y117083D01*
X38128Y117137D01*
X38080Y117193D01*
X38035Y117252D01*
X37994Y117313D01*
X37955Y117376D01*
X37920Y117440D01*
X37888Y117507D01*
X37860Y117575D01*
X37835Y117645D01*
X37814Y117716D01*
X37797Y117788D01*
X37783Y117860D01*
X37774Y117934D01*
X37768Y118007D01*
X37766Y118081D01*
X37766Y119492D01*
X37766Y117799D02*
X35508Y116670D01*
X35508Y114342D02*
X40588Y110956D01*
X40588Y114342D02*
X35508Y110956D01*
X35508Y150581D02*
X40588Y150581D01*
X40588Y151992D02*
X40588Y149170D01*
X40588Y143767D02*
X35508Y147154D01*
X35508Y143767D02*
X40588Y147154D01*
X41152Y184234D02*
X34944Y186492D01*
X35508Y180326D02*
X35510Y180260D01*
X35516Y180195D01*
X35525Y180130D01*
X35538Y180066D01*
X35555Y180002D01*
X35576Y179940D01*
X35600Y179879D01*
X35628Y179819D01*
X35659Y179762D01*
X35694Y179706D01*
X35731Y179652D01*
X35772Y179600D01*
X35816Y179551D01*
X35862Y179505D01*
X35911Y179461D01*
X35963Y179420D01*
X36017Y179383D01*
X36072Y179348D01*
X36130Y179317D01*
X36190Y179289D01*
X36251Y179265D01*
X36313Y179244D01*
X36377Y179227D01*
X36441Y179214D01*
X36506Y179205D01*
X36571Y179199D01*
X36637Y179197D01*
X35508Y180326D02*
X35510Y180420D01*
X35515Y180514D01*
X35525Y180608D01*
X35538Y180701D01*
X35554Y180794D01*
X35575Y180886D01*
X35598Y180977D01*
X35626Y181067D01*
X35657Y181156D01*
X35691Y181243D01*
X35729Y181329D01*
X35771Y181414D01*
X35815Y181497D01*
X35863Y181578D01*
X35914Y181657D01*
X35968Y181734D01*
X36025Y181809D01*
X36085Y181882D01*
X36148Y181952D01*
X36214Y182019D01*
X39459Y181878D02*
X39525Y181876D01*
X39590Y181870D01*
X39655Y181861D01*
X39719Y181848D01*
X39783Y181831D01*
X39845Y181810D01*
X39906Y181786D01*
X39966Y181758D01*
X40024Y181727D01*
X40079Y181692D01*
X40133Y181655D01*
X40185Y181614D01*
X40234Y181570D01*
X40280Y181524D01*
X40324Y181475D01*
X40365Y181423D01*
X40402Y181369D01*
X40437Y181314D01*
X40468Y181256D01*
X40496Y181196D01*
X40520Y181135D01*
X40541Y181073D01*
X40558Y181009D01*
X40571Y180945D01*
X40580Y180880D01*
X40586Y180815D01*
X40588Y180749D01*
X40586Y180658D01*
X40580Y180568D01*
X40570Y180477D01*
X40557Y180387D01*
X40539Y180298D01*
X40518Y180210D01*
X40493Y180123D01*
X40465Y180037D01*
X40432Y179952D01*
X40396Y179868D01*
X40357Y179787D01*
X40314Y179707D01*
X40267Y179629D01*
X40218Y179553D01*
X40165Y179479D01*
X38471Y181314D02*
X38506Y181370D01*
X38544Y181424D01*
X38586Y181476D01*
X38630Y181525D01*
X38677Y181571D01*
X38727Y181615D01*
X38779Y181656D01*
X38833Y181693D01*
X38890Y181728D01*
X38948Y181759D01*
X39008Y181787D01*
X39070Y181811D01*
X39133Y181832D01*
X39197Y181849D01*
X39262Y181862D01*
X39327Y181871D01*
X39393Y181877D01*
X39459Y181879D01*
X37624Y179762D02*
X37589Y179706D01*
X37551Y179652D01*
X37509Y179601D01*
X37465Y179552D01*
X37418Y179505D01*
X37368Y179462D01*
X37316Y179421D01*
X37262Y179383D01*
X37206Y179349D01*
X37147Y179318D01*
X37087Y179290D01*
X37026Y179266D01*
X36963Y179245D01*
X36899Y179228D01*
X36834Y179215D01*
X36769Y179206D01*
X36703Y179200D01*
X36637Y179198D01*
X37625Y179762D02*
X38471Y181314D01*
X40588Y176533D02*
X35508Y176533D01*
X40588Y176533D02*
X40588Y175122D01*
X40586Y175048D01*
X40580Y174975D01*
X40571Y174901D01*
X40557Y174829D01*
X40540Y174757D01*
X40519Y174686D01*
X40494Y174616D01*
X40466Y174548D01*
X40434Y174481D01*
X40399Y174417D01*
X40360Y174354D01*
X40319Y174293D01*
X40274Y174234D01*
X40226Y174178D01*
X40175Y174124D01*
X40121Y174073D01*
X40065Y174025D01*
X40006Y173980D01*
X39945Y173939D01*
X39883Y173900D01*
X39818Y173865D01*
X39751Y173833D01*
X39683Y173805D01*
X39613Y173780D01*
X39542Y173759D01*
X39470Y173742D01*
X39398Y173728D01*
X39324Y173719D01*
X39251Y173713D01*
X39177Y173711D01*
X36919Y173711D01*
X36845Y173713D01*
X36772Y173719D01*
X36698Y173728D01*
X36626Y173742D01*
X36554Y173759D01*
X36483Y173780D01*
X36413Y173805D01*
X36345Y173833D01*
X36278Y173865D01*
X36214Y173900D01*
X36151Y173939D01*
X36090Y173980D01*
X36031Y174025D01*
X35975Y174073D01*
X35921Y174124D01*
X35870Y174178D01*
X35822Y174234D01*
X35777Y174293D01*
X35736Y174354D01*
X35697Y174417D01*
X35662Y174481D01*
X35630Y174548D01*
X35602Y174616D01*
X35577Y174686D01*
X35556Y174757D01*
X35539Y174829D01*
X35525Y174901D01*
X35516Y174975D01*
X35510Y175048D01*
X35508Y175122D01*
X35508Y176533D01*
X199412Y104572D02*
X204492Y104572D01*
X204492Y104008D02*
X204492Y105137D01*
X199412Y105137D02*
X199412Y104008D01*
X200823Y107550D02*
X203081Y107550D01*
X200823Y107551D02*
X200749Y107553D01*
X200676Y107559D01*
X200602Y107568D01*
X200530Y107582D01*
X200458Y107599D01*
X200387Y107620D01*
X200317Y107645D01*
X200249Y107673D01*
X200182Y107705D01*
X200118Y107740D01*
X200055Y107779D01*
X199994Y107820D01*
X199935Y107865D01*
X199879Y107913D01*
X199825Y107964D01*
X199774Y108018D01*
X199726Y108074D01*
X199681Y108133D01*
X199640Y108194D01*
X199601Y108257D01*
X199566Y108321D01*
X199534Y108388D01*
X199506Y108456D01*
X199481Y108526D01*
X199460Y108597D01*
X199443Y108669D01*
X199429Y108741D01*
X199420Y108815D01*
X199414Y108888D01*
X199412Y108962D01*
X199414Y109036D01*
X199420Y109109D01*
X199429Y109183D01*
X199443Y109255D01*
X199460Y109327D01*
X199481Y109398D01*
X199506Y109468D01*
X199534Y109536D01*
X199566Y109603D01*
X199601Y109668D01*
X199640Y109730D01*
X199681Y109791D01*
X199726Y109850D01*
X199774Y109906D01*
X199825Y109960D01*
X199879Y110011D01*
X199935Y110059D01*
X199994Y110104D01*
X200055Y110145D01*
X200118Y110184D01*
X200182Y110219D01*
X200249Y110251D01*
X200317Y110279D01*
X200387Y110304D01*
X200458Y110325D01*
X200530Y110342D01*
X200602Y110356D01*
X200676Y110365D01*
X200749Y110371D01*
X200823Y110373D01*
X203081Y110373D01*
X203155Y110371D01*
X203228Y110365D01*
X203302Y110356D01*
X203374Y110342D01*
X203446Y110325D01*
X203517Y110304D01*
X203587Y110279D01*
X203655Y110251D01*
X203722Y110219D01*
X203786Y110184D01*
X203849Y110145D01*
X203910Y110104D01*
X203969Y110059D01*
X204025Y110011D01*
X204079Y109960D01*
X204130Y109906D01*
X204178Y109850D01*
X204223Y109791D01*
X204264Y109730D01*
X204303Y109668D01*
X204338Y109603D01*
X204370Y109536D01*
X204398Y109468D01*
X204423Y109398D01*
X204444Y109327D01*
X204461Y109255D01*
X204475Y109183D01*
X204484Y109109D01*
X204490Y109036D01*
X204492Y108962D01*
X204490Y108888D01*
X204484Y108815D01*
X204475Y108741D01*
X204461Y108669D01*
X204444Y108597D01*
X204423Y108526D01*
X204398Y108456D01*
X204370Y108388D01*
X204338Y108321D01*
X204303Y108257D01*
X204264Y108194D01*
X204223Y108133D01*
X204178Y108074D01*
X204130Y108018D01*
X204079Y107964D01*
X204025Y107913D01*
X203969Y107865D01*
X203910Y107820D01*
X203849Y107779D01*
X203787Y107740D01*
X203722Y107705D01*
X203655Y107673D01*
X203587Y107645D01*
X203517Y107620D01*
X203446Y107599D01*
X203374Y107582D01*
X203302Y107568D01*
X203228Y107559D01*
X203155Y107553D01*
X203081Y107551D01*
X201952Y113037D02*
X201825Y113039D01*
X201699Y113045D01*
X201573Y113054D01*
X201447Y113068D01*
X201322Y113085D01*
X201197Y113106D01*
X201073Y113130D01*
X200949Y113159D01*
X200827Y113191D01*
X200705Y113227D01*
X200585Y113266D01*
X200466Y113310D01*
X200349Y113356D01*
X200232Y113407D01*
X200118Y113460D01*
X200117Y113460D02*
X200060Y113482D01*
X200003Y113507D01*
X199949Y113536D01*
X199896Y113567D01*
X199845Y113602D01*
X199796Y113639D01*
X199749Y113680D01*
X199705Y113723D01*
X199663Y113768D01*
X199625Y113816D01*
X199589Y113867D01*
X199556Y113919D01*
X199526Y113973D01*
X199500Y114029D01*
X199477Y114086D01*
X199457Y114144D01*
X199441Y114204D01*
X199428Y114264D01*
X199419Y114325D01*
X199414Y114386D01*
X199412Y114448D01*
X199414Y114510D01*
X199419Y114571D01*
X199428Y114632D01*
X199441Y114692D01*
X199457Y114752D01*
X199477Y114810D01*
X199500Y114868D01*
X199526Y114923D01*
X199556Y114977D01*
X199589Y115029D01*
X199625Y115080D01*
X199664Y115128D01*
X199705Y115173D01*
X199749Y115216D01*
X199796Y115257D01*
X199845Y115294D01*
X199896Y115329D01*
X199949Y115360D01*
X200003Y115389D01*
X200060Y115414D01*
X200117Y115436D01*
X200118Y115436D02*
X200232Y115489D01*
X200348Y115540D01*
X200466Y115586D01*
X200585Y115630D01*
X200705Y115669D01*
X200827Y115705D01*
X200949Y115737D01*
X201072Y115766D01*
X201197Y115790D01*
X201321Y115811D01*
X201447Y115828D01*
X201573Y115842D01*
X201699Y115851D01*
X201825Y115857D01*
X201952Y115859D01*
X201952Y113036D02*
X202079Y113038D01*
X202205Y113044D01*
X202331Y113053D01*
X202457Y113067D01*
X202583Y113084D01*
X202707Y113105D01*
X202832Y113129D01*
X202955Y113158D01*
X203077Y113190D01*
X203199Y113226D01*
X203319Y113265D01*
X203438Y113309D01*
X203556Y113355D01*
X203672Y113406D01*
X203787Y113459D01*
X203787Y113460D02*
X203844Y113482D01*
X203901Y113507D01*
X203955Y113536D01*
X204008Y113567D01*
X204059Y113602D01*
X204108Y113639D01*
X204155Y113680D01*
X204199Y113723D01*
X204241Y113768D01*
X204279Y113816D01*
X204315Y113867D01*
X204348Y113919D01*
X204378Y113973D01*
X204404Y114029D01*
X204427Y114086D01*
X204447Y114144D01*
X204463Y114204D01*
X204476Y114264D01*
X204485Y114325D01*
X204490Y114386D01*
X204492Y114448D01*
X203786Y115436D02*
X203672Y115489D01*
X203556Y115540D01*
X203438Y115586D01*
X203319Y115630D01*
X203199Y115669D01*
X203077Y115705D01*
X202955Y115737D01*
X202832Y115766D01*
X202707Y115790D01*
X202583Y115811D01*
X202457Y115828D01*
X202331Y115842D01*
X202205Y115851D01*
X202079Y115857D01*
X201952Y115859D01*
X203787Y115436D02*
X203844Y115414D01*
X203901Y115389D01*
X203955Y115360D01*
X204008Y115329D01*
X204059Y115294D01*
X204108Y115257D01*
X204155Y115216D01*
X204199Y115173D01*
X204241Y115128D01*
X204279Y115080D01*
X204315Y115029D01*
X204348Y114977D01*
X204378Y114923D01*
X204404Y114867D01*
X204427Y114810D01*
X204447Y114752D01*
X204463Y114692D01*
X204476Y114632D01*
X204485Y114571D01*
X204490Y114510D01*
X204492Y114448D01*
X203363Y113319D02*
X200541Y115577D01*
X199412Y137572D02*
X204492Y137572D01*
X204492Y137008D02*
X204492Y138137D01*
X199412Y138137D02*
X199412Y137008D01*
X200823Y140550D02*
X203081Y140550D01*
X200823Y140551D02*
X200749Y140553D01*
X200676Y140559D01*
X200602Y140568D01*
X200530Y140582D01*
X200458Y140599D01*
X200387Y140620D01*
X200317Y140645D01*
X200249Y140673D01*
X200182Y140705D01*
X200118Y140740D01*
X200055Y140779D01*
X199994Y140820D01*
X199935Y140865D01*
X199879Y140913D01*
X199825Y140964D01*
X199774Y141018D01*
X199726Y141074D01*
X199681Y141133D01*
X199640Y141194D01*
X199601Y141257D01*
X199566Y141321D01*
X199534Y141388D01*
X199506Y141456D01*
X199481Y141526D01*
X199460Y141597D01*
X199443Y141669D01*
X199429Y141741D01*
X199420Y141815D01*
X199414Y141888D01*
X199412Y141962D01*
X199414Y142036D01*
X199420Y142109D01*
X199429Y142183D01*
X199443Y142255D01*
X199460Y142327D01*
X199481Y142398D01*
X199506Y142468D01*
X199534Y142536D01*
X199566Y142603D01*
X199601Y142668D01*
X199640Y142730D01*
X199681Y142791D01*
X199726Y142850D01*
X199774Y142906D01*
X199825Y142960D01*
X199879Y143011D01*
X199935Y143059D01*
X199994Y143104D01*
X200055Y143145D01*
X200118Y143184D01*
X200182Y143219D01*
X200249Y143251D01*
X200317Y143279D01*
X200387Y143304D01*
X200458Y143325D01*
X200530Y143342D01*
X200602Y143356D01*
X200676Y143365D01*
X200749Y143371D01*
X200823Y143373D01*
X203081Y143373D01*
X203155Y143371D01*
X203228Y143365D01*
X203302Y143356D01*
X203374Y143342D01*
X203446Y143325D01*
X203517Y143304D01*
X203587Y143279D01*
X203655Y143251D01*
X203722Y143219D01*
X203786Y143184D01*
X203849Y143145D01*
X203910Y143104D01*
X203969Y143059D01*
X204025Y143011D01*
X204079Y142960D01*
X204130Y142906D01*
X204178Y142850D01*
X204223Y142791D01*
X204264Y142730D01*
X204303Y142668D01*
X204338Y142603D01*
X204370Y142536D01*
X204398Y142468D01*
X204423Y142398D01*
X204444Y142327D01*
X204461Y142255D01*
X204475Y142183D01*
X204484Y142109D01*
X204490Y142036D01*
X204492Y141962D01*
X204490Y141888D01*
X204484Y141815D01*
X204475Y141741D01*
X204461Y141669D01*
X204444Y141597D01*
X204423Y141526D01*
X204398Y141456D01*
X204370Y141388D01*
X204338Y141321D01*
X204303Y141257D01*
X204264Y141194D01*
X204223Y141133D01*
X204178Y141074D01*
X204130Y141018D01*
X204079Y140964D01*
X204025Y140913D01*
X203969Y140865D01*
X203910Y140820D01*
X203849Y140779D01*
X203787Y140740D01*
X203722Y140705D01*
X203655Y140673D01*
X203587Y140645D01*
X203517Y140620D01*
X203446Y140599D01*
X203374Y140582D01*
X203302Y140568D01*
X203228Y140559D01*
X203155Y140553D01*
X203081Y140551D01*
X199412Y147589D02*
X199414Y147658D01*
X199419Y147726D01*
X199429Y147794D01*
X199442Y147862D01*
X199458Y147929D01*
X199478Y147995D01*
X199502Y148059D01*
X199529Y148122D01*
X199560Y148184D01*
X199594Y148244D01*
X199631Y148302D01*
X199671Y148358D01*
X199714Y148411D01*
X199760Y148462D01*
X199809Y148511D01*
X199860Y148557D01*
X199913Y148600D01*
X199969Y148640D01*
X200027Y148677D01*
X200087Y148711D01*
X200149Y148742D01*
X200212Y148769D01*
X200276Y148793D01*
X200342Y148813D01*
X200409Y148829D01*
X200477Y148842D01*
X200545Y148852D01*
X200613Y148857D01*
X200682Y148859D01*
X199412Y147589D02*
X199414Y147510D01*
X199420Y147431D01*
X199429Y147353D01*
X199442Y147275D01*
X199459Y147198D01*
X199480Y147122D01*
X199505Y147047D01*
X199533Y146973D01*
X199564Y146901D01*
X199599Y146830D01*
X199638Y146761D01*
X199679Y146694D01*
X199724Y146629D01*
X199772Y146566D01*
X199823Y146506D01*
X199877Y146448D01*
X199933Y146393D01*
X199992Y146341D01*
X200054Y146292D01*
X200118Y146245D01*
X200184Y146202D01*
X200252Y146162D01*
X200322Y146125D01*
X200394Y146092D01*
X200467Y146063D01*
X200541Y146036D01*
X201670Y148436D02*
X201621Y148484D01*
X201570Y148531D01*
X201516Y148574D01*
X201460Y148615D01*
X201403Y148653D01*
X201343Y148688D01*
X201282Y148720D01*
X201219Y148749D01*
X201155Y148774D01*
X201090Y148797D01*
X201024Y148816D01*
X200956Y148831D01*
X200888Y148843D01*
X200820Y148852D01*
X200751Y148857D01*
X200682Y148859D01*
X201670Y148436D02*
X204492Y146037D01*
X204492Y148859D01*
X204492Y172072D02*
X199412Y172072D01*
X204492Y171508D02*
X204492Y172637D01*
X199412Y172637D02*
X199412Y171508D01*
X200823Y175050D02*
X203081Y175050D01*
X200823Y175051D02*
X200749Y175053D01*
X200676Y175059D01*
X200602Y175068D01*
X200530Y175082D01*
X200458Y175099D01*
X200387Y175120D01*
X200317Y175145D01*
X200249Y175173D01*
X200182Y175205D01*
X200118Y175240D01*
X200055Y175279D01*
X199994Y175320D01*
X199935Y175365D01*
X199879Y175413D01*
X199825Y175464D01*
X199774Y175518D01*
X199726Y175574D01*
X199681Y175633D01*
X199640Y175694D01*
X199601Y175757D01*
X199566Y175821D01*
X199534Y175888D01*
X199506Y175956D01*
X199481Y176026D01*
X199460Y176097D01*
X199443Y176169D01*
X199429Y176241D01*
X199420Y176315D01*
X199414Y176388D01*
X199412Y176462D01*
X199414Y176536D01*
X199420Y176609D01*
X199429Y176683D01*
X199443Y176755D01*
X199460Y176827D01*
X199481Y176898D01*
X199506Y176968D01*
X199534Y177036D01*
X199566Y177103D01*
X199601Y177168D01*
X199640Y177230D01*
X199681Y177291D01*
X199726Y177350D01*
X199774Y177406D01*
X199825Y177460D01*
X199879Y177511D01*
X199935Y177559D01*
X199994Y177604D01*
X200055Y177645D01*
X200118Y177684D01*
X200182Y177719D01*
X200249Y177751D01*
X200317Y177779D01*
X200387Y177804D01*
X200458Y177825D01*
X200530Y177842D01*
X200602Y177856D01*
X200676Y177865D01*
X200749Y177871D01*
X200823Y177873D01*
X203081Y177873D01*
X203155Y177871D01*
X203228Y177865D01*
X203302Y177856D01*
X203374Y177842D01*
X203446Y177825D01*
X203517Y177804D01*
X203587Y177779D01*
X203655Y177751D01*
X203722Y177719D01*
X203786Y177684D01*
X203849Y177645D01*
X203910Y177604D01*
X203969Y177559D01*
X204025Y177511D01*
X204079Y177460D01*
X204130Y177406D01*
X204178Y177350D01*
X204223Y177291D01*
X204264Y177230D01*
X204303Y177168D01*
X204338Y177103D01*
X204370Y177036D01*
X204398Y176968D01*
X204423Y176898D01*
X204444Y176827D01*
X204461Y176755D01*
X204475Y176683D01*
X204484Y176609D01*
X204490Y176536D01*
X204492Y176462D01*
X204490Y176388D01*
X204484Y176315D01*
X204475Y176241D01*
X204461Y176169D01*
X204444Y176097D01*
X204423Y176026D01*
X204398Y175956D01*
X204370Y175888D01*
X204338Y175821D01*
X204303Y175757D01*
X204264Y175694D01*
X204223Y175633D01*
X204178Y175574D01*
X204130Y175518D01*
X204079Y175464D01*
X204025Y175413D01*
X203969Y175365D01*
X203910Y175320D01*
X203849Y175279D01*
X203787Y175240D01*
X203722Y175205D01*
X203655Y175173D01*
X203587Y175145D01*
X203517Y175120D01*
X203446Y175099D01*
X203374Y175082D01*
X203302Y175068D01*
X203228Y175059D01*
X203155Y175053D01*
X203081Y175051D01*
X200541Y180537D02*
X199412Y181948D01*
X204492Y181948D01*
X204492Y180537D02*
X204492Y183359D01*
X204492Y186023D02*
X204492Y187716D01*
X204490Y187782D01*
X204484Y187847D01*
X204475Y187912D01*
X204462Y187976D01*
X204445Y188040D01*
X204424Y188102D01*
X204400Y188163D01*
X204372Y188223D01*
X204341Y188281D01*
X204306Y188336D01*
X204269Y188390D01*
X204228Y188442D01*
X204184Y188491D01*
X204138Y188537D01*
X204089Y188581D01*
X204037Y188622D01*
X203983Y188659D01*
X203928Y188694D01*
X203870Y188725D01*
X203810Y188753D01*
X203749Y188777D01*
X203687Y188798D01*
X203623Y188815D01*
X203559Y188828D01*
X203494Y188837D01*
X203429Y188843D01*
X203363Y188845D01*
X202799Y188845D01*
X202733Y188843D01*
X202668Y188837D01*
X202603Y188828D01*
X202539Y188815D01*
X202475Y188798D01*
X202413Y188777D01*
X202352Y188753D01*
X202292Y188725D01*
X202235Y188694D01*
X202179Y188659D01*
X202125Y188622D01*
X202073Y188581D01*
X202024Y188537D01*
X201978Y188491D01*
X201934Y188442D01*
X201893Y188390D01*
X201856Y188336D01*
X201821Y188281D01*
X201790Y188223D01*
X201762Y188163D01*
X201738Y188102D01*
X201717Y188040D01*
X201700Y187976D01*
X201687Y187912D01*
X201678Y187847D01*
X201672Y187782D01*
X201670Y187716D01*
X201670Y186023D01*
X199412Y186023D01*
X199412Y188845D01*
X199412Y204572D02*
X204492Y204572D01*
X204492Y204008D02*
X204492Y205137D01*
X199412Y205137D02*
X199412Y204008D01*
X200823Y207550D02*
X203081Y207550D01*
X200823Y207551D02*
X200749Y207553D01*
X200676Y207559D01*
X200602Y207568D01*
X200530Y207582D01*
X200458Y207599D01*
X200387Y207620D01*
X200317Y207645D01*
X200249Y207673D01*
X200182Y207705D01*
X200118Y207740D01*
X200055Y207779D01*
X199994Y207820D01*
X199935Y207865D01*
X199879Y207913D01*
X199825Y207964D01*
X199774Y208018D01*
X199726Y208074D01*
X199681Y208133D01*
X199640Y208194D01*
X199601Y208257D01*
X199566Y208321D01*
X199534Y208388D01*
X199506Y208456D01*
X199481Y208526D01*
X199460Y208597D01*
X199443Y208669D01*
X199429Y208741D01*
X199420Y208815D01*
X199414Y208888D01*
X199412Y208962D01*
X199414Y209036D01*
X199420Y209109D01*
X199429Y209183D01*
X199443Y209255D01*
X199460Y209327D01*
X199481Y209398D01*
X199506Y209468D01*
X199534Y209536D01*
X199566Y209603D01*
X199601Y209668D01*
X199640Y209730D01*
X199681Y209791D01*
X199726Y209850D01*
X199774Y209906D01*
X199825Y209960D01*
X199879Y210011D01*
X199935Y210059D01*
X199994Y210104D01*
X200055Y210145D01*
X200118Y210184D01*
X200182Y210219D01*
X200249Y210251D01*
X200317Y210279D01*
X200387Y210304D01*
X200458Y210325D01*
X200530Y210342D01*
X200602Y210356D01*
X200676Y210365D01*
X200749Y210371D01*
X200823Y210373D01*
X203081Y210373D01*
X203155Y210371D01*
X203228Y210365D01*
X203302Y210356D01*
X203374Y210342D01*
X203446Y210325D01*
X203517Y210304D01*
X203587Y210279D01*
X203655Y210251D01*
X203722Y210219D01*
X203786Y210184D01*
X203849Y210145D01*
X203910Y210104D01*
X203969Y210059D01*
X204025Y210011D01*
X204079Y209960D01*
X204130Y209906D01*
X204178Y209850D01*
X204223Y209791D01*
X204264Y209730D01*
X204303Y209668D01*
X204338Y209603D01*
X204370Y209536D01*
X204398Y209468D01*
X204423Y209398D01*
X204444Y209327D01*
X204461Y209255D01*
X204475Y209183D01*
X204484Y209109D01*
X204490Y209036D01*
X204492Y208962D01*
X204490Y208888D01*
X204484Y208815D01*
X204475Y208741D01*
X204461Y208669D01*
X204444Y208597D01*
X204423Y208526D01*
X204398Y208456D01*
X204370Y208388D01*
X204338Y208321D01*
X204303Y208257D01*
X204264Y208194D01*
X204223Y208133D01*
X204178Y208074D01*
X204130Y208018D01*
X204079Y207964D01*
X204025Y207913D01*
X203969Y207865D01*
X203910Y207820D01*
X203849Y207779D01*
X203787Y207740D01*
X203722Y207705D01*
X203655Y207673D01*
X203587Y207645D01*
X203517Y207620D01*
X203446Y207599D01*
X203374Y207582D01*
X203302Y207568D01*
X203228Y207559D01*
X203155Y207553D01*
X203081Y207551D01*
X200541Y213037D02*
X199412Y214448D01*
X204492Y214448D01*
X204492Y213037D02*
X204492Y215859D01*
X203363Y218523D02*
X199412Y219652D01*
X203363Y218523D02*
X203363Y221345D01*
X202234Y220499D02*
X204492Y220499D01*
X204492Y238008D02*
X204492Y239419D01*
X204490Y239493D01*
X204484Y239566D01*
X204475Y239640D01*
X204461Y239712D01*
X204444Y239784D01*
X204423Y239855D01*
X204398Y239925D01*
X204370Y239993D01*
X204338Y240060D01*
X204303Y240125D01*
X204264Y240187D01*
X204223Y240248D01*
X204178Y240307D01*
X204130Y240363D01*
X204079Y240417D01*
X204025Y240468D01*
X203969Y240516D01*
X203910Y240561D01*
X203849Y240602D01*
X203787Y240641D01*
X203722Y240676D01*
X203655Y240708D01*
X203587Y240736D01*
X203517Y240761D01*
X203446Y240782D01*
X203374Y240799D01*
X203302Y240813D01*
X203228Y240822D01*
X203155Y240828D01*
X203081Y240830D01*
X203007Y240828D01*
X202934Y240822D01*
X202860Y240813D01*
X202788Y240799D01*
X202716Y240782D01*
X202645Y240761D01*
X202575Y240736D01*
X202507Y240708D01*
X202440Y240676D01*
X202376Y240641D01*
X202313Y240602D01*
X202252Y240561D01*
X202193Y240516D01*
X202137Y240468D01*
X202083Y240417D01*
X202032Y240363D01*
X201984Y240307D01*
X201939Y240248D01*
X201898Y240187D01*
X201859Y240125D01*
X201824Y240060D01*
X201792Y239993D01*
X201764Y239925D01*
X201739Y239855D01*
X201718Y239784D01*
X201701Y239712D01*
X201687Y239640D01*
X201678Y239566D01*
X201672Y239493D01*
X201670Y239419D01*
X199412Y239701D02*
X199412Y238008D01*
X199412Y239701D02*
X199414Y239767D01*
X199420Y239832D01*
X199429Y239897D01*
X199442Y239961D01*
X199459Y240025D01*
X199480Y240087D01*
X199504Y240148D01*
X199532Y240208D01*
X199563Y240266D01*
X199598Y240321D01*
X199635Y240375D01*
X199676Y240427D01*
X199720Y240476D01*
X199766Y240522D01*
X199815Y240566D01*
X199867Y240607D01*
X199921Y240644D01*
X199977Y240679D01*
X200034Y240710D01*
X200094Y240738D01*
X200155Y240762D01*
X200217Y240783D01*
X200281Y240800D01*
X200345Y240813D01*
X200410Y240822D01*
X200475Y240828D01*
X200541Y240830D01*
X200607Y240828D01*
X200672Y240822D01*
X200737Y240813D01*
X200801Y240800D01*
X200865Y240783D01*
X200927Y240762D01*
X200988Y240738D01*
X201048Y240710D01*
X201106Y240679D01*
X201161Y240644D01*
X201215Y240607D01*
X201267Y240566D01*
X201316Y240522D01*
X201362Y240476D01*
X201406Y240427D01*
X201447Y240375D01*
X201484Y240321D01*
X201519Y240266D01*
X201550Y240208D01*
X201578Y240148D01*
X201602Y240087D01*
X201623Y240025D01*
X201640Y239961D01*
X201653Y239897D01*
X201662Y239832D01*
X201668Y239767D01*
X201670Y239701D01*
X201670Y238572D01*
X199412Y243212D02*
X204492Y244905D01*
X199412Y246599D01*
X204492Y248981D02*
X204492Y250392D01*
X204490Y250466D01*
X204484Y250539D01*
X204475Y250613D01*
X204461Y250685D01*
X204444Y250757D01*
X204423Y250828D01*
X204398Y250898D01*
X204370Y250966D01*
X204338Y251033D01*
X204303Y251098D01*
X204264Y251160D01*
X204223Y251221D01*
X204178Y251280D01*
X204130Y251336D01*
X204079Y251390D01*
X204025Y251441D01*
X203969Y251489D01*
X203910Y251534D01*
X203849Y251575D01*
X203787Y251614D01*
X203722Y251649D01*
X203655Y251681D01*
X203587Y251709D01*
X203517Y251734D01*
X203446Y251755D01*
X203374Y251772D01*
X203302Y251786D01*
X203228Y251795D01*
X203155Y251801D01*
X203081Y251803D01*
X203007Y251801D01*
X202934Y251795D01*
X202860Y251786D01*
X202788Y251772D01*
X202716Y251755D01*
X202645Y251734D01*
X202575Y251709D01*
X202507Y251681D01*
X202440Y251649D01*
X202376Y251614D01*
X202313Y251575D01*
X202252Y251534D01*
X202193Y251489D01*
X202137Y251441D01*
X202083Y251390D01*
X202032Y251336D01*
X201984Y251280D01*
X201939Y251221D01*
X201898Y251160D01*
X201859Y251098D01*
X201824Y251033D01*
X201792Y250966D01*
X201764Y250898D01*
X201739Y250828D01*
X201718Y250757D01*
X201701Y250685D01*
X201687Y250613D01*
X201678Y250539D01*
X201672Y250466D01*
X201670Y250392D01*
X199412Y250674D02*
X199412Y248981D01*
X199412Y250674D02*
X199414Y250740D01*
X199420Y250805D01*
X199429Y250870D01*
X199442Y250934D01*
X199459Y250998D01*
X199480Y251060D01*
X199504Y251121D01*
X199532Y251181D01*
X199563Y251239D01*
X199598Y251294D01*
X199635Y251348D01*
X199676Y251400D01*
X199720Y251449D01*
X199766Y251495D01*
X199815Y251539D01*
X199867Y251580D01*
X199921Y251617D01*
X199977Y251652D01*
X200034Y251683D01*
X200094Y251711D01*
X200155Y251735D01*
X200217Y251756D01*
X200281Y251773D01*
X200345Y251786D01*
X200410Y251795D01*
X200475Y251801D01*
X200541Y251803D01*
X200607Y251801D01*
X200672Y251795D01*
X200737Y251786D01*
X200801Y251773D01*
X200865Y251756D01*
X200927Y251735D01*
X200988Y251711D01*
X201048Y251683D01*
X201106Y251652D01*
X201161Y251617D01*
X201215Y251580D01*
X201267Y251539D01*
X201316Y251495D01*
X201362Y251449D01*
X201406Y251400D01*
X201447Y251348D01*
X201484Y251294D01*
X201519Y251239D01*
X201550Y251181D01*
X201578Y251121D01*
X201602Y251060D01*
X201623Y250998D01*
X201640Y250934D01*
X201653Y250870D01*
X201662Y250805D01*
X201668Y250740D01*
X201670Y250674D01*
X201670Y249545D01*
M02*
