G04 EAGLE Gerber X2 export*
%TF.Part,Single*%
%TF.FileFunction,Soldermask,Top,1*%
%TF.FilePolarity,Negative*%
%TF.GenerationSoftware,Autodesk,EAGLE,9.0.0*%
%TF.CreationDate,2018-04-23T14:01:41Z*%
G75*
%MOMM*%
%FSLAX34Y34*%
%LPD*%
%AMOC8*
5,1,8,0,0,1.08239X$1,22.5*%
G01*
%ADD10R,0.550000X1.200000*%
%ADD11R,1.500000X0.900000*%
%ADD12R,1.500000X7.500000*%
%ADD13R,1.000000X6.500000*%
%ADD14R,0.600000X1.100000*%
%ADD15C,1.650000*%
%ADD16R,1.650000X1.650000*%
%ADD17R,1.000000X1.100000*%
%ADD18R,1.100000X1.000000*%
%ADD19C,1.500000*%
%ADD20C,0.750000*%


D10*
X94500Y168000D03*
X85000Y168000D03*
X75500Y168000D03*
X75500Y142000D03*
X94500Y142000D03*
D11*
X144500Y193500D03*
X144500Y226500D03*
X95500Y193500D03*
X95500Y226500D03*
D12*
X155000Y57500D03*
D13*
X130000Y62500D03*
D12*
X85000Y57500D03*
D13*
X110000Y62500D03*
D14*
X164500Y167500D03*
X155000Y167500D03*
X145500Y167500D03*
X145500Y142500D03*
X155000Y142500D03*
X164500Y142500D03*
D15*
X130000Y110000D03*
D16*
X110000Y110000D03*
D17*
X111500Y165000D03*
X128500Y165000D03*
X171500Y195000D03*
X188500Y195000D03*
X181500Y160000D03*
X198500Y160000D03*
X41500Y160000D03*
X58500Y160000D03*
X68500Y230000D03*
X51500Y230000D03*
X51500Y195000D03*
X68500Y195000D03*
D18*
X181500Y125000D03*
X198500Y125000D03*
X128500Y135000D03*
X111500Y135000D03*
X171500Y230000D03*
X188500Y230000D03*
D19*
X25000Y212500D03*
X25000Y245000D03*
X25000Y115000D03*
X25000Y147500D03*
X25000Y180000D03*
X215000Y115000D03*
X215000Y147500D03*
X215000Y180000D03*
X215000Y212500D03*
X215000Y245000D03*
D20*
X90000Y110000D03*
X150000Y110000D03*
M02*
