G04 EAGLE Gerber X2 export*
G75*
%MOMM*%
%FSLAX34Y34*%
%LPD*%
%AMOC8*
5,1,8,0,0,1.08239X$1,22.5*%
G01*
%ADD10R,1.100000X1.000000*%
%ADD11R,0.600000X1.100000*%
%ADD12C,1.500000*%
%ADD13R,0.650000X0.850000*%
%ADD14R,0.550000X1.200000*%
%ADD15C,1.650000*%
%ADD16R,1.650000X1.650000*%
%ADD17R,0.550000X1.700000*%
%ADD18R,1.000000X0.900000*%
%ADD19R,1.000000X1.100000*%
%ADD20R,1.500000X7.500000*%
%ADD21R,1.000000X6.500000*%
%ADD22R,1.485000X0.900000*%
%ADD23P,1.732040X8X202.500000*%
%ADD24C,1.600200*%
%ADD25R,0.800000X0.800000*%
%ADD26P,1.732040X8X112.500000*%
%ADD27C,0.600000*%
%ADD28C,0.900000*%
%ADD29C,0.304800*%

G36*
X100024Y79255D02*
X100024Y79255D01*
X100049Y79252D01*
X100144Y79275D01*
X100241Y79290D01*
X100262Y79302D01*
X100286Y79308D01*
X100370Y79359D01*
X100456Y79405D01*
X100473Y79423D01*
X100494Y79436D01*
X100556Y79512D01*
X100623Y79584D01*
X100633Y79606D01*
X100649Y79625D01*
X100683Y79716D01*
X100724Y79806D01*
X100726Y79830D01*
X100735Y79853D01*
X100749Y80000D01*
X100749Y89239D01*
X156988Y89239D01*
X157008Y89242D01*
X157027Y89240D01*
X157129Y89262D01*
X157231Y89279D01*
X157248Y89288D01*
X157268Y89292D01*
X157357Y89345D01*
X157448Y89394D01*
X157462Y89408D01*
X157479Y89418D01*
X157546Y89497D01*
X157618Y89572D01*
X157626Y89590D01*
X157639Y89605D01*
X157678Y89701D01*
X157721Y89795D01*
X157723Y89815D01*
X157731Y89833D01*
X157749Y90000D01*
X157749Y103752D01*
X157735Y103842D01*
X157727Y103933D01*
X157715Y103963D01*
X157710Y103995D01*
X157667Y104076D01*
X157631Y104160D01*
X157605Y104192D01*
X157594Y104213D01*
X157571Y104235D01*
X157526Y104291D01*
X137749Y124068D01*
X137749Y128563D01*
X137735Y128653D01*
X137727Y128744D01*
X137715Y128774D01*
X137710Y128806D01*
X137667Y128886D01*
X137631Y128970D01*
X137605Y129003D01*
X137594Y129023D01*
X137571Y129045D01*
X137526Y129101D01*
X136499Y130128D01*
X136499Y139872D01*
X137397Y140770D01*
X137433Y140773D01*
X137463Y140785D01*
X137495Y140790D01*
X137576Y140833D01*
X137660Y140869D01*
X137692Y140895D01*
X137713Y140906D01*
X137735Y140929D01*
X137791Y140974D01*
X139068Y142251D01*
X155932Y142251D01*
X162251Y135932D01*
X162251Y121248D01*
X162265Y121158D01*
X162273Y121067D01*
X162285Y121037D01*
X162290Y121005D01*
X162333Y120924D01*
X162369Y120840D01*
X162395Y120808D01*
X162406Y120787D01*
X162429Y120765D01*
X162474Y120709D01*
X172251Y110932D01*
X172251Y90000D01*
X172254Y89980D01*
X172252Y89961D01*
X172274Y89859D01*
X172290Y89757D01*
X172300Y89740D01*
X172304Y89720D01*
X172357Y89631D01*
X172406Y89540D01*
X172420Y89526D01*
X172430Y89509D01*
X172509Y89442D01*
X172584Y89371D01*
X172602Y89362D01*
X172617Y89349D01*
X172713Y89310D01*
X172807Y89267D01*
X172827Y89265D01*
X172845Y89257D01*
X173012Y89239D01*
X190167Y89239D01*
X190257Y89254D01*
X190348Y89261D01*
X190378Y89273D01*
X190410Y89279D01*
X190491Y89321D01*
X190574Y89357D01*
X190607Y89383D01*
X190627Y89394D01*
X190649Y89417D01*
X190705Y89462D01*
X192487Y91244D01*
X197362Y93263D01*
X250000Y93263D01*
X250026Y93267D01*
X250075Y93266D01*
X251240Y93381D01*
X251268Y93388D01*
X251296Y93389D01*
X251457Y93435D01*
X253611Y94328D01*
X253667Y94362D01*
X253727Y94388D01*
X253792Y94440D01*
X253820Y94457D01*
X253833Y94472D01*
X253858Y94493D01*
X255507Y96142D01*
X255545Y96195D01*
X255591Y96242D01*
X255631Y96315D01*
X255651Y96341D01*
X255656Y96360D01*
X255672Y96389D01*
X256565Y98543D01*
X256571Y98570D01*
X256584Y98595D01*
X256619Y98760D01*
X256734Y99925D01*
X256732Y99952D01*
X256737Y100000D01*
X256737Y103265D01*
X256730Y103312D01*
X256731Y103360D01*
X256710Y103433D01*
X256698Y103507D01*
X256675Y103550D01*
X256661Y103596D01*
X256618Y103658D01*
X256582Y103725D01*
X256548Y103758D01*
X256520Y103797D01*
X256459Y103842D01*
X256404Y103894D01*
X256361Y103914D01*
X256322Y103943D01*
X256250Y103966D01*
X256181Y103998D01*
X256133Y104003D01*
X256088Y104018D01*
X256012Y104017D01*
X255937Y104025D01*
X255890Y104015D01*
X255842Y104014D01*
X255770Y103989D01*
X255696Y103973D01*
X255655Y103948D01*
X255610Y103932D01*
X255550Y103885D01*
X255485Y103846D01*
X255454Y103810D01*
X255416Y103780D01*
X255340Y103677D01*
X255325Y103660D01*
X255323Y103653D01*
X255317Y103645D01*
X255101Y103271D01*
X254728Y102899D01*
X254272Y102636D01*
X253763Y102499D01*
X250023Y102499D01*
X250023Y109238D01*
X250020Y109258D01*
X250022Y109277D01*
X250000Y109379D01*
X249983Y109481D01*
X249974Y109498D01*
X249970Y109518D01*
X249917Y109607D01*
X249868Y109698D01*
X249854Y109712D01*
X249844Y109729D01*
X249765Y109796D01*
X249690Y109867D01*
X249672Y109876D01*
X249657Y109889D01*
X249561Y109928D01*
X249467Y109971D01*
X249447Y109973D01*
X249429Y109981D01*
X249262Y109999D01*
X248499Y109999D01*
X248499Y110001D01*
X249262Y110001D01*
X249282Y110004D01*
X249301Y110002D01*
X249403Y110024D01*
X249505Y110041D01*
X249522Y110050D01*
X249542Y110054D01*
X249631Y110107D01*
X249722Y110156D01*
X249736Y110170D01*
X249753Y110180D01*
X249820Y110259D01*
X249891Y110334D01*
X249900Y110352D01*
X249913Y110367D01*
X249952Y110463D01*
X249995Y110557D01*
X249997Y110577D01*
X250005Y110595D01*
X250023Y110762D01*
X250023Y117501D01*
X253763Y117501D01*
X254272Y117364D01*
X254728Y117101D01*
X255101Y116729D01*
X255317Y116355D01*
X255347Y116318D01*
X255370Y116275D01*
X255424Y116223D01*
X255473Y116164D01*
X255513Y116139D01*
X255548Y116106D01*
X255617Y116074D01*
X255681Y116034D01*
X255728Y116022D01*
X255771Y116002D01*
X255846Y115994D01*
X255920Y115976D01*
X255968Y115980D01*
X256015Y115975D01*
X256090Y115991D01*
X256165Y115998D01*
X256209Y116017D01*
X256256Y116027D01*
X256321Y116066D01*
X256390Y116097D01*
X256426Y116129D01*
X256467Y116154D01*
X256516Y116211D01*
X256572Y116262D01*
X256596Y116304D01*
X256627Y116340D01*
X256655Y116411D01*
X256692Y116477D01*
X256701Y116524D01*
X256719Y116569D01*
X256733Y116697D01*
X256737Y116719D01*
X256736Y116725D01*
X256737Y116735D01*
X256737Y340000D01*
X256733Y340026D01*
X256734Y340075D01*
X256619Y341240D01*
X256612Y341268D01*
X256611Y341296D01*
X256565Y341457D01*
X255672Y343611D01*
X255638Y343667D01*
X255612Y343727D01*
X255560Y343792D01*
X255543Y343820D01*
X255528Y343833D01*
X255507Y343858D01*
X254536Y344830D01*
X254497Y344858D01*
X254464Y344893D01*
X254397Y344929D01*
X254336Y344973D01*
X254290Y344988D01*
X254248Y345011D01*
X254173Y345024D01*
X254101Y345046D01*
X254053Y345045D01*
X254005Y345053D01*
X253931Y345041D01*
X253855Y345039D01*
X253810Y345023D01*
X253762Y345016D01*
X253695Y344981D01*
X253624Y344955D01*
X253586Y344925D01*
X253544Y344903D01*
X253491Y344849D01*
X253432Y344801D01*
X253406Y344761D01*
X253372Y344727D01*
X253340Y344658D01*
X253299Y344594D01*
X253287Y344548D01*
X253266Y344505D01*
X253257Y344429D01*
X253239Y344356D01*
X253242Y344308D01*
X253237Y344260D01*
X253256Y344133D01*
X253258Y344111D01*
X253260Y344105D01*
X253262Y344095D01*
X253351Y343763D01*
X253351Y340523D01*
X244687Y340523D01*
X244667Y340520D01*
X244648Y340522D01*
X244546Y340500D01*
X244444Y340483D01*
X244427Y340474D01*
X244407Y340470D01*
X244318Y340417D01*
X244227Y340368D01*
X244213Y340354D01*
X244196Y340344D01*
X244129Y340265D01*
X244058Y340190D01*
X244049Y340172D01*
X244036Y340157D01*
X243997Y340061D01*
X243954Y339967D01*
X243952Y339947D01*
X243944Y339929D01*
X243926Y339762D01*
X243926Y338999D01*
X243924Y338999D01*
X243924Y339762D01*
X243921Y339782D01*
X243923Y339801D01*
X243901Y339903D01*
X243884Y340005D01*
X243875Y340022D01*
X243871Y340042D01*
X243818Y340131D01*
X243769Y340222D01*
X243755Y340236D01*
X243745Y340253D01*
X243666Y340320D01*
X243591Y340391D01*
X243573Y340400D01*
X243558Y340413D01*
X243462Y340452D01*
X243368Y340495D01*
X243348Y340497D01*
X243330Y340505D01*
X243163Y340523D01*
X234499Y340523D01*
X234499Y343763D01*
X234636Y344272D01*
X234899Y344728D01*
X235271Y345101D01*
X235645Y345317D01*
X235682Y345347D01*
X235725Y345370D01*
X235777Y345425D01*
X235836Y345473D01*
X235861Y345513D01*
X235894Y345548D01*
X235926Y345617D01*
X235966Y345681D01*
X235978Y345727D01*
X235998Y345771D01*
X236006Y345846D01*
X236024Y345920D01*
X236020Y345968D01*
X236025Y346015D01*
X236009Y346090D01*
X236002Y346165D01*
X235983Y346209D01*
X235973Y346256D01*
X235934Y346321D01*
X235903Y346390D01*
X235871Y346426D01*
X235846Y346467D01*
X235789Y346516D01*
X235738Y346572D01*
X235696Y346596D01*
X235660Y346627D01*
X235589Y346655D01*
X235523Y346692D01*
X235476Y346701D01*
X235431Y346719D01*
X235303Y346733D01*
X235281Y346737D01*
X235275Y346736D01*
X235265Y346737D01*
X114127Y346737D01*
X114105Y346734D01*
X114082Y346736D01*
X113984Y346714D01*
X113885Y346698D01*
X113864Y346687D01*
X113842Y346682D01*
X113756Y346629D01*
X113667Y346582D01*
X113651Y346566D01*
X113632Y346554D01*
X113567Y346477D01*
X113498Y346404D01*
X113488Y346383D01*
X113473Y346366D01*
X113437Y346272D01*
X113394Y346181D01*
X113392Y346158D01*
X113383Y346137D01*
X113378Y346036D01*
X113367Y345937D01*
X113372Y345914D01*
X113371Y345891D01*
X113398Y345794D01*
X113419Y345696D01*
X113431Y345676D01*
X113438Y345654D01*
X113494Y345571D01*
X113546Y345485D01*
X113563Y345470D01*
X113576Y345451D01*
X113705Y345343D01*
X114144Y345049D01*
X115049Y344144D01*
X115761Y343079D01*
X116251Y341896D01*
X116330Y341499D01*
X110738Y341499D01*
X110719Y341496D01*
X110699Y341498D01*
X110597Y341476D01*
X110495Y341460D01*
X110478Y341450D01*
X110458Y341446D01*
X110369Y341393D01*
X110278Y341344D01*
X110264Y341330D01*
X110247Y341320D01*
X110180Y341241D01*
X110109Y341166D01*
X110100Y341148D01*
X110087Y341133D01*
X110049Y341037D01*
X110005Y340943D01*
X110003Y340923D01*
X109996Y340905D01*
X109983Y340981D01*
X109974Y340998D01*
X109970Y341018D01*
X109917Y341107D01*
X109868Y341198D01*
X109854Y341212D01*
X109844Y341229D01*
X109765Y341296D01*
X109690Y341368D01*
X109672Y341376D01*
X109657Y341389D01*
X109560Y341428D01*
X109467Y341471D01*
X109447Y341473D01*
X109429Y341481D01*
X109262Y341499D01*
X103670Y341499D01*
X103749Y341896D01*
X104239Y343079D01*
X104951Y344144D01*
X105856Y345049D01*
X106295Y345343D01*
X106312Y345359D01*
X106333Y345370D01*
X106402Y345442D01*
X106475Y345511D01*
X106486Y345531D01*
X106502Y345548D01*
X106544Y345639D01*
X106592Y345727D01*
X106596Y345750D01*
X106606Y345771D01*
X106617Y345871D01*
X106634Y345970D01*
X106630Y345993D01*
X106633Y346015D01*
X106611Y346114D01*
X106596Y346213D01*
X106585Y346233D01*
X106581Y346256D01*
X106529Y346342D01*
X106483Y346431D01*
X106466Y346447D01*
X106454Y346467D01*
X106378Y346532D01*
X106306Y346602D01*
X106285Y346612D01*
X106267Y346627D01*
X106174Y346665D01*
X106084Y346707D01*
X106061Y346710D01*
X106039Y346719D01*
X105873Y346737D01*
X88284Y346737D01*
X88213Y346726D01*
X88141Y346724D01*
X88092Y346706D01*
X88041Y346698D01*
X87977Y346664D01*
X87910Y346639D01*
X87869Y346607D01*
X87823Y346582D01*
X87774Y346530D01*
X87718Y346486D01*
X87690Y346442D01*
X87654Y346404D01*
X87624Y346339D01*
X87585Y346279D01*
X87572Y346228D01*
X87550Y346181D01*
X87543Y346110D01*
X87525Y346040D01*
X87529Y345988D01*
X87523Y345937D01*
X87539Y345866D01*
X87544Y345795D01*
X87564Y345747D01*
X87576Y345696D01*
X87612Y345635D01*
X87640Y345569D01*
X87685Y345513D01*
X87702Y345485D01*
X87720Y345470D01*
X87745Y345438D01*
X97251Y335932D01*
X97251Y203366D01*
X97262Y203295D01*
X97264Y203224D01*
X97282Y203175D01*
X97290Y203123D01*
X97324Y203060D01*
X97349Y202993D01*
X97381Y202952D01*
X97406Y202906D01*
X97458Y202857D01*
X97502Y202801D01*
X97546Y202772D01*
X97584Y202737D01*
X97649Y202706D01*
X97709Y202668D01*
X97760Y202655D01*
X97807Y202633D01*
X97878Y202625D01*
X97948Y202608D01*
X98000Y202612D01*
X98051Y202606D01*
X98122Y202621D01*
X98193Y202627D01*
X98241Y202647D01*
X98292Y202658D01*
X98353Y202695D01*
X98419Y202723D01*
X98475Y202768D01*
X98503Y202784D01*
X98518Y202802D01*
X98550Y202828D01*
X103795Y208073D01*
X106424Y208073D01*
X106497Y208043D01*
X106538Y208039D01*
X106560Y208032D01*
X106593Y208033D01*
X106664Y208025D01*
X216253Y208025D01*
X227054Y197224D01*
X227128Y197171D01*
X227197Y197111D01*
X227227Y197099D01*
X227254Y197080D01*
X227341Y197053D01*
X227425Y197019D01*
X227466Y197015D01*
X227489Y197008D01*
X227521Y197009D01*
X227592Y197001D01*
X237122Y197001D01*
X238001Y196122D01*
X238001Y183878D01*
X237122Y182999D01*
X225878Y182999D01*
X224999Y183878D01*
X224999Y190408D01*
X224985Y190498D01*
X224977Y190589D01*
X224965Y190619D01*
X224960Y190651D01*
X224917Y190731D01*
X224881Y190815D01*
X224855Y190847D01*
X224844Y190868D01*
X224821Y190890D01*
X224776Y190946D01*
X213970Y201752D01*
X213896Y201805D01*
X213827Y201865D01*
X213797Y201877D01*
X213770Y201896D01*
X213683Y201923D01*
X213599Y201957D01*
X213558Y201961D01*
X213535Y201968D01*
X213503Y201967D01*
X213432Y201975D01*
X106568Y201975D01*
X106478Y201961D01*
X106387Y201953D01*
X106357Y201941D01*
X106325Y201936D01*
X106245Y201893D01*
X106161Y201857D01*
X106129Y201831D01*
X106108Y201820D01*
X106086Y201797D01*
X106030Y201752D01*
X103248Y198970D01*
X103195Y198896D01*
X103135Y198827D01*
X103123Y198797D01*
X103104Y198770D01*
X103077Y198683D01*
X103043Y198599D01*
X103039Y198558D01*
X103032Y198535D01*
X103033Y198503D01*
X103025Y198432D01*
X103025Y198012D01*
X103028Y197992D01*
X103026Y197973D01*
X103048Y197871D01*
X103064Y197769D01*
X103074Y197752D01*
X103078Y197732D01*
X103131Y197643D01*
X103180Y197552D01*
X103194Y197538D01*
X103204Y197521D01*
X103283Y197454D01*
X103358Y197382D01*
X103376Y197374D01*
X103391Y197361D01*
X103487Y197322D01*
X103581Y197279D01*
X103601Y197277D01*
X103619Y197269D01*
X103786Y197251D01*
X105932Y197251D01*
X105959Y197224D01*
X106033Y197171D01*
X106103Y197111D01*
X106133Y197099D01*
X106159Y197080D01*
X106246Y197053D01*
X106331Y197019D01*
X106372Y197015D01*
X106394Y197008D01*
X106426Y197009D01*
X106498Y197001D01*
X107122Y197001D01*
X108001Y196122D01*
X108001Y183878D01*
X107122Y182999D01*
X106498Y182999D01*
X106408Y182985D01*
X106317Y182977D01*
X106287Y182965D01*
X106255Y182960D01*
X106174Y182917D01*
X106090Y182881D01*
X106058Y182855D01*
X106037Y182844D01*
X106015Y182821D01*
X105959Y182776D01*
X105932Y182749D01*
X91248Y182749D01*
X91158Y182735D01*
X91067Y182727D01*
X91037Y182715D01*
X91005Y182710D01*
X90924Y182667D01*
X90840Y182631D01*
X90808Y182605D01*
X90787Y182594D01*
X90765Y182571D01*
X90709Y182526D01*
X72474Y164291D01*
X72421Y164217D01*
X72361Y164147D01*
X72349Y164117D01*
X72330Y164091D01*
X72303Y164004D01*
X72269Y163919D01*
X72265Y163878D01*
X72258Y163856D01*
X72259Y163824D01*
X72251Y163752D01*
X72251Y163012D01*
X72254Y162992D01*
X72252Y162973D01*
X72274Y162871D01*
X72290Y162769D01*
X72300Y162752D01*
X72304Y162732D01*
X72357Y162643D01*
X72406Y162552D01*
X72420Y162538D01*
X72430Y162521D01*
X72509Y162454D01*
X72584Y162382D01*
X72602Y162374D01*
X72617Y162361D01*
X72713Y162322D01*
X72807Y162279D01*
X72827Y162277D01*
X72845Y162269D01*
X73012Y162251D01*
X79488Y162251D01*
X79508Y162254D01*
X79527Y162252D01*
X79629Y162274D01*
X79731Y162290D01*
X79748Y162300D01*
X79768Y162304D01*
X79857Y162357D01*
X79948Y162406D01*
X79962Y162420D01*
X79979Y162430D01*
X80046Y162509D01*
X80118Y162584D01*
X80126Y162602D01*
X80139Y162617D01*
X80178Y162713D01*
X80221Y162807D01*
X80223Y162827D01*
X80231Y162845D01*
X80249Y163012D01*
X80249Y169622D01*
X81128Y170501D01*
X87872Y170501D01*
X88751Y169622D01*
X88751Y163012D01*
X88754Y162992D01*
X88752Y162973D01*
X88774Y162871D01*
X88790Y162769D01*
X88800Y162752D01*
X88804Y162732D01*
X88857Y162643D01*
X88906Y162552D01*
X88920Y162538D01*
X88930Y162521D01*
X89009Y162454D01*
X89084Y162382D01*
X89102Y162374D01*
X89117Y162361D01*
X89213Y162322D01*
X89307Y162279D01*
X89327Y162277D01*
X89345Y162269D01*
X89512Y162251D01*
X103752Y162251D01*
X103842Y162265D01*
X103933Y162273D01*
X103963Y162285D01*
X103995Y162290D01*
X104076Y162333D01*
X104160Y162369D01*
X104192Y162395D01*
X104213Y162406D01*
X104235Y162429D01*
X104291Y162474D01*
X114068Y172251D01*
X125932Y172251D01*
X127251Y170932D01*
X127251Y129068D01*
X125932Y127749D01*
X114068Y127749D01*
X104291Y137526D01*
X104217Y137579D01*
X104147Y137639D01*
X104117Y137651D01*
X104091Y137670D01*
X104004Y137697D01*
X103919Y137731D01*
X103878Y137735D01*
X103856Y137742D01*
X103824Y137741D01*
X103752Y137749D01*
X100262Y137749D01*
X100242Y137746D01*
X100223Y137748D01*
X100121Y137726D01*
X100019Y137710D01*
X100002Y137700D01*
X99982Y137696D01*
X99893Y137643D01*
X99802Y137594D01*
X99788Y137580D01*
X99771Y137570D01*
X99704Y137491D01*
X99632Y137416D01*
X99624Y137398D01*
X99611Y137383D01*
X99572Y137287D01*
X99529Y137193D01*
X99527Y137173D01*
X99519Y137155D01*
X99501Y136988D01*
X99501Y133136D01*
X96864Y130499D01*
X93136Y130499D01*
X90499Y133136D01*
X90499Y133214D01*
X90496Y133234D01*
X90498Y133253D01*
X90476Y133355D01*
X90460Y133457D01*
X90450Y133474D01*
X90446Y133494D01*
X90393Y133583D01*
X90344Y133674D01*
X90330Y133688D01*
X90320Y133705D01*
X90241Y133772D01*
X90166Y133844D01*
X90148Y133852D01*
X90133Y133865D01*
X90037Y133904D01*
X89943Y133947D01*
X89923Y133949D01*
X89905Y133957D01*
X89738Y133975D01*
X89512Y133975D01*
X89492Y133972D01*
X89473Y133974D01*
X89371Y133952D01*
X89269Y133936D01*
X89252Y133926D01*
X89232Y133922D01*
X89143Y133869D01*
X89052Y133820D01*
X89038Y133806D01*
X89021Y133796D01*
X88954Y133717D01*
X88882Y133642D01*
X88874Y133624D01*
X88861Y133609D01*
X88822Y133513D01*
X88779Y133419D01*
X88777Y133399D01*
X88769Y133381D01*
X88751Y133214D01*
X88751Y130378D01*
X87872Y129499D01*
X81128Y129499D01*
X80603Y130024D01*
X80507Y130093D01*
X80411Y130164D01*
X80407Y130165D01*
X80404Y130168D01*
X80290Y130203D01*
X80177Y130239D01*
X80173Y130239D01*
X80169Y130240D01*
X80049Y130237D01*
X79931Y130235D01*
X79927Y130234D01*
X79923Y130234D01*
X79811Y130193D01*
X79699Y130153D01*
X79696Y130151D01*
X79692Y130149D01*
X79599Y130076D01*
X79505Y130002D01*
X79502Y129998D01*
X79500Y129996D01*
X79492Y129984D01*
X79406Y129867D01*
X79351Y129772D01*
X78978Y129399D01*
X78522Y129136D01*
X78013Y128999D01*
X76374Y128999D01*
X76374Y136387D01*
X76371Y136406D01*
X76373Y136426D01*
X76351Y136528D01*
X76335Y136630D01*
X76325Y136647D01*
X76321Y136667D01*
X76268Y136756D01*
X76219Y136847D01*
X76205Y136861D01*
X76195Y136878D01*
X76116Y136945D01*
X76041Y137016D01*
X76023Y137025D01*
X76008Y137038D01*
X75912Y137076D01*
X75818Y137120D01*
X75798Y137122D01*
X75780Y137130D01*
X75613Y137148D01*
X74387Y137148D01*
X74367Y137145D01*
X74347Y137147D01*
X74246Y137125D01*
X74144Y137108D01*
X74127Y137099D01*
X74107Y137095D01*
X74018Y137042D01*
X73927Y136993D01*
X73913Y136979D01*
X73896Y136969D01*
X73829Y136890D01*
X73757Y136815D01*
X73749Y136797D01*
X73736Y136782D01*
X73697Y136685D01*
X73654Y136592D01*
X73652Y136572D01*
X73644Y136554D01*
X73626Y136387D01*
X73626Y128999D01*
X71987Y128999D01*
X71478Y129136D01*
X71022Y129399D01*
X70649Y129772D01*
X70594Y129867D01*
X70519Y129958D01*
X70445Y130051D01*
X70441Y130054D01*
X70438Y130057D01*
X70338Y130120D01*
X70238Y130184D01*
X70234Y130185D01*
X70230Y130188D01*
X70114Y130215D01*
X69999Y130244D01*
X69995Y130244D01*
X69991Y130245D01*
X69871Y130234D01*
X69754Y130225D01*
X69750Y130224D01*
X69746Y130223D01*
X69635Y130175D01*
X69528Y130129D01*
X69524Y130126D01*
X69521Y130125D01*
X69510Y130115D01*
X69397Y130024D01*
X68748Y129375D01*
X68695Y129301D01*
X68635Y129232D01*
X68623Y129202D01*
X68604Y129176D01*
X68577Y129089D01*
X68556Y129036D01*
X68553Y129029D01*
X68553Y129027D01*
X68543Y129004D01*
X68539Y128963D01*
X68532Y128941D01*
X68533Y128908D01*
X68525Y128837D01*
X68525Y126068D01*
X68539Y125978D01*
X68547Y125887D01*
X68559Y125857D01*
X68564Y125825D01*
X68607Y125745D01*
X68643Y125661D01*
X68669Y125629D01*
X68680Y125608D01*
X68703Y125586D01*
X68748Y125530D01*
X76525Y117753D01*
X76525Y117262D01*
X76528Y117242D01*
X76526Y117223D01*
X76548Y117121D01*
X76564Y117019D01*
X76574Y117002D01*
X76578Y116982D01*
X76631Y116893D01*
X76680Y116802D01*
X76694Y116788D01*
X76704Y116771D01*
X76783Y116704D01*
X76858Y116632D01*
X76876Y116624D01*
X76891Y116611D01*
X76987Y116572D01*
X77081Y116529D01*
X77101Y116527D01*
X77119Y116519D01*
X77286Y116501D01*
X79622Y116501D01*
X80501Y115622D01*
X80501Y104378D01*
X79622Y103499D01*
X67378Y103499D01*
X66499Y104378D01*
X66499Y115622D01*
X67378Y116501D01*
X67384Y116501D01*
X67455Y116512D01*
X67526Y116514D01*
X67575Y116532D01*
X67627Y116540D01*
X67690Y116574D01*
X67757Y116599D01*
X67798Y116631D01*
X67844Y116656D01*
X67893Y116708D01*
X67949Y116752D01*
X67978Y116796D01*
X68013Y116834D01*
X68044Y116899D01*
X68082Y116959D01*
X68095Y117010D01*
X68117Y117057D01*
X68125Y117128D01*
X68142Y117198D01*
X68138Y117250D01*
X68144Y117301D01*
X68129Y117372D01*
X68123Y117443D01*
X68103Y117491D01*
X68092Y117542D01*
X68055Y117603D01*
X68027Y117669D01*
X67982Y117725D01*
X67966Y117753D01*
X67948Y117768D01*
X67922Y117800D01*
X62475Y123247D01*
X62475Y128837D01*
X62473Y128851D01*
X62474Y128863D01*
X62461Y128924D01*
X62461Y128927D01*
X62453Y129018D01*
X62441Y129048D01*
X62436Y129080D01*
X62393Y129160D01*
X62357Y129244D01*
X62331Y129276D01*
X62320Y129297D01*
X62297Y129319D01*
X62252Y129375D01*
X61249Y130378D01*
X61249Y136988D01*
X61246Y137008D01*
X61248Y137027D01*
X61226Y137129D01*
X61210Y137231D01*
X61200Y137248D01*
X61196Y137268D01*
X61143Y137357D01*
X61094Y137448D01*
X61080Y137462D01*
X61070Y137479D01*
X60991Y137546D01*
X60916Y137618D01*
X60898Y137626D01*
X60883Y137639D01*
X60787Y137678D01*
X60693Y137721D01*
X60673Y137723D01*
X60655Y137731D01*
X60488Y137749D01*
X44068Y137749D01*
X34291Y147526D01*
X34217Y147579D01*
X34147Y147639D01*
X34117Y147651D01*
X34091Y147670D01*
X34004Y147697D01*
X33919Y147731D01*
X33878Y147735D01*
X33856Y147742D01*
X33824Y147741D01*
X33752Y147749D01*
X32286Y147749D01*
X32266Y147746D01*
X32247Y147748D01*
X32145Y147726D01*
X32043Y147710D01*
X32026Y147700D01*
X32006Y147696D01*
X31917Y147643D01*
X31826Y147594D01*
X31812Y147580D01*
X31795Y147570D01*
X31728Y147491D01*
X31656Y147416D01*
X31648Y147398D01*
X31635Y147383D01*
X31596Y147287D01*
X31553Y147193D01*
X31551Y147173D01*
X31543Y147155D01*
X31525Y146988D01*
X31525Y142762D01*
X31528Y142742D01*
X31526Y142723D01*
X31548Y142621D01*
X31564Y142519D01*
X31574Y142502D01*
X31578Y142482D01*
X31631Y142393D01*
X31680Y142302D01*
X31694Y142288D01*
X31704Y142271D01*
X31783Y142204D01*
X31858Y142132D01*
X31876Y142124D01*
X31891Y142111D01*
X31987Y142072D01*
X32081Y142029D01*
X32101Y142027D01*
X32119Y142019D01*
X32286Y142001D01*
X34122Y142001D01*
X35001Y141122D01*
X35001Y128878D01*
X34122Y127999D01*
X22878Y127999D01*
X21999Y128878D01*
X21999Y141122D01*
X22878Y142001D01*
X24714Y142001D01*
X24734Y142004D01*
X24753Y142002D01*
X24855Y142024D01*
X24957Y142040D01*
X24974Y142050D01*
X24994Y142054D01*
X25083Y142107D01*
X25174Y142156D01*
X25188Y142170D01*
X25205Y142180D01*
X25272Y142259D01*
X25344Y142334D01*
X25352Y142352D01*
X25365Y142367D01*
X25404Y142463D01*
X25447Y142557D01*
X25449Y142577D01*
X25457Y142595D01*
X25475Y142762D01*
X25475Y144738D01*
X25472Y144758D01*
X25474Y144777D01*
X25452Y144879D01*
X25436Y144981D01*
X25426Y144998D01*
X25422Y145018D01*
X25369Y145107D01*
X25320Y145198D01*
X25306Y145212D01*
X25296Y145229D01*
X25217Y145296D01*
X25142Y145368D01*
X25124Y145376D01*
X25109Y145389D01*
X25013Y145428D01*
X24919Y145471D01*
X24899Y145473D01*
X24881Y145481D01*
X24714Y145499D01*
X23136Y145499D01*
X21109Y147526D01*
X21035Y147579D01*
X20965Y147639D01*
X20935Y147651D01*
X20909Y147670D01*
X20822Y147697D01*
X20737Y147731D01*
X20696Y147735D01*
X20674Y147742D01*
X20642Y147741D01*
X20570Y147749D01*
X15286Y147749D01*
X15266Y147746D01*
X15247Y147748D01*
X15145Y147726D01*
X15043Y147710D01*
X15026Y147700D01*
X15006Y147696D01*
X14917Y147643D01*
X14826Y147594D01*
X14812Y147580D01*
X14795Y147570D01*
X14728Y147491D01*
X14656Y147416D01*
X14648Y147398D01*
X14635Y147383D01*
X14596Y147287D01*
X14553Y147193D01*
X14551Y147173D01*
X14543Y147155D01*
X14525Y146988D01*
X14525Y142762D01*
X14528Y142742D01*
X14526Y142723D01*
X14548Y142621D01*
X14564Y142519D01*
X14574Y142502D01*
X14578Y142482D01*
X14631Y142393D01*
X14680Y142302D01*
X14694Y142288D01*
X14704Y142271D01*
X14783Y142204D01*
X14858Y142132D01*
X14876Y142124D01*
X14891Y142111D01*
X14987Y142072D01*
X15081Y142029D01*
X15101Y142027D01*
X15119Y142019D01*
X15286Y142001D01*
X17122Y142001D01*
X18001Y141122D01*
X18001Y128878D01*
X17122Y127999D01*
X15286Y127999D01*
X15266Y127996D01*
X15247Y127998D01*
X15145Y127976D01*
X15043Y127960D01*
X15026Y127950D01*
X15006Y127946D01*
X14917Y127893D01*
X14826Y127844D01*
X14812Y127830D01*
X14795Y127820D01*
X14728Y127741D01*
X14656Y127666D01*
X14648Y127648D01*
X14635Y127633D01*
X14596Y127537D01*
X14553Y127443D01*
X14551Y127423D01*
X14543Y127405D01*
X14525Y127238D01*
X14525Y117762D01*
X14528Y117742D01*
X14526Y117723D01*
X14548Y117621D01*
X14564Y117519D01*
X14574Y117502D01*
X14578Y117482D01*
X14631Y117393D01*
X14680Y117302D01*
X14694Y117288D01*
X14704Y117271D01*
X14783Y117204D01*
X14858Y117132D01*
X14876Y117124D01*
X14891Y117111D01*
X14987Y117072D01*
X15081Y117029D01*
X15101Y117027D01*
X15119Y117019D01*
X15286Y117001D01*
X17122Y117001D01*
X18001Y116122D01*
X18001Y103878D01*
X17122Y102999D01*
X5878Y102999D01*
X4999Y103878D01*
X4999Y116122D01*
X5878Y117001D01*
X7714Y117001D01*
X7734Y117004D01*
X7753Y117002D01*
X7855Y117024D01*
X7957Y117040D01*
X7974Y117050D01*
X7994Y117054D01*
X8083Y117107D01*
X8174Y117156D01*
X8188Y117170D01*
X8205Y117180D01*
X8272Y117259D01*
X8344Y117334D01*
X8352Y117352D01*
X8365Y117367D01*
X8404Y117463D01*
X8447Y117557D01*
X8449Y117577D01*
X8457Y117595D01*
X8475Y117762D01*
X8475Y127238D01*
X8472Y127258D01*
X8474Y127277D01*
X8452Y127379D01*
X8436Y127481D01*
X8426Y127498D01*
X8422Y127518D01*
X8369Y127607D01*
X8320Y127698D01*
X8306Y127712D01*
X8296Y127729D01*
X8217Y127796D01*
X8142Y127868D01*
X8124Y127876D01*
X8109Y127889D01*
X8013Y127928D01*
X7919Y127971D01*
X7899Y127973D01*
X7881Y127981D01*
X7714Y127999D01*
X5878Y127999D01*
X4999Y128878D01*
X4999Y141122D01*
X5878Y142001D01*
X7714Y142001D01*
X7734Y142004D01*
X7753Y142002D01*
X7855Y142024D01*
X7957Y142040D01*
X7974Y142050D01*
X7994Y142054D01*
X8083Y142107D01*
X8174Y142156D01*
X8188Y142170D01*
X8205Y142180D01*
X8272Y142259D01*
X8344Y142334D01*
X8352Y142352D01*
X8365Y142367D01*
X8404Y142463D01*
X8447Y142557D01*
X8449Y142577D01*
X8457Y142595D01*
X8475Y142762D01*
X8475Y144844D01*
X8461Y144934D01*
X8453Y145025D01*
X8441Y145055D01*
X8436Y145087D01*
X8393Y145168D01*
X8357Y145252D01*
X8331Y145284D01*
X8320Y145305D01*
X8297Y145327D01*
X8252Y145383D01*
X6109Y147526D01*
X6035Y147579D01*
X5965Y147639D01*
X5935Y147651D01*
X5909Y147670D01*
X5822Y147697D01*
X5737Y147731D01*
X5696Y147735D01*
X5674Y147742D01*
X5642Y147741D01*
X5570Y147749D01*
X4024Y147749D01*
X4004Y147746D01*
X3985Y147748D01*
X3883Y147726D01*
X3781Y147710D01*
X3764Y147700D01*
X3744Y147696D01*
X3655Y147643D01*
X3564Y147594D01*
X3550Y147580D01*
X3533Y147570D01*
X3466Y147491D01*
X3394Y147416D01*
X3386Y147398D01*
X3373Y147383D01*
X3334Y147287D01*
X3291Y147193D01*
X3289Y147173D01*
X3281Y147155D01*
X3263Y146988D01*
X3263Y100000D01*
X3267Y99974D01*
X3266Y99925D01*
X3381Y98760D01*
X3388Y98732D01*
X3389Y98704D01*
X3435Y98543D01*
X4328Y96389D01*
X4362Y96333D01*
X4388Y96273D01*
X4440Y96208D01*
X4457Y96180D01*
X4472Y96167D01*
X4493Y96142D01*
X6142Y94493D01*
X6195Y94455D01*
X6242Y94409D01*
X6315Y94369D01*
X6341Y94349D01*
X6360Y94344D01*
X6389Y94328D01*
X8543Y93435D01*
X8570Y93429D01*
X8595Y93416D01*
X8760Y93381D01*
X9925Y93266D01*
X9952Y93268D01*
X10000Y93263D01*
X62638Y93263D01*
X67513Y91244D01*
X69295Y89462D01*
X69369Y89409D01*
X69438Y89349D01*
X69468Y89337D01*
X69494Y89318D01*
X69581Y89291D01*
X69666Y89257D01*
X69707Y89253D01*
X69729Y89246D01*
X69762Y89247D01*
X69833Y89239D01*
X89251Y89239D01*
X89251Y80000D01*
X89255Y79976D01*
X89252Y79951D01*
X89275Y79856D01*
X89290Y79759D01*
X89302Y79738D01*
X89308Y79714D01*
X89359Y79630D01*
X89405Y79544D01*
X89423Y79527D01*
X89436Y79506D01*
X89512Y79444D01*
X89584Y79377D01*
X89606Y79367D01*
X89625Y79352D01*
X89716Y79317D01*
X89806Y79276D01*
X89830Y79274D01*
X89853Y79265D01*
X90000Y79251D01*
X100000Y79251D01*
X100024Y79255D01*
G37*
G36*
X57008Y162254D02*
X57008Y162254D01*
X57027Y162252D01*
X57129Y162274D01*
X57231Y162290D01*
X57248Y162300D01*
X57268Y162304D01*
X57357Y162357D01*
X57448Y162406D01*
X57462Y162420D01*
X57479Y162430D01*
X57546Y162509D01*
X57618Y162584D01*
X57626Y162602D01*
X57639Y162617D01*
X57678Y162713D01*
X57721Y162807D01*
X57723Y162827D01*
X57731Y162845D01*
X57749Y163012D01*
X57749Y170932D01*
X67526Y180709D01*
X67579Y180783D01*
X67639Y180853D01*
X67651Y180883D01*
X67670Y180909D01*
X67697Y180996D01*
X67731Y181081D01*
X67735Y181122D01*
X67742Y181144D01*
X67741Y181176D01*
X67749Y181248D01*
X67749Y182813D01*
X67735Y182903D01*
X67727Y182994D01*
X67715Y183024D01*
X67710Y183056D01*
X67667Y183136D01*
X67631Y183220D01*
X67605Y183253D01*
X67594Y183273D01*
X67571Y183295D01*
X67526Y183351D01*
X66499Y184378D01*
X66499Y195622D01*
X67378Y196501D01*
X68002Y196501D01*
X68092Y196515D01*
X68183Y196523D01*
X68213Y196535D01*
X68245Y196540D01*
X68326Y196583D01*
X68410Y196619D01*
X68442Y196645D01*
X68463Y196656D01*
X68485Y196679D01*
X68541Y196724D01*
X69068Y197251D01*
X78752Y197251D01*
X78842Y197265D01*
X78933Y197273D01*
X78963Y197285D01*
X78995Y197290D01*
X79076Y197333D01*
X79160Y197369D01*
X79192Y197395D01*
X79213Y197406D01*
X79235Y197429D01*
X79291Y197474D01*
X82526Y200709D01*
X82579Y200783D01*
X82639Y200853D01*
X82651Y200883D01*
X82670Y200909D01*
X82697Y200996D01*
X82731Y201081D01*
X82735Y201122D01*
X82742Y201144D01*
X82741Y201176D01*
X82749Y201248D01*
X82749Y238752D01*
X82735Y238842D01*
X82727Y238933D01*
X82715Y238963D01*
X82710Y238995D01*
X82667Y239076D01*
X82631Y239160D01*
X82605Y239192D01*
X82594Y239213D01*
X82571Y239235D01*
X82526Y239291D01*
X79291Y242526D01*
X79217Y242579D01*
X79147Y242639D01*
X79117Y242651D01*
X79091Y242670D01*
X79004Y242697D01*
X78919Y242731D01*
X78878Y242735D01*
X78856Y242742D01*
X78824Y242741D01*
X78752Y242749D01*
X59068Y242749D01*
X59041Y242776D01*
X58967Y242829D01*
X58897Y242889D01*
X58867Y242901D01*
X58841Y242920D01*
X58754Y242947D01*
X58669Y242981D01*
X58628Y242985D01*
X58606Y242992D01*
X58574Y242991D01*
X58502Y242999D01*
X58028Y242999D01*
X57149Y243878D01*
X57149Y254122D01*
X58028Y255001D01*
X74122Y255001D01*
X75001Y254122D01*
X75001Y253012D01*
X75004Y252992D01*
X75002Y252973D01*
X75024Y252871D01*
X75040Y252769D01*
X75050Y252752D01*
X75054Y252732D01*
X75107Y252643D01*
X75156Y252552D01*
X75170Y252538D01*
X75180Y252521D01*
X75259Y252454D01*
X75334Y252382D01*
X75352Y252374D01*
X75367Y252361D01*
X75463Y252322D01*
X75557Y252279D01*
X75577Y252277D01*
X75595Y252269D01*
X75762Y252251D01*
X78752Y252251D01*
X78842Y252265D01*
X78933Y252273D01*
X78963Y252285D01*
X78995Y252290D01*
X79076Y252333D01*
X79160Y252369D01*
X79192Y252395D01*
X79213Y252406D01*
X79235Y252429D01*
X79291Y252474D01*
X82526Y255709D01*
X82579Y255783D01*
X82639Y255853D01*
X82651Y255883D01*
X82670Y255909D01*
X82697Y255996D01*
X82731Y256081D01*
X82735Y256122D01*
X82742Y256144D01*
X82741Y256176D01*
X82749Y256248D01*
X82749Y313752D01*
X82735Y313842D01*
X82727Y313933D01*
X82715Y313963D01*
X82710Y313995D01*
X82667Y314076D01*
X82631Y314160D01*
X82605Y314192D01*
X82594Y314213D01*
X82571Y314235D01*
X82526Y314291D01*
X79291Y317526D01*
X79217Y317579D01*
X79147Y317639D01*
X79117Y317651D01*
X79091Y317670D01*
X79004Y317697D01*
X78919Y317731D01*
X78878Y317735D01*
X78856Y317742D01*
X78824Y317741D01*
X78752Y317749D01*
X54068Y317749D01*
X52749Y319068D01*
X52749Y345976D01*
X52746Y345996D01*
X52748Y346015D01*
X52726Y346117D01*
X52710Y346219D01*
X52700Y346236D01*
X52696Y346256D01*
X52643Y346345D01*
X52594Y346436D01*
X52580Y346450D01*
X52570Y346467D01*
X52491Y346534D01*
X52416Y346606D01*
X52398Y346614D01*
X52383Y346627D01*
X52287Y346666D01*
X52193Y346709D01*
X52173Y346711D01*
X52155Y346719D01*
X51988Y346737D01*
X10000Y346737D01*
X9974Y346733D01*
X9925Y346734D01*
X8760Y346619D01*
X8732Y346612D01*
X8704Y346611D01*
X8543Y346565D01*
X6389Y345672D01*
X6333Y345638D01*
X6273Y345612D01*
X6208Y345560D01*
X6180Y345543D01*
X6167Y345528D01*
X6142Y345507D01*
X4493Y343858D01*
X4455Y343805D01*
X4409Y343758D01*
X4369Y343685D01*
X4349Y343659D01*
X4344Y343640D01*
X4328Y343611D01*
X3435Y341457D01*
X3429Y341430D01*
X3416Y341405D01*
X3381Y341240D01*
X3266Y340075D01*
X3268Y340048D01*
X3263Y340000D01*
X3263Y268284D01*
X3274Y268213D01*
X3276Y268141D01*
X3294Y268092D01*
X3302Y268041D01*
X3336Y267977D01*
X3361Y267910D01*
X3393Y267869D01*
X3418Y267823D01*
X3470Y267774D01*
X3514Y267718D01*
X3558Y267690D01*
X3596Y267654D01*
X3661Y267624D01*
X3721Y267585D01*
X3772Y267572D01*
X3819Y267550D01*
X3890Y267543D01*
X3960Y267525D01*
X4012Y267529D01*
X4063Y267523D01*
X4134Y267539D01*
X4205Y267544D01*
X4253Y267564D01*
X4304Y267576D01*
X4365Y267612D01*
X4431Y267640D01*
X4487Y267685D01*
X4515Y267702D01*
X4530Y267720D01*
X4562Y267745D01*
X7526Y270709D01*
X9068Y272251D01*
X20932Y272251D01*
X27251Y265932D01*
X27251Y236248D01*
X27265Y236158D01*
X27273Y236067D01*
X27285Y236037D01*
X27290Y236005D01*
X27333Y235924D01*
X27369Y235840D01*
X27395Y235808D01*
X27406Y235787D01*
X27429Y235765D01*
X27474Y235709D01*
X32251Y230932D01*
X32251Y225533D01*
X32262Y225462D01*
X32264Y225391D01*
X32282Y225342D01*
X32290Y225290D01*
X32324Y225227D01*
X32349Y225160D01*
X32381Y225119D01*
X32406Y225073D01*
X32458Y225024D01*
X32502Y224968D01*
X32546Y224939D01*
X32584Y224904D01*
X32649Y224873D01*
X32709Y224835D01*
X32760Y224822D01*
X32807Y224800D01*
X32878Y224792D01*
X32948Y224775D01*
X33000Y224779D01*
X33051Y224773D01*
X33122Y224788D01*
X33193Y224794D01*
X33241Y224814D01*
X33292Y224825D01*
X33353Y224862D01*
X33419Y224890D01*
X33475Y224935D01*
X33503Y224951D01*
X33518Y224969D01*
X33550Y224995D01*
X38557Y230002D01*
X41177Y230002D01*
X41177Y220762D01*
X41180Y220742D01*
X41178Y220723D01*
X41200Y220621D01*
X41217Y220519D01*
X41226Y220502D01*
X41230Y220482D01*
X41283Y220393D01*
X41332Y220302D01*
X41346Y220288D01*
X41356Y220271D01*
X41435Y220204D01*
X41510Y220133D01*
X41528Y220124D01*
X41543Y220111D01*
X41639Y220073D01*
X41733Y220029D01*
X41753Y220027D01*
X41771Y220019D01*
X41938Y220001D01*
X42701Y220001D01*
X42701Y219999D01*
X41938Y219999D01*
X41918Y219996D01*
X41899Y219998D01*
X41797Y219976D01*
X41695Y219959D01*
X41678Y219950D01*
X41658Y219946D01*
X41569Y219893D01*
X41478Y219844D01*
X41464Y219830D01*
X41447Y219820D01*
X41380Y219741D01*
X41309Y219666D01*
X41300Y219648D01*
X41287Y219633D01*
X41248Y219537D01*
X41205Y219443D01*
X41203Y219423D01*
X41195Y219405D01*
X41177Y219238D01*
X41177Y209998D01*
X40023Y209998D01*
X39952Y209987D01*
X39880Y209985D01*
X39831Y209967D01*
X39780Y209959D01*
X39716Y209925D01*
X39649Y209900D01*
X39609Y209868D01*
X39562Y209843D01*
X39513Y209791D01*
X39457Y209747D01*
X39429Y209703D01*
X39393Y209665D01*
X39363Y209600D01*
X39324Y209540D01*
X39311Y209489D01*
X39289Y209442D01*
X39282Y209371D01*
X39264Y209301D01*
X39268Y209249D01*
X39262Y209198D01*
X39278Y209127D01*
X39283Y209056D01*
X39303Y209008D01*
X39315Y208957D01*
X39351Y208896D01*
X39379Y208830D01*
X39424Y208774D01*
X39441Y208746D01*
X39459Y208731D01*
X39484Y208699D01*
X40709Y207474D01*
X42251Y205932D01*
X42251Y171248D01*
X42265Y171158D01*
X42273Y171067D01*
X42285Y171037D01*
X42290Y171005D01*
X42333Y170924D01*
X42369Y170840D01*
X42395Y170808D01*
X42406Y170787D01*
X42429Y170765D01*
X42474Y170709D01*
X50709Y162474D01*
X50783Y162421D01*
X50853Y162361D01*
X50883Y162349D01*
X50909Y162330D01*
X50996Y162303D01*
X51081Y162269D01*
X51122Y162265D01*
X51144Y162258D01*
X51176Y162259D01*
X51248Y162251D01*
X56988Y162251D01*
X57008Y162254D01*
G37*
G36*
X125024Y129255D02*
X125024Y129255D01*
X125049Y129252D01*
X125144Y129275D01*
X125241Y129290D01*
X125262Y129302D01*
X125286Y129308D01*
X125370Y129359D01*
X125456Y129405D01*
X125473Y129423D01*
X125494Y129436D01*
X125556Y129512D01*
X125623Y129584D01*
X125633Y129606D01*
X125649Y129625D01*
X125683Y129716D01*
X125724Y129806D01*
X125726Y129830D01*
X125735Y129853D01*
X125749Y130000D01*
X125749Y170000D01*
X125745Y170024D01*
X125748Y170049D01*
X125726Y170144D01*
X125710Y170241D01*
X125698Y170262D01*
X125692Y170286D01*
X125641Y170370D01*
X125595Y170456D01*
X125577Y170473D01*
X125564Y170494D01*
X125488Y170556D01*
X125417Y170623D01*
X125394Y170633D01*
X125375Y170649D01*
X125284Y170683D01*
X125194Y170724D01*
X125170Y170726D01*
X125147Y170735D01*
X125000Y170749D01*
X115000Y170749D01*
X114904Y170733D01*
X114807Y170724D01*
X114784Y170714D01*
X114759Y170710D01*
X114673Y170664D01*
X114584Y170623D01*
X114559Y170602D01*
X114544Y170595D01*
X114527Y170576D01*
X114470Y170530D01*
X104690Y160749D01*
X89500Y160749D01*
X89476Y160745D01*
X89451Y160748D01*
X89356Y160726D01*
X89259Y160710D01*
X89238Y160698D01*
X89214Y160692D01*
X89130Y160641D01*
X89044Y160595D01*
X89027Y160577D01*
X89006Y160564D01*
X88944Y160488D01*
X88877Y160417D01*
X88867Y160394D01*
X88851Y160375D01*
X88817Y160284D01*
X88776Y160194D01*
X88774Y160170D01*
X88765Y160147D01*
X88751Y160000D01*
X88751Y156378D01*
X87872Y155499D01*
X81128Y155499D01*
X80249Y156378D01*
X80249Y160000D01*
X80247Y160013D01*
X80248Y160019D01*
X80246Y160028D01*
X80248Y160049D01*
X80226Y160144D01*
X80210Y160241D01*
X80198Y160262D01*
X80192Y160286D01*
X80141Y160370D01*
X80095Y160456D01*
X80077Y160473D01*
X80064Y160494D01*
X79988Y160556D01*
X79917Y160623D01*
X79894Y160633D01*
X79875Y160649D01*
X79784Y160683D01*
X79694Y160724D01*
X79670Y160726D01*
X79647Y160735D01*
X79500Y160749D01*
X73000Y160749D01*
X72976Y160745D01*
X72951Y160748D01*
X72856Y160726D01*
X72759Y160710D01*
X72738Y160698D01*
X72714Y160692D01*
X72630Y160641D01*
X72544Y160595D01*
X72527Y160577D01*
X72506Y160564D01*
X72444Y160488D01*
X72377Y160417D01*
X72367Y160394D01*
X72351Y160375D01*
X72317Y160284D01*
X72276Y160194D01*
X72274Y160170D01*
X72265Y160147D01*
X72251Y160000D01*
X72251Y154068D01*
X70932Y152749D01*
X59068Y152749D01*
X57749Y154068D01*
X57749Y160000D01*
X57747Y160013D01*
X57748Y160019D01*
X57746Y160028D01*
X57748Y160049D01*
X57726Y160144D01*
X57710Y160241D01*
X57698Y160262D01*
X57692Y160286D01*
X57641Y160370D01*
X57595Y160456D01*
X57577Y160473D01*
X57564Y160494D01*
X57488Y160556D01*
X57417Y160623D01*
X57394Y160633D01*
X57375Y160649D01*
X57284Y160683D01*
X57194Y160724D01*
X57170Y160726D01*
X57147Y160735D01*
X57000Y160749D01*
X50310Y160749D01*
X40749Y170310D01*
X40749Y205000D01*
X40733Y205096D01*
X40724Y205193D01*
X40714Y205216D01*
X40710Y205241D01*
X40664Y205327D01*
X40623Y205416D01*
X40602Y205441D01*
X40595Y205456D01*
X40576Y205473D01*
X40530Y205530D01*
X30749Y215310D01*
X30749Y230000D01*
X30733Y230096D01*
X30724Y230193D01*
X30714Y230216D01*
X30710Y230241D01*
X30664Y230327D01*
X30623Y230416D01*
X30602Y230441D01*
X30595Y230456D01*
X30576Y230473D01*
X30530Y230530D01*
X25749Y235310D01*
X25749Y265000D01*
X25733Y265096D01*
X25724Y265193D01*
X25714Y265216D01*
X25710Y265241D01*
X25664Y265327D01*
X25623Y265416D01*
X25602Y265441D01*
X25595Y265456D01*
X25576Y265473D01*
X25530Y265530D01*
X20530Y270530D01*
X20450Y270587D01*
X20375Y270649D01*
X20352Y270657D01*
X20331Y270672D01*
X20238Y270700D01*
X20147Y270735D01*
X20114Y270738D01*
X20098Y270743D01*
X20073Y270742D01*
X20000Y270749D01*
X10000Y270749D01*
X9904Y270733D01*
X9807Y270724D01*
X9784Y270714D01*
X9759Y270710D01*
X9673Y270664D01*
X9584Y270623D01*
X9559Y270602D01*
X9544Y270595D01*
X9527Y270576D01*
X9470Y270530D01*
X4470Y265530D01*
X4413Y265450D01*
X4352Y265375D01*
X4343Y265352D01*
X4328Y265331D01*
X4300Y265238D01*
X4265Y265147D01*
X4262Y265114D01*
X4257Y265098D01*
X4258Y265073D01*
X4251Y265000D01*
X4251Y207250D01*
X4255Y207226D01*
X4252Y207201D01*
X4275Y207106D01*
X4290Y207009D01*
X4302Y206988D01*
X4308Y206964D01*
X4359Y206880D01*
X4405Y206794D01*
X4423Y206777D01*
X4436Y206756D01*
X4512Y206694D01*
X4584Y206627D01*
X4606Y206617D01*
X4625Y206601D01*
X4716Y206567D01*
X4806Y206526D01*
X4830Y206524D01*
X4853Y206515D01*
X5000Y206501D01*
X14372Y206501D01*
X15251Y205622D01*
X15251Y195378D01*
X14372Y194499D01*
X12524Y194499D01*
X12500Y194495D01*
X12475Y194498D01*
X12380Y194476D01*
X12283Y194460D01*
X12262Y194448D01*
X12238Y194442D01*
X12154Y194391D01*
X12068Y194345D01*
X12051Y194327D01*
X12030Y194314D01*
X11968Y194238D01*
X11901Y194167D01*
X11891Y194144D01*
X11875Y194125D01*
X11841Y194034D01*
X11800Y193944D01*
X11798Y193920D01*
X11789Y193897D01*
X11775Y193750D01*
X11775Y166250D01*
X11779Y166226D01*
X11776Y166201D01*
X11798Y166106D01*
X11814Y166009D01*
X11826Y165988D01*
X11832Y165964D01*
X11883Y165880D01*
X11929Y165794D01*
X11947Y165777D01*
X11960Y165756D01*
X12036Y165694D01*
X12107Y165627D01*
X12130Y165617D01*
X12149Y165601D01*
X12240Y165567D01*
X12330Y165526D01*
X12354Y165524D01*
X12377Y165515D01*
X12524Y165501D01*
X14372Y165501D01*
X15251Y164622D01*
X15251Y154378D01*
X14152Y153280D01*
X14148Y153275D01*
X14112Y153244D01*
X14085Y153202D01*
X14052Y153167D01*
X14021Y153100D01*
X14010Y153082D01*
X14010Y153081D01*
X13983Y153037D01*
X13971Y152989D01*
X13951Y152944D01*
X13944Y152871D01*
X13927Y152800D01*
X13932Y152751D01*
X13927Y152701D01*
X13944Y152630D01*
X13951Y152557D01*
X13971Y152512D01*
X13982Y152464D01*
X14021Y152401D01*
X14051Y152334D01*
X14098Y152278D01*
X14111Y152256D01*
X14124Y152246D01*
X14145Y152220D01*
X14501Y151864D01*
X14501Y150087D01*
X14517Y149991D01*
X14526Y149894D01*
X14536Y149871D01*
X14540Y149846D01*
X14554Y149820D01*
X14564Y149759D01*
X14576Y149738D01*
X14582Y149714D01*
X14633Y149630D01*
X14679Y149544D01*
X14697Y149527D01*
X14710Y149506D01*
X14786Y149444D01*
X14857Y149377D01*
X14880Y149367D01*
X14899Y149352D01*
X14990Y149317D01*
X15080Y149276D01*
X15104Y149274D01*
X15127Y149265D01*
X15274Y149251D01*
X19750Y149251D01*
X19774Y149255D01*
X19799Y149252D01*
X19894Y149275D01*
X19991Y149290D01*
X20012Y149302D01*
X20036Y149308D01*
X20120Y149359D01*
X20206Y149405D01*
X20223Y149423D01*
X20244Y149436D01*
X20306Y149512D01*
X20373Y149584D01*
X20383Y149606D01*
X20399Y149625D01*
X20433Y149716D01*
X20474Y149806D01*
X20476Y149830D01*
X20485Y149853D01*
X20499Y150000D01*
X20499Y151864D01*
X23136Y154501D01*
X26864Y154501D01*
X29501Y151864D01*
X29501Y150087D01*
X29517Y149991D01*
X29526Y149894D01*
X29536Y149871D01*
X29540Y149846D01*
X29586Y149760D01*
X29627Y149672D01*
X29648Y149646D01*
X29655Y149631D01*
X29674Y149614D01*
X29720Y149557D01*
X29807Y149470D01*
X29887Y149413D01*
X29962Y149352D01*
X29985Y149343D01*
X30006Y149328D01*
X30099Y149300D01*
X30190Y149265D01*
X30223Y149262D01*
X30239Y149257D01*
X30264Y149258D01*
X30337Y149251D01*
X34690Y149251D01*
X44470Y139470D01*
X44550Y139413D01*
X44625Y139352D01*
X44648Y139343D01*
X44669Y139328D01*
X44762Y139300D01*
X44853Y139265D01*
X44886Y139262D01*
X44902Y139257D01*
X44927Y139258D01*
X45000Y139251D01*
X70000Y139251D01*
X70024Y139255D01*
X70049Y139252D01*
X70144Y139275D01*
X70241Y139290D01*
X70262Y139302D01*
X70286Y139308D01*
X70370Y139359D01*
X70456Y139405D01*
X70473Y139423D01*
X70494Y139436D01*
X70556Y139512D01*
X70623Y139584D01*
X70633Y139606D01*
X70649Y139625D01*
X70683Y139716D01*
X70724Y139806D01*
X70726Y139830D01*
X70735Y139853D01*
X70749Y140000D01*
X70749Y143622D01*
X71628Y144501D01*
X78372Y144501D01*
X79220Y143652D01*
X79240Y143638D01*
X79256Y143619D01*
X79339Y143567D01*
X79419Y143510D01*
X79442Y143503D01*
X79463Y143490D01*
X79558Y143468D01*
X79652Y143439D01*
X79676Y143440D01*
X79700Y143434D01*
X79798Y143444D01*
X79896Y143447D01*
X79919Y143456D01*
X79943Y143458D01*
X80032Y143498D01*
X80124Y143533D01*
X80143Y143548D01*
X80166Y143559D01*
X80280Y143652D01*
X81128Y144501D01*
X87872Y144501D01*
X88751Y143622D01*
X88751Y140774D01*
X88755Y140750D01*
X88752Y140725D01*
X88774Y140630D01*
X88790Y140533D01*
X88802Y140512D01*
X88808Y140488D01*
X88859Y140404D01*
X88905Y140318D01*
X88923Y140301D01*
X88936Y140280D01*
X89012Y140218D01*
X89083Y140151D01*
X89106Y140141D01*
X89125Y140125D01*
X89216Y140091D01*
X89306Y140050D01*
X89330Y140048D01*
X89353Y140039D01*
X89500Y140025D01*
X94253Y140025D01*
X94557Y139720D01*
X94637Y139663D01*
X94712Y139601D01*
X94735Y139593D01*
X94756Y139578D01*
X94849Y139550D01*
X94940Y139515D01*
X94973Y139512D01*
X94989Y139507D01*
X95014Y139508D01*
X95087Y139501D01*
X96864Y139501D01*
X96895Y139470D01*
X96974Y139413D01*
X97049Y139352D01*
X97073Y139343D01*
X97093Y139328D01*
X97186Y139300D01*
X97278Y139265D01*
X97311Y139262D01*
X97327Y139257D01*
X97351Y139258D01*
X97425Y139251D01*
X104690Y139251D01*
X114470Y129470D01*
X114550Y129413D01*
X114625Y129352D01*
X114648Y129343D01*
X114669Y129328D01*
X114762Y129300D01*
X114853Y129265D01*
X114886Y129262D01*
X114902Y129257D01*
X114927Y129258D01*
X115000Y129251D01*
X125000Y129251D01*
X125024Y129255D01*
G37*
G36*
X70024Y154255D02*
X70024Y154255D01*
X70049Y154252D01*
X70144Y154275D01*
X70241Y154290D01*
X70262Y154302D01*
X70286Y154308D01*
X70370Y154359D01*
X70456Y154405D01*
X70473Y154423D01*
X70494Y154436D01*
X70556Y154512D01*
X70623Y154584D01*
X70633Y154606D01*
X70649Y154625D01*
X70683Y154716D01*
X70724Y154806D01*
X70726Y154830D01*
X70735Y154853D01*
X70749Y155000D01*
X70749Y164690D01*
X90310Y184251D01*
X105000Y184251D01*
X105024Y184255D01*
X105049Y184252D01*
X105144Y184275D01*
X105241Y184290D01*
X105262Y184302D01*
X105286Y184308D01*
X105370Y184359D01*
X105456Y184405D01*
X105473Y184423D01*
X105494Y184436D01*
X105556Y184512D01*
X105623Y184584D01*
X105633Y184606D01*
X105649Y184625D01*
X105683Y184716D01*
X105724Y184806D01*
X105726Y184830D01*
X105735Y184853D01*
X105749Y185000D01*
X105749Y195000D01*
X105745Y195024D01*
X105748Y195049D01*
X105726Y195144D01*
X105710Y195241D01*
X105698Y195262D01*
X105692Y195286D01*
X105641Y195370D01*
X105595Y195456D01*
X105577Y195473D01*
X105564Y195494D01*
X105488Y195556D01*
X105417Y195623D01*
X105394Y195633D01*
X105375Y195649D01*
X105284Y195683D01*
X105194Y195724D01*
X105170Y195726D01*
X105147Y195735D01*
X105000Y195749D01*
X95749Y195749D01*
X95749Y335000D01*
X95733Y335096D01*
X95724Y335193D01*
X95714Y335216D01*
X95710Y335241D01*
X95664Y335327D01*
X95623Y335416D01*
X95602Y335441D01*
X95595Y335456D01*
X95576Y335473D01*
X95530Y335530D01*
X85530Y345530D01*
X85450Y345587D01*
X85375Y345649D01*
X85352Y345657D01*
X85331Y345672D01*
X85238Y345700D01*
X85147Y345735D01*
X85114Y345738D01*
X85098Y345743D01*
X85073Y345742D01*
X85000Y345749D01*
X55000Y345749D01*
X54976Y345745D01*
X54951Y345748D01*
X54856Y345726D01*
X54759Y345710D01*
X54738Y345698D01*
X54714Y345692D01*
X54630Y345641D01*
X54544Y345595D01*
X54527Y345577D01*
X54506Y345564D01*
X54444Y345488D01*
X54377Y345417D01*
X54367Y345394D01*
X54352Y345375D01*
X54317Y345284D01*
X54276Y345194D01*
X54274Y345170D01*
X54265Y345147D01*
X54251Y345000D01*
X54251Y320000D01*
X54255Y319976D01*
X54252Y319951D01*
X54275Y319856D01*
X54290Y319759D01*
X54302Y319738D01*
X54308Y319714D01*
X54359Y319630D01*
X54405Y319544D01*
X54423Y319527D01*
X54436Y319506D01*
X54512Y319444D01*
X54584Y319377D01*
X54606Y319367D01*
X54625Y319352D01*
X54716Y319317D01*
X54806Y319276D01*
X54830Y319274D01*
X54853Y319265D01*
X55000Y319251D01*
X79690Y319251D01*
X84251Y314690D01*
X84251Y255310D01*
X79690Y250749D01*
X60000Y250749D01*
X59976Y250745D01*
X59951Y250748D01*
X59856Y250726D01*
X59759Y250710D01*
X59738Y250698D01*
X59714Y250692D01*
X59630Y250641D01*
X59544Y250595D01*
X59527Y250577D01*
X59506Y250564D01*
X59444Y250488D01*
X59377Y250417D01*
X59367Y250394D01*
X59352Y250375D01*
X59317Y250284D01*
X59276Y250194D01*
X59274Y250170D01*
X59265Y250147D01*
X59251Y250000D01*
X59251Y245000D01*
X59255Y244976D01*
X59252Y244951D01*
X59275Y244856D01*
X59290Y244759D01*
X59302Y244738D01*
X59308Y244714D01*
X59359Y244630D01*
X59405Y244544D01*
X59423Y244527D01*
X59436Y244506D01*
X59512Y244444D01*
X59584Y244377D01*
X59606Y244367D01*
X59625Y244352D01*
X59716Y244317D01*
X59806Y244276D01*
X59830Y244274D01*
X59853Y244265D01*
X60000Y244251D01*
X79690Y244251D01*
X84251Y239690D01*
X84251Y200310D01*
X79690Y195749D01*
X70000Y195749D01*
X69976Y195745D01*
X69951Y195748D01*
X69856Y195726D01*
X69759Y195710D01*
X69738Y195698D01*
X69714Y195692D01*
X69630Y195641D01*
X69544Y195595D01*
X69527Y195577D01*
X69506Y195564D01*
X69444Y195488D01*
X69377Y195417D01*
X69367Y195394D01*
X69352Y195375D01*
X69317Y195284D01*
X69276Y195194D01*
X69274Y195170D01*
X69265Y195147D01*
X69251Y195000D01*
X69251Y180310D01*
X59470Y170530D01*
X59413Y170450D01*
X59352Y170375D01*
X59343Y170352D01*
X59328Y170331D01*
X59300Y170238D01*
X59283Y170194D01*
X59276Y170179D01*
X59276Y170175D01*
X59265Y170147D01*
X59262Y170114D01*
X59257Y170098D01*
X59258Y170073D01*
X59251Y170000D01*
X59251Y155000D01*
X59255Y154976D01*
X59252Y154951D01*
X59275Y154856D01*
X59290Y154759D01*
X59302Y154738D01*
X59308Y154714D01*
X59359Y154630D01*
X59405Y154544D01*
X59423Y154527D01*
X59436Y154506D01*
X59512Y154444D01*
X59584Y154377D01*
X59606Y154367D01*
X59625Y154352D01*
X59716Y154317D01*
X59806Y154276D01*
X59830Y154274D01*
X59853Y154265D01*
X60000Y154251D01*
X70000Y154251D01*
X70024Y154255D01*
G37*
%LPC*%
G36*
X149063Y147737D02*
X149063Y147737D01*
X147514Y149286D01*
X137774Y159026D01*
X137700Y159079D01*
X137630Y159139D01*
X137600Y159151D01*
X137574Y159170D01*
X137487Y159197D01*
X137402Y159231D01*
X137396Y159231D01*
X136499Y160128D01*
X136499Y169872D01*
X137399Y170771D01*
X137416Y170773D01*
X137446Y170785D01*
X137478Y170790D01*
X137559Y170833D01*
X137643Y170869D01*
X137675Y170895D01*
X137696Y170906D01*
X137718Y170929D01*
X137774Y170974D01*
X149063Y182263D01*
X165937Y182263D01*
X172263Y175937D01*
X172263Y173378D01*
X172274Y173307D01*
X172276Y173236D01*
X172294Y173187D01*
X172302Y173135D01*
X172336Y173072D01*
X172361Y173005D01*
X172393Y172964D01*
X172418Y172918D01*
X172469Y172869D01*
X172514Y172813D01*
X172558Y172784D01*
X172596Y172749D01*
X172661Y172718D01*
X172721Y172680D01*
X172772Y172667D01*
X172819Y172645D01*
X172890Y172637D01*
X172960Y172620D01*
X173012Y172624D01*
X173063Y172618D01*
X173134Y172633D01*
X173205Y172639D01*
X173253Y172659D01*
X173304Y172670D01*
X173365Y172707D01*
X173431Y172735D01*
X173487Y172780D01*
X173515Y172796D01*
X173530Y172814D01*
X173562Y172840D01*
X175184Y174462D01*
X175196Y174478D01*
X175211Y174490D01*
X175267Y174578D01*
X175328Y174661D01*
X175333Y174680D01*
X175344Y174697D01*
X175370Y174798D01*
X175400Y174897D01*
X175399Y174916D01*
X175404Y174936D01*
X175396Y175039D01*
X175394Y175142D01*
X175387Y175161D01*
X175385Y175181D01*
X175345Y175276D01*
X175309Y175373D01*
X175297Y175389D01*
X175289Y175407D01*
X175184Y175538D01*
X164300Y186422D01*
X164242Y186464D01*
X164190Y186513D01*
X164143Y186535D01*
X164101Y186566D01*
X164032Y186587D01*
X163967Y186617D01*
X163915Y186623D01*
X163865Y186638D01*
X163794Y186636D01*
X163723Y186644D01*
X163672Y186633D01*
X163620Y186632D01*
X163552Y186607D01*
X163482Y186592D01*
X163437Y186565D01*
X163389Y186547D01*
X163333Y186502D01*
X163271Y186466D01*
X163237Y186426D01*
X163197Y186394D01*
X163158Y186333D01*
X163111Y186279D01*
X163092Y186230D01*
X163064Y186187D01*
X163046Y186117D01*
X163019Y186051D01*
X163011Y185979D01*
X163003Y185948D01*
X163005Y185925D01*
X163001Y185884D01*
X163001Y185378D01*
X162122Y184499D01*
X152878Y184499D01*
X151999Y185378D01*
X151999Y194622D01*
X152878Y195501D01*
X162122Y195501D01*
X163001Y194622D01*
X163001Y193786D01*
X163004Y193766D01*
X163002Y193747D01*
X163024Y193645D01*
X163040Y193543D01*
X163050Y193526D01*
X163054Y193506D01*
X163107Y193417D01*
X163156Y193326D01*
X163170Y193312D01*
X163180Y193295D01*
X163259Y193228D01*
X163334Y193156D01*
X163352Y193148D01*
X163367Y193135D01*
X163463Y193096D01*
X163557Y193053D01*
X163577Y193051D01*
X163595Y193043D01*
X163762Y193025D01*
X166253Y193025D01*
X179554Y179724D01*
X179628Y179671D01*
X179697Y179611D01*
X179727Y179599D01*
X179754Y179580D01*
X179841Y179553D01*
X179925Y179519D01*
X179966Y179515D01*
X179989Y179508D01*
X180021Y179509D01*
X180092Y179501D01*
X181864Y179501D01*
X184501Y176864D01*
X184501Y173024D01*
X184504Y173004D01*
X184502Y172985D01*
X184524Y172883D01*
X184540Y172781D01*
X184550Y172764D01*
X184554Y172744D01*
X184607Y172655D01*
X184656Y172564D01*
X184670Y172550D01*
X184680Y172533D01*
X184759Y172466D01*
X184834Y172394D01*
X184852Y172386D01*
X184867Y172373D01*
X184963Y172334D01*
X185057Y172291D01*
X185077Y172289D01*
X185095Y172281D01*
X185262Y172263D01*
X191214Y172263D01*
X191234Y172266D01*
X191253Y172264D01*
X191355Y172286D01*
X191457Y172302D01*
X191474Y172312D01*
X191494Y172316D01*
X191583Y172369D01*
X191674Y172418D01*
X191688Y172432D01*
X191705Y172442D01*
X191772Y172521D01*
X191844Y172596D01*
X191852Y172614D01*
X191865Y172629D01*
X191904Y172725D01*
X191947Y172819D01*
X191949Y172839D01*
X191957Y172857D01*
X191975Y173024D01*
X191975Y173432D01*
X191961Y173522D01*
X191953Y173613D01*
X191941Y173643D01*
X191936Y173675D01*
X191893Y173755D01*
X191857Y173839D01*
X191831Y173871D01*
X191820Y173892D01*
X191797Y173914D01*
X191752Y173970D01*
X183473Y182249D01*
X183472Y182258D01*
X183474Y182277D01*
X183452Y182379D01*
X183436Y182481D01*
X183426Y182498D01*
X183422Y182518D01*
X183369Y182607D01*
X183320Y182698D01*
X183306Y182712D01*
X183296Y182729D01*
X183217Y182796D01*
X183142Y182868D01*
X183124Y182876D01*
X183109Y182889D01*
X183013Y182928D01*
X182919Y182971D01*
X182899Y182973D01*
X182881Y182981D01*
X182714Y182999D01*
X180878Y182999D01*
X179999Y183878D01*
X179999Y196122D01*
X180878Y197001D01*
X192122Y197001D01*
X193001Y196122D01*
X193001Y183878D01*
X192238Y183116D01*
X192227Y183100D01*
X192211Y183087D01*
X192155Y183000D01*
X192095Y182916D01*
X192089Y182897D01*
X192078Y182880D01*
X192053Y182780D01*
X192022Y182681D01*
X192023Y182661D01*
X192018Y182642D01*
X192026Y182539D01*
X192029Y182435D01*
X192036Y182416D01*
X192037Y182397D01*
X192078Y182302D01*
X192113Y182204D01*
X192126Y182189D01*
X192133Y182170D01*
X192238Y182039D01*
X198025Y176253D01*
X198025Y169913D01*
X198027Y169901D01*
X198026Y169892D01*
X198036Y169847D01*
X198039Y169823D01*
X198047Y169732D01*
X198059Y169702D01*
X198064Y169670D01*
X198107Y169590D01*
X198143Y169506D01*
X198169Y169473D01*
X198180Y169453D01*
X198203Y169431D01*
X198248Y169375D01*
X199001Y168622D01*
X199001Y156378D01*
X198122Y155499D01*
X193024Y155499D01*
X193004Y155496D01*
X192985Y155498D01*
X192883Y155476D01*
X192781Y155460D01*
X192764Y155450D01*
X192744Y155446D01*
X192655Y155393D01*
X192564Y155344D01*
X192550Y155330D01*
X192533Y155320D01*
X192466Y155241D01*
X192394Y155166D01*
X192386Y155148D01*
X192373Y155133D01*
X192334Y155037D01*
X192291Y154943D01*
X192289Y154923D01*
X192281Y154905D01*
X192263Y154738D01*
X192263Y154063D01*
X185937Y147737D01*
X149063Y147737D01*
G37*
%LPD*%
%LPC*%
G36*
X243110Y153198D02*
X243110Y153198D01*
X239618Y154645D01*
X236945Y157318D01*
X235498Y160810D01*
X235498Y164590D01*
X236945Y168082D01*
X239618Y170755D01*
X243110Y172202D01*
X244714Y172202D01*
X244734Y172205D01*
X244753Y172203D01*
X244855Y172225D01*
X244957Y172241D01*
X244974Y172251D01*
X244994Y172255D01*
X245083Y172308D01*
X245174Y172357D01*
X245188Y172371D01*
X245205Y172381D01*
X245272Y172460D01*
X245344Y172535D01*
X245352Y172553D01*
X245365Y172568D01*
X245404Y172664D01*
X245447Y172758D01*
X245449Y172778D01*
X245457Y172796D01*
X245475Y172963D01*
X245475Y182238D01*
X245472Y182258D01*
X245474Y182277D01*
X245452Y182379D01*
X245436Y182481D01*
X245426Y182498D01*
X245422Y182518D01*
X245369Y182607D01*
X245320Y182698D01*
X245306Y182712D01*
X245296Y182729D01*
X245217Y182796D01*
X245142Y182868D01*
X245124Y182876D01*
X245109Y182889D01*
X245013Y182928D01*
X244919Y182971D01*
X244899Y182973D01*
X244881Y182981D01*
X244714Y182999D01*
X242878Y182999D01*
X241999Y183878D01*
X241999Y196122D01*
X242878Y197001D01*
X244714Y197001D01*
X244734Y197004D01*
X244753Y197002D01*
X244855Y197024D01*
X244957Y197040D01*
X244974Y197050D01*
X244994Y197054D01*
X245083Y197107D01*
X245174Y197156D01*
X245188Y197170D01*
X245205Y197180D01*
X245272Y197259D01*
X245344Y197334D01*
X245352Y197352D01*
X245365Y197367D01*
X245404Y197463D01*
X245447Y197557D01*
X245449Y197577D01*
X245457Y197595D01*
X245475Y197762D01*
X245475Y199932D01*
X245461Y200022D01*
X245453Y200113D01*
X245441Y200143D01*
X245436Y200175D01*
X245393Y200255D01*
X245357Y200339D01*
X245331Y200371D01*
X245320Y200392D01*
X245297Y200414D01*
X245252Y200470D01*
X243970Y201752D01*
X243896Y201805D01*
X243827Y201865D01*
X243797Y201877D01*
X243770Y201896D01*
X243683Y201923D01*
X243599Y201957D01*
X243558Y201961D01*
X243535Y201968D01*
X243503Y201967D01*
X243432Y201975D01*
X228747Y201975D01*
X211975Y218747D01*
X211975Y301253D01*
X222747Y312025D01*
X234238Y312025D01*
X234258Y312028D01*
X234277Y312026D01*
X234379Y312048D01*
X234481Y312064D01*
X234498Y312074D01*
X234518Y312078D01*
X234607Y312131D01*
X234698Y312180D01*
X234712Y312194D01*
X234729Y312204D01*
X234796Y312283D01*
X234868Y312358D01*
X234876Y312376D01*
X234889Y312391D01*
X234928Y312487D01*
X234971Y312581D01*
X234973Y312601D01*
X234981Y312619D01*
X234999Y312786D01*
X234999Y314122D01*
X235878Y315001D01*
X251972Y315001D01*
X252851Y314122D01*
X252851Y303878D01*
X251972Y302999D01*
X235878Y302999D01*
X234999Y303878D01*
X234999Y305214D01*
X234996Y305234D01*
X234998Y305253D01*
X234976Y305355D01*
X234960Y305457D01*
X234950Y305474D01*
X234946Y305494D01*
X234893Y305583D01*
X234844Y305674D01*
X234830Y305688D01*
X234820Y305705D01*
X234741Y305772D01*
X234666Y305844D01*
X234648Y305852D01*
X234633Y305865D01*
X234537Y305904D01*
X234443Y305947D01*
X234423Y305949D01*
X234405Y305957D01*
X234238Y305975D01*
X225568Y305975D01*
X225478Y305961D01*
X225387Y305953D01*
X225357Y305941D01*
X225325Y305936D01*
X225245Y305893D01*
X225161Y305857D01*
X225129Y305831D01*
X225108Y305820D01*
X225086Y305797D01*
X225030Y305752D01*
X218248Y298970D01*
X218195Y298896D01*
X218135Y298827D01*
X218123Y298797D01*
X218104Y298770D01*
X218077Y298683D01*
X218043Y298599D01*
X218039Y298558D01*
X218032Y298535D01*
X218033Y298503D01*
X218025Y298432D01*
X218025Y221568D01*
X218039Y221478D01*
X218047Y221387D01*
X218059Y221357D01*
X218064Y221325D01*
X218107Y221245D01*
X218143Y221161D01*
X218169Y221129D01*
X218180Y221108D01*
X218203Y221086D01*
X218248Y221030D01*
X231030Y208248D01*
X231104Y208195D01*
X231173Y208135D01*
X231203Y208123D01*
X231230Y208104D01*
X231317Y208077D01*
X231401Y208043D01*
X231442Y208039D01*
X231465Y208032D01*
X231497Y208033D01*
X231568Y208025D01*
X246253Y208025D01*
X248248Y206030D01*
X251525Y202753D01*
X251525Y197762D01*
X251528Y197742D01*
X251526Y197723D01*
X251548Y197621D01*
X251564Y197519D01*
X251574Y197502D01*
X251578Y197482D01*
X251631Y197393D01*
X251680Y197302D01*
X251694Y197288D01*
X251704Y197271D01*
X251783Y197204D01*
X251858Y197132D01*
X251876Y197124D01*
X251891Y197111D01*
X251987Y197072D01*
X252081Y197029D01*
X252101Y197027D01*
X252119Y197019D01*
X252286Y197001D01*
X254122Y197001D01*
X255001Y196122D01*
X255001Y183878D01*
X254122Y182999D01*
X252286Y182999D01*
X252266Y182996D01*
X252247Y182998D01*
X252145Y182976D01*
X252043Y182960D01*
X252026Y182950D01*
X252006Y182946D01*
X251917Y182893D01*
X251826Y182844D01*
X251812Y182830D01*
X251795Y182820D01*
X251728Y182741D01*
X251656Y182666D01*
X251648Y182648D01*
X251635Y182633D01*
X251596Y182537D01*
X251553Y182443D01*
X251551Y182423D01*
X251543Y182405D01*
X251525Y182238D01*
X251525Y169928D01*
X251528Y169910D01*
X251526Y169892D01*
X251541Y169823D01*
X251547Y169747D01*
X251559Y169717D01*
X251564Y169685D01*
X251575Y169666D01*
X251578Y169651D01*
X251610Y169598D01*
X251643Y169521D01*
X251669Y169488D01*
X251680Y169468D01*
X251698Y169450D01*
X251704Y169440D01*
X251714Y169432D01*
X251748Y169390D01*
X253055Y168082D01*
X254502Y164590D01*
X254502Y160810D01*
X253055Y157318D01*
X250382Y154645D01*
X246890Y153198D01*
X243110Y153198D01*
G37*
%LPD*%
G36*
X185090Y149254D02*
X185090Y149254D01*
X185181Y149261D01*
X185211Y149273D01*
X185243Y149279D01*
X185323Y149321D01*
X185407Y149357D01*
X185439Y149383D01*
X185460Y149394D01*
X185482Y149417D01*
X185538Y149462D01*
X190538Y154462D01*
X190591Y154536D01*
X190651Y154605D01*
X190663Y154635D01*
X190682Y154661D01*
X190709Y154748D01*
X190743Y154833D01*
X190747Y154874D01*
X190754Y154897D01*
X190753Y154929D01*
X190761Y155000D01*
X190761Y155301D01*
X190747Y155391D01*
X190739Y155482D01*
X190727Y155512D01*
X190722Y155544D01*
X190679Y155624D01*
X190643Y155708D01*
X190617Y155741D01*
X190606Y155761D01*
X190583Y155783D01*
X190554Y155819D01*
X190554Y155820D01*
X190538Y155839D01*
X189999Y156378D01*
X189999Y168622D01*
X190538Y169161D01*
X190591Y169235D01*
X190651Y169304D01*
X190663Y169334D01*
X190682Y169360D01*
X190709Y169447D01*
X190743Y169532D01*
X190747Y169573D01*
X190754Y169595D01*
X190753Y169628D01*
X190761Y169699D01*
X190761Y170000D01*
X190758Y170020D01*
X190760Y170039D01*
X190738Y170141D01*
X190722Y170243D01*
X190712Y170260D01*
X190708Y170280D01*
X190655Y170369D01*
X190606Y170460D01*
X190592Y170474D01*
X190582Y170491D01*
X190503Y170558D01*
X190428Y170630D01*
X190410Y170638D01*
X190395Y170651D01*
X190299Y170690D01*
X190205Y170733D01*
X190185Y170735D01*
X190167Y170743D01*
X190000Y170761D01*
X182442Y170761D01*
X182352Y170747D01*
X182261Y170739D01*
X182231Y170727D01*
X182199Y170722D01*
X182118Y170679D01*
X182034Y170643D01*
X182002Y170617D01*
X181981Y170606D01*
X181959Y170583D01*
X181903Y170538D01*
X181864Y170499D01*
X180092Y170499D01*
X180002Y170485D01*
X179911Y170477D01*
X179881Y170465D01*
X179849Y170460D01*
X179769Y170417D01*
X179685Y170381D01*
X179653Y170355D01*
X179632Y170344D01*
X179610Y170321D01*
X179554Y170276D01*
X179488Y170211D01*
X179477Y170195D01*
X179461Y170182D01*
X179405Y170095D01*
X179345Y170011D01*
X179339Y169992D01*
X179328Y169975D01*
X179303Y169875D01*
X179272Y169776D01*
X179273Y169756D01*
X179268Y169737D01*
X179276Y169634D01*
X179279Y169530D01*
X179286Y169511D01*
X179287Y169491D01*
X179328Y169396D01*
X179363Y169299D01*
X179376Y169283D01*
X179383Y169265D01*
X179488Y169134D01*
X180001Y168622D01*
X180001Y156378D01*
X179122Y155499D01*
X171878Y155499D01*
X170999Y156378D01*
X170999Y160000D01*
X170996Y160020D01*
X170998Y160039D01*
X170976Y160141D01*
X170960Y160243D01*
X170950Y160260D01*
X170946Y160280D01*
X170893Y160369D01*
X170844Y160460D01*
X170830Y160474D01*
X170820Y160491D01*
X170761Y160541D01*
X170761Y175000D01*
X170747Y175090D01*
X170739Y175181D01*
X170727Y175211D01*
X170722Y175243D01*
X170679Y175323D01*
X170643Y175407D01*
X170617Y175439D01*
X170606Y175460D01*
X170583Y175482D01*
X170538Y175538D01*
X165538Y180538D01*
X165464Y180591D01*
X165395Y180651D01*
X165365Y180663D01*
X165339Y180682D01*
X165252Y180709D01*
X165167Y180743D01*
X165126Y180747D01*
X165103Y180754D01*
X165071Y180753D01*
X165000Y180761D01*
X150000Y180761D01*
X149910Y180747D01*
X149819Y180739D01*
X149789Y180727D01*
X149757Y180722D01*
X149677Y180679D01*
X149593Y180643D01*
X149561Y180617D01*
X149540Y180606D01*
X149518Y180583D01*
X149462Y180538D01*
X139462Y170538D01*
X139409Y170464D01*
X139349Y170395D01*
X139337Y170365D01*
X139318Y170339D01*
X139291Y170252D01*
X139257Y170167D01*
X139253Y170126D01*
X139246Y170103D01*
X139247Y170071D01*
X139239Y170000D01*
X139239Y160000D01*
X139254Y159910D01*
X139261Y159819D01*
X139273Y159789D01*
X139279Y159757D01*
X139321Y159677D01*
X139357Y159593D01*
X139383Y159561D01*
X139394Y159540D01*
X139417Y159518D01*
X139462Y159462D01*
X149462Y149462D01*
X149536Y149409D01*
X149605Y149349D01*
X149635Y149337D01*
X149661Y149318D01*
X149748Y149291D01*
X149833Y149257D01*
X149874Y149253D01*
X149897Y149246D01*
X149929Y149247D01*
X150000Y149239D01*
X185000Y149239D01*
X185090Y149254D01*
G37*
G36*
X170024Y79255D02*
X170024Y79255D01*
X170049Y79252D01*
X170144Y79275D01*
X170241Y79290D01*
X170262Y79302D01*
X170286Y79308D01*
X170370Y79359D01*
X170456Y79405D01*
X170473Y79423D01*
X170494Y79436D01*
X170556Y79512D01*
X170623Y79584D01*
X170633Y79606D01*
X170649Y79625D01*
X170683Y79716D01*
X170724Y79806D01*
X170726Y79830D01*
X170735Y79853D01*
X170749Y80000D01*
X170749Y110000D01*
X170747Y110013D01*
X170748Y110019D01*
X170743Y110041D01*
X170733Y110096D01*
X170724Y110193D01*
X170714Y110216D01*
X170710Y110241D01*
X170664Y110327D01*
X170623Y110416D01*
X170602Y110441D01*
X170595Y110456D01*
X170576Y110473D01*
X170530Y110530D01*
X160749Y120310D01*
X160749Y135000D01*
X160733Y135096D01*
X160724Y135193D01*
X160714Y135216D01*
X160710Y135241D01*
X160664Y135327D01*
X160623Y135416D01*
X160602Y135441D01*
X160595Y135456D01*
X160576Y135473D01*
X160530Y135530D01*
X155530Y140530D01*
X155450Y140587D01*
X155375Y140649D01*
X155352Y140657D01*
X155331Y140672D01*
X155238Y140700D01*
X155147Y140735D01*
X155114Y140738D01*
X155098Y140743D01*
X155073Y140742D01*
X155000Y140749D01*
X140000Y140749D01*
X139976Y140745D01*
X139951Y140748D01*
X139856Y140726D01*
X139759Y140710D01*
X139738Y140698D01*
X139714Y140692D01*
X139630Y140641D01*
X139544Y140595D01*
X139527Y140577D01*
X139506Y140564D01*
X139444Y140488D01*
X139377Y140417D01*
X139367Y140394D01*
X139352Y140375D01*
X139317Y140284D01*
X139276Y140194D01*
X139274Y140170D01*
X139265Y140147D01*
X139251Y140000D01*
X139251Y125000D01*
X139267Y124904D01*
X139276Y124807D01*
X139286Y124784D01*
X139290Y124759D01*
X139336Y124673D01*
X139377Y124584D01*
X139398Y124559D01*
X139405Y124544D01*
X139424Y124527D01*
X139470Y124470D01*
X159251Y104690D01*
X159251Y80000D01*
X159255Y79976D01*
X159252Y79951D01*
X159275Y79856D01*
X159290Y79759D01*
X159302Y79738D01*
X159308Y79714D01*
X159359Y79630D01*
X159405Y79544D01*
X159423Y79527D01*
X159436Y79506D01*
X159512Y79444D01*
X159584Y79377D01*
X159606Y79367D01*
X159625Y79352D01*
X159716Y79317D01*
X159806Y79276D01*
X159830Y79274D01*
X159853Y79265D01*
X160000Y79251D01*
X170000Y79251D01*
X170024Y79255D01*
G37*
%LPC*%
G36*
X197378Y103499D02*
X197378Y103499D01*
X196499Y104378D01*
X196499Y115622D01*
X197378Y116501D01*
X197384Y116501D01*
X197455Y116512D01*
X197526Y116514D01*
X197575Y116532D01*
X197627Y116540D01*
X197690Y116574D01*
X197757Y116599D01*
X197798Y116631D01*
X197844Y116656D01*
X197893Y116708D01*
X197949Y116752D01*
X197978Y116796D01*
X198013Y116834D01*
X198044Y116899D01*
X198082Y116959D01*
X198095Y117010D01*
X198117Y117057D01*
X198125Y117128D01*
X198142Y117198D01*
X198138Y117250D01*
X198144Y117301D01*
X198129Y117372D01*
X198123Y117443D01*
X198103Y117491D01*
X198092Y117542D01*
X198055Y117603D01*
X198027Y117669D01*
X197982Y117725D01*
X197966Y117753D01*
X197948Y117768D01*
X197922Y117800D01*
X191475Y124247D01*
X191475Y129738D01*
X191472Y129758D01*
X191474Y129777D01*
X191452Y129879D01*
X191436Y129981D01*
X191426Y129998D01*
X191422Y130018D01*
X191369Y130107D01*
X191320Y130198D01*
X191306Y130212D01*
X191296Y130229D01*
X191217Y130296D01*
X191142Y130368D01*
X191124Y130376D01*
X191109Y130389D01*
X191013Y130428D01*
X190919Y130471D01*
X190905Y130473D01*
X190642Y130736D01*
X190626Y130747D01*
X190613Y130763D01*
X190526Y130819D01*
X190442Y130879D01*
X190423Y130885D01*
X190406Y130896D01*
X190306Y130921D01*
X190207Y130952D01*
X190187Y130951D01*
X190168Y130956D01*
X190065Y130948D01*
X189961Y130945D01*
X189942Y130939D01*
X189923Y130937D01*
X189827Y130896D01*
X189730Y130861D01*
X189715Y130848D01*
X189696Y130841D01*
X189565Y130736D01*
X189228Y130399D01*
X188772Y130136D01*
X188263Y129999D01*
X186499Y129999D01*
X186499Y136762D01*
X186496Y136781D01*
X186498Y136801D01*
X186476Y136903D01*
X186460Y137005D01*
X186450Y137022D01*
X186446Y137042D01*
X186393Y137131D01*
X186344Y137222D01*
X186330Y137236D01*
X186320Y137253D01*
X186241Y137320D01*
X186166Y137391D01*
X186148Y137400D01*
X186133Y137413D01*
X186037Y137451D01*
X185943Y137495D01*
X185923Y137497D01*
X185905Y137504D01*
X185981Y137517D01*
X185998Y137526D01*
X186018Y137530D01*
X186107Y137583D01*
X186198Y137632D01*
X186212Y137646D01*
X186229Y137656D01*
X186296Y137735D01*
X186368Y137810D01*
X186376Y137828D01*
X186389Y137843D01*
X186428Y137940D01*
X186471Y138033D01*
X186473Y138053D01*
X186481Y138071D01*
X186499Y138238D01*
X186499Y145001D01*
X188263Y145001D01*
X188772Y144864D01*
X189228Y144601D01*
X189565Y144264D01*
X189581Y144253D01*
X189594Y144237D01*
X189659Y144195D01*
X189701Y144159D01*
X189724Y144150D01*
X189765Y144121D01*
X189784Y144115D01*
X189801Y144104D01*
X189900Y144079D01*
X189929Y144067D01*
X189944Y144066D01*
X190000Y144048D01*
X190020Y144049D01*
X190039Y144044D01*
X190101Y144049D01*
X190111Y144049D01*
X190120Y144050D01*
X190142Y144052D01*
X190246Y144055D01*
X190265Y144061D01*
X190285Y144063D01*
X190339Y144086D01*
X190354Y144089D01*
X190388Y144107D01*
X190477Y144139D01*
X190493Y144152D01*
X190511Y144159D01*
X190556Y144196D01*
X190571Y144204D01*
X190587Y144221D01*
X190642Y144264D01*
X190878Y144501D01*
X191002Y144501D01*
X191093Y144515D01*
X191183Y144523D01*
X191213Y144535D01*
X191245Y144540D01*
X191326Y144583D01*
X191410Y144619D01*
X191442Y144645D01*
X191463Y144656D01*
X191485Y144679D01*
X191541Y144724D01*
X197526Y150709D01*
X199068Y152251D01*
X210932Y152251D01*
X212251Y150932D01*
X212251Y129068D01*
X210932Y127749D01*
X198366Y127749D01*
X198295Y127738D01*
X198224Y127736D01*
X198175Y127718D01*
X198123Y127710D01*
X198060Y127676D01*
X197993Y127651D01*
X197952Y127619D01*
X197906Y127594D01*
X197857Y127542D01*
X197801Y127498D01*
X197772Y127454D01*
X197737Y127416D01*
X197706Y127351D01*
X197668Y127291D01*
X197655Y127240D01*
X197633Y127193D01*
X197625Y127122D01*
X197608Y127052D01*
X197612Y127000D01*
X197606Y126949D01*
X197621Y126878D01*
X197627Y126807D01*
X197647Y126759D01*
X197658Y126708D01*
X197695Y126647D01*
X197723Y126581D01*
X197768Y126525D01*
X197784Y126497D01*
X197802Y126482D01*
X197828Y126450D01*
X206525Y117753D01*
X206525Y117262D01*
X206528Y117242D01*
X206526Y117223D01*
X206548Y117121D01*
X206564Y117019D01*
X206574Y117002D01*
X206578Y116982D01*
X206631Y116893D01*
X206680Y116802D01*
X206694Y116788D01*
X206704Y116771D01*
X206783Y116704D01*
X206858Y116632D01*
X206876Y116624D01*
X206891Y116611D01*
X206987Y116572D01*
X207081Y116529D01*
X207101Y116527D01*
X207119Y116519D01*
X207286Y116501D01*
X209622Y116501D01*
X210501Y115622D01*
X210501Y104378D01*
X209622Y103499D01*
X197378Y103499D01*
G37*
%LPD*%
%LPC*%
G36*
X58028Y272999D02*
X58028Y272999D01*
X57149Y273878D01*
X57149Y275214D01*
X57146Y275234D01*
X57148Y275253D01*
X57126Y275355D01*
X57110Y275457D01*
X57100Y275474D01*
X57096Y275494D01*
X57043Y275583D01*
X56994Y275674D01*
X56980Y275688D01*
X56970Y275705D01*
X56891Y275772D01*
X56816Y275844D01*
X56798Y275852D01*
X56783Y275865D01*
X56687Y275904D01*
X56593Y275947D01*
X56573Y275949D01*
X56555Y275957D01*
X56388Y275975D01*
X44747Y275975D01*
X19224Y301499D01*
X19130Y301566D01*
X19035Y301637D01*
X19029Y301638D01*
X19024Y301642D01*
X18913Y301676D01*
X18801Y301713D01*
X18795Y301713D01*
X18789Y301714D01*
X18672Y301711D01*
X18555Y301710D01*
X18548Y301708D01*
X18543Y301708D01*
X18526Y301702D01*
X18394Y301664D01*
X16790Y300999D01*
X13210Y300999D01*
X9901Y302370D01*
X7370Y304901D01*
X5999Y308210D01*
X5999Y311790D01*
X7370Y315099D01*
X9901Y317630D01*
X13210Y319001D01*
X16790Y319001D01*
X20099Y317630D01*
X22630Y315099D01*
X24001Y311790D01*
X24001Y308210D01*
X23336Y306606D01*
X23310Y306492D01*
X23281Y306379D01*
X23282Y306372D01*
X23280Y306366D01*
X23291Y306250D01*
X23300Y306133D01*
X23303Y306128D01*
X23303Y306121D01*
X23351Y306014D01*
X23397Y305907D01*
X23401Y305901D01*
X23403Y305897D01*
X23416Y305883D01*
X23501Y305776D01*
X47030Y282248D01*
X47104Y282195D01*
X47173Y282135D01*
X47203Y282123D01*
X47230Y282104D01*
X47317Y282077D01*
X47401Y282043D01*
X47442Y282039D01*
X47465Y282032D01*
X47497Y282033D01*
X47568Y282025D01*
X56388Y282025D01*
X56408Y282028D01*
X56427Y282026D01*
X56529Y282048D01*
X56631Y282064D01*
X56648Y282074D01*
X56668Y282078D01*
X56757Y282131D01*
X56848Y282180D01*
X56862Y282194D01*
X56879Y282204D01*
X56946Y282283D01*
X57018Y282358D01*
X57026Y282376D01*
X57039Y282391D01*
X57078Y282487D01*
X57121Y282581D01*
X57123Y282601D01*
X57131Y282619D01*
X57149Y282786D01*
X57149Y284122D01*
X58028Y285001D01*
X74122Y285001D01*
X75001Y284122D01*
X75001Y273878D01*
X74122Y272999D01*
X58028Y272999D01*
G37*
%LPD*%
%LPC*%
G36*
X58028Y302999D02*
X58028Y302999D01*
X57149Y303878D01*
X57149Y305214D01*
X57146Y305234D01*
X57148Y305253D01*
X57126Y305355D01*
X57110Y305457D01*
X57100Y305474D01*
X57096Y305494D01*
X57043Y305583D01*
X56994Y305674D01*
X56980Y305688D01*
X56970Y305705D01*
X56891Y305772D01*
X56816Y305844D01*
X56798Y305852D01*
X56783Y305865D01*
X56687Y305904D01*
X56593Y305947D01*
X56573Y305949D01*
X56555Y305957D01*
X56388Y305975D01*
X39747Y305975D01*
X19224Y326499D01*
X19130Y326566D01*
X19035Y326637D01*
X19029Y326638D01*
X19024Y326642D01*
X18913Y326676D01*
X18801Y326713D01*
X18795Y326713D01*
X18789Y326714D01*
X18672Y326711D01*
X18555Y326710D01*
X18548Y326708D01*
X18543Y326708D01*
X18526Y326702D01*
X18394Y326664D01*
X16790Y325999D01*
X13210Y325999D01*
X9901Y327370D01*
X7370Y329901D01*
X5999Y333210D01*
X5999Y336790D01*
X7370Y340099D01*
X9901Y342630D01*
X13210Y344001D01*
X16790Y344001D01*
X20099Y342630D01*
X22630Y340099D01*
X24001Y336790D01*
X24001Y333210D01*
X23336Y331606D01*
X23326Y331561D01*
X23307Y331521D01*
X23300Y331452D01*
X23281Y331379D01*
X23282Y331372D01*
X23280Y331366D01*
X23285Y331318D01*
X23280Y331277D01*
X23294Y331213D01*
X23300Y331133D01*
X23303Y331128D01*
X23303Y331121D01*
X23324Y331074D01*
X23332Y331036D01*
X23364Y330984D01*
X23397Y330907D01*
X23401Y330901D01*
X23403Y330897D01*
X23416Y330883D01*
X23449Y330842D01*
X23459Y330825D01*
X23469Y330816D01*
X23501Y330776D01*
X42030Y312248D01*
X42104Y312195D01*
X42173Y312135D01*
X42203Y312123D01*
X42230Y312104D01*
X42317Y312077D01*
X42401Y312043D01*
X42442Y312039D01*
X42465Y312032D01*
X42497Y312033D01*
X42568Y312025D01*
X56388Y312025D01*
X56408Y312028D01*
X56427Y312026D01*
X56529Y312048D01*
X56631Y312064D01*
X56648Y312074D01*
X56668Y312078D01*
X56757Y312131D01*
X56848Y312180D01*
X56862Y312194D01*
X56879Y312204D01*
X56946Y312283D01*
X57018Y312358D01*
X57026Y312376D01*
X57039Y312391D01*
X57078Y312487D01*
X57121Y312581D01*
X57123Y312601D01*
X57131Y312619D01*
X57149Y312786D01*
X57149Y314122D01*
X58028Y315001D01*
X74122Y315001D01*
X75001Y314122D01*
X75001Y303878D01*
X74122Y302999D01*
X58028Y302999D01*
G37*
%LPD*%
%LPC*%
G36*
X156487Y319749D02*
X156487Y319749D01*
X155978Y319886D01*
X155522Y320149D01*
X155149Y320522D01*
X154886Y320978D01*
X154749Y321487D01*
X154749Y324230D01*
X154734Y324326D01*
X154724Y324423D01*
X154714Y324447D01*
X154710Y324473D01*
X154664Y324559D01*
X154624Y324648D01*
X154607Y324667D01*
X154594Y324690D01*
X154524Y324757D01*
X154458Y324829D01*
X154435Y324841D01*
X154416Y324859D01*
X154328Y324900D01*
X154242Y324947D01*
X154217Y324952D01*
X154193Y324963D01*
X154096Y324974D01*
X154000Y324991D01*
X153974Y324987D01*
X153949Y324990D01*
X153853Y324969D01*
X153757Y324955D01*
X153734Y324943D01*
X153708Y324938D01*
X153625Y324888D01*
X153538Y324844D01*
X153519Y324825D01*
X153497Y324812D01*
X153434Y324738D01*
X153366Y324668D01*
X153350Y324640D01*
X153337Y324625D01*
X153325Y324594D01*
X153285Y324521D01*
X153266Y324477D01*
X150523Y321734D01*
X146940Y320249D01*
X143060Y320249D01*
X139477Y321734D01*
X136734Y324477D01*
X135249Y328060D01*
X135249Y331940D01*
X136734Y335523D01*
X139477Y338266D01*
X143060Y339751D01*
X146940Y339751D01*
X150523Y338266D01*
X153266Y335523D01*
X153285Y335479D01*
X153336Y335396D01*
X153382Y335310D01*
X153400Y335292D01*
X153414Y335270D01*
X153489Y335208D01*
X153560Y335141D01*
X153584Y335130D01*
X153604Y335113D01*
X153695Y335078D01*
X153783Y335037D01*
X153809Y335034D01*
X153833Y335025D01*
X153931Y335021D01*
X154027Y335010D01*
X154053Y335015D01*
X154079Y335014D01*
X154173Y335041D01*
X154268Y335062D01*
X154290Y335076D01*
X154315Y335083D01*
X154395Y335138D01*
X154479Y335188D01*
X154496Y335208D01*
X154517Y335223D01*
X154575Y335301D01*
X154639Y335375D01*
X154649Y335400D01*
X154664Y335420D01*
X154694Y335513D01*
X154731Y335603D01*
X154734Y335636D01*
X154740Y335654D01*
X154740Y335687D01*
X154749Y335770D01*
X154749Y338513D01*
X154886Y339022D01*
X155149Y339478D01*
X155522Y339851D01*
X155978Y340114D01*
X156487Y340251D01*
X163477Y340251D01*
X163477Y330762D01*
X163480Y330742D01*
X163478Y330723D01*
X163500Y330621D01*
X163517Y330519D01*
X163526Y330502D01*
X163530Y330482D01*
X163583Y330393D01*
X163632Y330302D01*
X163646Y330288D01*
X163656Y330271D01*
X163735Y330204D01*
X163810Y330133D01*
X163828Y330124D01*
X163843Y330111D01*
X163939Y330073D01*
X164033Y330029D01*
X164053Y330027D01*
X164071Y330019D01*
X164238Y330001D01*
X165001Y330001D01*
X165001Y329999D01*
X164238Y329999D01*
X164218Y329996D01*
X164199Y329998D01*
X164097Y329976D01*
X163995Y329959D01*
X163978Y329950D01*
X163958Y329946D01*
X163869Y329893D01*
X163778Y329844D01*
X163764Y329830D01*
X163747Y329820D01*
X163680Y329741D01*
X163609Y329666D01*
X163600Y329648D01*
X163587Y329633D01*
X163548Y329537D01*
X163505Y329443D01*
X163503Y329423D01*
X163495Y329405D01*
X163477Y329238D01*
X163477Y319749D01*
X156487Y319749D01*
G37*
%LPD*%
G36*
X210024Y129255D02*
X210024Y129255D01*
X210049Y129252D01*
X210144Y129275D01*
X210241Y129290D01*
X210262Y129302D01*
X210286Y129308D01*
X210370Y129359D01*
X210456Y129405D01*
X210473Y129423D01*
X210494Y129436D01*
X210556Y129512D01*
X210623Y129584D01*
X210633Y129606D01*
X210649Y129625D01*
X210683Y129716D01*
X210724Y129806D01*
X210726Y129830D01*
X210735Y129853D01*
X210749Y130000D01*
X210749Y150000D01*
X210745Y150024D01*
X210748Y150049D01*
X210726Y150144D01*
X210710Y150241D01*
X210698Y150262D01*
X210692Y150286D01*
X210641Y150370D01*
X210595Y150456D01*
X210577Y150473D01*
X210564Y150494D01*
X210488Y150556D01*
X210417Y150623D01*
X210394Y150633D01*
X210375Y150649D01*
X210284Y150683D01*
X210194Y150724D01*
X210170Y150726D01*
X210147Y150735D01*
X210000Y150749D01*
X200000Y150749D01*
X199904Y150733D01*
X199807Y150724D01*
X199784Y150714D01*
X199759Y150710D01*
X199673Y150664D01*
X199584Y150623D01*
X199559Y150602D01*
X199544Y150595D01*
X199527Y150576D01*
X199470Y150530D01*
X189720Y140780D01*
X189663Y140700D01*
X189601Y140625D01*
X189593Y140602D01*
X189578Y140581D01*
X189550Y140488D01*
X189515Y140397D01*
X189512Y140364D01*
X189507Y140348D01*
X189508Y140323D01*
X189501Y140250D01*
X189501Y134750D01*
X189517Y134654D01*
X189526Y134557D01*
X189536Y134534D01*
X189540Y134509D01*
X189586Y134423D01*
X189627Y134334D01*
X189648Y134309D01*
X189655Y134294D01*
X189674Y134277D01*
X189720Y134220D01*
X194470Y129470D01*
X194550Y129413D01*
X194625Y129352D01*
X194648Y129343D01*
X194669Y129328D01*
X194762Y129300D01*
X194853Y129265D01*
X194886Y129262D01*
X194902Y129257D01*
X194927Y129258D01*
X195000Y129251D01*
X210000Y129251D01*
X210024Y129255D01*
G37*
%LPC*%
G36*
X112878Y182999D02*
X112878Y182999D01*
X111999Y183878D01*
X111999Y196122D01*
X112878Y197001D01*
X124122Y197001D01*
X125001Y196122D01*
X125001Y193786D01*
X125004Y193766D01*
X125002Y193747D01*
X125024Y193645D01*
X125040Y193543D01*
X125050Y193526D01*
X125054Y193506D01*
X125107Y193417D01*
X125156Y193326D01*
X125170Y193312D01*
X125180Y193295D01*
X125259Y193228D01*
X125334Y193156D01*
X125352Y193148D01*
X125367Y193135D01*
X125463Y193096D01*
X125557Y193053D01*
X125577Y193051D01*
X125595Y193043D01*
X125762Y193025D01*
X136238Y193025D01*
X136258Y193028D01*
X136277Y193026D01*
X136379Y193048D01*
X136481Y193064D01*
X136498Y193074D01*
X136518Y193078D01*
X136607Y193131D01*
X136698Y193180D01*
X136712Y193194D01*
X136729Y193204D01*
X136796Y193283D01*
X136868Y193358D01*
X136876Y193376D01*
X136889Y193391D01*
X136928Y193487D01*
X136971Y193581D01*
X136973Y193601D01*
X136981Y193619D01*
X136999Y193786D01*
X136999Y194622D01*
X137878Y195501D01*
X147122Y195501D01*
X148001Y194622D01*
X148001Y185378D01*
X147122Y184499D01*
X137878Y184499D01*
X136999Y185378D01*
X136999Y186214D01*
X136996Y186234D01*
X136998Y186253D01*
X136976Y186355D01*
X136960Y186457D01*
X136950Y186474D01*
X136946Y186494D01*
X136893Y186583D01*
X136844Y186674D01*
X136830Y186688D01*
X136820Y186705D01*
X136741Y186772D01*
X136666Y186844D01*
X136648Y186852D01*
X136633Y186865D01*
X136537Y186904D01*
X136443Y186947D01*
X136423Y186949D01*
X136405Y186957D01*
X136238Y186975D01*
X125762Y186975D01*
X125742Y186972D01*
X125723Y186974D01*
X125621Y186952D01*
X125519Y186936D01*
X125502Y186926D01*
X125482Y186922D01*
X125393Y186869D01*
X125302Y186820D01*
X125288Y186806D01*
X125271Y186796D01*
X125204Y186717D01*
X125132Y186642D01*
X125124Y186624D01*
X125111Y186609D01*
X125072Y186513D01*
X125029Y186419D01*
X125027Y186399D01*
X125019Y186381D01*
X125001Y186214D01*
X125001Y183878D01*
X124122Y182999D01*
X112878Y182999D01*
G37*
%LPD*%
%LPC*%
G36*
X235878Y317999D02*
X235878Y317999D01*
X234999Y318878D01*
X234999Y320214D01*
X234996Y320234D01*
X234998Y320253D01*
X234976Y320355D01*
X234960Y320457D01*
X234950Y320474D01*
X234946Y320494D01*
X234893Y320583D01*
X234844Y320674D01*
X234830Y320688D01*
X234820Y320705D01*
X234741Y320772D01*
X234666Y320844D01*
X234648Y320852D01*
X234633Y320865D01*
X234537Y320904D01*
X234443Y320947D01*
X234423Y320949D01*
X234405Y320957D01*
X234238Y320975D01*
X227656Y320975D01*
X227566Y320961D01*
X227475Y320953D01*
X227445Y320941D01*
X227413Y320936D01*
X227332Y320893D01*
X227248Y320857D01*
X227216Y320831D01*
X227195Y320820D01*
X227173Y320797D01*
X227117Y320752D01*
X226864Y320499D01*
X223136Y320499D01*
X220499Y323136D01*
X220499Y326864D01*
X223136Y329501D01*
X226864Y329501D01*
X229117Y327248D01*
X229191Y327195D01*
X229261Y327135D01*
X229291Y327123D01*
X229317Y327104D01*
X229404Y327077D01*
X229489Y327043D01*
X229530Y327039D01*
X229552Y327032D01*
X229584Y327033D01*
X229656Y327025D01*
X234238Y327025D01*
X234258Y327028D01*
X234277Y327026D01*
X234379Y327048D01*
X234481Y327064D01*
X234498Y327074D01*
X234518Y327078D01*
X234607Y327131D01*
X234698Y327180D01*
X234712Y327194D01*
X234729Y327204D01*
X234796Y327283D01*
X234868Y327358D01*
X234876Y327376D01*
X234889Y327391D01*
X234928Y327487D01*
X234971Y327581D01*
X234973Y327601D01*
X234981Y327619D01*
X234999Y327786D01*
X234999Y329122D01*
X235878Y330001D01*
X251972Y330001D01*
X252851Y329122D01*
X252851Y318878D01*
X251972Y317999D01*
X235878Y317999D01*
G37*
%LPD*%
%LPC*%
G36*
X235878Y272999D02*
X235878Y272999D01*
X234999Y273878D01*
X234999Y275214D01*
X234996Y275234D01*
X234998Y275253D01*
X234976Y275355D01*
X234960Y275457D01*
X234950Y275474D01*
X234946Y275494D01*
X234893Y275583D01*
X234844Y275674D01*
X234830Y275688D01*
X234820Y275705D01*
X234741Y275772D01*
X234666Y275844D01*
X234648Y275852D01*
X234633Y275865D01*
X234537Y275904D01*
X234443Y275947D01*
X234423Y275949D01*
X234405Y275957D01*
X234238Y275975D01*
X227656Y275975D01*
X227566Y275961D01*
X227475Y275953D01*
X227445Y275941D01*
X227413Y275936D01*
X227332Y275893D01*
X227248Y275857D01*
X227216Y275831D01*
X227195Y275820D01*
X227173Y275797D01*
X227117Y275752D01*
X226864Y275499D01*
X223136Y275499D01*
X220499Y278136D01*
X220499Y281864D01*
X223136Y284501D01*
X226864Y284501D01*
X229117Y282248D01*
X229191Y282195D01*
X229261Y282135D01*
X229291Y282123D01*
X229317Y282104D01*
X229404Y282077D01*
X229489Y282043D01*
X229530Y282039D01*
X229552Y282032D01*
X229584Y282033D01*
X229656Y282025D01*
X234238Y282025D01*
X234258Y282028D01*
X234277Y282026D01*
X234379Y282048D01*
X234481Y282064D01*
X234498Y282074D01*
X234518Y282078D01*
X234607Y282131D01*
X234698Y282180D01*
X234712Y282194D01*
X234729Y282204D01*
X234796Y282283D01*
X234868Y282358D01*
X234876Y282376D01*
X234889Y282391D01*
X234928Y282487D01*
X234971Y282581D01*
X234973Y282601D01*
X234981Y282619D01*
X234999Y282786D01*
X234999Y284122D01*
X235878Y285001D01*
X251972Y285001D01*
X252851Y284122D01*
X252851Y273878D01*
X251972Y272999D01*
X235878Y272999D01*
G37*
%LPD*%
%LPC*%
G36*
X235878Y287999D02*
X235878Y287999D01*
X234999Y288878D01*
X234999Y290214D01*
X234996Y290232D01*
X234998Y290248D01*
X234998Y290250D01*
X234998Y290253D01*
X234976Y290355D01*
X234960Y290457D01*
X234950Y290474D01*
X234946Y290494D01*
X234893Y290583D01*
X234844Y290674D01*
X234830Y290688D01*
X234820Y290705D01*
X234741Y290772D01*
X234666Y290844D01*
X234648Y290852D01*
X234633Y290865D01*
X234537Y290904D01*
X234443Y290947D01*
X234423Y290949D01*
X234405Y290957D01*
X234238Y290975D01*
X227656Y290975D01*
X227566Y290961D01*
X227475Y290953D01*
X227445Y290941D01*
X227413Y290936D01*
X227332Y290893D01*
X227248Y290857D01*
X227216Y290831D01*
X227195Y290820D01*
X227191Y290815D01*
X227190Y290815D01*
X227172Y290796D01*
X227117Y290752D01*
X226864Y290499D01*
X223136Y290499D01*
X220499Y293136D01*
X220499Y296864D01*
X223136Y299501D01*
X226864Y299501D01*
X229117Y297248D01*
X229191Y297195D01*
X229261Y297135D01*
X229291Y297123D01*
X229317Y297104D01*
X229404Y297077D01*
X229489Y297043D01*
X229530Y297039D01*
X229552Y297032D01*
X229584Y297033D01*
X229656Y297025D01*
X234238Y297025D01*
X234258Y297028D01*
X234277Y297026D01*
X234379Y297048D01*
X234481Y297064D01*
X234498Y297074D01*
X234518Y297078D01*
X234607Y297131D01*
X234698Y297180D01*
X234712Y297194D01*
X234729Y297204D01*
X234796Y297283D01*
X234868Y297358D01*
X234876Y297376D01*
X234889Y297391D01*
X234928Y297487D01*
X234971Y297581D01*
X234973Y297601D01*
X234981Y297619D01*
X234999Y297786D01*
X234999Y299122D01*
X235878Y300001D01*
X251972Y300001D01*
X252851Y299122D01*
X252851Y288878D01*
X251972Y287999D01*
X235878Y287999D01*
G37*
%LPD*%
%LPC*%
G36*
X58028Y287999D02*
X58028Y287999D01*
X57149Y288878D01*
X57149Y290214D01*
X57146Y290232D01*
X57148Y290248D01*
X57148Y290250D01*
X57148Y290253D01*
X57126Y290355D01*
X57110Y290457D01*
X57100Y290474D01*
X57096Y290494D01*
X57043Y290583D01*
X56994Y290674D01*
X56980Y290688D01*
X56970Y290705D01*
X56891Y290772D01*
X56816Y290844D01*
X56798Y290852D01*
X56783Y290865D01*
X56687Y290904D01*
X56593Y290947D01*
X56573Y290949D01*
X56555Y290957D01*
X56388Y290975D01*
X52656Y290975D01*
X52566Y290961D01*
X52475Y290953D01*
X52445Y290941D01*
X52413Y290936D01*
X52332Y290893D01*
X52248Y290857D01*
X52216Y290831D01*
X52195Y290820D01*
X52191Y290815D01*
X52190Y290815D01*
X52172Y290796D01*
X52117Y290752D01*
X51864Y290499D01*
X48136Y290499D01*
X45499Y293136D01*
X45499Y296864D01*
X48136Y299501D01*
X51864Y299501D01*
X54117Y297248D01*
X54191Y297195D01*
X54261Y297135D01*
X54291Y297123D01*
X54317Y297104D01*
X54404Y297077D01*
X54489Y297043D01*
X54530Y297039D01*
X54552Y297032D01*
X54584Y297033D01*
X54656Y297025D01*
X56388Y297025D01*
X56408Y297028D01*
X56427Y297026D01*
X56529Y297048D01*
X56631Y297064D01*
X56648Y297074D01*
X56668Y297078D01*
X56757Y297131D01*
X56848Y297180D01*
X56862Y297194D01*
X56879Y297204D01*
X56946Y297283D01*
X57018Y297358D01*
X57026Y297376D01*
X57039Y297391D01*
X57078Y297487D01*
X57121Y297581D01*
X57123Y297601D01*
X57131Y297619D01*
X57149Y297786D01*
X57149Y299122D01*
X58028Y300001D01*
X74122Y300001D01*
X75001Y299122D01*
X75001Y288878D01*
X74122Y287999D01*
X58028Y287999D01*
G37*
%LPD*%
%LPC*%
G36*
X225878Y102999D02*
X225878Y102999D01*
X224999Y103878D01*
X224999Y111908D01*
X224985Y111998D01*
X224977Y112089D01*
X224965Y112119D01*
X224960Y112151D01*
X224917Y112231D01*
X224881Y112315D01*
X224855Y112347D01*
X224844Y112368D01*
X224821Y112390D01*
X224776Y112446D01*
X221975Y115247D01*
X221975Y121344D01*
X221961Y121434D01*
X221953Y121525D01*
X221941Y121555D01*
X221936Y121587D01*
X221893Y121668D01*
X221857Y121752D01*
X221831Y121784D01*
X221820Y121805D01*
X221797Y121827D01*
X221752Y121883D01*
X220499Y123136D01*
X220499Y126864D01*
X223136Y129501D01*
X226864Y129501D01*
X229501Y126864D01*
X229501Y123136D01*
X228248Y121883D01*
X228195Y121809D01*
X228135Y121739D01*
X228123Y121709D01*
X228104Y121683D01*
X228077Y121596D01*
X228043Y121511D01*
X228039Y121470D01*
X228032Y121448D01*
X228033Y121416D01*
X228025Y121344D01*
X228025Y118068D01*
X228039Y117978D01*
X228047Y117887D01*
X228059Y117857D01*
X228064Y117825D01*
X228107Y117745D01*
X228143Y117661D01*
X228169Y117629D01*
X228180Y117608D01*
X228203Y117586D01*
X228248Y117530D01*
X228554Y117224D01*
X228628Y117171D01*
X228697Y117111D01*
X228727Y117099D01*
X228754Y117080D01*
X228841Y117053D01*
X228925Y117019D01*
X228966Y117015D01*
X228989Y117008D01*
X229021Y117009D01*
X229092Y117001D01*
X237122Y117001D01*
X238001Y116122D01*
X238001Y103878D01*
X237122Y102999D01*
X225878Y102999D01*
G37*
%LPD*%
%LPC*%
G36*
X173136Y120499D02*
X173136Y120499D01*
X170499Y123136D01*
X170499Y126864D01*
X172252Y128617D01*
X172305Y128691D01*
X172365Y128761D01*
X172377Y128791D01*
X172396Y128817D01*
X172423Y128904D01*
X172457Y128989D01*
X172461Y129030D01*
X172468Y129052D01*
X172467Y129084D01*
X172475Y129156D01*
X172475Y129738D01*
X172472Y129758D01*
X172474Y129777D01*
X172452Y129879D01*
X172436Y129981D01*
X172426Y129998D01*
X172422Y130018D01*
X172369Y130107D01*
X172320Y130198D01*
X172306Y130212D01*
X172296Y130229D01*
X172217Y130296D01*
X172142Y130368D01*
X172124Y130376D01*
X172109Y130389D01*
X172013Y130428D01*
X171919Y130471D01*
X171905Y130473D01*
X170999Y131378D01*
X170999Y143622D01*
X171878Y144501D01*
X179122Y144501D01*
X179358Y144264D01*
X179374Y144253D01*
X179387Y144237D01*
X179452Y144195D01*
X179494Y144159D01*
X179517Y144150D01*
X179558Y144121D01*
X179577Y144115D01*
X179594Y144104D01*
X179693Y144079D01*
X179722Y144067D01*
X179736Y144066D01*
X179793Y144048D01*
X179813Y144049D01*
X179832Y144044D01*
X179894Y144049D01*
X179904Y144049D01*
X179913Y144050D01*
X179935Y144052D01*
X180039Y144055D01*
X180058Y144061D01*
X180077Y144063D01*
X180131Y144086D01*
X180147Y144089D01*
X180181Y144107D01*
X180270Y144139D01*
X180285Y144152D01*
X180304Y144159D01*
X180349Y144196D01*
X180364Y144204D01*
X180380Y144221D01*
X180435Y144264D01*
X180772Y144601D01*
X181228Y144864D01*
X181737Y145001D01*
X183501Y145001D01*
X183501Y138238D01*
X183504Y138219D01*
X183502Y138199D01*
X183524Y138097D01*
X183540Y137995D01*
X183550Y137978D01*
X183554Y137958D01*
X183607Y137869D01*
X183656Y137778D01*
X183670Y137764D01*
X183680Y137747D01*
X183759Y137680D01*
X183834Y137609D01*
X183852Y137600D01*
X183867Y137587D01*
X183963Y137549D01*
X184057Y137505D01*
X184077Y137503D01*
X184095Y137496D01*
X184019Y137483D01*
X184002Y137474D01*
X183982Y137470D01*
X183893Y137417D01*
X183802Y137368D01*
X183788Y137354D01*
X183771Y137344D01*
X183704Y137265D01*
X183632Y137190D01*
X183624Y137172D01*
X183611Y137157D01*
X183572Y137060D01*
X183529Y136967D01*
X183527Y136947D01*
X183519Y136929D01*
X183501Y136762D01*
X183501Y129999D01*
X181737Y129999D01*
X181228Y130136D01*
X180772Y130399D01*
X180435Y130736D01*
X180419Y130747D01*
X180406Y130763D01*
X180319Y130819D01*
X180235Y130879D01*
X180216Y130885D01*
X180199Y130896D01*
X180099Y130921D01*
X180000Y130952D01*
X179980Y130951D01*
X179961Y130956D01*
X179858Y130948D01*
X179754Y130945D01*
X179735Y130939D01*
X179715Y130937D01*
X179620Y130896D01*
X179523Y130861D01*
X179507Y130848D01*
X179489Y130841D01*
X179358Y130736D01*
X179089Y130467D01*
X179043Y130460D01*
X179026Y130450D01*
X179006Y130446D01*
X178917Y130393D01*
X178826Y130344D01*
X178812Y130330D01*
X178795Y130320D01*
X178728Y130241D01*
X178656Y130166D01*
X178648Y130148D01*
X178635Y130133D01*
X178596Y130037D01*
X178553Y129943D01*
X178551Y129923D01*
X178543Y129905D01*
X178525Y129738D01*
X178525Y128156D01*
X178539Y128066D01*
X178547Y127975D01*
X178559Y127945D01*
X178564Y127913D01*
X178607Y127832D01*
X178643Y127748D01*
X178669Y127716D01*
X178680Y127695D01*
X178703Y127673D01*
X178748Y127617D01*
X179501Y126864D01*
X179501Y123136D01*
X176864Y120499D01*
X173136Y120499D01*
G37*
%LPD*%
%LPC*%
G36*
X235878Y212999D02*
X235878Y212999D01*
X234999Y213878D01*
X234999Y224122D01*
X235878Y225001D01*
X251972Y225001D01*
X252851Y224122D01*
X252851Y213878D01*
X251972Y212999D01*
X235878Y212999D01*
G37*
%LPD*%
%LPC*%
G36*
X235878Y242999D02*
X235878Y242999D01*
X234999Y243878D01*
X234999Y254122D01*
X235878Y255001D01*
X251972Y255001D01*
X252851Y254122D01*
X252851Y243878D01*
X251972Y242999D01*
X235878Y242999D01*
G37*
%LPD*%
%LPC*%
G36*
X58028Y227999D02*
X58028Y227999D01*
X57149Y228878D01*
X57149Y239122D01*
X58028Y240001D01*
X74122Y240001D01*
X75001Y239122D01*
X75001Y228878D01*
X74122Y227999D01*
X58028Y227999D01*
G37*
%LPD*%
%LPC*%
G36*
X235878Y227999D02*
X235878Y227999D01*
X234999Y228878D01*
X234999Y239122D01*
X235878Y240001D01*
X251972Y240001D01*
X252851Y239122D01*
X252851Y228878D01*
X251972Y227999D01*
X235878Y227999D01*
G37*
%LPD*%
%LPC*%
G36*
X166523Y331523D02*
X166523Y331523D01*
X166523Y340251D01*
X173513Y340251D01*
X174022Y340114D01*
X174478Y339851D01*
X174851Y339478D01*
X175114Y339022D01*
X175251Y338513D01*
X175251Y331523D01*
X166523Y331523D01*
G37*
%LPD*%
%LPC*%
G36*
X166523Y319749D02*
X166523Y319749D01*
X166523Y328477D01*
X175251Y328477D01*
X175251Y321487D01*
X175114Y320978D01*
X174851Y320522D01*
X174478Y320149D01*
X174022Y319886D01*
X173513Y319749D01*
X166523Y319749D01*
G37*
%LPD*%
%LPC*%
G36*
X44223Y221523D02*
X44223Y221523D01*
X44223Y230002D01*
X46843Y230002D01*
X52702Y224143D01*
X52702Y221523D01*
X44223Y221523D01*
G37*
%LPD*%
%LPC*%
G36*
X246523Y138823D02*
X246523Y138823D01*
X246523Y147302D01*
X249143Y147302D01*
X255002Y141443D01*
X255002Y138823D01*
X246523Y138823D01*
G37*
%LPD*%
%LPC*%
G36*
X234998Y138823D02*
X234998Y138823D01*
X234998Y141443D01*
X240857Y147302D01*
X243477Y147302D01*
X243477Y138823D01*
X234998Y138823D01*
G37*
%LPD*%
%LPC*%
G36*
X44223Y209998D02*
X44223Y209998D01*
X44223Y218477D01*
X52702Y218477D01*
X52702Y215857D01*
X46843Y209998D01*
X44223Y209998D01*
G37*
%LPD*%
%LPC*%
G36*
X246523Y127298D02*
X246523Y127298D01*
X246523Y135777D01*
X255002Y135777D01*
X255002Y133157D01*
X249143Y127298D01*
X246523Y127298D01*
G37*
%LPD*%
%LPC*%
G36*
X240857Y127298D02*
X240857Y127298D01*
X234998Y133157D01*
X234998Y135777D01*
X243477Y135777D01*
X243477Y127298D01*
X240857Y127298D01*
G37*
%LPD*%
%LPC*%
G36*
X16523Y286523D02*
X16523Y286523D01*
X16523Y294384D01*
X17771Y294136D01*
X19500Y293419D01*
X21056Y292380D01*
X22380Y291056D01*
X23419Y289500D01*
X24136Y287771D01*
X24384Y286523D01*
X16523Y286523D01*
G37*
%LPD*%
%LPC*%
G36*
X16523Y283477D02*
X16523Y283477D01*
X24384Y283477D01*
X24136Y282229D01*
X23419Y280500D01*
X22380Y278944D01*
X21056Y277620D01*
X19500Y276581D01*
X17771Y275864D01*
X16523Y275616D01*
X16523Y283477D01*
G37*
%LPD*%
%LPC*%
G36*
X5616Y286523D02*
X5616Y286523D01*
X5864Y287771D01*
X6581Y289500D01*
X7620Y291056D01*
X8944Y292380D01*
X10500Y293419D01*
X12229Y294136D01*
X13477Y294384D01*
X13477Y286523D01*
X5616Y286523D01*
G37*
%LPD*%
%LPC*%
G36*
X12229Y275864D02*
X12229Y275864D01*
X10500Y276581D01*
X8944Y277620D01*
X7620Y278944D01*
X6581Y280500D01*
X5864Y282229D01*
X5616Y283477D01*
X13477Y283477D01*
X13477Y275616D01*
X12229Y275864D01*
G37*
%LPD*%
%LPC*%
G36*
X67598Y265523D02*
X67598Y265523D01*
X67598Y270501D01*
X73763Y270501D01*
X74272Y270364D01*
X74728Y270101D01*
X75101Y269728D01*
X75364Y269272D01*
X75501Y268763D01*
X75501Y265523D01*
X67598Y265523D01*
G37*
%LPD*%
%LPC*%
G36*
X245448Y265523D02*
X245448Y265523D01*
X245448Y270501D01*
X251613Y270501D01*
X252122Y270364D01*
X252578Y270101D01*
X252951Y269728D01*
X253214Y269272D01*
X253351Y268763D01*
X253351Y265523D01*
X245448Y265523D01*
G37*
%LPD*%
%LPC*%
G36*
X67598Y220523D02*
X67598Y220523D01*
X67598Y225501D01*
X73763Y225501D01*
X74272Y225364D01*
X74728Y225101D01*
X75101Y224728D01*
X75364Y224272D01*
X75501Y223763D01*
X75501Y220523D01*
X67598Y220523D01*
G37*
%LPD*%
%LPC*%
G36*
X56649Y265523D02*
X56649Y265523D01*
X56649Y268763D01*
X56786Y269272D01*
X57049Y269728D01*
X57422Y270101D01*
X57878Y270364D01*
X58387Y270501D01*
X64552Y270501D01*
X64552Y265523D01*
X56649Y265523D01*
G37*
%LPD*%
%LPC*%
G36*
X234499Y265523D02*
X234499Y265523D01*
X234499Y268763D01*
X234636Y269272D01*
X234899Y269728D01*
X235272Y270101D01*
X235728Y270364D01*
X236237Y270501D01*
X242402Y270501D01*
X242402Y265523D01*
X234499Y265523D01*
G37*
%LPD*%
%LPC*%
G36*
X56649Y220523D02*
X56649Y220523D01*
X56649Y223763D01*
X56786Y224272D01*
X57049Y224728D01*
X57422Y225101D01*
X57878Y225364D01*
X58387Y225501D01*
X64552Y225501D01*
X64552Y220523D01*
X56649Y220523D01*
G37*
%LPD*%
%LPC*%
G36*
X67598Y257499D02*
X67598Y257499D01*
X67598Y262477D01*
X75501Y262477D01*
X75501Y259237D01*
X75364Y258728D01*
X75101Y258272D01*
X74728Y257899D01*
X74272Y257636D01*
X73763Y257499D01*
X67598Y257499D01*
G37*
%LPD*%
%LPC*%
G36*
X67598Y212499D02*
X67598Y212499D01*
X67598Y217477D01*
X75501Y217477D01*
X75501Y214237D01*
X75364Y213728D01*
X75101Y213272D01*
X74728Y212899D01*
X74272Y212636D01*
X73763Y212499D01*
X67598Y212499D01*
G37*
%LPD*%
%LPC*%
G36*
X245448Y332499D02*
X245448Y332499D01*
X245448Y337477D01*
X253351Y337477D01*
X253351Y334237D01*
X253214Y333728D01*
X252951Y333272D01*
X252578Y332899D01*
X252122Y332636D01*
X251613Y332499D01*
X245448Y332499D01*
G37*
%LPD*%
%LPC*%
G36*
X245448Y257499D02*
X245448Y257499D01*
X245448Y262477D01*
X253351Y262477D01*
X253351Y259237D01*
X253214Y258728D01*
X252951Y258272D01*
X252578Y257899D01*
X252122Y257636D01*
X251613Y257499D01*
X245448Y257499D01*
G37*
%LPD*%
%LPC*%
G36*
X58387Y257499D02*
X58387Y257499D01*
X57878Y257636D01*
X57422Y257899D01*
X57049Y258272D01*
X56786Y258728D01*
X56649Y259237D01*
X56649Y262477D01*
X64552Y262477D01*
X64552Y257499D01*
X58387Y257499D01*
G37*
%LPD*%
%LPC*%
G36*
X236237Y257499D02*
X236237Y257499D01*
X235728Y257636D01*
X235272Y257899D01*
X234899Y258272D01*
X234636Y258728D01*
X234499Y259237D01*
X234499Y262477D01*
X242402Y262477D01*
X242402Y257499D01*
X236237Y257499D01*
G37*
%LPD*%
%LPC*%
G36*
X58387Y212499D02*
X58387Y212499D01*
X57878Y212636D01*
X57422Y212899D01*
X57049Y213272D01*
X56786Y213728D01*
X56649Y214237D01*
X56649Y217477D01*
X64552Y217477D01*
X64552Y212499D01*
X58387Y212499D01*
G37*
%LPD*%
%LPC*%
G36*
X236237Y332499D02*
X236237Y332499D01*
X235728Y332636D01*
X235272Y332899D01*
X234899Y333272D01*
X234636Y333728D01*
X234499Y334237D01*
X234499Y337477D01*
X242402Y337477D01*
X242402Y332499D01*
X236237Y332499D01*
G37*
%LPD*%
%LPC*%
G36*
X58023Y191523D02*
X58023Y191523D01*
X58023Y197001D01*
X62263Y197001D01*
X62772Y196864D01*
X63228Y196601D01*
X63601Y196228D01*
X63864Y195772D01*
X64001Y195263D01*
X64001Y191523D01*
X58023Y191523D01*
G37*
%LPD*%
%LPC*%
G36*
X188023Y111523D02*
X188023Y111523D01*
X188023Y117001D01*
X192263Y117001D01*
X192772Y116864D01*
X193228Y116601D01*
X193601Y116228D01*
X193864Y115772D01*
X194001Y115263D01*
X194001Y111523D01*
X188023Y111523D01*
G37*
%LPD*%
%LPC*%
G36*
X58023Y111523D02*
X58023Y111523D01*
X58023Y117001D01*
X62263Y117001D01*
X62772Y116864D01*
X63228Y116601D01*
X63601Y116228D01*
X63864Y115772D01*
X64001Y115263D01*
X64001Y111523D01*
X58023Y111523D01*
G37*
%LPD*%
%LPC*%
G36*
X205023Y191523D02*
X205023Y191523D01*
X205023Y197501D01*
X208763Y197501D01*
X209272Y197364D01*
X209728Y197101D01*
X210101Y196728D01*
X210364Y196272D01*
X210501Y195763D01*
X210501Y191523D01*
X205023Y191523D01*
G37*
%LPD*%
%LPC*%
G36*
X30023Y111523D02*
X30023Y111523D01*
X30023Y117501D01*
X33763Y117501D01*
X34272Y117364D01*
X34728Y117101D01*
X35101Y116728D01*
X35364Y116272D01*
X35501Y115763D01*
X35501Y111523D01*
X30023Y111523D01*
G37*
%LPD*%
%LPC*%
G36*
X48999Y191523D02*
X48999Y191523D01*
X48999Y195263D01*
X49136Y195772D01*
X49399Y196228D01*
X49772Y196601D01*
X50228Y196864D01*
X50737Y197001D01*
X54977Y197001D01*
X54977Y191523D01*
X48999Y191523D01*
G37*
%LPD*%
%LPC*%
G36*
X178999Y111523D02*
X178999Y111523D01*
X178999Y115263D01*
X179136Y115772D01*
X179399Y116228D01*
X179772Y116601D01*
X180228Y116864D01*
X180737Y117001D01*
X184977Y117001D01*
X184977Y111523D01*
X178999Y111523D01*
G37*
%LPD*%
%LPC*%
G36*
X48999Y111523D02*
X48999Y111523D01*
X48999Y115263D01*
X49136Y115772D01*
X49399Y116228D01*
X49772Y116601D01*
X50228Y116864D01*
X50737Y117001D01*
X54977Y117001D01*
X54977Y111523D01*
X48999Y111523D01*
G37*
%LPD*%
%LPC*%
G36*
X30023Y102499D02*
X30023Y102499D01*
X30023Y108477D01*
X35501Y108477D01*
X35501Y104237D01*
X35364Y103728D01*
X35101Y103272D01*
X34728Y102899D01*
X34272Y102636D01*
X33763Y102499D01*
X30023Y102499D01*
G37*
%LPD*%
%LPC*%
G36*
X196499Y191523D02*
X196499Y191523D01*
X196499Y195763D01*
X196636Y196272D01*
X196899Y196728D01*
X197272Y197101D01*
X197728Y197364D01*
X198237Y197501D01*
X201977Y197501D01*
X201977Y191523D01*
X196499Y191523D01*
G37*
%LPD*%
%LPC*%
G36*
X21499Y111523D02*
X21499Y111523D01*
X21499Y115763D01*
X21636Y116272D01*
X21899Y116728D01*
X22272Y117101D01*
X22728Y117364D01*
X23237Y117501D01*
X26977Y117501D01*
X26977Y111523D01*
X21499Y111523D01*
G37*
%LPD*%
%LPC*%
G36*
X241499Y111523D02*
X241499Y111523D01*
X241499Y115763D01*
X241636Y116272D01*
X241899Y116728D01*
X242272Y117101D01*
X242728Y117364D01*
X243237Y117501D01*
X246977Y117501D01*
X246977Y111523D01*
X241499Y111523D01*
G37*
%LPD*%
%LPC*%
G36*
X205023Y182499D02*
X205023Y182499D01*
X205023Y188477D01*
X210501Y188477D01*
X210501Y184237D01*
X210364Y183728D01*
X210101Y183272D01*
X209728Y182899D01*
X209272Y182636D01*
X208763Y182499D01*
X205023Y182499D01*
G37*
%LPD*%
%LPC*%
G36*
X58023Y182999D02*
X58023Y182999D01*
X58023Y188477D01*
X64001Y188477D01*
X64001Y184737D01*
X63864Y184228D01*
X63601Y183772D01*
X63228Y183399D01*
X62772Y183136D01*
X62263Y182999D01*
X58023Y182999D01*
G37*
%LPD*%
%LPC*%
G36*
X188023Y102999D02*
X188023Y102999D01*
X188023Y108477D01*
X194001Y108477D01*
X194001Y104737D01*
X193864Y104228D01*
X193601Y103772D01*
X193228Y103399D01*
X192772Y103136D01*
X192263Y102999D01*
X188023Y102999D01*
G37*
%LPD*%
%LPC*%
G36*
X58023Y102999D02*
X58023Y102999D01*
X58023Y108477D01*
X64001Y108477D01*
X64001Y104737D01*
X63864Y104228D01*
X63601Y103772D01*
X63228Y103399D01*
X62772Y103136D01*
X62263Y102999D01*
X58023Y102999D01*
G37*
%LPD*%
%LPC*%
G36*
X50737Y182999D02*
X50737Y182999D01*
X50228Y183136D01*
X49772Y183399D01*
X49399Y183772D01*
X49136Y184228D01*
X48999Y184737D01*
X48999Y188477D01*
X54977Y188477D01*
X54977Y182999D01*
X50737Y182999D01*
G37*
%LPD*%
%LPC*%
G36*
X180737Y102999D02*
X180737Y102999D01*
X180228Y103136D01*
X179772Y103399D01*
X179399Y103772D01*
X179136Y104228D01*
X178999Y104737D01*
X178999Y108477D01*
X184977Y108477D01*
X184977Y102999D01*
X180737Y102999D01*
G37*
%LPD*%
%LPC*%
G36*
X50737Y102999D02*
X50737Y102999D01*
X50228Y103136D01*
X49772Y103399D01*
X49399Y103772D01*
X49136Y104228D01*
X48999Y104737D01*
X48999Y108477D01*
X54977Y108477D01*
X54977Y102999D01*
X50737Y102999D01*
G37*
%LPD*%
%LPC*%
G36*
X198237Y182499D02*
X198237Y182499D01*
X197728Y182636D01*
X197272Y182899D01*
X196899Y183272D01*
X196636Y183728D01*
X196499Y184237D01*
X196499Y188477D01*
X201977Y188477D01*
X201977Y182499D01*
X198237Y182499D01*
G37*
%LPD*%
%LPC*%
G36*
X23237Y102499D02*
X23237Y102499D01*
X22728Y102636D01*
X22272Y102899D01*
X21899Y103272D01*
X21636Y103728D01*
X21499Y104237D01*
X21499Y108477D01*
X26977Y108477D01*
X26977Y102499D01*
X23237Y102499D01*
G37*
%LPD*%
%LPC*%
G36*
X243237Y102499D02*
X243237Y102499D01*
X242728Y102636D01*
X242272Y102899D01*
X241899Y103272D01*
X241636Y103728D01*
X241499Y104237D01*
X241499Y108477D01*
X246977Y108477D01*
X246977Y102499D01*
X243237Y102499D01*
G37*
%LPD*%
%LPC*%
G36*
X96499Y111499D02*
X96499Y111499D01*
X96499Y116330D01*
X96896Y116251D01*
X98079Y115761D01*
X99144Y115049D01*
X100049Y114144D01*
X100761Y113079D01*
X101251Y111896D01*
X101330Y111499D01*
X96499Y111499D01*
G37*
%LPD*%
%LPC*%
G36*
X111499Y226499D02*
X111499Y226499D01*
X111499Y231330D01*
X111896Y231251D01*
X113079Y230761D01*
X114144Y230049D01*
X115049Y229144D01*
X115761Y228079D01*
X116251Y226896D01*
X116330Y226499D01*
X111499Y226499D01*
G37*
%LPD*%
%LPC*%
G36*
X103670Y226499D02*
X103670Y226499D01*
X103749Y226896D01*
X104239Y228079D01*
X104951Y229144D01*
X105856Y230049D01*
X106921Y230761D01*
X108104Y231251D01*
X108501Y231330D01*
X108501Y226499D01*
X103670Y226499D01*
G37*
%LPD*%
%LPC*%
G36*
X111499Y338501D02*
X111499Y338501D01*
X116330Y338501D01*
X116251Y338104D01*
X115761Y336921D01*
X115049Y335856D01*
X114144Y334951D01*
X113079Y334239D01*
X111896Y333749D01*
X111499Y333670D01*
X111499Y338501D01*
G37*
%LPD*%
%LPC*%
G36*
X88670Y111499D02*
X88670Y111499D01*
X88749Y111896D01*
X89239Y113079D01*
X89951Y114144D01*
X90856Y115049D01*
X91921Y115761D01*
X93104Y116251D01*
X93501Y116330D01*
X93501Y111499D01*
X88670Y111499D01*
G37*
%LPD*%
%LPC*%
G36*
X111499Y223501D02*
X111499Y223501D01*
X116330Y223501D01*
X116251Y223104D01*
X115761Y221921D01*
X115049Y220856D01*
X114144Y219951D01*
X113079Y219239D01*
X111896Y218749D01*
X111499Y218670D01*
X111499Y223501D01*
G37*
%LPD*%
%LPC*%
G36*
X96499Y108501D02*
X96499Y108501D01*
X101330Y108501D01*
X101251Y108104D01*
X100761Y106921D01*
X100049Y105856D01*
X99144Y104951D01*
X98079Y104239D01*
X96896Y103749D01*
X96499Y103670D01*
X96499Y108501D01*
G37*
%LPD*%
%LPC*%
G36*
X93104Y103749D02*
X93104Y103749D01*
X91921Y104239D01*
X90856Y104951D01*
X89951Y105856D01*
X89239Y106921D01*
X88749Y108104D01*
X88670Y108501D01*
X93501Y108501D01*
X93501Y103670D01*
X93104Y103749D01*
G37*
%LPD*%
%LPC*%
G36*
X108104Y333749D02*
X108104Y333749D01*
X106921Y334239D01*
X105856Y334951D01*
X104951Y335856D01*
X104239Y336921D01*
X103749Y338104D01*
X103670Y338501D01*
X108501Y338501D01*
X108501Y333670D01*
X108104Y333749D01*
G37*
%LPD*%
%LPC*%
G36*
X108104Y218749D02*
X108104Y218749D01*
X106921Y219239D01*
X105856Y219951D01*
X104951Y220856D01*
X104239Y221921D01*
X103749Y223104D01*
X103670Y223501D01*
X108501Y223501D01*
X108501Y218670D01*
X108104Y218749D01*
G37*
%LPD*%
%LPC*%
G36*
X225874Y225874D02*
X225874Y225874D01*
X225874Y229943D01*
X226930Y229660D01*
X228071Y229002D01*
X229002Y228071D01*
X229660Y226930D01*
X229943Y225874D01*
X225874Y225874D01*
G37*
%LPD*%
%LPC*%
G36*
X225874Y265874D02*
X225874Y265874D01*
X225874Y269943D01*
X226930Y269660D01*
X228071Y269002D01*
X229002Y268071D01*
X229660Y266930D01*
X229943Y265874D01*
X225874Y265874D01*
G37*
%LPD*%
%LPC*%
G36*
X225874Y264126D02*
X225874Y264126D01*
X229943Y264126D01*
X229660Y263070D01*
X229002Y261929D01*
X228071Y260998D01*
X226930Y260340D01*
X225874Y260057D01*
X225874Y264126D01*
G37*
%LPD*%
%LPC*%
G36*
X220057Y265874D02*
X220057Y265874D01*
X220340Y266930D01*
X220998Y268071D01*
X221929Y269002D01*
X223070Y269660D01*
X224126Y269943D01*
X224126Y265874D01*
X220057Y265874D01*
G37*
%LPD*%
%LPC*%
G36*
X225874Y224126D02*
X225874Y224126D01*
X229943Y224126D01*
X229660Y223070D01*
X229002Y221929D01*
X228071Y220998D01*
X226930Y220340D01*
X225874Y220057D01*
X225874Y224126D01*
G37*
%LPD*%
%LPC*%
G36*
X220057Y225874D02*
X220057Y225874D01*
X220340Y226930D01*
X220998Y228071D01*
X221929Y229002D01*
X223070Y229660D01*
X224126Y229943D01*
X224126Y225874D01*
X220057Y225874D01*
G37*
%LPD*%
%LPC*%
G36*
X223070Y260340D02*
X223070Y260340D01*
X221929Y260998D01*
X220998Y261929D01*
X220340Y263070D01*
X220057Y264126D01*
X224126Y264126D01*
X224126Y260057D01*
X223070Y260340D01*
G37*
%LPD*%
%LPC*%
G36*
X223070Y220340D02*
X223070Y220340D01*
X221929Y220998D01*
X220998Y221929D01*
X220340Y223070D01*
X220057Y224126D01*
X224126Y224126D01*
X224126Y220057D01*
X223070Y220340D01*
G37*
%LPD*%
%LPC*%
G36*
X244999Y137299D02*
X244999Y137299D01*
X244999Y137301D01*
X245001Y137301D01*
X245001Y137299D01*
X244999Y137299D01*
G37*
%LPD*%
%LPC*%
G36*
X66074Y263999D02*
X66074Y263999D01*
X66074Y264001D01*
X66076Y264001D01*
X66076Y263999D01*
X66074Y263999D01*
G37*
%LPD*%
%LPC*%
G36*
X243924Y263999D02*
X243924Y263999D01*
X243924Y264001D01*
X243926Y264001D01*
X243926Y263999D01*
X243924Y263999D01*
G37*
%LPD*%
%LPC*%
G36*
X56499Y189999D02*
X56499Y189999D01*
X56499Y190001D01*
X56501Y190001D01*
X56501Y189999D01*
X56499Y189999D01*
G37*
%LPD*%
%LPC*%
G36*
X203499Y189999D02*
X203499Y189999D01*
X203499Y190001D01*
X203501Y190001D01*
X203501Y189999D01*
X203499Y189999D01*
G37*
%LPD*%
%LPC*%
G36*
X14999Y284999D02*
X14999Y284999D01*
X14999Y285001D01*
X15001Y285001D01*
X15001Y284999D01*
X14999Y284999D01*
G37*
%LPD*%
%LPC*%
G36*
X186499Y109999D02*
X186499Y109999D01*
X186499Y110001D01*
X186501Y110001D01*
X186501Y109999D01*
X186499Y109999D01*
G37*
%LPD*%
%LPC*%
G36*
X56499Y109999D02*
X56499Y109999D01*
X56499Y110001D01*
X56501Y110001D01*
X56501Y109999D01*
X56499Y109999D01*
G37*
%LPD*%
%LPC*%
G36*
X28499Y109999D02*
X28499Y109999D01*
X28499Y110001D01*
X28501Y110001D01*
X28501Y109999D01*
X28499Y109999D01*
G37*
%LPD*%
%LPC*%
G36*
X66074Y218999D02*
X66074Y218999D01*
X66074Y219001D01*
X66076Y219001D01*
X66076Y218999D01*
X66074Y218999D01*
G37*
%LPD*%
D10*
X203500Y110000D03*
X186500Y110000D03*
X73500Y110000D03*
X56500Y110000D03*
X73500Y190000D03*
X56500Y190000D03*
D11*
X194500Y162500D03*
X185000Y162500D03*
X175500Y162500D03*
X175500Y137500D03*
X185000Y137500D03*
X194500Y137500D03*
D12*
X15000Y335000D03*
D13*
X118750Y135000D03*
X141250Y135000D03*
X118750Y165000D03*
X141250Y165000D03*
D12*
X15000Y310000D03*
X15000Y285000D03*
D14*
X65500Y137000D03*
X75000Y137000D03*
X84500Y137000D03*
X84500Y163000D03*
X65500Y163000D03*
D15*
X145000Y330000D03*
D16*
X165000Y330000D03*
D17*
X31000Y180000D03*
D18*
X24750Y200500D03*
X8750Y200500D03*
X24750Y159500D03*
X8750Y159500D03*
D19*
X101500Y190000D03*
X118500Y190000D03*
X186500Y190000D03*
X203500Y190000D03*
X231500Y110000D03*
X248500Y110000D03*
X28500Y110000D03*
X11500Y110000D03*
X28500Y135000D03*
X11500Y135000D03*
D20*
X165000Y47500D03*
D21*
X140000Y52500D03*
D20*
X95000Y47500D03*
D21*
X120000Y52500D03*
D12*
X15000Y260000D03*
D22*
X66075Y339000D03*
X66075Y324000D03*
X66075Y309000D03*
X66075Y294000D03*
X66075Y279000D03*
X66075Y264000D03*
X66075Y249000D03*
X66075Y234000D03*
X66075Y219000D03*
X243925Y219000D03*
X243925Y234000D03*
X243925Y249000D03*
X243925Y264000D03*
X243925Y279000D03*
X243925Y294000D03*
X243925Y309000D03*
X243925Y324000D03*
X243925Y339000D03*
D23*
X42700Y220000D03*
D24*
X17300Y220000D03*
D25*
X157500Y190000D03*
X142500Y190000D03*
D26*
X245000Y137300D03*
D24*
X245000Y162700D03*
D19*
X248500Y190000D03*
X231500Y190000D03*
D27*
X225000Y265000D03*
X225000Y225000D03*
D28*
X95000Y110000D03*
X110000Y225000D03*
X110000Y340000D03*
D27*
X225000Y295000D03*
D29*
X226000Y294000D02*
X243925Y294000D01*
X226000Y294000D02*
X225000Y295000D01*
X195000Y163000D02*
X194500Y162500D01*
X195000Y163000D02*
X195000Y175000D01*
X186500Y183500D01*
X186500Y190000D01*
D27*
X175000Y125000D03*
X225000Y125000D03*
D29*
X225000Y116500D01*
X231500Y110000D01*
X175500Y125500D02*
X175500Y137500D01*
X175500Y125500D02*
X175000Y125000D01*
D27*
X150000Y135000D03*
X150000Y125000D03*
X205000Y135000D03*
X205000Y145000D03*
D29*
X194500Y137500D02*
X194500Y125500D01*
X203500Y116500D02*
X203500Y110000D01*
X203500Y116500D02*
X194500Y125500D01*
X17300Y257700D02*
X15000Y260000D01*
X65500Y137000D02*
X65500Y124500D01*
X73500Y116500D02*
X73500Y110000D01*
X73500Y116500D02*
X65500Y124500D01*
D27*
X160000Y175000D03*
X160000Y165000D03*
X160000Y155000D03*
D29*
X66075Y279000D02*
X46000Y279000D01*
X15000Y310000D01*
X41000Y309000D02*
X66075Y309000D01*
X41000Y309000D02*
X15000Y335000D01*
D27*
X25000Y150000D03*
D29*
X28500Y146500D02*
X28500Y135000D01*
X28500Y146500D02*
X25000Y150000D01*
D27*
X50000Y295000D03*
D29*
X51000Y294000D01*
X66075Y294000D01*
D27*
X95000Y135000D03*
X10000Y150000D03*
D29*
X8750Y159500D02*
X8750Y200500D01*
X11500Y135000D02*
X11500Y110000D01*
X10000Y150000D02*
X8750Y151250D01*
X8750Y159500D01*
X10000Y150000D02*
X11500Y148500D01*
X11500Y135000D01*
X93000Y137000D02*
X95000Y135000D01*
X93000Y137000D02*
X84500Y137000D01*
X118500Y190000D02*
X142500Y190000D01*
X245000Y162700D02*
X248500Y166200D01*
X248500Y190000D01*
X248500Y201500D01*
X245000Y205000D01*
X230000Y205000D01*
X215000Y220000D01*
X215000Y300000D01*
X224000Y309000D02*
X243925Y309000D01*
X224000Y309000D02*
X215000Y300000D01*
X73500Y190000D02*
X75500Y187000D01*
X100000Y191500D02*
X101500Y190000D01*
X100000Y191500D02*
X100000Y200000D01*
X105000Y205000D01*
X215000Y205000D02*
X230000Y190000D01*
X231500Y190000D01*
X105048Y205048D02*
X105000Y205000D01*
X215000Y205000D01*
D27*
X225000Y325000D03*
D29*
X226000Y324000D02*
X243925Y324000D01*
X226000Y324000D02*
X225000Y325000D01*
D27*
X180000Y175000D03*
D29*
X175500Y170500D02*
X175500Y162500D01*
X175500Y170500D02*
X180000Y175000D01*
X165000Y190000D02*
X157500Y190000D01*
X165000Y190000D02*
X180000Y175000D01*
D27*
X225000Y280000D03*
D29*
X226000Y279000D02*
X243925Y279000D01*
X226000Y279000D02*
X225000Y280000D01*
M02*
