M48
;GenerationSoftware,Autodesk,EAGLE,9.0.1*%
;CreationDate,2018-06-26T14:38:51Z*%
FMAT,2
ICI,OFF
METRIC,TZ,000.000
T4C0.350
T3C0.600
T2C0.813
T1C1.100
%
G90
M71
T1
X14500Y33000
X16500Y33000
T2
X4270Y22000
X1730Y22000
X24500Y13730
X24500Y16270
T3
X9500Y11000
X11000Y22500
X11000Y34000
T4
X22500Y26500
X22500Y22500
X22500Y29500
X17500Y12500
X22500Y12500
X15000Y13500
X15000Y12500
X20500Y13500
X20500Y14500
X16000Y17500
X16000Y16500
X16000Y15500
X2500Y15000
X5000Y29500
X9500Y13500
X1000Y15000
X22500Y32500
X18000Y17500
X22500Y28000
M30