G04 EAGLE Gerber X2 export*
G75*
%MOMM*%
%FSLAX34Y34*%
%LPD*%
%AMOC8*
5,1,8,0,0,1.08239X$1,22.5*%
G01*
%ADD10C,0.150000*%
%ADD11C,0.152400*%
%ADD12C,0.200000*%
%ADD13C,0.100000*%
%ADD14C,0.203200*%
%ADD15R,0.300000X0.150000*%
%ADD16R,0.300000X0.300000*%


D10*
X10000Y347500D02*
X50000Y347500D01*
X50140Y347498D01*
X50280Y347492D01*
X50420Y347482D01*
X50560Y347469D01*
X50699Y347451D01*
X50838Y347429D01*
X50975Y347404D01*
X51113Y347375D01*
X51249Y347342D01*
X51384Y347305D01*
X51518Y347264D01*
X51651Y347219D01*
X51783Y347171D01*
X51913Y347119D01*
X52042Y347064D01*
X52169Y347005D01*
X52295Y346942D01*
X52419Y346876D01*
X52540Y346807D01*
X52660Y346734D01*
X52778Y346657D01*
X52893Y346578D01*
X53007Y346495D01*
X53117Y346409D01*
X53226Y346320D01*
X53332Y346228D01*
X53435Y346133D01*
X53536Y346036D01*
X53633Y345935D01*
X53728Y345832D01*
X53820Y345726D01*
X53909Y345617D01*
X53995Y345507D01*
X54078Y345393D01*
X54157Y345278D01*
X54234Y345160D01*
X54307Y345040D01*
X54376Y344919D01*
X54442Y344795D01*
X54505Y344669D01*
X54564Y344542D01*
X54619Y344413D01*
X54671Y344283D01*
X54719Y344151D01*
X54764Y344018D01*
X54805Y343884D01*
X54842Y343749D01*
X54875Y343613D01*
X54904Y343475D01*
X54929Y343338D01*
X54951Y343199D01*
X54969Y343060D01*
X54982Y342920D01*
X54992Y342780D01*
X54998Y342640D01*
X55000Y342500D01*
X55000Y247500D01*
X55000Y235000D01*
X54998Y234860D01*
X54992Y234720D01*
X54982Y234580D01*
X54969Y234440D01*
X54951Y234301D01*
X54929Y234162D01*
X54904Y234025D01*
X54875Y233887D01*
X54842Y233751D01*
X54805Y233616D01*
X54764Y233482D01*
X54719Y233349D01*
X54671Y233217D01*
X54619Y233087D01*
X54564Y232958D01*
X54505Y232831D01*
X54442Y232705D01*
X54376Y232581D01*
X54307Y232460D01*
X54234Y232340D01*
X54157Y232222D01*
X54078Y232107D01*
X53995Y231993D01*
X53909Y231883D01*
X53820Y231774D01*
X53728Y231668D01*
X53633Y231565D01*
X53536Y231464D01*
X53435Y231367D01*
X53332Y231272D01*
X53226Y231180D01*
X53117Y231091D01*
X53007Y231005D01*
X52893Y230922D01*
X52778Y230843D01*
X52660Y230766D01*
X52540Y230693D01*
X52419Y230624D01*
X52295Y230558D01*
X52169Y230495D01*
X52042Y230436D01*
X51913Y230381D01*
X51783Y230329D01*
X51651Y230281D01*
X51518Y230236D01*
X51384Y230195D01*
X51249Y230158D01*
X51113Y230125D01*
X50975Y230096D01*
X50838Y230071D01*
X50699Y230049D01*
X50560Y230031D01*
X50420Y230018D01*
X50280Y230008D01*
X50140Y230002D01*
X50000Y230000D01*
X10000Y230000D01*
X9860Y230002D01*
X9720Y230008D01*
X9580Y230018D01*
X9440Y230031D01*
X9301Y230049D01*
X9162Y230071D01*
X9025Y230096D01*
X8887Y230125D01*
X8751Y230158D01*
X8616Y230195D01*
X8482Y230236D01*
X8349Y230281D01*
X8217Y230329D01*
X8087Y230381D01*
X7958Y230436D01*
X7831Y230495D01*
X7705Y230558D01*
X7581Y230624D01*
X7460Y230693D01*
X7340Y230766D01*
X7222Y230843D01*
X7107Y230922D01*
X6993Y231005D01*
X6883Y231091D01*
X6774Y231180D01*
X6668Y231272D01*
X6565Y231367D01*
X6464Y231464D01*
X6367Y231565D01*
X6272Y231668D01*
X6180Y231774D01*
X6091Y231883D01*
X6005Y231993D01*
X5922Y232107D01*
X5843Y232222D01*
X5766Y232340D01*
X5693Y232460D01*
X5624Y232581D01*
X5558Y232705D01*
X5495Y232831D01*
X5436Y232958D01*
X5381Y233087D01*
X5329Y233217D01*
X5281Y233349D01*
X5236Y233482D01*
X5195Y233616D01*
X5158Y233751D01*
X5125Y233887D01*
X5096Y234025D01*
X5071Y234162D01*
X5049Y234301D01*
X5031Y234440D01*
X5018Y234580D01*
X5008Y234720D01*
X5002Y234860D01*
X5000Y235000D01*
X5000Y247500D01*
X5000Y342500D01*
X5002Y342640D01*
X5008Y342780D01*
X5018Y342920D01*
X5031Y343060D01*
X5049Y343199D01*
X5071Y343338D01*
X5096Y343475D01*
X5125Y343613D01*
X5158Y343749D01*
X5195Y343884D01*
X5236Y344018D01*
X5281Y344151D01*
X5329Y344283D01*
X5381Y344413D01*
X5436Y344542D01*
X5495Y344669D01*
X5558Y344795D01*
X5624Y344919D01*
X5693Y345040D01*
X5766Y345160D01*
X5843Y345278D01*
X5922Y345393D01*
X6005Y345507D01*
X6091Y345617D01*
X6180Y345726D01*
X6272Y345832D01*
X6367Y345935D01*
X6464Y346036D01*
X6565Y346133D01*
X6668Y346228D01*
X6774Y346320D01*
X6883Y346409D01*
X6993Y346495D01*
X7107Y346578D01*
X7222Y346657D01*
X7340Y346734D01*
X7460Y346807D01*
X7581Y346876D01*
X7705Y346942D01*
X7831Y347005D01*
X7958Y347064D01*
X8087Y347119D01*
X8217Y347171D01*
X8349Y347219D01*
X8482Y347264D01*
X8616Y347305D01*
X8751Y347342D01*
X8887Y347375D01*
X9025Y347404D01*
X9162Y347429D01*
X9301Y347451D01*
X9440Y347469D01*
X9580Y347482D01*
X9720Y347492D01*
X9860Y347498D01*
X10000Y347500D01*
X5000Y247500D02*
X55000Y247500D01*
D11*
X9762Y243398D02*
X9762Y234762D01*
X9762Y243398D02*
X12161Y243398D01*
X12258Y243396D01*
X12354Y243390D01*
X12450Y243381D01*
X12546Y243367D01*
X12641Y243350D01*
X12735Y243328D01*
X12828Y243303D01*
X12921Y243275D01*
X13012Y243242D01*
X13101Y243206D01*
X13189Y243166D01*
X13276Y243123D01*
X13361Y243077D01*
X13443Y243027D01*
X13524Y242973D01*
X13602Y242917D01*
X13678Y242857D01*
X13752Y242795D01*
X13823Y242729D01*
X13891Y242661D01*
X13957Y242590D01*
X14019Y242516D01*
X14079Y242440D01*
X14135Y242362D01*
X14189Y242281D01*
X14239Y242198D01*
X14285Y242114D01*
X14328Y242027D01*
X14368Y241939D01*
X14404Y241850D01*
X14437Y241759D01*
X14465Y241666D01*
X14490Y241573D01*
X14512Y241479D01*
X14529Y241384D01*
X14543Y241288D01*
X14552Y241192D01*
X14558Y241096D01*
X14560Y240999D01*
X14558Y240902D01*
X14552Y240806D01*
X14543Y240710D01*
X14529Y240614D01*
X14512Y240519D01*
X14490Y240425D01*
X14465Y240332D01*
X14437Y240239D01*
X14404Y240148D01*
X14368Y240059D01*
X14328Y239971D01*
X14285Y239884D01*
X14239Y239800D01*
X14189Y239717D01*
X14135Y239636D01*
X14079Y239558D01*
X14019Y239482D01*
X13957Y239408D01*
X13891Y239337D01*
X13823Y239269D01*
X13752Y239203D01*
X13678Y239141D01*
X13602Y239081D01*
X13524Y239025D01*
X13443Y238971D01*
X13360Y238921D01*
X13276Y238875D01*
X13189Y238832D01*
X13101Y238792D01*
X13012Y238756D01*
X12921Y238723D01*
X12828Y238695D01*
X12735Y238670D01*
X12641Y238648D01*
X12546Y238631D01*
X12450Y238617D01*
X12354Y238608D01*
X12258Y238602D01*
X12161Y238600D01*
X9762Y238600D01*
X12641Y238600D02*
X14560Y234762D01*
X22485Y239560D02*
X23924Y239560D01*
X23924Y234762D01*
X21045Y234762D01*
X20959Y234764D01*
X20873Y234770D01*
X20787Y234779D01*
X20702Y234793D01*
X20618Y234810D01*
X20534Y234831D01*
X20452Y234856D01*
X20371Y234884D01*
X20291Y234916D01*
X20212Y234952D01*
X20136Y234991D01*
X20061Y235034D01*
X19988Y235079D01*
X19917Y235128D01*
X19849Y235181D01*
X19782Y235236D01*
X19719Y235294D01*
X19658Y235355D01*
X19600Y235418D01*
X19545Y235485D01*
X19492Y235553D01*
X19443Y235624D01*
X19398Y235697D01*
X19355Y235772D01*
X19316Y235848D01*
X19280Y235927D01*
X19248Y236007D01*
X19220Y236088D01*
X19195Y236170D01*
X19174Y236254D01*
X19157Y236338D01*
X19143Y236423D01*
X19134Y236509D01*
X19128Y236595D01*
X19126Y236681D01*
X19126Y241479D01*
X19128Y241565D01*
X19134Y241651D01*
X19143Y241737D01*
X19157Y241822D01*
X19174Y241906D01*
X19195Y241990D01*
X19220Y242072D01*
X19248Y242153D01*
X19280Y242233D01*
X19316Y242312D01*
X19355Y242388D01*
X19398Y242463D01*
X19443Y242536D01*
X19492Y242607D01*
X19545Y242675D01*
X19600Y242742D01*
X19658Y242805D01*
X19719Y242866D01*
X19782Y242924D01*
X19849Y242979D01*
X19917Y243031D01*
X19988Y243081D01*
X20061Y243126D01*
X20136Y243169D01*
X20212Y243208D01*
X20291Y243244D01*
X20371Y243276D01*
X20452Y243304D01*
X20534Y243329D01*
X20618Y243350D01*
X20702Y243367D01*
X20787Y243381D01*
X20873Y243390D01*
X20959Y243396D01*
X21045Y243398D01*
X23924Y243398D01*
X29074Y239560D02*
X31473Y239560D01*
X31570Y239558D01*
X31666Y239552D01*
X31762Y239543D01*
X31858Y239529D01*
X31953Y239512D01*
X32047Y239490D01*
X32140Y239465D01*
X32233Y239437D01*
X32324Y239404D01*
X32413Y239368D01*
X32501Y239328D01*
X32588Y239285D01*
X32673Y239239D01*
X32755Y239189D01*
X32836Y239135D01*
X32914Y239079D01*
X32990Y239019D01*
X33064Y238957D01*
X33135Y238891D01*
X33203Y238823D01*
X33269Y238752D01*
X33331Y238678D01*
X33391Y238602D01*
X33447Y238524D01*
X33501Y238443D01*
X33551Y238360D01*
X33597Y238276D01*
X33640Y238189D01*
X33680Y238101D01*
X33716Y238012D01*
X33749Y237921D01*
X33777Y237828D01*
X33802Y237735D01*
X33824Y237641D01*
X33841Y237546D01*
X33855Y237450D01*
X33864Y237354D01*
X33870Y237258D01*
X33872Y237161D01*
X33870Y237064D01*
X33864Y236968D01*
X33855Y236872D01*
X33841Y236776D01*
X33824Y236681D01*
X33802Y236587D01*
X33777Y236494D01*
X33749Y236401D01*
X33716Y236310D01*
X33680Y236221D01*
X33640Y236133D01*
X33597Y236046D01*
X33551Y235962D01*
X33501Y235879D01*
X33447Y235798D01*
X33391Y235720D01*
X33331Y235644D01*
X33269Y235570D01*
X33203Y235499D01*
X33135Y235431D01*
X33064Y235365D01*
X32990Y235303D01*
X32914Y235243D01*
X32836Y235187D01*
X32755Y235133D01*
X32672Y235083D01*
X32588Y235037D01*
X32501Y234994D01*
X32413Y234954D01*
X32324Y234918D01*
X32233Y234885D01*
X32140Y234857D01*
X32047Y234832D01*
X31953Y234810D01*
X31858Y234793D01*
X31762Y234779D01*
X31666Y234770D01*
X31570Y234764D01*
X31473Y234762D01*
X29074Y234762D01*
X29074Y243398D01*
X31473Y243398D01*
X31559Y243396D01*
X31645Y243390D01*
X31731Y243381D01*
X31816Y243367D01*
X31900Y243350D01*
X31984Y243329D01*
X32066Y243304D01*
X32147Y243276D01*
X32227Y243244D01*
X32306Y243208D01*
X32382Y243169D01*
X32457Y243126D01*
X32530Y243081D01*
X32601Y243032D01*
X32669Y242979D01*
X32736Y242924D01*
X32799Y242866D01*
X32860Y242805D01*
X32918Y242742D01*
X32973Y242675D01*
X33026Y242607D01*
X33075Y242536D01*
X33120Y242463D01*
X33163Y242388D01*
X33202Y242312D01*
X33238Y242233D01*
X33270Y242153D01*
X33298Y242072D01*
X33323Y241990D01*
X33344Y241906D01*
X33361Y241822D01*
X33375Y241737D01*
X33384Y241651D01*
X33390Y241565D01*
X33392Y241479D01*
X33390Y241393D01*
X33384Y241307D01*
X33375Y241221D01*
X33361Y241136D01*
X33344Y241052D01*
X33323Y240968D01*
X33298Y240886D01*
X33270Y240805D01*
X33238Y240725D01*
X33202Y240646D01*
X33163Y240570D01*
X33120Y240495D01*
X33075Y240422D01*
X33026Y240351D01*
X32973Y240283D01*
X32918Y240216D01*
X32860Y240153D01*
X32799Y240092D01*
X32736Y240034D01*
X32669Y239979D01*
X32601Y239926D01*
X32530Y239877D01*
X32457Y239832D01*
X32382Y239789D01*
X32306Y239750D01*
X32227Y239714D01*
X32147Y239682D01*
X32066Y239654D01*
X31984Y239629D01*
X31900Y239608D01*
X31816Y239591D01*
X31731Y239577D01*
X31645Y239568D01*
X31559Y239562D01*
X31473Y239560D01*
D10*
X43000Y244000D02*
X43000Y234000D01*
X40000Y240000D02*
X43000Y244000D01*
X46000Y240000D01*
D11*
X190681Y117762D02*
X192600Y117762D01*
X190681Y117762D02*
X190595Y117764D01*
X190509Y117770D01*
X190423Y117779D01*
X190338Y117793D01*
X190254Y117810D01*
X190170Y117831D01*
X190088Y117856D01*
X190007Y117884D01*
X189927Y117916D01*
X189848Y117952D01*
X189772Y117991D01*
X189697Y118034D01*
X189624Y118079D01*
X189553Y118128D01*
X189485Y118181D01*
X189418Y118236D01*
X189355Y118294D01*
X189294Y118355D01*
X189236Y118418D01*
X189181Y118485D01*
X189128Y118553D01*
X189079Y118624D01*
X189034Y118697D01*
X188991Y118772D01*
X188952Y118848D01*
X188916Y118927D01*
X188884Y119007D01*
X188856Y119088D01*
X188831Y119170D01*
X188810Y119254D01*
X188793Y119338D01*
X188779Y119423D01*
X188770Y119509D01*
X188764Y119595D01*
X188762Y119681D01*
X188762Y124479D01*
X188764Y124565D01*
X188770Y124651D01*
X188779Y124737D01*
X188793Y124822D01*
X188810Y124906D01*
X188831Y124990D01*
X188856Y125072D01*
X188884Y125153D01*
X188916Y125233D01*
X188952Y125312D01*
X188991Y125388D01*
X189034Y125463D01*
X189079Y125536D01*
X189128Y125607D01*
X189181Y125675D01*
X189236Y125742D01*
X189294Y125805D01*
X189355Y125866D01*
X189418Y125924D01*
X189485Y125979D01*
X189553Y126031D01*
X189624Y126081D01*
X189697Y126126D01*
X189772Y126169D01*
X189848Y126208D01*
X189927Y126244D01*
X190007Y126276D01*
X190088Y126304D01*
X190170Y126329D01*
X190254Y126350D01*
X190338Y126367D01*
X190423Y126381D01*
X190509Y126390D01*
X190595Y126396D01*
X190681Y126398D01*
X192600Y126398D01*
X196420Y124479D02*
X198819Y126398D01*
X198819Y117762D01*
X196420Y117762D02*
X201218Y117762D01*
X63600Y118762D02*
X61681Y118762D01*
X61595Y118764D01*
X61509Y118770D01*
X61423Y118779D01*
X61338Y118793D01*
X61254Y118810D01*
X61170Y118831D01*
X61088Y118856D01*
X61007Y118884D01*
X60927Y118916D01*
X60848Y118952D01*
X60772Y118991D01*
X60697Y119034D01*
X60624Y119079D01*
X60553Y119128D01*
X60485Y119181D01*
X60418Y119236D01*
X60355Y119294D01*
X60294Y119355D01*
X60236Y119418D01*
X60181Y119485D01*
X60128Y119553D01*
X60079Y119624D01*
X60034Y119697D01*
X59991Y119772D01*
X59952Y119848D01*
X59916Y119927D01*
X59884Y120007D01*
X59856Y120088D01*
X59831Y120170D01*
X59810Y120254D01*
X59793Y120338D01*
X59779Y120423D01*
X59770Y120509D01*
X59764Y120595D01*
X59762Y120681D01*
X59762Y125479D01*
X59764Y125565D01*
X59770Y125651D01*
X59779Y125737D01*
X59793Y125822D01*
X59810Y125906D01*
X59831Y125990D01*
X59856Y126072D01*
X59884Y126153D01*
X59916Y126233D01*
X59952Y126312D01*
X59991Y126388D01*
X60034Y126463D01*
X60079Y126536D01*
X60128Y126607D01*
X60181Y126675D01*
X60236Y126742D01*
X60294Y126805D01*
X60355Y126866D01*
X60418Y126924D01*
X60485Y126979D01*
X60553Y127031D01*
X60624Y127081D01*
X60697Y127126D01*
X60772Y127169D01*
X60848Y127208D01*
X60927Y127244D01*
X61007Y127276D01*
X61088Y127304D01*
X61170Y127329D01*
X61254Y127350D01*
X61338Y127367D01*
X61423Y127381D01*
X61509Y127390D01*
X61595Y127396D01*
X61681Y127398D01*
X63600Y127398D01*
X70059Y127398D02*
X70151Y127396D01*
X70242Y127390D01*
X70333Y127381D01*
X70424Y127367D01*
X70514Y127350D01*
X70603Y127328D01*
X70691Y127303D01*
X70778Y127275D01*
X70864Y127242D01*
X70948Y127206D01*
X71031Y127167D01*
X71112Y127124D01*
X71191Y127077D01*
X71268Y127028D01*
X71343Y126975D01*
X71415Y126919D01*
X71485Y126860D01*
X71553Y126798D01*
X71618Y126733D01*
X71680Y126665D01*
X71739Y126595D01*
X71795Y126523D01*
X71848Y126448D01*
X71897Y126371D01*
X71944Y126292D01*
X71987Y126211D01*
X72026Y126128D01*
X72062Y126044D01*
X72095Y125958D01*
X72123Y125871D01*
X72148Y125783D01*
X72170Y125694D01*
X72187Y125604D01*
X72201Y125513D01*
X72210Y125422D01*
X72216Y125331D01*
X72218Y125239D01*
X70059Y127398D02*
X69956Y127396D01*
X69854Y127390D01*
X69752Y127381D01*
X69650Y127368D01*
X69549Y127351D01*
X69448Y127330D01*
X69349Y127306D01*
X69250Y127277D01*
X69153Y127246D01*
X69056Y127210D01*
X68961Y127172D01*
X68868Y127129D01*
X68776Y127083D01*
X68686Y127034D01*
X68598Y126982D01*
X68511Y126926D01*
X68427Y126867D01*
X68346Y126806D01*
X68266Y126741D01*
X68189Y126673D01*
X68114Y126602D01*
X68043Y126529D01*
X67974Y126453D01*
X67907Y126375D01*
X67844Y126294D01*
X67784Y126211D01*
X67727Y126126D01*
X67673Y126039D01*
X67622Y125949D01*
X67575Y125858D01*
X67531Y125766D01*
X67490Y125671D01*
X67453Y125576D01*
X67420Y125479D01*
X71498Y123560D02*
X71565Y123626D01*
X71629Y123695D01*
X71690Y123766D01*
X71748Y123840D01*
X71803Y123916D01*
X71855Y123994D01*
X71904Y124074D01*
X71950Y124156D01*
X71992Y124240D01*
X72031Y124326D01*
X72066Y124413D01*
X72097Y124501D01*
X72125Y124591D01*
X72150Y124681D01*
X72171Y124773D01*
X72188Y124865D01*
X72201Y124958D01*
X72210Y125051D01*
X72216Y125145D01*
X72218Y125239D01*
X71498Y123560D02*
X67420Y118762D01*
X72218Y118762D01*
X63600Y197762D02*
X61681Y197762D01*
X61595Y197764D01*
X61509Y197770D01*
X61423Y197779D01*
X61338Y197793D01*
X61254Y197810D01*
X61170Y197831D01*
X61088Y197856D01*
X61007Y197884D01*
X60927Y197916D01*
X60848Y197952D01*
X60772Y197991D01*
X60697Y198034D01*
X60624Y198079D01*
X60553Y198128D01*
X60485Y198181D01*
X60418Y198236D01*
X60355Y198294D01*
X60294Y198355D01*
X60236Y198418D01*
X60181Y198485D01*
X60128Y198553D01*
X60079Y198624D01*
X60034Y198697D01*
X59991Y198772D01*
X59952Y198848D01*
X59916Y198927D01*
X59884Y199007D01*
X59856Y199088D01*
X59831Y199170D01*
X59810Y199254D01*
X59793Y199338D01*
X59779Y199423D01*
X59770Y199509D01*
X59764Y199595D01*
X59762Y199681D01*
X59762Y204479D01*
X59764Y204565D01*
X59770Y204651D01*
X59779Y204737D01*
X59793Y204822D01*
X59810Y204906D01*
X59831Y204990D01*
X59856Y205072D01*
X59884Y205153D01*
X59916Y205233D01*
X59952Y205312D01*
X59991Y205388D01*
X60034Y205463D01*
X60079Y205536D01*
X60128Y205607D01*
X60181Y205675D01*
X60236Y205742D01*
X60294Y205805D01*
X60355Y205866D01*
X60418Y205924D01*
X60485Y205979D01*
X60553Y206031D01*
X60624Y206081D01*
X60697Y206126D01*
X60772Y206169D01*
X60848Y206208D01*
X60927Y206244D01*
X61007Y206276D01*
X61088Y206304D01*
X61170Y206329D01*
X61254Y206350D01*
X61338Y206367D01*
X61423Y206381D01*
X61509Y206390D01*
X61595Y206396D01*
X61681Y206398D01*
X63600Y206398D01*
X67420Y197762D02*
X69819Y197762D01*
X69916Y197764D01*
X70012Y197770D01*
X70108Y197779D01*
X70204Y197793D01*
X70299Y197810D01*
X70393Y197832D01*
X70486Y197857D01*
X70579Y197885D01*
X70670Y197918D01*
X70759Y197954D01*
X70847Y197994D01*
X70934Y198037D01*
X71019Y198083D01*
X71101Y198133D01*
X71182Y198187D01*
X71260Y198243D01*
X71336Y198303D01*
X71410Y198365D01*
X71481Y198431D01*
X71549Y198499D01*
X71615Y198570D01*
X71677Y198644D01*
X71737Y198720D01*
X71793Y198798D01*
X71847Y198879D01*
X71897Y198962D01*
X71943Y199046D01*
X71986Y199133D01*
X72026Y199221D01*
X72062Y199310D01*
X72095Y199401D01*
X72123Y199494D01*
X72148Y199587D01*
X72170Y199681D01*
X72187Y199776D01*
X72201Y199872D01*
X72210Y199968D01*
X72216Y200064D01*
X72218Y200161D01*
X72216Y200258D01*
X72210Y200354D01*
X72201Y200450D01*
X72187Y200546D01*
X72170Y200641D01*
X72148Y200735D01*
X72123Y200828D01*
X72095Y200921D01*
X72062Y201012D01*
X72026Y201101D01*
X71986Y201189D01*
X71943Y201276D01*
X71897Y201360D01*
X71847Y201443D01*
X71793Y201524D01*
X71737Y201602D01*
X71677Y201678D01*
X71615Y201752D01*
X71549Y201823D01*
X71481Y201891D01*
X71410Y201957D01*
X71336Y202019D01*
X71260Y202079D01*
X71182Y202135D01*
X71101Y202189D01*
X71019Y202239D01*
X70934Y202285D01*
X70847Y202328D01*
X70759Y202368D01*
X70670Y202404D01*
X70579Y202437D01*
X70486Y202465D01*
X70393Y202490D01*
X70299Y202512D01*
X70204Y202529D01*
X70108Y202543D01*
X70012Y202552D01*
X69916Y202558D01*
X69819Y202560D01*
X70299Y206398D02*
X67420Y206398D01*
X70299Y206398D02*
X70385Y206396D01*
X70471Y206390D01*
X70557Y206381D01*
X70642Y206367D01*
X70726Y206350D01*
X70810Y206329D01*
X70892Y206304D01*
X70973Y206276D01*
X71053Y206244D01*
X71132Y206208D01*
X71208Y206169D01*
X71283Y206126D01*
X71356Y206081D01*
X71427Y206032D01*
X71495Y205979D01*
X71562Y205924D01*
X71625Y205866D01*
X71686Y205805D01*
X71744Y205742D01*
X71799Y205675D01*
X71852Y205607D01*
X71901Y205536D01*
X71946Y205463D01*
X71989Y205388D01*
X72028Y205312D01*
X72064Y205233D01*
X72096Y205153D01*
X72124Y205072D01*
X72149Y204990D01*
X72170Y204906D01*
X72187Y204822D01*
X72201Y204737D01*
X72210Y204651D01*
X72216Y204565D01*
X72218Y204479D01*
X72216Y204393D01*
X72210Y204307D01*
X72201Y204221D01*
X72187Y204136D01*
X72170Y204052D01*
X72149Y203968D01*
X72124Y203886D01*
X72096Y203805D01*
X72064Y203725D01*
X72028Y203646D01*
X71989Y203570D01*
X71946Y203495D01*
X71901Y203422D01*
X71852Y203351D01*
X71799Y203283D01*
X71744Y203216D01*
X71686Y203153D01*
X71625Y203092D01*
X71562Y203034D01*
X71495Y202979D01*
X71427Y202926D01*
X71356Y202877D01*
X71283Y202832D01*
X71208Y202789D01*
X71132Y202750D01*
X71053Y202714D01*
X70973Y202682D01*
X70892Y202654D01*
X70810Y202629D01*
X70726Y202608D01*
X70642Y202591D01*
X70557Y202577D01*
X70471Y202568D01*
X70385Y202562D01*
X70299Y202560D01*
X68380Y202560D01*
X199230Y157810D02*
X199230Y142190D01*
X170780Y142190D02*
X170780Y157810D01*
D12*
X196500Y155000D03*
D11*
X211238Y142600D02*
X211238Y140681D01*
X211236Y140595D01*
X211230Y140509D01*
X211221Y140423D01*
X211207Y140338D01*
X211190Y140254D01*
X211169Y140170D01*
X211144Y140088D01*
X211116Y140007D01*
X211084Y139927D01*
X211048Y139848D01*
X211009Y139772D01*
X210966Y139697D01*
X210921Y139624D01*
X210872Y139553D01*
X210819Y139485D01*
X210764Y139418D01*
X210706Y139355D01*
X210645Y139294D01*
X210582Y139236D01*
X210515Y139181D01*
X210447Y139129D01*
X210376Y139079D01*
X210303Y139034D01*
X210228Y138991D01*
X210152Y138952D01*
X210073Y138916D01*
X209993Y138884D01*
X209912Y138856D01*
X209830Y138831D01*
X209746Y138810D01*
X209662Y138793D01*
X209577Y138779D01*
X209491Y138770D01*
X209405Y138764D01*
X209319Y138762D01*
X204521Y138762D01*
X204435Y138764D01*
X204349Y138770D01*
X204263Y138779D01*
X204178Y138793D01*
X204094Y138810D01*
X204010Y138831D01*
X203928Y138856D01*
X203847Y138884D01*
X203767Y138916D01*
X203688Y138952D01*
X203612Y138991D01*
X203537Y139034D01*
X203464Y139079D01*
X203393Y139128D01*
X203325Y139181D01*
X203258Y139236D01*
X203195Y139294D01*
X203134Y139355D01*
X203076Y139418D01*
X203021Y139485D01*
X202969Y139553D01*
X202919Y139624D01*
X202874Y139697D01*
X202831Y139772D01*
X202792Y139848D01*
X202756Y139927D01*
X202724Y140007D01*
X202696Y140088D01*
X202671Y140170D01*
X202650Y140254D01*
X202633Y140338D01*
X202619Y140423D01*
X202610Y140509D01*
X202604Y140595D01*
X202602Y140681D01*
X202602Y142600D01*
X202602Y146725D02*
X211238Y146725D01*
X206440Y146725D02*
X206440Y151523D01*
X202602Y151523D02*
X211238Y151523D01*
X206440Y159837D02*
X206440Y161276D01*
X211238Y161276D01*
X211238Y158398D01*
X211236Y158312D01*
X211230Y158226D01*
X211221Y158140D01*
X211207Y158055D01*
X211190Y157971D01*
X211169Y157887D01*
X211144Y157805D01*
X211116Y157724D01*
X211084Y157644D01*
X211048Y157565D01*
X211009Y157489D01*
X210966Y157414D01*
X210921Y157341D01*
X210872Y157270D01*
X210819Y157202D01*
X210764Y157135D01*
X210706Y157072D01*
X210645Y157011D01*
X210582Y156953D01*
X210515Y156898D01*
X210447Y156846D01*
X210376Y156796D01*
X210303Y156751D01*
X210228Y156708D01*
X210152Y156669D01*
X210073Y156633D01*
X209993Y156601D01*
X209912Y156573D01*
X209830Y156548D01*
X209746Y156527D01*
X209662Y156510D01*
X209577Y156496D01*
X209491Y156487D01*
X209405Y156481D01*
X209319Y156479D01*
X204521Y156479D01*
X204435Y156481D01*
X204349Y156487D01*
X204263Y156496D01*
X204178Y156510D01*
X204094Y156527D01*
X204010Y156548D01*
X203928Y156573D01*
X203847Y156601D01*
X203767Y156633D01*
X203688Y156669D01*
X203612Y156708D01*
X203537Y156751D01*
X203464Y156796D01*
X203393Y156845D01*
X203325Y156898D01*
X203258Y156953D01*
X203195Y157011D01*
X203134Y157072D01*
X203076Y157135D01*
X203021Y157202D01*
X202969Y157270D01*
X202919Y157341D01*
X202874Y157414D01*
X202831Y157489D01*
X202792Y157565D01*
X202756Y157644D01*
X202724Y157724D01*
X202696Y157805D01*
X202671Y157887D01*
X202650Y157971D01*
X202633Y158055D01*
X202619Y158140D01*
X202610Y158226D01*
X202604Y158312D01*
X202602Y158398D01*
X202602Y161276D01*
X32600Y330762D02*
X30681Y330762D01*
X30595Y330764D01*
X30509Y330770D01*
X30423Y330779D01*
X30338Y330793D01*
X30254Y330810D01*
X30170Y330831D01*
X30088Y330856D01*
X30007Y330884D01*
X29927Y330916D01*
X29848Y330952D01*
X29772Y330991D01*
X29697Y331034D01*
X29624Y331079D01*
X29553Y331128D01*
X29485Y331181D01*
X29418Y331236D01*
X29355Y331294D01*
X29294Y331355D01*
X29236Y331418D01*
X29181Y331485D01*
X29128Y331553D01*
X29079Y331624D01*
X29034Y331697D01*
X28991Y331772D01*
X28952Y331848D01*
X28916Y331927D01*
X28884Y332007D01*
X28856Y332088D01*
X28831Y332170D01*
X28810Y332254D01*
X28793Y332338D01*
X28779Y332423D01*
X28770Y332509D01*
X28764Y332595D01*
X28762Y332681D01*
X28762Y337479D01*
X28764Y337565D01*
X28770Y337651D01*
X28779Y337737D01*
X28793Y337822D01*
X28810Y337906D01*
X28831Y337990D01*
X28856Y338072D01*
X28884Y338153D01*
X28916Y338233D01*
X28952Y338312D01*
X28991Y338388D01*
X29034Y338463D01*
X29079Y338536D01*
X29128Y338607D01*
X29181Y338675D01*
X29236Y338742D01*
X29294Y338805D01*
X29355Y338866D01*
X29418Y338924D01*
X29485Y338979D01*
X29553Y339031D01*
X29624Y339081D01*
X29697Y339126D01*
X29772Y339169D01*
X29848Y339208D01*
X29927Y339244D01*
X30007Y339276D01*
X30088Y339304D01*
X30170Y339329D01*
X30254Y339350D01*
X30338Y339367D01*
X30423Y339381D01*
X30509Y339390D01*
X30595Y339396D01*
X30681Y339398D01*
X32600Y339398D01*
X36751Y339398D02*
X36751Y330762D01*
X40589Y330762D01*
X44844Y330762D02*
X44844Y339398D01*
X49642Y339398D02*
X44844Y334120D01*
X46764Y336040D02*
X49642Y330762D01*
X133000Y139000D02*
X126000Y135000D01*
X133000Y139000D02*
X133000Y131000D01*
X126000Y135000D01*
X123762Y144762D02*
X123762Y153398D01*
X126161Y153398D01*
X126258Y153396D01*
X126354Y153390D01*
X126450Y153381D01*
X126546Y153367D01*
X126641Y153350D01*
X126735Y153328D01*
X126828Y153303D01*
X126921Y153275D01*
X127012Y153242D01*
X127101Y153206D01*
X127189Y153166D01*
X127276Y153123D01*
X127361Y153077D01*
X127443Y153027D01*
X127524Y152973D01*
X127602Y152917D01*
X127678Y152857D01*
X127752Y152795D01*
X127823Y152729D01*
X127891Y152661D01*
X127957Y152590D01*
X128019Y152516D01*
X128079Y152440D01*
X128135Y152362D01*
X128189Y152281D01*
X128239Y152199D01*
X128285Y152114D01*
X128328Y152027D01*
X128368Y151939D01*
X128404Y151850D01*
X128437Y151759D01*
X128465Y151666D01*
X128490Y151573D01*
X128512Y151479D01*
X128529Y151384D01*
X128543Y151288D01*
X128552Y151192D01*
X128558Y151096D01*
X128560Y150999D01*
X128560Y147161D01*
X128558Y147064D01*
X128552Y146968D01*
X128543Y146872D01*
X128529Y146776D01*
X128512Y146681D01*
X128490Y146587D01*
X128465Y146494D01*
X128437Y146401D01*
X128404Y146310D01*
X128368Y146221D01*
X128328Y146133D01*
X128285Y146046D01*
X128239Y145962D01*
X128189Y145879D01*
X128135Y145798D01*
X128079Y145720D01*
X128019Y145644D01*
X127957Y145570D01*
X127891Y145499D01*
X127823Y145431D01*
X127752Y145365D01*
X127678Y145303D01*
X127602Y145243D01*
X127524Y145187D01*
X127443Y145133D01*
X127361Y145083D01*
X127276Y145037D01*
X127189Y144994D01*
X127101Y144954D01*
X127012Y144918D01*
X126921Y144885D01*
X126828Y144857D01*
X126735Y144832D01*
X126641Y144810D01*
X126546Y144793D01*
X126450Y144779D01*
X126354Y144770D01*
X126258Y144764D01*
X126161Y144762D01*
X123762Y144762D01*
X133211Y151479D02*
X135610Y153398D01*
X135610Y144762D01*
X133211Y144762D02*
X138009Y144762D01*
X126000Y165000D02*
X133000Y169000D01*
X133000Y161000D01*
X126000Y165000D01*
X123762Y174762D02*
X123762Y183398D01*
X126161Y183398D01*
X126258Y183396D01*
X126354Y183390D01*
X126450Y183381D01*
X126546Y183367D01*
X126641Y183350D01*
X126735Y183328D01*
X126828Y183303D01*
X126921Y183275D01*
X127012Y183242D01*
X127101Y183206D01*
X127189Y183166D01*
X127276Y183123D01*
X127361Y183077D01*
X127443Y183027D01*
X127524Y182973D01*
X127602Y182917D01*
X127678Y182857D01*
X127752Y182795D01*
X127823Y182729D01*
X127891Y182661D01*
X127957Y182590D01*
X128019Y182516D01*
X128079Y182440D01*
X128135Y182362D01*
X128189Y182281D01*
X128239Y182199D01*
X128285Y182114D01*
X128328Y182027D01*
X128368Y181939D01*
X128404Y181850D01*
X128437Y181759D01*
X128465Y181666D01*
X128490Y181573D01*
X128512Y181479D01*
X128529Y181384D01*
X128543Y181288D01*
X128552Y181192D01*
X128558Y181096D01*
X128560Y180999D01*
X128560Y177161D01*
X128558Y177064D01*
X128552Y176968D01*
X128543Y176872D01*
X128529Y176776D01*
X128512Y176681D01*
X128490Y176587D01*
X128465Y176494D01*
X128437Y176401D01*
X128404Y176310D01*
X128368Y176221D01*
X128328Y176133D01*
X128285Y176046D01*
X128239Y175962D01*
X128189Y175879D01*
X128135Y175798D01*
X128079Y175720D01*
X128019Y175644D01*
X127957Y175570D01*
X127891Y175499D01*
X127823Y175431D01*
X127752Y175365D01*
X127678Y175303D01*
X127602Y175243D01*
X127524Y175187D01*
X127443Y175133D01*
X127361Y175083D01*
X127276Y175037D01*
X127189Y174994D01*
X127101Y174954D01*
X127012Y174918D01*
X126921Y174885D01*
X126828Y174857D01*
X126735Y174832D01*
X126641Y174810D01*
X126546Y174793D01*
X126450Y174779D01*
X126354Y174770D01*
X126258Y174764D01*
X126161Y174762D01*
X123762Y174762D01*
X135850Y183398D02*
X135942Y183396D01*
X136033Y183390D01*
X136124Y183381D01*
X136215Y183367D01*
X136305Y183350D01*
X136394Y183328D01*
X136482Y183303D01*
X136569Y183275D01*
X136655Y183242D01*
X136739Y183206D01*
X136822Y183167D01*
X136903Y183124D01*
X136982Y183077D01*
X137059Y183028D01*
X137134Y182975D01*
X137206Y182919D01*
X137276Y182860D01*
X137344Y182798D01*
X137409Y182733D01*
X137471Y182665D01*
X137530Y182595D01*
X137586Y182523D01*
X137639Y182448D01*
X137688Y182371D01*
X137735Y182292D01*
X137778Y182211D01*
X137817Y182128D01*
X137853Y182044D01*
X137886Y181958D01*
X137914Y181871D01*
X137939Y181783D01*
X137961Y181694D01*
X137978Y181604D01*
X137992Y181513D01*
X138001Y181422D01*
X138007Y181331D01*
X138009Y181239D01*
X135850Y183398D02*
X135747Y183396D01*
X135645Y183390D01*
X135543Y183381D01*
X135441Y183368D01*
X135340Y183351D01*
X135239Y183330D01*
X135140Y183306D01*
X135041Y183277D01*
X134944Y183246D01*
X134847Y183210D01*
X134752Y183172D01*
X134659Y183129D01*
X134567Y183083D01*
X134477Y183034D01*
X134389Y182982D01*
X134302Y182926D01*
X134218Y182867D01*
X134137Y182806D01*
X134057Y182741D01*
X133980Y182673D01*
X133905Y182602D01*
X133834Y182529D01*
X133765Y182453D01*
X133698Y182375D01*
X133635Y182294D01*
X133575Y182211D01*
X133518Y182126D01*
X133464Y182039D01*
X133413Y181949D01*
X133366Y181858D01*
X133322Y181766D01*
X133281Y181671D01*
X133244Y181576D01*
X133211Y181479D01*
X137289Y179560D02*
X137356Y179626D01*
X137420Y179695D01*
X137481Y179766D01*
X137539Y179840D01*
X137594Y179916D01*
X137646Y179994D01*
X137695Y180074D01*
X137741Y180156D01*
X137783Y180240D01*
X137822Y180326D01*
X137857Y180413D01*
X137888Y180501D01*
X137916Y180591D01*
X137941Y180681D01*
X137962Y180773D01*
X137979Y180865D01*
X137992Y180958D01*
X138001Y181051D01*
X138007Y181145D01*
X138009Y181239D01*
X137289Y179560D02*
X133211Y174762D01*
X138009Y174762D01*
X28762Y305762D02*
X28762Y314398D01*
X31161Y314398D01*
X31258Y314396D01*
X31354Y314390D01*
X31450Y314381D01*
X31546Y314367D01*
X31641Y314350D01*
X31735Y314328D01*
X31828Y314303D01*
X31921Y314275D01*
X32012Y314242D01*
X32101Y314206D01*
X32189Y314166D01*
X32276Y314123D01*
X32361Y314077D01*
X32443Y314027D01*
X32524Y313973D01*
X32602Y313917D01*
X32678Y313857D01*
X32752Y313795D01*
X32823Y313729D01*
X32891Y313661D01*
X32957Y313590D01*
X33019Y313516D01*
X33079Y313440D01*
X33135Y313362D01*
X33189Y313281D01*
X33239Y313199D01*
X33285Y313114D01*
X33328Y313027D01*
X33368Y312939D01*
X33404Y312850D01*
X33437Y312759D01*
X33465Y312666D01*
X33490Y312573D01*
X33512Y312479D01*
X33529Y312384D01*
X33543Y312288D01*
X33552Y312192D01*
X33558Y312096D01*
X33560Y311999D01*
X33560Y308161D01*
X33558Y308064D01*
X33552Y307968D01*
X33543Y307872D01*
X33529Y307776D01*
X33512Y307681D01*
X33490Y307587D01*
X33465Y307494D01*
X33437Y307401D01*
X33404Y307310D01*
X33368Y307221D01*
X33328Y307133D01*
X33285Y307046D01*
X33239Y306962D01*
X33189Y306879D01*
X33135Y306798D01*
X33079Y306720D01*
X33019Y306644D01*
X32957Y306570D01*
X32891Y306499D01*
X32823Y306431D01*
X32752Y306365D01*
X32678Y306303D01*
X32602Y306243D01*
X32524Y306187D01*
X32443Y306133D01*
X32360Y306083D01*
X32276Y306037D01*
X32189Y305994D01*
X32101Y305954D01*
X32012Y305918D01*
X31921Y305885D01*
X31828Y305857D01*
X31735Y305832D01*
X31641Y305810D01*
X31546Y305793D01*
X31450Y305779D01*
X31354Y305770D01*
X31258Y305764D01*
X31161Y305762D01*
X28762Y305762D01*
X37731Y305762D02*
X40610Y314398D01*
X43488Y305762D01*
X42769Y307921D02*
X38451Y307921D01*
X49144Y305762D02*
X49144Y314398D01*
X46745Y314398D02*
X51543Y314398D01*
X33560Y285560D02*
X32120Y285560D01*
X33560Y285560D02*
X33560Y280762D01*
X30681Y280762D01*
X30595Y280764D01*
X30509Y280770D01*
X30423Y280779D01*
X30338Y280793D01*
X30254Y280810D01*
X30170Y280831D01*
X30088Y280856D01*
X30007Y280884D01*
X29927Y280916D01*
X29848Y280952D01*
X29772Y280991D01*
X29697Y281034D01*
X29624Y281079D01*
X29553Y281128D01*
X29485Y281181D01*
X29418Y281236D01*
X29355Y281294D01*
X29294Y281355D01*
X29236Y281418D01*
X29181Y281485D01*
X29128Y281553D01*
X29079Y281624D01*
X29034Y281697D01*
X28991Y281772D01*
X28952Y281848D01*
X28916Y281927D01*
X28884Y282007D01*
X28856Y282088D01*
X28831Y282170D01*
X28810Y282254D01*
X28793Y282338D01*
X28779Y282423D01*
X28770Y282509D01*
X28764Y282595D01*
X28762Y282681D01*
X28762Y287479D01*
X28764Y287565D01*
X28770Y287651D01*
X28779Y287737D01*
X28793Y287822D01*
X28810Y287906D01*
X28831Y287990D01*
X28856Y288072D01*
X28884Y288153D01*
X28916Y288233D01*
X28952Y288312D01*
X28991Y288388D01*
X29034Y288463D01*
X29079Y288536D01*
X29128Y288607D01*
X29181Y288675D01*
X29236Y288742D01*
X29294Y288805D01*
X29355Y288866D01*
X29418Y288924D01*
X29485Y288979D01*
X29553Y289031D01*
X29624Y289081D01*
X29697Y289126D01*
X29772Y289169D01*
X29848Y289208D01*
X29927Y289244D01*
X30007Y289276D01*
X30088Y289304D01*
X30170Y289329D01*
X30254Y289350D01*
X30338Y289367D01*
X30423Y289381D01*
X30509Y289390D01*
X30595Y289396D01*
X30681Y289398D01*
X33560Y289398D01*
X38516Y289398D02*
X38516Y280762D01*
X43313Y280762D02*
X38516Y289398D01*
X43313Y289398D02*
X43313Y280762D01*
X48269Y280762D02*
X48269Y289398D01*
X50668Y289398D01*
X50765Y289396D01*
X50861Y289390D01*
X50957Y289381D01*
X51053Y289367D01*
X51148Y289350D01*
X51242Y289328D01*
X51335Y289303D01*
X51428Y289275D01*
X51519Y289242D01*
X51608Y289206D01*
X51696Y289166D01*
X51783Y289123D01*
X51868Y289077D01*
X51950Y289027D01*
X52031Y288973D01*
X52109Y288917D01*
X52185Y288857D01*
X52259Y288795D01*
X52330Y288729D01*
X52398Y288661D01*
X52464Y288590D01*
X52526Y288516D01*
X52586Y288440D01*
X52642Y288362D01*
X52696Y288281D01*
X52746Y288199D01*
X52792Y288114D01*
X52835Y288027D01*
X52875Y287939D01*
X52911Y287850D01*
X52944Y287759D01*
X52972Y287666D01*
X52997Y287573D01*
X53019Y287479D01*
X53036Y287384D01*
X53050Y287288D01*
X53059Y287192D01*
X53065Y287096D01*
X53067Y286999D01*
X53067Y283161D01*
X53065Y283064D01*
X53059Y282968D01*
X53050Y282872D01*
X53036Y282776D01*
X53019Y282681D01*
X52997Y282587D01*
X52972Y282494D01*
X52944Y282401D01*
X52911Y282310D01*
X52875Y282221D01*
X52835Y282133D01*
X52792Y282046D01*
X52746Y281962D01*
X52696Y281879D01*
X52642Y281798D01*
X52586Y281720D01*
X52526Y281644D01*
X52464Y281570D01*
X52398Y281499D01*
X52330Y281431D01*
X52259Y281365D01*
X52185Y281303D01*
X52109Y281243D01*
X52031Y281187D01*
X51950Y281133D01*
X51867Y281083D01*
X51783Y281037D01*
X51696Y280994D01*
X51608Y280954D01*
X51519Y280918D01*
X51428Y280885D01*
X51335Y280857D01*
X51242Y280832D01*
X51148Y280810D01*
X51053Y280793D01*
X50957Y280779D01*
X50861Y280770D01*
X50765Y280764D01*
X50668Y280762D01*
X48269Y280762D01*
X89220Y158100D02*
X89220Y141900D01*
X60780Y141900D02*
X60780Y158100D01*
X69780Y158100D02*
X80220Y158100D01*
X70720Y141900D02*
X69780Y141900D01*
X79280Y141900D02*
X80220Y141900D01*
X61720Y141900D02*
X60780Y141900D01*
X88280Y141900D02*
X89220Y141900D01*
X89220Y158100D02*
X88280Y158100D01*
X61720Y158100D02*
X60780Y158100D01*
X93602Y143762D02*
X102238Y143762D01*
X102238Y147600D01*
X102238Y151661D02*
X93602Y151661D01*
X93602Y154060D01*
X93604Y154157D01*
X93610Y154253D01*
X93619Y154349D01*
X93633Y154445D01*
X93650Y154540D01*
X93672Y154634D01*
X93697Y154727D01*
X93725Y154820D01*
X93758Y154911D01*
X93794Y155000D01*
X93834Y155088D01*
X93877Y155175D01*
X93923Y155260D01*
X93973Y155342D01*
X94027Y155423D01*
X94083Y155501D01*
X94143Y155577D01*
X94205Y155651D01*
X94271Y155722D01*
X94339Y155790D01*
X94410Y155856D01*
X94484Y155918D01*
X94560Y155978D01*
X94638Y156034D01*
X94719Y156088D01*
X94802Y156138D01*
X94886Y156184D01*
X94973Y156227D01*
X95061Y156267D01*
X95150Y156303D01*
X95241Y156336D01*
X95334Y156364D01*
X95427Y156389D01*
X95521Y156411D01*
X95616Y156428D01*
X95712Y156442D01*
X95808Y156451D01*
X95904Y156457D01*
X96001Y156459D01*
X99839Y156459D01*
X99936Y156457D01*
X100032Y156451D01*
X100128Y156442D01*
X100224Y156428D01*
X100319Y156411D01*
X100413Y156389D01*
X100506Y156364D01*
X100599Y156336D01*
X100690Y156303D01*
X100779Y156267D01*
X100867Y156227D01*
X100954Y156184D01*
X101039Y156138D01*
X101121Y156088D01*
X101202Y156034D01*
X101280Y155978D01*
X101356Y155918D01*
X101430Y155856D01*
X101501Y155790D01*
X101569Y155722D01*
X101635Y155651D01*
X101697Y155577D01*
X101757Y155501D01*
X101813Y155423D01*
X101867Y155342D01*
X101917Y155260D01*
X101963Y155175D01*
X102006Y155088D01*
X102046Y155000D01*
X102082Y154911D01*
X102115Y154820D01*
X102143Y154727D01*
X102168Y154634D01*
X102190Y154540D01*
X102207Y154445D01*
X102221Y154349D01*
X102230Y154253D01*
X102236Y154157D01*
X102238Y154060D01*
X102238Y151661D01*
X99839Y161110D02*
X96001Y161110D01*
X96001Y161109D02*
X95904Y161111D01*
X95808Y161117D01*
X95712Y161126D01*
X95616Y161140D01*
X95521Y161157D01*
X95427Y161179D01*
X95334Y161204D01*
X95241Y161232D01*
X95150Y161265D01*
X95061Y161301D01*
X94973Y161341D01*
X94886Y161384D01*
X94801Y161430D01*
X94719Y161480D01*
X94638Y161534D01*
X94560Y161590D01*
X94484Y161650D01*
X94410Y161712D01*
X94339Y161778D01*
X94271Y161846D01*
X94205Y161917D01*
X94143Y161991D01*
X94083Y162067D01*
X94027Y162145D01*
X93973Y162226D01*
X93923Y162309D01*
X93877Y162393D01*
X93834Y162480D01*
X93794Y162568D01*
X93758Y162657D01*
X93725Y162748D01*
X93697Y162841D01*
X93672Y162934D01*
X93650Y163028D01*
X93633Y163123D01*
X93619Y163219D01*
X93610Y163315D01*
X93604Y163411D01*
X93602Y163508D01*
X93604Y163605D01*
X93610Y163701D01*
X93619Y163797D01*
X93633Y163893D01*
X93650Y163988D01*
X93672Y164082D01*
X93697Y164175D01*
X93725Y164268D01*
X93758Y164359D01*
X93794Y164448D01*
X93834Y164536D01*
X93877Y164623D01*
X93923Y164708D01*
X93973Y164790D01*
X94027Y164871D01*
X94083Y164949D01*
X94143Y165025D01*
X94205Y165099D01*
X94271Y165170D01*
X94339Y165238D01*
X94410Y165304D01*
X94484Y165366D01*
X94560Y165426D01*
X94638Y165482D01*
X94719Y165536D01*
X94802Y165586D01*
X94886Y165632D01*
X94973Y165675D01*
X95061Y165715D01*
X95150Y165751D01*
X95241Y165784D01*
X95334Y165812D01*
X95427Y165837D01*
X95521Y165859D01*
X95616Y165876D01*
X95712Y165890D01*
X95808Y165899D01*
X95904Y165905D01*
X96001Y165907D01*
X99839Y165907D01*
X99936Y165905D01*
X100032Y165899D01*
X100128Y165890D01*
X100224Y165876D01*
X100319Y165859D01*
X100413Y165837D01*
X100506Y165812D01*
X100599Y165784D01*
X100690Y165751D01*
X100779Y165715D01*
X100867Y165675D01*
X100954Y165632D01*
X101039Y165586D01*
X101121Y165536D01*
X101202Y165482D01*
X101280Y165426D01*
X101356Y165366D01*
X101430Y165304D01*
X101501Y165238D01*
X101569Y165170D01*
X101635Y165099D01*
X101697Y165025D01*
X101757Y164949D01*
X101813Y164871D01*
X101867Y164790D01*
X101917Y164707D01*
X101963Y164623D01*
X102006Y164536D01*
X102046Y164448D01*
X102082Y164359D01*
X102115Y164268D01*
X102143Y164175D01*
X102168Y164082D01*
X102190Y163988D01*
X102207Y163893D01*
X102221Y163797D01*
X102230Y163701D01*
X102236Y163605D01*
X102238Y163508D01*
X102236Y163411D01*
X102230Y163315D01*
X102221Y163219D01*
X102207Y163123D01*
X102190Y163028D01*
X102168Y162934D01*
X102143Y162841D01*
X102115Y162748D01*
X102082Y162657D01*
X102046Y162568D01*
X102006Y162480D01*
X101963Y162393D01*
X101917Y162309D01*
X101867Y162226D01*
X101813Y162145D01*
X101757Y162067D01*
X101697Y161991D01*
X101635Y161917D01*
X101569Y161846D01*
X101501Y161778D01*
X101430Y161712D01*
X101356Y161650D01*
X101280Y161590D01*
X101202Y161534D01*
X101121Y161480D01*
X101039Y161430D01*
X100954Y161384D01*
X100867Y161341D01*
X100779Y161301D01*
X100690Y161265D01*
X100599Y161232D01*
X100506Y161204D01*
X100413Y161179D01*
X100319Y161157D01*
X100224Y161140D01*
X100128Y161126D01*
X100032Y161117D01*
X99936Y161111D01*
X99839Y161109D01*
D13*
X31000Y157000D02*
X31000Y203000D01*
X31000Y157000D02*
X3000Y157000D01*
X3000Y167500D01*
X3000Y192500D01*
X3000Y203000D01*
X31000Y203000D01*
X3000Y192500D02*
X-4500Y192500D01*
X-4500Y167500D01*
X3000Y167500D01*
D11*
X40161Y156788D02*
X43999Y156788D01*
X40161Y156787D02*
X40064Y156789D01*
X39968Y156795D01*
X39872Y156804D01*
X39776Y156818D01*
X39681Y156835D01*
X39587Y156857D01*
X39494Y156882D01*
X39401Y156910D01*
X39310Y156943D01*
X39221Y156979D01*
X39133Y157019D01*
X39046Y157062D01*
X38961Y157108D01*
X38879Y157158D01*
X38798Y157212D01*
X38720Y157268D01*
X38644Y157328D01*
X38570Y157390D01*
X38499Y157456D01*
X38431Y157524D01*
X38365Y157595D01*
X38303Y157669D01*
X38243Y157745D01*
X38187Y157823D01*
X38133Y157904D01*
X38083Y157987D01*
X38037Y158071D01*
X37994Y158158D01*
X37954Y158246D01*
X37918Y158335D01*
X37885Y158426D01*
X37857Y158519D01*
X37832Y158612D01*
X37810Y158706D01*
X37793Y158801D01*
X37779Y158897D01*
X37770Y158993D01*
X37764Y159089D01*
X37762Y159186D01*
X37764Y159283D01*
X37770Y159379D01*
X37779Y159475D01*
X37793Y159571D01*
X37810Y159666D01*
X37832Y159760D01*
X37857Y159853D01*
X37885Y159946D01*
X37918Y160037D01*
X37954Y160126D01*
X37994Y160214D01*
X38037Y160301D01*
X38083Y160386D01*
X38133Y160468D01*
X38187Y160549D01*
X38243Y160627D01*
X38303Y160703D01*
X38365Y160777D01*
X38431Y160848D01*
X38499Y160916D01*
X38570Y160982D01*
X38644Y161044D01*
X38720Y161104D01*
X38798Y161160D01*
X38879Y161214D01*
X38962Y161264D01*
X39046Y161310D01*
X39133Y161353D01*
X39221Y161393D01*
X39310Y161429D01*
X39401Y161462D01*
X39494Y161490D01*
X39587Y161515D01*
X39681Y161537D01*
X39776Y161554D01*
X39872Y161568D01*
X39968Y161577D01*
X40064Y161583D01*
X40161Y161585D01*
X43999Y161585D01*
X44096Y161583D01*
X44192Y161577D01*
X44288Y161568D01*
X44384Y161554D01*
X44479Y161537D01*
X44573Y161515D01*
X44666Y161490D01*
X44759Y161462D01*
X44850Y161429D01*
X44939Y161393D01*
X45027Y161353D01*
X45114Y161310D01*
X45199Y161264D01*
X45281Y161214D01*
X45362Y161160D01*
X45440Y161104D01*
X45516Y161044D01*
X45590Y160982D01*
X45661Y160916D01*
X45729Y160848D01*
X45795Y160777D01*
X45857Y160703D01*
X45917Y160627D01*
X45973Y160549D01*
X46027Y160468D01*
X46077Y160385D01*
X46123Y160301D01*
X46166Y160214D01*
X46206Y160126D01*
X46242Y160037D01*
X46275Y159946D01*
X46303Y159853D01*
X46328Y159760D01*
X46350Y159666D01*
X46367Y159571D01*
X46381Y159475D01*
X46390Y159379D01*
X46396Y159283D01*
X46398Y159186D01*
X46396Y159089D01*
X46390Y158993D01*
X46381Y158897D01*
X46367Y158801D01*
X46350Y158706D01*
X46328Y158612D01*
X46303Y158519D01*
X46275Y158426D01*
X46242Y158335D01*
X46206Y158246D01*
X46166Y158158D01*
X46123Y158071D01*
X46077Y157987D01*
X46027Y157904D01*
X45973Y157823D01*
X45917Y157745D01*
X45857Y157669D01*
X45795Y157595D01*
X45729Y157524D01*
X45661Y157456D01*
X45590Y157390D01*
X45516Y157328D01*
X45440Y157268D01*
X45362Y157212D01*
X45281Y157158D01*
X45198Y157108D01*
X45114Y157062D01*
X45027Y157019D01*
X44939Y156979D01*
X44850Y156943D01*
X44759Y156910D01*
X44666Y156882D01*
X44573Y156857D01*
X44479Y156835D01*
X44384Y156818D01*
X44288Y156804D01*
X44192Y156795D01*
X44096Y156789D01*
X43999Y156787D01*
X46398Y166236D02*
X37762Y166236D01*
X46398Y171034D01*
X37762Y171034D01*
X36802Y179089D02*
X47358Y175251D01*
X43999Y183000D02*
X40161Y183000D01*
X40064Y183002D01*
X39968Y183008D01*
X39872Y183017D01*
X39776Y183031D01*
X39681Y183048D01*
X39587Y183070D01*
X39494Y183095D01*
X39401Y183123D01*
X39310Y183156D01*
X39221Y183192D01*
X39133Y183232D01*
X39046Y183275D01*
X38961Y183321D01*
X38879Y183371D01*
X38798Y183425D01*
X38720Y183481D01*
X38644Y183541D01*
X38570Y183603D01*
X38499Y183669D01*
X38431Y183737D01*
X38365Y183808D01*
X38303Y183882D01*
X38243Y183958D01*
X38187Y184036D01*
X38133Y184117D01*
X38083Y184200D01*
X38037Y184284D01*
X37994Y184371D01*
X37954Y184459D01*
X37918Y184548D01*
X37885Y184639D01*
X37857Y184732D01*
X37832Y184825D01*
X37810Y184919D01*
X37793Y185014D01*
X37779Y185110D01*
X37770Y185206D01*
X37764Y185302D01*
X37762Y185399D01*
X37764Y185496D01*
X37770Y185592D01*
X37779Y185688D01*
X37793Y185784D01*
X37810Y185879D01*
X37832Y185973D01*
X37857Y186066D01*
X37885Y186159D01*
X37918Y186250D01*
X37954Y186339D01*
X37994Y186427D01*
X38037Y186514D01*
X38083Y186599D01*
X38133Y186681D01*
X38187Y186762D01*
X38243Y186840D01*
X38303Y186916D01*
X38365Y186990D01*
X38431Y187061D01*
X38499Y187129D01*
X38570Y187195D01*
X38644Y187257D01*
X38720Y187317D01*
X38798Y187373D01*
X38879Y187427D01*
X38962Y187477D01*
X39046Y187523D01*
X39133Y187566D01*
X39221Y187606D01*
X39310Y187642D01*
X39401Y187675D01*
X39494Y187703D01*
X39587Y187728D01*
X39681Y187750D01*
X39776Y187767D01*
X39872Y187781D01*
X39968Y187790D01*
X40064Y187796D01*
X40161Y187798D01*
X43999Y187798D01*
X44096Y187796D01*
X44192Y187790D01*
X44288Y187781D01*
X44384Y187767D01*
X44479Y187750D01*
X44573Y187728D01*
X44666Y187703D01*
X44759Y187675D01*
X44850Y187642D01*
X44939Y187606D01*
X45027Y187566D01*
X45114Y187523D01*
X45199Y187477D01*
X45281Y187427D01*
X45362Y187373D01*
X45440Y187317D01*
X45516Y187257D01*
X45590Y187195D01*
X45661Y187129D01*
X45729Y187061D01*
X45795Y186990D01*
X45857Y186916D01*
X45917Y186840D01*
X45973Y186762D01*
X46027Y186681D01*
X46077Y186598D01*
X46123Y186514D01*
X46166Y186427D01*
X46206Y186339D01*
X46242Y186250D01*
X46275Y186159D01*
X46303Y186066D01*
X46328Y185973D01*
X46350Y185879D01*
X46367Y185784D01*
X46381Y185688D01*
X46390Y185592D01*
X46396Y185496D01*
X46398Y185399D01*
X46396Y185302D01*
X46390Y185206D01*
X46381Y185110D01*
X46367Y185014D01*
X46350Y184919D01*
X46328Y184825D01*
X46303Y184732D01*
X46275Y184639D01*
X46242Y184548D01*
X46206Y184459D01*
X46166Y184371D01*
X46123Y184284D01*
X46077Y184200D01*
X46027Y184117D01*
X45973Y184036D01*
X45917Y183958D01*
X45857Y183882D01*
X45795Y183808D01*
X45729Y183737D01*
X45661Y183669D01*
X45590Y183603D01*
X45516Y183541D01*
X45440Y183481D01*
X45362Y183425D01*
X45281Y183371D01*
X45198Y183321D01*
X45114Y183275D01*
X45027Y183232D01*
X44939Y183192D01*
X44850Y183156D01*
X44759Y183123D01*
X44666Y183095D01*
X44573Y183070D01*
X44479Y183048D01*
X44384Y183031D01*
X44288Y183017D01*
X44192Y183008D01*
X44096Y183002D01*
X43999Y183000D01*
X46398Y192475D02*
X37762Y192475D01*
X37762Y196313D01*
X41600Y196313D02*
X41600Y192475D01*
X37762Y200400D02*
X46398Y200400D01*
X37762Y200400D02*
X37762Y204238D01*
X41600Y204238D02*
X41600Y200400D01*
X102762Y197762D02*
X102762Y206398D01*
X105161Y206398D01*
X105258Y206396D01*
X105354Y206390D01*
X105450Y206381D01*
X105546Y206367D01*
X105641Y206350D01*
X105735Y206328D01*
X105828Y206303D01*
X105921Y206275D01*
X106012Y206242D01*
X106101Y206206D01*
X106189Y206166D01*
X106276Y206123D01*
X106361Y206077D01*
X106443Y206027D01*
X106524Y205973D01*
X106602Y205917D01*
X106678Y205857D01*
X106752Y205795D01*
X106823Y205729D01*
X106891Y205661D01*
X106957Y205590D01*
X107019Y205516D01*
X107079Y205440D01*
X107135Y205362D01*
X107189Y205281D01*
X107239Y205198D01*
X107285Y205114D01*
X107328Y205027D01*
X107368Y204939D01*
X107404Y204850D01*
X107437Y204759D01*
X107465Y204666D01*
X107490Y204573D01*
X107512Y204479D01*
X107529Y204384D01*
X107543Y204288D01*
X107552Y204192D01*
X107558Y204096D01*
X107560Y203999D01*
X107558Y203902D01*
X107552Y203806D01*
X107543Y203710D01*
X107529Y203614D01*
X107512Y203519D01*
X107490Y203425D01*
X107465Y203332D01*
X107437Y203239D01*
X107404Y203148D01*
X107368Y203059D01*
X107328Y202971D01*
X107285Y202884D01*
X107239Y202800D01*
X107189Y202717D01*
X107135Y202636D01*
X107079Y202558D01*
X107019Y202482D01*
X106957Y202408D01*
X106891Y202337D01*
X106823Y202269D01*
X106752Y202203D01*
X106678Y202141D01*
X106602Y202081D01*
X106524Y202025D01*
X106443Y201971D01*
X106361Y201921D01*
X106276Y201875D01*
X106189Y201832D01*
X106101Y201792D01*
X106012Y201756D01*
X105921Y201723D01*
X105828Y201695D01*
X105735Y201670D01*
X105641Y201648D01*
X105546Y201631D01*
X105450Y201617D01*
X105354Y201608D01*
X105258Y201602D01*
X105161Y201600D01*
X102762Y201600D01*
X105641Y201600D02*
X107560Y197762D01*
X111821Y204479D02*
X114220Y206398D01*
X114220Y197762D01*
X111821Y197762D02*
X116619Y197762D01*
X187762Y197762D02*
X187762Y206398D01*
X190161Y206398D01*
X190258Y206396D01*
X190354Y206390D01*
X190450Y206381D01*
X190546Y206367D01*
X190641Y206350D01*
X190735Y206328D01*
X190828Y206303D01*
X190921Y206275D01*
X191012Y206242D01*
X191101Y206206D01*
X191189Y206166D01*
X191276Y206123D01*
X191361Y206077D01*
X191443Y206027D01*
X191524Y205973D01*
X191602Y205917D01*
X191678Y205857D01*
X191752Y205795D01*
X191823Y205729D01*
X191891Y205661D01*
X191957Y205590D01*
X192019Y205516D01*
X192079Y205440D01*
X192135Y205362D01*
X192189Y205281D01*
X192239Y205198D01*
X192285Y205114D01*
X192328Y205027D01*
X192368Y204939D01*
X192404Y204850D01*
X192437Y204759D01*
X192465Y204666D01*
X192490Y204573D01*
X192512Y204479D01*
X192529Y204384D01*
X192543Y204288D01*
X192552Y204192D01*
X192558Y204096D01*
X192560Y203999D01*
X192558Y203902D01*
X192552Y203806D01*
X192543Y203710D01*
X192529Y203614D01*
X192512Y203519D01*
X192490Y203425D01*
X192465Y203332D01*
X192437Y203239D01*
X192404Y203148D01*
X192368Y203059D01*
X192328Y202971D01*
X192285Y202884D01*
X192239Y202800D01*
X192189Y202717D01*
X192135Y202636D01*
X192079Y202558D01*
X192019Y202482D01*
X191957Y202408D01*
X191891Y202337D01*
X191823Y202269D01*
X191752Y202203D01*
X191678Y202141D01*
X191602Y202081D01*
X191524Y202025D01*
X191443Y201971D01*
X191361Y201921D01*
X191276Y201875D01*
X191189Y201832D01*
X191101Y201792D01*
X191012Y201756D01*
X190921Y201723D01*
X190828Y201695D01*
X190735Y201670D01*
X190641Y201648D01*
X190546Y201631D01*
X190450Y201617D01*
X190354Y201608D01*
X190258Y201602D01*
X190161Y201600D01*
X187762Y201600D01*
X190641Y201600D02*
X192560Y197762D01*
X199460Y206398D02*
X199552Y206396D01*
X199643Y206390D01*
X199734Y206381D01*
X199825Y206367D01*
X199915Y206350D01*
X200004Y206328D01*
X200092Y206303D01*
X200179Y206275D01*
X200265Y206242D01*
X200349Y206206D01*
X200432Y206167D01*
X200513Y206124D01*
X200592Y206077D01*
X200669Y206028D01*
X200744Y205975D01*
X200816Y205919D01*
X200886Y205860D01*
X200954Y205798D01*
X201019Y205733D01*
X201081Y205665D01*
X201140Y205595D01*
X201196Y205523D01*
X201249Y205448D01*
X201298Y205371D01*
X201345Y205292D01*
X201388Y205211D01*
X201427Y205128D01*
X201463Y205044D01*
X201496Y204958D01*
X201524Y204871D01*
X201549Y204783D01*
X201571Y204694D01*
X201588Y204604D01*
X201602Y204513D01*
X201611Y204422D01*
X201617Y204331D01*
X201619Y204239D01*
X199460Y206398D02*
X199357Y206396D01*
X199255Y206390D01*
X199153Y206381D01*
X199051Y206368D01*
X198950Y206351D01*
X198849Y206330D01*
X198750Y206306D01*
X198651Y206277D01*
X198554Y206246D01*
X198457Y206210D01*
X198362Y206172D01*
X198269Y206129D01*
X198177Y206083D01*
X198087Y206034D01*
X197999Y205982D01*
X197912Y205926D01*
X197828Y205867D01*
X197747Y205806D01*
X197667Y205741D01*
X197590Y205673D01*
X197515Y205602D01*
X197444Y205529D01*
X197375Y205453D01*
X197308Y205375D01*
X197245Y205294D01*
X197185Y205211D01*
X197128Y205126D01*
X197074Y205039D01*
X197023Y204949D01*
X196976Y204858D01*
X196932Y204766D01*
X196891Y204671D01*
X196854Y204576D01*
X196821Y204479D01*
X200899Y202560D02*
X200966Y202626D01*
X201030Y202695D01*
X201091Y202766D01*
X201149Y202840D01*
X201204Y202916D01*
X201256Y202994D01*
X201305Y203074D01*
X201351Y203156D01*
X201393Y203240D01*
X201432Y203326D01*
X201467Y203413D01*
X201498Y203501D01*
X201526Y203591D01*
X201551Y203681D01*
X201572Y203773D01*
X201589Y203865D01*
X201602Y203958D01*
X201611Y204051D01*
X201617Y204145D01*
X201619Y204239D01*
X200899Y202560D02*
X196821Y197762D01*
X201619Y197762D01*
X233412Y126748D02*
X233412Y118112D01*
X233412Y126748D02*
X235811Y126748D01*
X235908Y126746D01*
X236004Y126740D01*
X236100Y126731D01*
X236196Y126717D01*
X236291Y126700D01*
X236385Y126678D01*
X236478Y126653D01*
X236571Y126625D01*
X236662Y126592D01*
X236751Y126556D01*
X236839Y126516D01*
X236926Y126473D01*
X237011Y126427D01*
X237093Y126377D01*
X237174Y126323D01*
X237252Y126267D01*
X237328Y126207D01*
X237402Y126145D01*
X237473Y126079D01*
X237541Y126011D01*
X237607Y125940D01*
X237669Y125866D01*
X237729Y125790D01*
X237785Y125712D01*
X237839Y125631D01*
X237889Y125548D01*
X237935Y125464D01*
X237978Y125377D01*
X238018Y125289D01*
X238054Y125200D01*
X238087Y125109D01*
X238115Y125016D01*
X238140Y124923D01*
X238162Y124829D01*
X238179Y124734D01*
X238193Y124638D01*
X238202Y124542D01*
X238208Y124446D01*
X238210Y124349D01*
X238208Y124252D01*
X238202Y124156D01*
X238193Y124060D01*
X238179Y123964D01*
X238162Y123869D01*
X238140Y123775D01*
X238115Y123682D01*
X238087Y123589D01*
X238054Y123498D01*
X238018Y123409D01*
X237978Y123321D01*
X237935Y123234D01*
X237889Y123149D01*
X237839Y123067D01*
X237785Y122986D01*
X237729Y122908D01*
X237669Y122832D01*
X237607Y122758D01*
X237541Y122687D01*
X237473Y122619D01*
X237402Y122553D01*
X237328Y122491D01*
X237252Y122431D01*
X237174Y122375D01*
X237093Y122321D01*
X237011Y122271D01*
X236926Y122225D01*
X236839Y122182D01*
X236751Y122142D01*
X236662Y122106D01*
X236571Y122073D01*
X236478Y122045D01*
X236385Y122020D01*
X236291Y121998D01*
X236196Y121981D01*
X236100Y121967D01*
X236004Y121958D01*
X235908Y121952D01*
X235811Y121950D01*
X233412Y121950D01*
X236291Y121950D02*
X238210Y118112D01*
X242471Y118112D02*
X244870Y118112D01*
X244967Y118114D01*
X245063Y118120D01*
X245159Y118129D01*
X245255Y118143D01*
X245350Y118160D01*
X245444Y118182D01*
X245537Y118207D01*
X245630Y118235D01*
X245721Y118268D01*
X245810Y118304D01*
X245898Y118344D01*
X245985Y118387D01*
X246070Y118433D01*
X246152Y118483D01*
X246233Y118537D01*
X246311Y118593D01*
X246387Y118653D01*
X246461Y118715D01*
X246532Y118781D01*
X246600Y118849D01*
X246666Y118920D01*
X246728Y118994D01*
X246788Y119070D01*
X246844Y119148D01*
X246898Y119229D01*
X246948Y119311D01*
X246994Y119396D01*
X247037Y119483D01*
X247077Y119571D01*
X247113Y119660D01*
X247146Y119751D01*
X247174Y119844D01*
X247199Y119937D01*
X247221Y120031D01*
X247238Y120126D01*
X247252Y120222D01*
X247261Y120318D01*
X247267Y120414D01*
X247269Y120511D01*
X247267Y120608D01*
X247261Y120704D01*
X247252Y120800D01*
X247238Y120896D01*
X247221Y120991D01*
X247199Y121085D01*
X247174Y121178D01*
X247146Y121271D01*
X247113Y121362D01*
X247077Y121451D01*
X247037Y121539D01*
X246994Y121626D01*
X246948Y121710D01*
X246898Y121793D01*
X246844Y121874D01*
X246788Y121952D01*
X246728Y122028D01*
X246666Y122102D01*
X246600Y122173D01*
X246532Y122241D01*
X246461Y122307D01*
X246387Y122369D01*
X246311Y122429D01*
X246233Y122485D01*
X246152Y122539D01*
X246070Y122589D01*
X245985Y122635D01*
X245898Y122678D01*
X245810Y122718D01*
X245721Y122754D01*
X245630Y122787D01*
X245537Y122815D01*
X245444Y122840D01*
X245350Y122862D01*
X245255Y122879D01*
X245159Y122893D01*
X245063Y122902D01*
X244967Y122908D01*
X244870Y122910D01*
X245350Y126748D02*
X242471Y126748D01*
X245350Y126748D02*
X245436Y126746D01*
X245522Y126740D01*
X245608Y126731D01*
X245693Y126717D01*
X245777Y126700D01*
X245861Y126679D01*
X245943Y126654D01*
X246024Y126626D01*
X246104Y126594D01*
X246183Y126558D01*
X246259Y126519D01*
X246334Y126476D01*
X246407Y126431D01*
X246478Y126382D01*
X246546Y126329D01*
X246613Y126274D01*
X246676Y126216D01*
X246737Y126155D01*
X246795Y126092D01*
X246850Y126025D01*
X246903Y125957D01*
X246952Y125886D01*
X246997Y125813D01*
X247040Y125738D01*
X247079Y125662D01*
X247115Y125583D01*
X247147Y125503D01*
X247175Y125422D01*
X247200Y125340D01*
X247221Y125256D01*
X247238Y125172D01*
X247252Y125087D01*
X247261Y125001D01*
X247267Y124915D01*
X247269Y124829D01*
X247267Y124743D01*
X247261Y124657D01*
X247252Y124571D01*
X247238Y124486D01*
X247221Y124402D01*
X247200Y124318D01*
X247175Y124236D01*
X247147Y124155D01*
X247115Y124075D01*
X247079Y123996D01*
X247040Y123920D01*
X246997Y123845D01*
X246952Y123772D01*
X246903Y123701D01*
X246850Y123633D01*
X246795Y123566D01*
X246737Y123503D01*
X246676Y123442D01*
X246613Y123384D01*
X246546Y123329D01*
X246478Y123276D01*
X246407Y123227D01*
X246334Y123182D01*
X246259Y123139D01*
X246183Y123100D01*
X246104Y123064D01*
X246024Y123032D01*
X245943Y123004D01*
X245861Y122979D01*
X245777Y122958D01*
X245693Y122941D01*
X245608Y122927D01*
X245522Y122918D01*
X245436Y122912D01*
X245350Y122910D01*
X243431Y122910D01*
X12762Y126398D02*
X12762Y117762D01*
X12762Y126398D02*
X15161Y126398D01*
X15258Y126396D01*
X15354Y126390D01*
X15450Y126381D01*
X15546Y126367D01*
X15641Y126350D01*
X15735Y126328D01*
X15828Y126303D01*
X15921Y126275D01*
X16012Y126242D01*
X16101Y126206D01*
X16189Y126166D01*
X16276Y126123D01*
X16361Y126077D01*
X16443Y126027D01*
X16524Y125973D01*
X16602Y125917D01*
X16678Y125857D01*
X16752Y125795D01*
X16823Y125729D01*
X16891Y125661D01*
X16957Y125590D01*
X17019Y125516D01*
X17079Y125440D01*
X17135Y125362D01*
X17189Y125281D01*
X17239Y125198D01*
X17285Y125114D01*
X17328Y125027D01*
X17368Y124939D01*
X17404Y124850D01*
X17437Y124759D01*
X17465Y124666D01*
X17490Y124573D01*
X17512Y124479D01*
X17529Y124384D01*
X17543Y124288D01*
X17552Y124192D01*
X17558Y124096D01*
X17560Y123999D01*
X17558Y123902D01*
X17552Y123806D01*
X17543Y123710D01*
X17529Y123614D01*
X17512Y123519D01*
X17490Y123425D01*
X17465Y123332D01*
X17437Y123239D01*
X17404Y123148D01*
X17368Y123059D01*
X17328Y122971D01*
X17285Y122884D01*
X17239Y122799D01*
X17189Y122717D01*
X17135Y122636D01*
X17079Y122558D01*
X17019Y122482D01*
X16957Y122408D01*
X16891Y122337D01*
X16823Y122269D01*
X16752Y122203D01*
X16678Y122141D01*
X16602Y122081D01*
X16524Y122025D01*
X16443Y121971D01*
X16360Y121921D01*
X16276Y121875D01*
X16189Y121832D01*
X16101Y121792D01*
X16012Y121756D01*
X15921Y121723D01*
X15828Y121695D01*
X15735Y121670D01*
X15641Y121648D01*
X15546Y121631D01*
X15450Y121617D01*
X15354Y121608D01*
X15258Y121602D01*
X15161Y121600D01*
X12762Y121600D01*
X15641Y121600D02*
X17560Y117762D01*
X21821Y119681D02*
X23740Y126398D01*
X21821Y119681D02*
X26619Y119681D01*
X25180Y121600D02*
X25180Y117762D01*
X12762Y142762D02*
X12762Y151398D01*
X15161Y151398D01*
X15258Y151396D01*
X15354Y151390D01*
X15450Y151381D01*
X15546Y151367D01*
X15641Y151350D01*
X15735Y151328D01*
X15828Y151303D01*
X15921Y151275D01*
X16012Y151242D01*
X16101Y151206D01*
X16189Y151166D01*
X16276Y151123D01*
X16361Y151077D01*
X16443Y151027D01*
X16524Y150973D01*
X16602Y150917D01*
X16678Y150857D01*
X16752Y150795D01*
X16823Y150729D01*
X16891Y150661D01*
X16957Y150590D01*
X17019Y150516D01*
X17079Y150440D01*
X17135Y150362D01*
X17189Y150281D01*
X17239Y150198D01*
X17285Y150114D01*
X17328Y150027D01*
X17368Y149939D01*
X17404Y149850D01*
X17437Y149759D01*
X17465Y149666D01*
X17490Y149573D01*
X17512Y149479D01*
X17529Y149384D01*
X17543Y149288D01*
X17552Y149192D01*
X17558Y149096D01*
X17560Y148999D01*
X17558Y148902D01*
X17552Y148806D01*
X17543Y148710D01*
X17529Y148614D01*
X17512Y148519D01*
X17490Y148425D01*
X17465Y148332D01*
X17437Y148239D01*
X17404Y148148D01*
X17368Y148059D01*
X17328Y147971D01*
X17285Y147884D01*
X17239Y147800D01*
X17189Y147717D01*
X17135Y147636D01*
X17079Y147558D01*
X17019Y147482D01*
X16957Y147408D01*
X16891Y147337D01*
X16823Y147269D01*
X16752Y147203D01*
X16678Y147141D01*
X16602Y147081D01*
X16524Y147025D01*
X16443Y146971D01*
X16360Y146921D01*
X16276Y146875D01*
X16189Y146832D01*
X16101Y146792D01*
X16012Y146756D01*
X15921Y146723D01*
X15828Y146695D01*
X15735Y146670D01*
X15641Y146648D01*
X15546Y146631D01*
X15450Y146617D01*
X15354Y146608D01*
X15258Y146602D01*
X15161Y146600D01*
X12762Y146600D01*
X15641Y146600D02*
X17560Y142762D01*
X21821Y142762D02*
X24700Y142762D01*
X24786Y142764D01*
X24872Y142770D01*
X24958Y142779D01*
X25043Y142793D01*
X25127Y142810D01*
X25211Y142831D01*
X25293Y142856D01*
X25374Y142884D01*
X25454Y142916D01*
X25533Y142952D01*
X25609Y142991D01*
X25684Y143034D01*
X25757Y143079D01*
X25828Y143129D01*
X25896Y143181D01*
X25963Y143236D01*
X26026Y143294D01*
X26087Y143355D01*
X26145Y143418D01*
X26200Y143485D01*
X26253Y143553D01*
X26302Y143624D01*
X26347Y143697D01*
X26390Y143772D01*
X26429Y143848D01*
X26465Y143927D01*
X26497Y144007D01*
X26525Y144088D01*
X26550Y144171D01*
X26571Y144254D01*
X26588Y144338D01*
X26602Y144423D01*
X26611Y144509D01*
X26617Y144595D01*
X26619Y144681D01*
X26619Y145641D01*
X26617Y145727D01*
X26611Y145813D01*
X26602Y145899D01*
X26588Y145984D01*
X26571Y146068D01*
X26550Y146152D01*
X26525Y146234D01*
X26497Y146315D01*
X26465Y146395D01*
X26429Y146474D01*
X26390Y146550D01*
X26347Y146625D01*
X26302Y146698D01*
X26253Y146769D01*
X26200Y146837D01*
X26145Y146904D01*
X26087Y146967D01*
X26026Y147028D01*
X25963Y147086D01*
X25896Y147141D01*
X25828Y147194D01*
X25757Y147243D01*
X25684Y147288D01*
X25609Y147331D01*
X25533Y147370D01*
X25454Y147406D01*
X25374Y147438D01*
X25293Y147466D01*
X25211Y147491D01*
X25127Y147512D01*
X25043Y147529D01*
X24958Y147543D01*
X24872Y147552D01*
X24786Y147558D01*
X24700Y147560D01*
X21821Y147560D01*
X21821Y151398D01*
X26619Y151398D01*
X31641Y255762D02*
X28762Y264398D01*
X34519Y264398D02*
X31641Y255762D01*
X40267Y255762D02*
X42186Y255762D01*
X40267Y255762D02*
X40181Y255764D01*
X40095Y255770D01*
X40009Y255779D01*
X39924Y255793D01*
X39840Y255810D01*
X39756Y255831D01*
X39674Y255856D01*
X39593Y255884D01*
X39513Y255916D01*
X39434Y255952D01*
X39358Y255991D01*
X39283Y256034D01*
X39210Y256079D01*
X39139Y256128D01*
X39071Y256181D01*
X39004Y256236D01*
X38941Y256294D01*
X38880Y256355D01*
X38822Y256418D01*
X38767Y256485D01*
X38714Y256553D01*
X38665Y256624D01*
X38620Y256697D01*
X38577Y256772D01*
X38538Y256848D01*
X38502Y256927D01*
X38470Y257007D01*
X38442Y257088D01*
X38417Y257170D01*
X38396Y257254D01*
X38379Y257338D01*
X38365Y257423D01*
X38356Y257509D01*
X38350Y257595D01*
X38348Y257681D01*
X38348Y262479D01*
X38350Y262565D01*
X38356Y262651D01*
X38365Y262737D01*
X38379Y262822D01*
X38396Y262906D01*
X38417Y262990D01*
X38442Y263072D01*
X38470Y263153D01*
X38502Y263233D01*
X38538Y263312D01*
X38577Y263388D01*
X38620Y263463D01*
X38665Y263536D01*
X38714Y263607D01*
X38767Y263675D01*
X38822Y263742D01*
X38880Y263805D01*
X38941Y263866D01*
X39004Y263924D01*
X39071Y263979D01*
X39139Y264031D01*
X39210Y264081D01*
X39283Y264126D01*
X39358Y264169D01*
X39434Y264208D01*
X39513Y264244D01*
X39593Y264276D01*
X39674Y264304D01*
X39756Y264329D01*
X39840Y264350D01*
X39924Y264367D01*
X40009Y264381D01*
X40095Y264390D01*
X40181Y264396D01*
X40267Y264398D01*
X42186Y264398D01*
X47887Y255762D02*
X49806Y255762D01*
X47887Y255762D02*
X47801Y255764D01*
X47715Y255770D01*
X47629Y255779D01*
X47544Y255793D01*
X47460Y255810D01*
X47376Y255831D01*
X47294Y255856D01*
X47213Y255884D01*
X47133Y255916D01*
X47054Y255952D01*
X46978Y255991D01*
X46903Y256034D01*
X46830Y256079D01*
X46759Y256128D01*
X46691Y256181D01*
X46624Y256236D01*
X46561Y256294D01*
X46500Y256355D01*
X46442Y256418D01*
X46387Y256485D01*
X46334Y256553D01*
X46285Y256624D01*
X46240Y256697D01*
X46197Y256772D01*
X46158Y256848D01*
X46122Y256927D01*
X46090Y257007D01*
X46062Y257088D01*
X46037Y257170D01*
X46016Y257254D01*
X45999Y257338D01*
X45985Y257423D01*
X45976Y257509D01*
X45970Y257595D01*
X45968Y257681D01*
X45967Y257681D02*
X45967Y262479D01*
X45968Y262479D02*
X45970Y262565D01*
X45976Y262651D01*
X45985Y262737D01*
X45999Y262822D01*
X46016Y262906D01*
X46037Y262990D01*
X46062Y263072D01*
X46090Y263153D01*
X46122Y263233D01*
X46158Y263312D01*
X46197Y263388D01*
X46240Y263463D01*
X46285Y263536D01*
X46334Y263607D01*
X46387Y263675D01*
X46442Y263742D01*
X46500Y263805D01*
X46561Y263866D01*
X46624Y263924D01*
X46691Y263979D01*
X46759Y264031D01*
X46830Y264081D01*
X46903Y264126D01*
X46978Y264169D01*
X47054Y264208D01*
X47133Y264244D01*
X47213Y264276D01*
X47294Y264304D01*
X47376Y264329D01*
X47460Y264350D01*
X47544Y264367D01*
X47629Y264381D01*
X47715Y264390D01*
X47801Y264396D01*
X47887Y264398D01*
X49806Y264398D01*
D14*
X65000Y210000D02*
X245000Y210000D01*
X245000Y346500D01*
X65000Y346500D02*
X65000Y210000D01*
D15*
X151500Y193750D03*
X151500Y186250D03*
D16*
X151500Y190000D03*
D11*
X136762Y197762D02*
X136762Y206398D01*
X136762Y197762D02*
X140600Y197762D01*
X144687Y197762D02*
X148525Y197762D01*
X144687Y197762D02*
X144687Y206398D01*
X148525Y206398D01*
X147565Y202560D02*
X144687Y202560D01*
X152586Y206398D02*
X152586Y197762D01*
X152586Y206398D02*
X154984Y206398D01*
X155081Y206396D01*
X155177Y206390D01*
X155273Y206381D01*
X155369Y206367D01*
X155464Y206350D01*
X155558Y206328D01*
X155651Y206303D01*
X155744Y206275D01*
X155835Y206242D01*
X155924Y206206D01*
X156012Y206166D01*
X156099Y206123D01*
X156184Y206077D01*
X156266Y206027D01*
X156347Y205973D01*
X156425Y205917D01*
X156501Y205857D01*
X156575Y205795D01*
X156646Y205729D01*
X156714Y205661D01*
X156780Y205590D01*
X156842Y205516D01*
X156902Y205440D01*
X156958Y205362D01*
X157012Y205281D01*
X157062Y205199D01*
X157108Y205114D01*
X157151Y205027D01*
X157191Y204939D01*
X157227Y204850D01*
X157260Y204759D01*
X157288Y204666D01*
X157313Y204573D01*
X157335Y204479D01*
X157352Y204384D01*
X157366Y204288D01*
X157375Y204192D01*
X157381Y204096D01*
X157383Y203999D01*
X157383Y200161D01*
X157381Y200064D01*
X157375Y199968D01*
X157366Y199872D01*
X157352Y199776D01*
X157335Y199681D01*
X157313Y199587D01*
X157288Y199494D01*
X157260Y199401D01*
X157227Y199310D01*
X157191Y199221D01*
X157151Y199133D01*
X157108Y199046D01*
X157062Y198962D01*
X157012Y198879D01*
X156958Y198798D01*
X156902Y198720D01*
X156842Y198644D01*
X156780Y198570D01*
X156714Y198499D01*
X156646Y198431D01*
X156575Y198365D01*
X156501Y198303D01*
X156425Y198243D01*
X156347Y198187D01*
X156266Y198133D01*
X156184Y198083D01*
X156099Y198037D01*
X156012Y197994D01*
X155924Y197954D01*
X155835Y197918D01*
X155744Y197885D01*
X155651Y197857D01*
X155558Y197832D01*
X155464Y197810D01*
X155369Y197793D01*
X155273Y197779D01*
X155177Y197770D01*
X155081Y197764D01*
X154984Y197762D01*
X152586Y197762D01*
X162034Y204479D02*
X164433Y206398D01*
X164433Y197762D01*
X162034Y197762D02*
X166832Y197762D01*
X233762Y197762D02*
X233762Y206398D01*
X236161Y206398D01*
X236258Y206396D01*
X236354Y206390D01*
X236450Y206381D01*
X236546Y206367D01*
X236641Y206350D01*
X236735Y206328D01*
X236828Y206303D01*
X236921Y206275D01*
X237012Y206242D01*
X237101Y206206D01*
X237189Y206166D01*
X237276Y206123D01*
X237361Y206077D01*
X237443Y206027D01*
X237524Y205973D01*
X237602Y205917D01*
X237678Y205857D01*
X237752Y205795D01*
X237823Y205729D01*
X237891Y205661D01*
X237957Y205590D01*
X238019Y205516D01*
X238079Y205440D01*
X238135Y205362D01*
X238189Y205281D01*
X238239Y205198D01*
X238285Y205114D01*
X238328Y205027D01*
X238368Y204939D01*
X238404Y204850D01*
X238437Y204759D01*
X238465Y204666D01*
X238490Y204573D01*
X238512Y204479D01*
X238529Y204384D01*
X238543Y204288D01*
X238552Y204192D01*
X238558Y204096D01*
X238560Y203999D01*
X238558Y203902D01*
X238552Y203806D01*
X238543Y203710D01*
X238529Y203614D01*
X238512Y203519D01*
X238490Y203425D01*
X238465Y203332D01*
X238437Y203239D01*
X238404Y203148D01*
X238368Y203059D01*
X238328Y202971D01*
X238285Y202884D01*
X238239Y202800D01*
X238189Y202717D01*
X238135Y202636D01*
X238079Y202558D01*
X238019Y202482D01*
X237957Y202408D01*
X237891Y202337D01*
X237823Y202269D01*
X237752Y202203D01*
X237678Y202141D01*
X237602Y202081D01*
X237524Y202025D01*
X237443Y201971D01*
X237361Y201921D01*
X237276Y201875D01*
X237189Y201832D01*
X237101Y201792D01*
X237012Y201756D01*
X236921Y201723D01*
X236828Y201695D01*
X236735Y201670D01*
X236641Y201648D01*
X236546Y201631D01*
X236450Y201617D01*
X236354Y201608D01*
X236258Y201602D01*
X236161Y201600D01*
X233762Y201600D01*
X236641Y201600D02*
X238560Y197762D01*
X242821Y202560D02*
X245700Y202560D01*
X245786Y202558D01*
X245872Y202552D01*
X245958Y202543D01*
X246043Y202529D01*
X246127Y202512D01*
X246211Y202491D01*
X246293Y202466D01*
X246374Y202438D01*
X246454Y202406D01*
X246533Y202370D01*
X246609Y202331D01*
X246684Y202288D01*
X246757Y202243D01*
X246828Y202194D01*
X246896Y202141D01*
X246963Y202086D01*
X247026Y202028D01*
X247087Y201967D01*
X247145Y201904D01*
X247200Y201837D01*
X247253Y201769D01*
X247302Y201698D01*
X247347Y201625D01*
X247390Y201550D01*
X247429Y201474D01*
X247465Y201395D01*
X247497Y201315D01*
X247525Y201234D01*
X247550Y201152D01*
X247571Y201068D01*
X247588Y200984D01*
X247602Y200899D01*
X247611Y200813D01*
X247617Y200727D01*
X247619Y200641D01*
X247619Y200161D01*
X247617Y200064D01*
X247611Y199968D01*
X247602Y199872D01*
X247588Y199776D01*
X247571Y199681D01*
X247549Y199587D01*
X247524Y199494D01*
X247496Y199401D01*
X247463Y199310D01*
X247427Y199221D01*
X247387Y199133D01*
X247344Y199046D01*
X247298Y198961D01*
X247248Y198879D01*
X247194Y198798D01*
X247138Y198720D01*
X247078Y198644D01*
X247016Y198570D01*
X246950Y198499D01*
X246882Y198431D01*
X246811Y198365D01*
X246737Y198303D01*
X246661Y198243D01*
X246583Y198187D01*
X246502Y198133D01*
X246419Y198083D01*
X246335Y198037D01*
X246248Y197994D01*
X246160Y197954D01*
X246071Y197918D01*
X245980Y197885D01*
X245887Y197857D01*
X245794Y197832D01*
X245700Y197810D01*
X245605Y197793D01*
X245509Y197779D01*
X245413Y197770D01*
X245317Y197764D01*
X245220Y197762D01*
X245123Y197764D01*
X245027Y197770D01*
X244931Y197779D01*
X244835Y197793D01*
X244740Y197810D01*
X244646Y197832D01*
X244553Y197857D01*
X244460Y197885D01*
X244369Y197918D01*
X244280Y197954D01*
X244192Y197994D01*
X244105Y198037D01*
X244021Y198083D01*
X243938Y198133D01*
X243857Y198187D01*
X243779Y198243D01*
X243703Y198303D01*
X243629Y198365D01*
X243558Y198431D01*
X243490Y198499D01*
X243424Y198570D01*
X243362Y198644D01*
X243302Y198720D01*
X243246Y198798D01*
X243192Y198879D01*
X243142Y198962D01*
X243096Y199046D01*
X243053Y199133D01*
X243013Y199221D01*
X242977Y199310D01*
X242944Y199401D01*
X242916Y199494D01*
X242891Y199587D01*
X242869Y199681D01*
X242852Y199776D01*
X242838Y199872D01*
X242829Y199968D01*
X242823Y200064D01*
X242821Y200161D01*
X242821Y202560D01*
X242822Y202560D02*
X242824Y202683D01*
X242830Y202806D01*
X242840Y202929D01*
X242854Y203051D01*
X242871Y203173D01*
X242893Y203294D01*
X242918Y203414D01*
X242948Y203534D01*
X242981Y203652D01*
X243018Y203769D01*
X243058Y203886D01*
X243102Y204000D01*
X243150Y204114D01*
X243202Y204225D01*
X243257Y204335D01*
X243316Y204443D01*
X243378Y204550D01*
X243443Y204654D01*
X243512Y204756D01*
X243584Y204856D01*
X243659Y204953D01*
X243738Y205048D01*
X243819Y205140D01*
X243903Y205230D01*
X243990Y205317D01*
X244080Y205401D01*
X244172Y205482D01*
X244267Y205561D01*
X244364Y205636D01*
X244464Y205708D01*
X244566Y205777D01*
X244670Y205842D01*
X244777Y205904D01*
X244885Y205963D01*
X244995Y206018D01*
X245106Y206070D01*
X245220Y206117D01*
X245334Y206162D01*
X245451Y206202D01*
X245568Y206239D01*
X245686Y206272D01*
X245806Y206302D01*
X245926Y206327D01*
X246047Y206349D01*
X246169Y206366D01*
X246291Y206380D01*
X246414Y206390D01*
X246537Y206396D01*
X246660Y206398D01*
M02*
