G04 EAGLE Gerber X2 export*
G75*
%MOMM*%
%FSLAX34Y34*%
%LPD*%
%AMOC8*
5,1,8,0,0,1.08239X$1,22.5*%
G01*
%ADD10R,1.100000X1.000000*%
%ADD11R,0.600000X1.100000*%
%ADD12C,1.500000*%
%ADD13R,0.650000X0.850000*%
%ADD14R,0.550000X1.200000*%
%ADD15C,1.650000*%
%ADD16R,1.650000X1.650000*%
%ADD17R,0.550000X1.700000*%
%ADD18R,1.000000X0.900000*%
%ADD19R,1.000000X1.100000*%
%ADD20R,1.500000X7.500000*%
%ADD21R,1.000000X6.500000*%
%ADD22R,1.485000X0.900000*%
%ADD23R,5.715000X5.715000*%
%ADD24P,1.732040X8X202.500000*%
%ADD25C,1.600200*%
%ADD26R,0.800000X0.800000*%
%ADD27P,1.732040X8X112.500000*%
%ADD28C,0.900000*%


D10*
X203500Y110000D03*
X186500Y110000D03*
X73500Y110000D03*
X56500Y110000D03*
X73500Y190000D03*
X56500Y190000D03*
D11*
X194500Y162500D03*
X185000Y162500D03*
X175500Y162500D03*
X175500Y137500D03*
X185000Y137500D03*
X194500Y137500D03*
D12*
X15000Y335000D03*
D13*
X118750Y135000D03*
X141250Y135000D03*
X118750Y165000D03*
X141250Y165000D03*
D12*
X15000Y310000D03*
X15000Y285000D03*
D14*
X65500Y137000D03*
X75000Y137000D03*
X84500Y137000D03*
X84500Y163000D03*
X65500Y163000D03*
D15*
X145000Y330000D03*
D16*
X165000Y330000D03*
D17*
X31000Y180000D03*
D18*
X24750Y200500D03*
X8750Y200500D03*
X24750Y159500D03*
X8750Y159500D03*
D19*
X101500Y190000D03*
X118500Y190000D03*
X186500Y190000D03*
X203500Y190000D03*
X231500Y110000D03*
X248500Y110000D03*
X28500Y110000D03*
X11500Y110000D03*
X28500Y135000D03*
X11500Y135000D03*
D20*
X165000Y47500D03*
D21*
X140000Y52500D03*
D20*
X95000Y47500D03*
D21*
X120000Y52500D03*
D12*
X15000Y260000D03*
D22*
X66075Y339000D03*
X66075Y324000D03*
X66075Y309000D03*
X66075Y294000D03*
X66075Y279000D03*
X66075Y264000D03*
X66075Y249000D03*
X66075Y234000D03*
X66075Y219000D03*
X243925Y219000D03*
X243925Y234000D03*
X243925Y249000D03*
X243925Y264000D03*
X243925Y279000D03*
X243925Y294000D03*
X243925Y309000D03*
X243925Y324000D03*
X243925Y339000D03*
D23*
X170875Y270950D03*
D24*
X42700Y220000D03*
D25*
X17300Y220000D03*
D26*
X157500Y190000D03*
X142500Y190000D03*
D27*
X245000Y137300D03*
D25*
X245000Y162700D03*
D19*
X248500Y190000D03*
X231500Y190000D03*
D28*
X95000Y110000D03*
X110000Y225000D03*
X110000Y340000D03*
M02*
