M48
;GenerationSoftware,Autodesk,EAGLE,8.6.0*%
;CreationDate,2018-02-09T15:01:14Z*%
FMAT,2
ICI,OFF
METRIC,TZ,000.000
T2C0.600
T1C0.800
%
G90
M71
T1
X3000Y4000
X17000Y65000
X14460Y65000
X37000Y38000
X37000Y40540
X37000Y43080
X37000Y45620
X23000Y4000
X28000Y39500
X28000Y44500
X23000Y65000
X25540Y65000
X37000Y65000
X34460Y65000
X43000Y4000
X57000Y38000
X57000Y40540
X57000Y43080
X57000Y45620
X48000Y39500
X48000Y44500
X63000Y4000
X43000Y65000
X45540Y65000
X57000Y65000
X37000Y31000
X54460Y65000
X77000Y38000
X3000Y38000
X77000Y40540
X77000Y43080
X77000Y45620
X68000Y39500
X68000Y44500
X63000Y65000
X23000Y38000
X65540Y65000
X77000Y65000
X74460Y65000
X17000Y72000
X17000Y74540
X17000Y77080
X43000Y38000
X17000Y79620
X8000Y73500
X8000Y78500
X3000Y99000
X5540Y99000
X17000Y99000
X63000Y38000
X14460Y99000
X37000Y72000
X37000Y74540
X37000Y77080
X37000Y79620
X28000Y78500
X3000Y72000
X23000Y99000
X25540Y99000
X37000Y99000
X34460Y99000
X57000Y72000
X57000Y74540
X23000Y72000
X57000Y77080
X57000Y79620
X48000Y73500
X48000Y78500
X43000Y99000
X45540Y99000
X43000Y72000
X57000Y99000
X54460Y99000
X77000Y72000
X77000Y74540
X77000Y77080
X77000Y79620
X63000Y72000
X68000Y73500
X68000Y78500
X63000Y99000
X65540Y99000
X77000Y99000
X74460Y99000
X17000Y4000
X17000Y6540
X17000Y9080
X17000Y11620
X8000Y5500
X8000Y10500
X3000Y31000
X5540Y31000
X17000Y31000
X14460Y31000
X37000Y4000
X37000Y6540
X37000Y9080
X37000Y11620
X28000Y5500
X28000Y10500
X23000Y31000
X25540Y31000
X28000Y73500
X34460Y31000
X57000Y4000
X57000Y6540
X57000Y9080
X57000Y11620
X48000Y5500
X48000Y10500
X43000Y31000
X45540Y31000
X57000Y31000
X54460Y31000
X77000Y4000
X77000Y6540
X77000Y9080
X77000Y11620
X68000Y5500
X68000Y10500
X63000Y31000
X65540Y31000
X77000Y31000
X74460Y31000
X17000Y38000
X17000Y40540
X17000Y43080
X17000Y45620
X8000Y39500
X8000Y44500
X3000Y65000
X5540Y65000
T2
X7000Y15000
X11000Y15000
X9000Y15000
X7000Y27000
X9000Y27000
X11000Y27000
X27000Y15000
X31000Y15000
X29000Y15000
X27000Y27000
X29000Y27000
X31000Y27000
X47000Y15000
X51000Y15000
X49000Y15000
X47000Y27000
X49000Y27000
X51000Y27000
X67000Y15000
X71000Y15000
X69000Y15000
X69000Y27000
X71000Y27000
X7000Y49000
X11000Y49000
X9000Y49000
X7000Y61000
X9000Y61000
X11000Y61000
X27000Y49000
X31000Y49000
X29000Y49000
X27000Y61000
X29000Y61000
X31000Y61000
X47000Y49000
X51000Y49000
X49000Y49000
X47000Y61000
X49000Y61000
X51000Y61000
X67000Y49000
X71000Y49000
X69000Y49000
X67000Y61000
X69000Y61000
X71000Y61000
X7000Y83000
X11000Y83000
X9000Y83000
X7000Y95000
X9000Y95000
X11000Y95000
X27000Y83000
X31000Y83000
X29000Y83000
X27000Y95000
X29000Y95000
X31000Y95000
X47000Y83000
X51000Y83000
X49000Y83000
X47000Y95000
X49000Y95000
X51000Y95000
X67000Y83000
X71000Y83000
X69000Y83000
X67000Y95000
X69000Y95000
X71000Y95000
X67000Y27000
M30