G04 EAGLE Gerber X2 export*
%TF.Part,Single*%
%TF.FileFunction,Soldermask,Top,1*%
%TF.FilePolarity,Negative*%
%TF.GenerationSoftware,Autodesk,EAGLE,8.6.0*%
%TF.CreationDate,2018-02-09T15:01:17Z*%
G75*
%MOMM*%
%FSLAX34Y34*%
%LPD*%
%AMOC8*
5,1,8,0,0,1.08239X$1,22.5*%
G01*
%ADD10R,0.500000X2.200000*%
%ADD11R,1.500000X1.500000*%
%ADD12R,1.676400X1.676400*%
%ADD13C,1.676400*%
%ADD14R,1.100000X1.000000*%
%ADD15R,2.540000X2.540000*%
%ADD16C,2.540000*%
%ADD17R,1.000000X1.100000*%
%ADD18C,1.000000*%


D10*
X70950Y178460D03*
X83550Y178460D03*
X96250Y178460D03*
X108950Y178460D03*
X70950Y241540D03*
X83650Y241540D03*
X96350Y241540D03*
X109050Y241540D03*
D11*
X144000Y145500D03*
X144000Y194500D03*
X176000Y194500D03*
X176000Y145500D03*
D12*
X170000Y40000D03*
D13*
X170000Y65400D03*
X170000Y90800D03*
X170000Y116200D03*
D14*
X48500Y280000D03*
X31500Y280000D03*
D15*
X80000Y55000D03*
D16*
X80000Y105000D03*
D17*
X48500Y160000D03*
X31500Y160000D03*
X48500Y190000D03*
X31500Y190000D03*
X48500Y220000D03*
X31500Y220000D03*
D12*
X30000Y310000D03*
D13*
X55400Y310000D03*
D12*
X170000Y310000D03*
D13*
X144600Y310000D03*
D17*
X131500Y220000D03*
X148500Y220000D03*
D14*
X148500Y250000D03*
X131500Y250000D03*
D17*
X148500Y280000D03*
X131500Y280000D03*
X48500Y250000D03*
X31500Y250000D03*
D10*
X270950Y178460D03*
X283550Y178460D03*
X296250Y178460D03*
X308950Y178460D03*
X270950Y241540D03*
X283650Y241540D03*
X296350Y241540D03*
X309050Y241540D03*
D11*
X344000Y145500D03*
X344000Y194500D03*
X376000Y194500D03*
X376000Y145500D03*
D12*
X370000Y40000D03*
D13*
X370000Y65400D03*
X370000Y90800D03*
X370000Y116200D03*
D14*
X248500Y280000D03*
X231500Y280000D03*
D15*
X280000Y55000D03*
D16*
X280000Y105000D03*
D17*
X248500Y160000D03*
X231500Y160000D03*
X248500Y190000D03*
X231500Y190000D03*
X248500Y220000D03*
X231500Y220000D03*
D12*
X230000Y310000D03*
D13*
X255400Y310000D03*
D12*
X370000Y310000D03*
D13*
X344600Y310000D03*
D17*
X331500Y220000D03*
X348500Y220000D03*
D14*
X348500Y250000D03*
X331500Y250000D03*
D17*
X348500Y280000D03*
X331500Y280000D03*
X248500Y250000D03*
X231500Y250000D03*
D10*
X470950Y178460D03*
X483550Y178460D03*
X496250Y178460D03*
X508950Y178460D03*
X470950Y241540D03*
X483650Y241540D03*
X496350Y241540D03*
X509050Y241540D03*
D11*
X544000Y145500D03*
X544000Y194500D03*
X576000Y194500D03*
X576000Y145500D03*
D12*
X570000Y40000D03*
D13*
X570000Y65400D03*
X570000Y90800D03*
X570000Y116200D03*
D14*
X448500Y280000D03*
X431500Y280000D03*
D15*
X480000Y55000D03*
D16*
X480000Y105000D03*
D17*
X448500Y160000D03*
X431500Y160000D03*
X448500Y190000D03*
X431500Y190000D03*
X448500Y220000D03*
X431500Y220000D03*
D12*
X430000Y310000D03*
D13*
X455400Y310000D03*
D12*
X570000Y310000D03*
D13*
X544600Y310000D03*
D17*
X531500Y220000D03*
X548500Y220000D03*
D14*
X548500Y250000D03*
X531500Y250000D03*
D17*
X548500Y280000D03*
X531500Y280000D03*
X448500Y250000D03*
X431500Y250000D03*
D10*
X670950Y178460D03*
X683550Y178460D03*
X696250Y178460D03*
X708950Y178460D03*
X670950Y241540D03*
X683650Y241540D03*
X696350Y241540D03*
X709050Y241540D03*
D11*
X744000Y145500D03*
X744000Y194500D03*
X776000Y194500D03*
X776000Y145500D03*
D12*
X770000Y40000D03*
D13*
X770000Y65400D03*
X770000Y90800D03*
X770000Y116200D03*
D14*
X648500Y280000D03*
X631500Y280000D03*
D15*
X680000Y55000D03*
D16*
X680000Y105000D03*
D17*
X648500Y160000D03*
X631500Y160000D03*
X648500Y190000D03*
X631500Y190000D03*
X648500Y220000D03*
X631500Y220000D03*
D12*
X630000Y310000D03*
D13*
X655400Y310000D03*
D12*
X770000Y310000D03*
D13*
X744600Y310000D03*
D17*
X731500Y220000D03*
X748500Y220000D03*
D14*
X748500Y250000D03*
X731500Y250000D03*
D17*
X748500Y280000D03*
X731500Y280000D03*
X648500Y250000D03*
X631500Y250000D03*
D10*
X70950Y518460D03*
X83550Y518460D03*
X96250Y518460D03*
X108950Y518460D03*
X70950Y581540D03*
X83650Y581540D03*
X96350Y581540D03*
X109050Y581540D03*
D11*
X144000Y485500D03*
X144000Y534500D03*
X176000Y534500D03*
X176000Y485500D03*
D12*
X170000Y380000D03*
D13*
X170000Y405400D03*
X170000Y430800D03*
X170000Y456200D03*
D14*
X48500Y620000D03*
X31500Y620000D03*
D15*
X80000Y395000D03*
D16*
X80000Y445000D03*
D17*
X48500Y500000D03*
X31500Y500000D03*
X48500Y530000D03*
X31500Y530000D03*
X48500Y560000D03*
X31500Y560000D03*
D12*
X30000Y650000D03*
D13*
X55400Y650000D03*
D12*
X170000Y650000D03*
D13*
X144600Y650000D03*
D17*
X131500Y560000D03*
X148500Y560000D03*
D14*
X148500Y590000D03*
X131500Y590000D03*
D17*
X148500Y620000D03*
X131500Y620000D03*
X48500Y590000D03*
X31500Y590000D03*
D10*
X270950Y518460D03*
X283550Y518460D03*
X296250Y518460D03*
X308950Y518460D03*
X270950Y581540D03*
X283650Y581540D03*
X296350Y581540D03*
X309050Y581540D03*
D11*
X344000Y485500D03*
X344000Y534500D03*
X376000Y534500D03*
X376000Y485500D03*
D12*
X370000Y380000D03*
D13*
X370000Y405400D03*
X370000Y430800D03*
X370000Y456200D03*
D14*
X248500Y620000D03*
X231500Y620000D03*
D15*
X280000Y395000D03*
D16*
X280000Y445000D03*
D17*
X248500Y500000D03*
X231500Y500000D03*
X248500Y530000D03*
X231500Y530000D03*
X248500Y560000D03*
X231500Y560000D03*
D12*
X230000Y650000D03*
D13*
X255400Y650000D03*
D12*
X370000Y650000D03*
D13*
X344600Y650000D03*
D17*
X331500Y560000D03*
X348500Y560000D03*
D14*
X348500Y590000D03*
X331500Y590000D03*
D17*
X348500Y620000D03*
X331500Y620000D03*
X248500Y590000D03*
X231500Y590000D03*
D10*
X470950Y518460D03*
X483550Y518460D03*
X496250Y518460D03*
X508950Y518460D03*
X470950Y581540D03*
X483650Y581540D03*
X496350Y581540D03*
X509050Y581540D03*
D11*
X544000Y485500D03*
X544000Y534500D03*
X576000Y534500D03*
X576000Y485500D03*
D12*
X570000Y380000D03*
D13*
X570000Y405400D03*
X570000Y430800D03*
X570000Y456200D03*
D14*
X448500Y620000D03*
X431500Y620000D03*
D15*
X480000Y395000D03*
D16*
X480000Y445000D03*
D17*
X448500Y500000D03*
X431500Y500000D03*
X448500Y530000D03*
X431500Y530000D03*
X448500Y560000D03*
X431500Y560000D03*
D12*
X430000Y650000D03*
D13*
X455400Y650000D03*
D12*
X570000Y650000D03*
D13*
X544600Y650000D03*
D17*
X531500Y560000D03*
X548500Y560000D03*
D14*
X548500Y590000D03*
X531500Y590000D03*
D17*
X548500Y620000D03*
X531500Y620000D03*
X448500Y590000D03*
X431500Y590000D03*
D10*
X670950Y518460D03*
X683550Y518460D03*
X696250Y518460D03*
X708950Y518460D03*
X670950Y581540D03*
X683650Y581540D03*
X696350Y581540D03*
X709050Y581540D03*
D11*
X744000Y485500D03*
X744000Y534500D03*
X776000Y534500D03*
X776000Y485500D03*
D12*
X770000Y380000D03*
D13*
X770000Y405400D03*
X770000Y430800D03*
X770000Y456200D03*
D14*
X648500Y620000D03*
X631500Y620000D03*
D15*
X680000Y395000D03*
D16*
X680000Y445000D03*
D17*
X648500Y500000D03*
X631500Y500000D03*
X648500Y530000D03*
X631500Y530000D03*
X648500Y560000D03*
X631500Y560000D03*
D12*
X630000Y650000D03*
D13*
X655400Y650000D03*
D12*
X770000Y650000D03*
D13*
X744600Y650000D03*
D17*
X731500Y560000D03*
X748500Y560000D03*
D14*
X748500Y590000D03*
X731500Y590000D03*
D17*
X748500Y620000D03*
X731500Y620000D03*
X648500Y590000D03*
X631500Y590000D03*
D10*
X70950Y858460D03*
X83550Y858460D03*
X96250Y858460D03*
X108950Y858460D03*
X70950Y921540D03*
X83650Y921540D03*
X96350Y921540D03*
X109050Y921540D03*
D11*
X144000Y825500D03*
X144000Y874500D03*
X176000Y874500D03*
X176000Y825500D03*
D12*
X170000Y720000D03*
D13*
X170000Y745400D03*
X170000Y770800D03*
X170000Y796200D03*
D14*
X48500Y960000D03*
X31500Y960000D03*
D15*
X80000Y735000D03*
D16*
X80000Y785000D03*
D17*
X48500Y840000D03*
X31500Y840000D03*
X48500Y870000D03*
X31500Y870000D03*
X48500Y900000D03*
X31500Y900000D03*
D12*
X30000Y990000D03*
D13*
X55400Y990000D03*
D12*
X170000Y990000D03*
D13*
X144600Y990000D03*
D17*
X131500Y900000D03*
X148500Y900000D03*
D14*
X148500Y930000D03*
X131500Y930000D03*
D17*
X148500Y960000D03*
X131500Y960000D03*
X48500Y930000D03*
X31500Y930000D03*
D10*
X270950Y858460D03*
X283550Y858460D03*
X296250Y858460D03*
X308950Y858460D03*
X270950Y921540D03*
X283650Y921540D03*
X296350Y921540D03*
X309050Y921540D03*
D11*
X344000Y825500D03*
X344000Y874500D03*
X376000Y874500D03*
X376000Y825500D03*
D12*
X370000Y720000D03*
D13*
X370000Y745400D03*
X370000Y770800D03*
X370000Y796200D03*
D14*
X248500Y960000D03*
X231500Y960000D03*
D15*
X280000Y735000D03*
D16*
X280000Y785000D03*
D17*
X248500Y840000D03*
X231500Y840000D03*
X248500Y870000D03*
X231500Y870000D03*
X248500Y900000D03*
X231500Y900000D03*
D12*
X230000Y990000D03*
D13*
X255400Y990000D03*
D12*
X370000Y990000D03*
D13*
X344600Y990000D03*
D17*
X331500Y900000D03*
X348500Y900000D03*
D14*
X348500Y930000D03*
X331500Y930000D03*
D17*
X348500Y960000D03*
X331500Y960000D03*
X248500Y930000D03*
X231500Y930000D03*
D10*
X470950Y858460D03*
X483550Y858460D03*
X496250Y858460D03*
X508950Y858460D03*
X470950Y921540D03*
X483650Y921540D03*
X496350Y921540D03*
X509050Y921540D03*
D11*
X544000Y825500D03*
X544000Y874500D03*
X576000Y874500D03*
X576000Y825500D03*
D12*
X570000Y720000D03*
D13*
X570000Y745400D03*
X570000Y770800D03*
X570000Y796200D03*
D14*
X448500Y960000D03*
X431500Y960000D03*
D15*
X480000Y735000D03*
D16*
X480000Y785000D03*
D17*
X448500Y840000D03*
X431500Y840000D03*
X448500Y870000D03*
X431500Y870000D03*
X448500Y900000D03*
X431500Y900000D03*
D12*
X430000Y990000D03*
D13*
X455400Y990000D03*
D12*
X570000Y990000D03*
D13*
X544600Y990000D03*
D17*
X531500Y900000D03*
X548500Y900000D03*
D14*
X548500Y930000D03*
X531500Y930000D03*
D17*
X548500Y960000D03*
X531500Y960000D03*
X448500Y930000D03*
X431500Y930000D03*
D10*
X670950Y858460D03*
X683550Y858460D03*
X696250Y858460D03*
X708950Y858460D03*
X670950Y921540D03*
X683650Y921540D03*
X696350Y921540D03*
X709050Y921540D03*
D11*
X744000Y825500D03*
X744000Y874500D03*
X776000Y874500D03*
X776000Y825500D03*
D12*
X770000Y720000D03*
D13*
X770000Y745400D03*
X770000Y770800D03*
X770000Y796200D03*
D14*
X648500Y960000D03*
X631500Y960000D03*
D15*
X680000Y735000D03*
D16*
X680000Y785000D03*
D17*
X648500Y840000D03*
X631500Y840000D03*
X648500Y870000D03*
X631500Y870000D03*
X648500Y900000D03*
X631500Y900000D03*
D12*
X630000Y990000D03*
D13*
X655400Y990000D03*
D12*
X770000Y990000D03*
D13*
X744600Y990000D03*
D17*
X731500Y900000D03*
X748500Y900000D03*
D14*
X748500Y930000D03*
X731500Y930000D03*
D17*
X748500Y960000D03*
X731500Y960000D03*
X648500Y930000D03*
X631500Y930000D03*
D12*
X30000Y40000D03*
D18*
X70000Y150000D03*
X110000Y150000D03*
X90000Y150000D03*
X70000Y270000D03*
X90000Y270000D03*
X110000Y270000D03*
D12*
X230000Y40000D03*
D18*
X270000Y150000D03*
X310000Y150000D03*
X290000Y150000D03*
X270000Y270000D03*
X290000Y270000D03*
X310000Y270000D03*
D12*
X430000Y40000D03*
D18*
X470000Y150000D03*
X510000Y150000D03*
X490000Y150000D03*
X470000Y270000D03*
X490000Y270000D03*
X510000Y270000D03*
D12*
X630000Y40000D03*
D18*
X670000Y150000D03*
X710000Y150000D03*
X690000Y150000D03*
X670000Y270000D03*
X690000Y270000D03*
X710000Y270000D03*
D12*
X30000Y380000D03*
D18*
X70000Y490000D03*
X110000Y490000D03*
X90000Y490000D03*
X70000Y610000D03*
X90000Y610000D03*
X110000Y610000D03*
D12*
X230000Y380000D03*
D18*
X270000Y490000D03*
X310000Y490000D03*
X290000Y490000D03*
X270000Y610000D03*
X290000Y610000D03*
X310000Y610000D03*
D12*
X430000Y380000D03*
D18*
X470000Y490000D03*
X510000Y490000D03*
X490000Y490000D03*
X470000Y610000D03*
X490000Y610000D03*
X510000Y610000D03*
D12*
X630000Y380000D03*
D18*
X670000Y490000D03*
X710000Y490000D03*
X690000Y490000D03*
X670000Y610000D03*
X690000Y610000D03*
X710000Y610000D03*
D12*
X30000Y720000D03*
D18*
X70000Y830000D03*
X110000Y830000D03*
X90000Y830000D03*
X70000Y950000D03*
X90000Y950000D03*
X110000Y950000D03*
D12*
X230000Y720000D03*
D18*
X270000Y830000D03*
X310000Y830000D03*
X290000Y830000D03*
X270000Y950000D03*
X290000Y950000D03*
X310000Y950000D03*
D12*
X430000Y720000D03*
D18*
X470000Y830000D03*
X510000Y830000D03*
X490000Y830000D03*
X470000Y950000D03*
X490000Y950000D03*
X510000Y950000D03*
D12*
X630000Y720000D03*
D18*
X670000Y830000D03*
X710000Y830000D03*
X690000Y830000D03*
X670000Y950000D03*
X690000Y950000D03*
X710000Y950000D03*
M02*
