G04 EAGLE Gerber X2 export*
G75*
%MOMM*%
%FSLAX34Y34*%
%LPD*%
%AMOC8*
5,1,8,0,0,1.08239X$1,22.5*%
G01*
%ADD10C,0.152400*%
%ADD11C,0.304800*%
%ADD12C,0.584200*%


D10*
X20000Y0D02*
X840000Y0D01*
X840000Y50000D01*
X780000Y50000D01*
X779758Y50003D01*
X779517Y50012D01*
X779276Y50026D01*
X779035Y50047D01*
X778795Y50073D01*
X778555Y50105D01*
X778316Y50143D01*
X778079Y50186D01*
X777842Y50236D01*
X777607Y50291D01*
X777373Y50351D01*
X777141Y50418D01*
X776910Y50489D01*
X776681Y50567D01*
X776454Y50650D01*
X776229Y50738D01*
X776006Y50832D01*
X775786Y50931D01*
X775568Y51036D01*
X775353Y51145D01*
X775140Y51260D01*
X774930Y51380D01*
X774724Y51505D01*
X774520Y51635D01*
X774319Y51770D01*
X774122Y51910D01*
X773928Y52054D01*
X773738Y52203D01*
X773552Y52357D01*
X773369Y52515D01*
X773190Y52677D01*
X773015Y52844D01*
X772844Y53015D01*
X772677Y53190D01*
X772515Y53369D01*
X772357Y53552D01*
X772203Y53738D01*
X772054Y53928D01*
X771910Y54122D01*
X771770Y54319D01*
X771635Y54520D01*
X771505Y54724D01*
X771380Y54930D01*
X771260Y55140D01*
X771145Y55353D01*
X771036Y55568D01*
X770931Y55786D01*
X770832Y56006D01*
X770738Y56229D01*
X770650Y56454D01*
X770567Y56681D01*
X770489Y56910D01*
X770418Y57141D01*
X770351Y57373D01*
X770291Y57607D01*
X770236Y57842D01*
X770186Y58079D01*
X770143Y58316D01*
X770105Y58555D01*
X770073Y58795D01*
X770047Y59035D01*
X770026Y59276D01*
X770012Y59517D01*
X770003Y59758D01*
X770000Y60000D01*
X770000Y130000D01*
X770003Y130242D01*
X770012Y130483D01*
X770026Y130724D01*
X770047Y130965D01*
X770073Y131205D01*
X770105Y131445D01*
X770143Y131684D01*
X770186Y131921D01*
X770236Y132158D01*
X770291Y132393D01*
X770351Y132627D01*
X770418Y132859D01*
X770489Y133090D01*
X770567Y133319D01*
X770650Y133546D01*
X770738Y133771D01*
X770832Y133994D01*
X770931Y134214D01*
X771036Y134432D01*
X771145Y134647D01*
X771260Y134860D01*
X771380Y135070D01*
X771505Y135276D01*
X771635Y135480D01*
X771770Y135681D01*
X771910Y135878D01*
X772054Y136072D01*
X772203Y136262D01*
X772357Y136448D01*
X772515Y136631D01*
X772677Y136810D01*
X772844Y136985D01*
X773015Y137156D01*
X773190Y137323D01*
X773369Y137485D01*
X773552Y137643D01*
X773738Y137797D01*
X773928Y137946D01*
X774122Y138090D01*
X774319Y138230D01*
X774520Y138365D01*
X774724Y138495D01*
X774930Y138620D01*
X775140Y138740D01*
X775353Y138855D01*
X775568Y138964D01*
X775786Y139069D01*
X776006Y139168D01*
X776229Y139262D01*
X776454Y139350D01*
X776681Y139433D01*
X776910Y139511D01*
X777141Y139582D01*
X777373Y139649D01*
X777607Y139709D01*
X777842Y139764D01*
X778079Y139814D01*
X778316Y139857D01*
X778555Y139895D01*
X778795Y139927D01*
X779035Y139953D01*
X779276Y139974D01*
X779517Y139988D01*
X779758Y139997D01*
X780000Y140000D01*
X840000Y140000D01*
X840000Y680000D01*
X780000Y680000D01*
X779758Y680003D01*
X779517Y680012D01*
X779276Y680026D01*
X779035Y680047D01*
X778795Y680073D01*
X778555Y680105D01*
X778316Y680143D01*
X778079Y680186D01*
X777842Y680236D01*
X777607Y680291D01*
X777373Y680351D01*
X777141Y680418D01*
X776910Y680489D01*
X776681Y680567D01*
X776454Y680650D01*
X776229Y680738D01*
X776006Y680832D01*
X775786Y680931D01*
X775568Y681036D01*
X775353Y681145D01*
X775140Y681260D01*
X774930Y681380D01*
X774724Y681505D01*
X774520Y681635D01*
X774319Y681770D01*
X774122Y681910D01*
X773928Y682054D01*
X773738Y682203D01*
X773552Y682357D01*
X773369Y682515D01*
X773190Y682677D01*
X773015Y682844D01*
X772844Y683015D01*
X772677Y683190D01*
X772515Y683369D01*
X772357Y683552D01*
X772203Y683738D01*
X772054Y683928D01*
X771910Y684122D01*
X771770Y684319D01*
X771635Y684520D01*
X771505Y684724D01*
X771380Y684930D01*
X771260Y685140D01*
X771145Y685353D01*
X771036Y685568D01*
X770931Y685786D01*
X770832Y686006D01*
X770738Y686229D01*
X770650Y686454D01*
X770567Y686681D01*
X770489Y686910D01*
X770418Y687141D01*
X770351Y687373D01*
X770291Y687607D01*
X770236Y687842D01*
X770186Y688079D01*
X770143Y688316D01*
X770105Y688555D01*
X770073Y688795D01*
X770047Y689035D01*
X770026Y689276D01*
X770012Y689517D01*
X770003Y689758D01*
X770000Y690000D01*
X770000Y760000D01*
X770003Y760242D01*
X770012Y760483D01*
X770026Y760724D01*
X770047Y760965D01*
X770073Y761205D01*
X770105Y761445D01*
X770143Y761684D01*
X770186Y761921D01*
X770236Y762158D01*
X770291Y762393D01*
X770351Y762627D01*
X770418Y762859D01*
X770489Y763090D01*
X770567Y763319D01*
X770650Y763546D01*
X770738Y763771D01*
X770832Y763994D01*
X770931Y764214D01*
X771036Y764432D01*
X771145Y764647D01*
X771260Y764860D01*
X771380Y765070D01*
X771505Y765276D01*
X771635Y765480D01*
X771770Y765681D01*
X771910Y765878D01*
X772054Y766072D01*
X772203Y766262D01*
X772357Y766448D01*
X772515Y766631D01*
X772677Y766810D01*
X772844Y766985D01*
X773015Y767156D01*
X773190Y767323D01*
X773369Y767485D01*
X773552Y767643D01*
X773738Y767797D01*
X773928Y767946D01*
X774122Y768090D01*
X774319Y768230D01*
X774520Y768365D01*
X774724Y768495D01*
X774930Y768620D01*
X775140Y768740D01*
X775353Y768855D01*
X775568Y768964D01*
X775786Y769069D01*
X776006Y769168D01*
X776229Y769262D01*
X776454Y769350D01*
X776681Y769433D01*
X776910Y769511D01*
X777141Y769582D01*
X777373Y769649D01*
X777607Y769709D01*
X777842Y769764D01*
X778079Y769814D01*
X778316Y769857D01*
X778555Y769895D01*
X778795Y769927D01*
X779035Y769953D01*
X779276Y769974D01*
X779517Y769988D01*
X779758Y769997D01*
X780000Y770000D01*
X840000Y770000D01*
X840000Y820000D01*
X20000Y820000D01*
X20000Y770000D01*
X80000Y770000D01*
X80242Y769997D01*
X80483Y769988D01*
X80724Y769974D01*
X80965Y769953D01*
X81205Y769927D01*
X81445Y769895D01*
X81684Y769857D01*
X81921Y769814D01*
X82158Y769764D01*
X82393Y769709D01*
X82627Y769649D01*
X82859Y769582D01*
X83090Y769511D01*
X83319Y769433D01*
X83546Y769350D01*
X83771Y769262D01*
X83994Y769168D01*
X84214Y769069D01*
X84432Y768964D01*
X84647Y768855D01*
X84860Y768740D01*
X85070Y768620D01*
X85276Y768495D01*
X85480Y768365D01*
X85681Y768230D01*
X85878Y768090D01*
X86072Y767946D01*
X86262Y767797D01*
X86448Y767643D01*
X86631Y767485D01*
X86810Y767323D01*
X86985Y767156D01*
X87156Y766985D01*
X87323Y766810D01*
X87485Y766631D01*
X87643Y766448D01*
X87797Y766262D01*
X87946Y766072D01*
X88090Y765878D01*
X88230Y765681D01*
X88365Y765480D01*
X88495Y765276D01*
X88620Y765070D01*
X88740Y764860D01*
X88855Y764647D01*
X88964Y764432D01*
X89069Y764214D01*
X89168Y763994D01*
X89262Y763771D01*
X89350Y763546D01*
X89433Y763319D01*
X89511Y763090D01*
X89582Y762859D01*
X89649Y762627D01*
X89709Y762393D01*
X89764Y762158D01*
X89814Y761921D01*
X89857Y761684D01*
X89895Y761445D01*
X89927Y761205D01*
X89953Y760965D01*
X89974Y760724D01*
X89988Y760483D01*
X89997Y760242D01*
X90000Y760000D01*
X90000Y690000D01*
X89997Y689758D01*
X89988Y689517D01*
X89974Y689276D01*
X89953Y689035D01*
X89927Y688795D01*
X89895Y688555D01*
X89857Y688316D01*
X89814Y688079D01*
X89764Y687842D01*
X89709Y687607D01*
X89649Y687373D01*
X89582Y687141D01*
X89511Y686910D01*
X89433Y686681D01*
X89350Y686454D01*
X89262Y686229D01*
X89168Y686006D01*
X89069Y685786D01*
X88964Y685568D01*
X88855Y685353D01*
X88740Y685140D01*
X88620Y684930D01*
X88495Y684724D01*
X88365Y684520D01*
X88230Y684319D01*
X88090Y684122D01*
X87946Y683928D01*
X87797Y683738D01*
X87643Y683552D01*
X87485Y683369D01*
X87323Y683190D01*
X87156Y683015D01*
X86985Y682844D01*
X86810Y682677D01*
X86631Y682515D01*
X86448Y682357D01*
X86262Y682203D01*
X86072Y682054D01*
X85878Y681910D01*
X85681Y681770D01*
X85480Y681635D01*
X85276Y681505D01*
X85070Y681380D01*
X84860Y681260D01*
X84647Y681145D01*
X84432Y681036D01*
X84214Y680931D01*
X83994Y680832D01*
X83771Y680738D01*
X83546Y680650D01*
X83319Y680567D01*
X83090Y680489D01*
X82859Y680418D01*
X82627Y680351D01*
X82393Y680291D01*
X82158Y680236D01*
X81921Y680186D01*
X81684Y680143D01*
X81445Y680105D01*
X81205Y680073D01*
X80965Y680047D01*
X80724Y680026D01*
X80483Y680012D01*
X80242Y680003D01*
X80000Y680000D01*
X20000Y680000D01*
X20000Y140000D01*
X80000Y140000D01*
X80242Y139997D01*
X80483Y139988D01*
X80724Y139974D01*
X80965Y139953D01*
X81205Y139927D01*
X81445Y139895D01*
X81684Y139857D01*
X81921Y139814D01*
X82158Y139764D01*
X82393Y139709D01*
X82627Y139649D01*
X82859Y139582D01*
X83090Y139511D01*
X83319Y139433D01*
X83546Y139350D01*
X83771Y139262D01*
X83994Y139168D01*
X84214Y139069D01*
X84432Y138964D01*
X84647Y138855D01*
X84860Y138740D01*
X85070Y138620D01*
X85276Y138495D01*
X85480Y138365D01*
X85681Y138230D01*
X85878Y138090D01*
X86072Y137946D01*
X86262Y137797D01*
X86448Y137643D01*
X86631Y137485D01*
X86810Y137323D01*
X86985Y137156D01*
X87156Y136985D01*
X87323Y136810D01*
X87485Y136631D01*
X87643Y136448D01*
X87797Y136262D01*
X87946Y136072D01*
X88090Y135878D01*
X88230Y135681D01*
X88365Y135480D01*
X88495Y135276D01*
X88620Y135070D01*
X88740Y134860D01*
X88855Y134647D01*
X88964Y134432D01*
X89069Y134214D01*
X89168Y133994D01*
X89262Y133771D01*
X89350Y133546D01*
X89433Y133319D01*
X89511Y133090D01*
X89582Y132859D01*
X89649Y132627D01*
X89709Y132393D01*
X89764Y132158D01*
X89814Y131921D01*
X89857Y131684D01*
X89895Y131445D01*
X89927Y131205D01*
X89953Y130965D01*
X89974Y130724D01*
X89988Y130483D01*
X89997Y130242D01*
X90000Y130000D01*
X90000Y60000D01*
X89997Y59758D01*
X89988Y59517D01*
X89974Y59276D01*
X89953Y59035D01*
X89927Y58795D01*
X89895Y58555D01*
X89857Y58316D01*
X89814Y58079D01*
X89764Y57842D01*
X89709Y57607D01*
X89649Y57373D01*
X89582Y57141D01*
X89511Y56910D01*
X89433Y56681D01*
X89350Y56454D01*
X89262Y56229D01*
X89168Y56006D01*
X89069Y55786D01*
X88964Y55568D01*
X88855Y55353D01*
X88740Y55140D01*
X88620Y54930D01*
X88495Y54724D01*
X88365Y54520D01*
X88230Y54319D01*
X88090Y54122D01*
X87946Y53928D01*
X87797Y53738D01*
X87643Y53552D01*
X87485Y53369D01*
X87323Y53190D01*
X87156Y53015D01*
X86985Y52844D01*
X86810Y52677D01*
X86631Y52515D01*
X86448Y52357D01*
X86262Y52203D01*
X86072Y52054D01*
X85878Y51910D01*
X85681Y51770D01*
X85480Y51635D01*
X85276Y51505D01*
X85070Y51380D01*
X84860Y51260D01*
X84647Y51145D01*
X84432Y51036D01*
X84214Y50931D01*
X83994Y50832D01*
X83771Y50738D01*
X83546Y50650D01*
X83319Y50567D01*
X83090Y50489D01*
X82859Y50418D01*
X82627Y50351D01*
X82393Y50291D01*
X82158Y50236D01*
X81921Y50186D01*
X81684Y50143D01*
X81445Y50105D01*
X81205Y50073D01*
X80965Y50047D01*
X80724Y50026D01*
X80483Y50012D01*
X80242Y50003D01*
X80000Y50000D01*
X20000Y50000D01*
X20000Y0D01*
X210000Y760000D02*
X210003Y760242D01*
X210012Y760483D01*
X210026Y760724D01*
X210047Y760965D01*
X210073Y761205D01*
X210105Y761445D01*
X210143Y761684D01*
X210186Y761921D01*
X210236Y762158D01*
X210291Y762393D01*
X210351Y762627D01*
X210418Y762859D01*
X210489Y763090D01*
X210567Y763319D01*
X210650Y763546D01*
X210738Y763771D01*
X210832Y763994D01*
X210931Y764214D01*
X211036Y764432D01*
X211145Y764647D01*
X211260Y764860D01*
X211380Y765070D01*
X211505Y765276D01*
X211635Y765480D01*
X211770Y765681D01*
X211910Y765878D01*
X212054Y766072D01*
X212203Y766262D01*
X212357Y766448D01*
X212515Y766631D01*
X212677Y766810D01*
X212844Y766985D01*
X213015Y767156D01*
X213190Y767323D01*
X213369Y767485D01*
X213552Y767643D01*
X213738Y767797D01*
X213928Y767946D01*
X214122Y768090D01*
X214319Y768230D01*
X214520Y768365D01*
X214724Y768495D01*
X214930Y768620D01*
X215140Y768740D01*
X215353Y768855D01*
X215568Y768964D01*
X215786Y769069D01*
X216006Y769168D01*
X216229Y769262D01*
X216454Y769350D01*
X216681Y769433D01*
X216910Y769511D01*
X217141Y769582D01*
X217373Y769649D01*
X217607Y769709D01*
X217842Y769764D01*
X218079Y769814D01*
X218316Y769857D01*
X218555Y769895D01*
X218795Y769927D01*
X219035Y769953D01*
X219276Y769974D01*
X219517Y769988D01*
X219758Y769997D01*
X220000Y770000D01*
X210000Y760000D02*
X210000Y690000D01*
X210003Y689758D01*
X210012Y689517D01*
X210026Y689276D01*
X210047Y689035D01*
X210073Y688795D01*
X210105Y688555D01*
X210143Y688316D01*
X210186Y688079D01*
X210236Y687842D01*
X210291Y687607D01*
X210351Y687373D01*
X210418Y687141D01*
X210489Y686910D01*
X210567Y686681D01*
X210650Y686454D01*
X210738Y686229D01*
X210832Y686006D01*
X210931Y685786D01*
X211036Y685568D01*
X211145Y685353D01*
X211260Y685140D01*
X211380Y684930D01*
X211505Y684724D01*
X211635Y684520D01*
X211770Y684319D01*
X211910Y684122D01*
X212054Y683928D01*
X212203Y683738D01*
X212357Y683552D01*
X212515Y683369D01*
X212677Y683190D01*
X212844Y683015D01*
X213015Y682844D01*
X213190Y682677D01*
X213369Y682515D01*
X213552Y682357D01*
X213738Y682203D01*
X213928Y682054D01*
X214122Y681910D01*
X214319Y681770D01*
X214520Y681635D01*
X214724Y681505D01*
X214930Y681380D01*
X215140Y681260D01*
X215353Y681145D01*
X215568Y681036D01*
X215786Y680931D01*
X216006Y680832D01*
X216229Y680738D01*
X216454Y680650D01*
X216681Y680567D01*
X216910Y680489D01*
X217141Y680418D01*
X217373Y680351D01*
X217607Y680291D01*
X217842Y680236D01*
X218079Y680186D01*
X218316Y680143D01*
X218555Y680105D01*
X218795Y680073D01*
X219035Y680047D01*
X219276Y680026D01*
X219517Y680012D01*
X219758Y680003D01*
X220000Y680000D01*
X360000Y680000D01*
X360242Y680003D01*
X360483Y680012D01*
X360724Y680026D01*
X360965Y680047D01*
X361205Y680073D01*
X361445Y680105D01*
X361684Y680143D01*
X361921Y680186D01*
X362158Y680236D01*
X362393Y680291D01*
X362627Y680351D01*
X362859Y680418D01*
X363090Y680489D01*
X363319Y680567D01*
X363546Y680650D01*
X363771Y680738D01*
X363994Y680832D01*
X364214Y680931D01*
X364432Y681036D01*
X364647Y681145D01*
X364860Y681260D01*
X365070Y681380D01*
X365276Y681505D01*
X365480Y681635D01*
X365681Y681770D01*
X365878Y681910D01*
X366072Y682054D01*
X366262Y682203D01*
X366448Y682357D01*
X366631Y682515D01*
X366810Y682677D01*
X366985Y682844D01*
X367156Y683015D01*
X367323Y683190D01*
X367485Y683369D01*
X367643Y683552D01*
X367797Y683738D01*
X367946Y683928D01*
X368090Y684122D01*
X368230Y684319D01*
X368365Y684520D01*
X368495Y684724D01*
X368620Y684930D01*
X368740Y685140D01*
X368855Y685353D01*
X368964Y685568D01*
X369069Y685786D01*
X369168Y686006D01*
X369262Y686229D01*
X369350Y686454D01*
X369433Y686681D01*
X369511Y686910D01*
X369582Y687141D01*
X369649Y687373D01*
X369709Y687607D01*
X369764Y687842D01*
X369814Y688079D01*
X369857Y688316D01*
X369895Y688555D01*
X369927Y688795D01*
X369953Y689035D01*
X369974Y689276D01*
X369988Y689517D01*
X369997Y689758D01*
X370000Y690000D01*
X370000Y760000D01*
X369997Y760242D01*
X369988Y760483D01*
X369974Y760724D01*
X369953Y760965D01*
X369927Y761205D01*
X369895Y761445D01*
X369857Y761684D01*
X369814Y761921D01*
X369764Y762158D01*
X369709Y762393D01*
X369649Y762627D01*
X369582Y762859D01*
X369511Y763090D01*
X369433Y763319D01*
X369350Y763546D01*
X369262Y763771D01*
X369168Y763994D01*
X369069Y764214D01*
X368964Y764432D01*
X368855Y764647D01*
X368740Y764860D01*
X368620Y765070D01*
X368495Y765276D01*
X368365Y765480D01*
X368230Y765681D01*
X368090Y765878D01*
X367946Y766072D01*
X367797Y766262D01*
X367643Y766448D01*
X367485Y766631D01*
X367323Y766810D01*
X367156Y766985D01*
X366985Y767156D01*
X366810Y767323D01*
X366631Y767485D01*
X366448Y767643D01*
X366262Y767797D01*
X366072Y767946D01*
X365878Y768090D01*
X365681Y768230D01*
X365480Y768365D01*
X365276Y768495D01*
X365070Y768620D01*
X364860Y768740D01*
X364647Y768855D01*
X364432Y768964D01*
X364214Y769069D01*
X363994Y769168D01*
X363771Y769262D01*
X363546Y769350D01*
X363319Y769433D01*
X363090Y769511D01*
X362859Y769582D01*
X362627Y769649D01*
X362393Y769709D01*
X362158Y769764D01*
X361921Y769814D01*
X361684Y769857D01*
X361445Y769895D01*
X361205Y769927D01*
X360965Y769953D01*
X360724Y769974D01*
X360483Y769988D01*
X360242Y769997D01*
X360000Y770000D01*
X220000Y770000D01*
X490000Y760000D02*
X490003Y760242D01*
X490012Y760483D01*
X490026Y760724D01*
X490047Y760965D01*
X490073Y761205D01*
X490105Y761445D01*
X490143Y761684D01*
X490186Y761921D01*
X490236Y762158D01*
X490291Y762393D01*
X490351Y762627D01*
X490418Y762859D01*
X490489Y763090D01*
X490567Y763319D01*
X490650Y763546D01*
X490738Y763771D01*
X490832Y763994D01*
X490931Y764214D01*
X491036Y764432D01*
X491145Y764647D01*
X491260Y764860D01*
X491380Y765070D01*
X491505Y765276D01*
X491635Y765480D01*
X491770Y765681D01*
X491910Y765878D01*
X492054Y766072D01*
X492203Y766262D01*
X492357Y766448D01*
X492515Y766631D01*
X492677Y766810D01*
X492844Y766985D01*
X493015Y767156D01*
X493190Y767323D01*
X493369Y767485D01*
X493552Y767643D01*
X493738Y767797D01*
X493928Y767946D01*
X494122Y768090D01*
X494319Y768230D01*
X494520Y768365D01*
X494724Y768495D01*
X494930Y768620D01*
X495140Y768740D01*
X495353Y768855D01*
X495568Y768964D01*
X495786Y769069D01*
X496006Y769168D01*
X496229Y769262D01*
X496454Y769350D01*
X496681Y769433D01*
X496910Y769511D01*
X497141Y769582D01*
X497373Y769649D01*
X497607Y769709D01*
X497842Y769764D01*
X498079Y769814D01*
X498316Y769857D01*
X498555Y769895D01*
X498795Y769927D01*
X499035Y769953D01*
X499276Y769974D01*
X499517Y769988D01*
X499758Y769997D01*
X500000Y770000D01*
X490000Y760000D02*
X490000Y690000D01*
X490003Y689758D01*
X490012Y689517D01*
X490026Y689276D01*
X490047Y689035D01*
X490073Y688795D01*
X490105Y688555D01*
X490143Y688316D01*
X490186Y688079D01*
X490236Y687842D01*
X490291Y687607D01*
X490351Y687373D01*
X490418Y687141D01*
X490489Y686910D01*
X490567Y686681D01*
X490650Y686454D01*
X490738Y686229D01*
X490832Y686006D01*
X490931Y685786D01*
X491036Y685568D01*
X491145Y685353D01*
X491260Y685140D01*
X491380Y684930D01*
X491505Y684724D01*
X491635Y684520D01*
X491770Y684319D01*
X491910Y684122D01*
X492054Y683928D01*
X492203Y683738D01*
X492357Y683552D01*
X492515Y683369D01*
X492677Y683190D01*
X492844Y683015D01*
X493015Y682844D01*
X493190Y682677D01*
X493369Y682515D01*
X493552Y682357D01*
X493738Y682203D01*
X493928Y682054D01*
X494122Y681910D01*
X494319Y681770D01*
X494520Y681635D01*
X494724Y681505D01*
X494930Y681380D01*
X495140Y681260D01*
X495353Y681145D01*
X495568Y681036D01*
X495786Y680931D01*
X496006Y680832D01*
X496229Y680738D01*
X496454Y680650D01*
X496681Y680567D01*
X496910Y680489D01*
X497141Y680418D01*
X497373Y680351D01*
X497607Y680291D01*
X497842Y680236D01*
X498079Y680186D01*
X498316Y680143D01*
X498555Y680105D01*
X498795Y680073D01*
X499035Y680047D01*
X499276Y680026D01*
X499517Y680012D01*
X499758Y680003D01*
X500000Y680000D01*
X640000Y680000D01*
X640242Y680003D01*
X640483Y680012D01*
X640724Y680026D01*
X640965Y680047D01*
X641205Y680073D01*
X641445Y680105D01*
X641684Y680143D01*
X641921Y680186D01*
X642158Y680236D01*
X642393Y680291D01*
X642627Y680351D01*
X642859Y680418D01*
X643090Y680489D01*
X643319Y680567D01*
X643546Y680650D01*
X643771Y680738D01*
X643994Y680832D01*
X644214Y680931D01*
X644432Y681036D01*
X644647Y681145D01*
X644860Y681260D01*
X645070Y681380D01*
X645276Y681505D01*
X645480Y681635D01*
X645681Y681770D01*
X645878Y681910D01*
X646072Y682054D01*
X646262Y682203D01*
X646448Y682357D01*
X646631Y682515D01*
X646810Y682677D01*
X646985Y682844D01*
X647156Y683015D01*
X647323Y683190D01*
X647485Y683369D01*
X647643Y683552D01*
X647797Y683738D01*
X647946Y683928D01*
X648090Y684122D01*
X648230Y684319D01*
X648365Y684520D01*
X648495Y684724D01*
X648620Y684930D01*
X648740Y685140D01*
X648855Y685353D01*
X648964Y685568D01*
X649069Y685786D01*
X649168Y686006D01*
X649262Y686229D01*
X649350Y686454D01*
X649433Y686681D01*
X649511Y686910D01*
X649582Y687141D01*
X649649Y687373D01*
X649709Y687607D01*
X649764Y687842D01*
X649814Y688079D01*
X649857Y688316D01*
X649895Y688555D01*
X649927Y688795D01*
X649953Y689035D01*
X649974Y689276D01*
X649988Y689517D01*
X649997Y689758D01*
X650000Y690000D01*
X650000Y760000D01*
X649997Y760242D01*
X649988Y760483D01*
X649974Y760724D01*
X649953Y760965D01*
X649927Y761205D01*
X649895Y761445D01*
X649857Y761684D01*
X649814Y761921D01*
X649764Y762158D01*
X649709Y762393D01*
X649649Y762627D01*
X649582Y762859D01*
X649511Y763090D01*
X649433Y763319D01*
X649350Y763546D01*
X649262Y763771D01*
X649168Y763994D01*
X649069Y764214D01*
X648964Y764432D01*
X648855Y764647D01*
X648740Y764860D01*
X648620Y765070D01*
X648495Y765276D01*
X648365Y765480D01*
X648230Y765681D01*
X648090Y765878D01*
X647946Y766072D01*
X647797Y766262D01*
X647643Y766448D01*
X647485Y766631D01*
X647323Y766810D01*
X647156Y766985D01*
X646985Y767156D01*
X646810Y767323D01*
X646631Y767485D01*
X646448Y767643D01*
X646262Y767797D01*
X646072Y767946D01*
X645878Y768090D01*
X645681Y768230D01*
X645480Y768365D01*
X645276Y768495D01*
X645070Y768620D01*
X644860Y768740D01*
X644647Y768855D01*
X644432Y768964D01*
X644214Y769069D01*
X643994Y769168D01*
X643771Y769262D01*
X643546Y769350D01*
X643319Y769433D01*
X643090Y769511D01*
X642859Y769582D01*
X642627Y769649D01*
X642393Y769709D01*
X642158Y769764D01*
X641921Y769814D01*
X641684Y769857D01*
X641445Y769895D01*
X641205Y769927D01*
X640965Y769953D01*
X640724Y769974D01*
X640483Y769988D01*
X640242Y769997D01*
X640000Y770000D01*
X500000Y770000D01*
X220000Y140000D02*
X219758Y139997D01*
X219517Y139988D01*
X219276Y139974D01*
X219035Y139953D01*
X218795Y139927D01*
X218555Y139895D01*
X218316Y139857D01*
X218079Y139814D01*
X217842Y139764D01*
X217607Y139709D01*
X217373Y139649D01*
X217141Y139582D01*
X216910Y139511D01*
X216681Y139433D01*
X216454Y139350D01*
X216229Y139262D01*
X216006Y139168D01*
X215786Y139069D01*
X215568Y138964D01*
X215353Y138855D01*
X215140Y138740D01*
X214930Y138620D01*
X214724Y138495D01*
X214520Y138365D01*
X214319Y138230D01*
X214122Y138090D01*
X213928Y137946D01*
X213738Y137797D01*
X213552Y137643D01*
X213369Y137485D01*
X213190Y137323D01*
X213015Y137156D01*
X212844Y136985D01*
X212677Y136810D01*
X212515Y136631D01*
X212357Y136448D01*
X212203Y136262D01*
X212054Y136072D01*
X211910Y135878D01*
X211770Y135681D01*
X211635Y135480D01*
X211505Y135276D01*
X211380Y135070D01*
X211260Y134860D01*
X211145Y134647D01*
X211036Y134432D01*
X210931Y134214D01*
X210832Y133994D01*
X210738Y133771D01*
X210650Y133546D01*
X210567Y133319D01*
X210489Y133090D01*
X210418Y132859D01*
X210351Y132627D01*
X210291Y132393D01*
X210236Y132158D01*
X210186Y131921D01*
X210143Y131684D01*
X210105Y131445D01*
X210073Y131205D01*
X210047Y130965D01*
X210026Y130724D01*
X210012Y130483D01*
X210003Y130242D01*
X210000Y130000D01*
X210000Y60000D01*
X210003Y59758D01*
X210012Y59517D01*
X210026Y59276D01*
X210047Y59035D01*
X210073Y58795D01*
X210105Y58555D01*
X210143Y58316D01*
X210186Y58079D01*
X210236Y57842D01*
X210291Y57607D01*
X210351Y57373D01*
X210418Y57141D01*
X210489Y56910D01*
X210567Y56681D01*
X210650Y56454D01*
X210738Y56229D01*
X210832Y56006D01*
X210931Y55786D01*
X211036Y55568D01*
X211145Y55353D01*
X211260Y55140D01*
X211380Y54930D01*
X211505Y54724D01*
X211635Y54520D01*
X211770Y54319D01*
X211910Y54122D01*
X212054Y53928D01*
X212203Y53738D01*
X212357Y53552D01*
X212515Y53369D01*
X212677Y53190D01*
X212844Y53015D01*
X213015Y52844D01*
X213190Y52677D01*
X213369Y52515D01*
X213552Y52357D01*
X213738Y52203D01*
X213928Y52054D01*
X214122Y51910D01*
X214319Y51770D01*
X214520Y51635D01*
X214724Y51505D01*
X214930Y51380D01*
X215140Y51260D01*
X215353Y51145D01*
X215568Y51036D01*
X215786Y50931D01*
X216006Y50832D01*
X216229Y50738D01*
X216454Y50650D01*
X216681Y50567D01*
X216910Y50489D01*
X217141Y50418D01*
X217373Y50351D01*
X217607Y50291D01*
X217842Y50236D01*
X218079Y50186D01*
X218316Y50143D01*
X218555Y50105D01*
X218795Y50073D01*
X219035Y50047D01*
X219276Y50026D01*
X219517Y50012D01*
X219758Y50003D01*
X220000Y50000D01*
X360000Y50000D01*
X360242Y50003D01*
X360483Y50012D01*
X360724Y50026D01*
X360965Y50047D01*
X361205Y50073D01*
X361445Y50105D01*
X361684Y50143D01*
X361921Y50186D01*
X362158Y50236D01*
X362393Y50291D01*
X362627Y50351D01*
X362859Y50418D01*
X363090Y50489D01*
X363319Y50567D01*
X363546Y50650D01*
X363771Y50738D01*
X363994Y50832D01*
X364214Y50931D01*
X364432Y51036D01*
X364647Y51145D01*
X364860Y51260D01*
X365070Y51380D01*
X365276Y51505D01*
X365480Y51635D01*
X365681Y51770D01*
X365878Y51910D01*
X366072Y52054D01*
X366262Y52203D01*
X366448Y52357D01*
X366631Y52515D01*
X366810Y52677D01*
X366985Y52844D01*
X367156Y53015D01*
X367323Y53190D01*
X367485Y53369D01*
X367643Y53552D01*
X367797Y53738D01*
X367946Y53928D01*
X368090Y54122D01*
X368230Y54319D01*
X368365Y54520D01*
X368495Y54724D01*
X368620Y54930D01*
X368740Y55140D01*
X368855Y55353D01*
X368964Y55568D01*
X369069Y55786D01*
X369168Y56006D01*
X369262Y56229D01*
X369350Y56454D01*
X369433Y56681D01*
X369511Y56910D01*
X369582Y57141D01*
X369649Y57373D01*
X369709Y57607D01*
X369764Y57842D01*
X369814Y58079D01*
X369857Y58316D01*
X369895Y58555D01*
X369927Y58795D01*
X369953Y59035D01*
X369974Y59276D01*
X369988Y59517D01*
X369997Y59758D01*
X370000Y60000D01*
X370000Y130000D01*
X369997Y130242D01*
X369988Y130483D01*
X369974Y130724D01*
X369953Y130965D01*
X369927Y131205D01*
X369895Y131445D01*
X369857Y131684D01*
X369814Y131921D01*
X369764Y132158D01*
X369709Y132393D01*
X369649Y132627D01*
X369582Y132859D01*
X369511Y133090D01*
X369433Y133319D01*
X369350Y133546D01*
X369262Y133771D01*
X369168Y133994D01*
X369069Y134214D01*
X368964Y134432D01*
X368855Y134647D01*
X368740Y134860D01*
X368620Y135070D01*
X368495Y135276D01*
X368365Y135480D01*
X368230Y135681D01*
X368090Y135878D01*
X367946Y136072D01*
X367797Y136262D01*
X367643Y136448D01*
X367485Y136631D01*
X367323Y136810D01*
X367156Y136985D01*
X366985Y137156D01*
X366810Y137323D01*
X366631Y137485D01*
X366448Y137643D01*
X366262Y137797D01*
X366072Y137946D01*
X365878Y138090D01*
X365681Y138230D01*
X365480Y138365D01*
X365276Y138495D01*
X365070Y138620D01*
X364860Y138740D01*
X364647Y138855D01*
X364432Y138964D01*
X364214Y139069D01*
X363994Y139168D01*
X363771Y139262D01*
X363546Y139350D01*
X363319Y139433D01*
X363090Y139511D01*
X362859Y139582D01*
X362627Y139649D01*
X362393Y139709D01*
X362158Y139764D01*
X361921Y139814D01*
X361684Y139857D01*
X361445Y139895D01*
X361205Y139927D01*
X360965Y139953D01*
X360724Y139974D01*
X360483Y139988D01*
X360242Y139997D01*
X360000Y140000D01*
X220000Y140000D01*
X490000Y130000D02*
X490003Y130242D01*
X490012Y130483D01*
X490026Y130724D01*
X490047Y130965D01*
X490073Y131205D01*
X490105Y131445D01*
X490143Y131684D01*
X490186Y131921D01*
X490236Y132158D01*
X490291Y132393D01*
X490351Y132627D01*
X490418Y132859D01*
X490489Y133090D01*
X490567Y133319D01*
X490650Y133546D01*
X490738Y133771D01*
X490832Y133994D01*
X490931Y134214D01*
X491036Y134432D01*
X491145Y134647D01*
X491260Y134860D01*
X491380Y135070D01*
X491505Y135276D01*
X491635Y135480D01*
X491770Y135681D01*
X491910Y135878D01*
X492054Y136072D01*
X492203Y136262D01*
X492357Y136448D01*
X492515Y136631D01*
X492677Y136810D01*
X492844Y136985D01*
X493015Y137156D01*
X493190Y137323D01*
X493369Y137485D01*
X493552Y137643D01*
X493738Y137797D01*
X493928Y137946D01*
X494122Y138090D01*
X494319Y138230D01*
X494520Y138365D01*
X494724Y138495D01*
X494930Y138620D01*
X495140Y138740D01*
X495353Y138855D01*
X495568Y138964D01*
X495786Y139069D01*
X496006Y139168D01*
X496229Y139262D01*
X496454Y139350D01*
X496681Y139433D01*
X496910Y139511D01*
X497141Y139582D01*
X497373Y139649D01*
X497607Y139709D01*
X497842Y139764D01*
X498079Y139814D01*
X498316Y139857D01*
X498555Y139895D01*
X498795Y139927D01*
X499035Y139953D01*
X499276Y139974D01*
X499517Y139988D01*
X499758Y139997D01*
X500000Y140000D01*
X490000Y130000D02*
X490000Y60000D01*
X490003Y59758D01*
X490012Y59517D01*
X490026Y59276D01*
X490047Y59035D01*
X490073Y58795D01*
X490105Y58555D01*
X490143Y58316D01*
X490186Y58079D01*
X490236Y57842D01*
X490291Y57607D01*
X490351Y57373D01*
X490418Y57141D01*
X490489Y56910D01*
X490567Y56681D01*
X490650Y56454D01*
X490738Y56229D01*
X490832Y56006D01*
X490931Y55786D01*
X491036Y55568D01*
X491145Y55353D01*
X491260Y55140D01*
X491380Y54930D01*
X491505Y54724D01*
X491635Y54520D01*
X491770Y54319D01*
X491910Y54122D01*
X492054Y53928D01*
X492203Y53738D01*
X492357Y53552D01*
X492515Y53369D01*
X492677Y53190D01*
X492844Y53015D01*
X493015Y52844D01*
X493190Y52677D01*
X493369Y52515D01*
X493552Y52357D01*
X493738Y52203D01*
X493928Y52054D01*
X494122Y51910D01*
X494319Y51770D01*
X494520Y51635D01*
X494724Y51505D01*
X494930Y51380D01*
X495140Y51260D01*
X495353Y51145D01*
X495568Y51036D01*
X495786Y50931D01*
X496006Y50832D01*
X496229Y50738D01*
X496454Y50650D01*
X496681Y50567D01*
X496910Y50489D01*
X497141Y50418D01*
X497373Y50351D01*
X497607Y50291D01*
X497842Y50236D01*
X498079Y50186D01*
X498316Y50143D01*
X498555Y50105D01*
X498795Y50073D01*
X499035Y50047D01*
X499276Y50026D01*
X499517Y50012D01*
X499758Y50003D01*
X500000Y50000D01*
X640000Y50000D01*
X640242Y50003D01*
X640483Y50012D01*
X640724Y50026D01*
X640965Y50047D01*
X641205Y50073D01*
X641445Y50105D01*
X641684Y50143D01*
X641921Y50186D01*
X642158Y50236D01*
X642393Y50291D01*
X642627Y50351D01*
X642859Y50418D01*
X643090Y50489D01*
X643319Y50567D01*
X643546Y50650D01*
X643771Y50738D01*
X643994Y50832D01*
X644214Y50931D01*
X644432Y51036D01*
X644647Y51145D01*
X644860Y51260D01*
X645070Y51380D01*
X645276Y51505D01*
X645480Y51635D01*
X645681Y51770D01*
X645878Y51910D01*
X646072Y52054D01*
X646262Y52203D01*
X646448Y52357D01*
X646631Y52515D01*
X646810Y52677D01*
X646985Y52844D01*
X647156Y53015D01*
X647323Y53190D01*
X647485Y53369D01*
X647643Y53552D01*
X647797Y53738D01*
X647946Y53928D01*
X648090Y54122D01*
X648230Y54319D01*
X648365Y54520D01*
X648495Y54724D01*
X648620Y54930D01*
X648740Y55140D01*
X648855Y55353D01*
X648964Y55568D01*
X649069Y55786D01*
X649168Y56006D01*
X649262Y56229D01*
X649350Y56454D01*
X649433Y56681D01*
X649511Y56910D01*
X649582Y57141D01*
X649649Y57373D01*
X649709Y57607D01*
X649764Y57842D01*
X649814Y58079D01*
X649857Y58316D01*
X649895Y58555D01*
X649927Y58795D01*
X649953Y59035D01*
X649974Y59276D01*
X649988Y59517D01*
X649997Y59758D01*
X650000Y60000D01*
X650000Y130000D01*
X649997Y130242D01*
X649988Y130483D01*
X649974Y130724D01*
X649953Y130965D01*
X649927Y131205D01*
X649895Y131445D01*
X649857Y131684D01*
X649814Y131921D01*
X649764Y132158D01*
X649709Y132393D01*
X649649Y132627D01*
X649582Y132859D01*
X649511Y133090D01*
X649433Y133319D01*
X649350Y133546D01*
X649262Y133771D01*
X649168Y133994D01*
X649069Y134214D01*
X648964Y134432D01*
X648855Y134647D01*
X648740Y134860D01*
X648620Y135070D01*
X648495Y135276D01*
X648365Y135480D01*
X648230Y135681D01*
X648090Y135878D01*
X647946Y136072D01*
X647797Y136262D01*
X647643Y136448D01*
X647485Y136631D01*
X647323Y136810D01*
X647156Y136985D01*
X646985Y137156D01*
X646810Y137323D01*
X646631Y137485D01*
X646448Y137643D01*
X646262Y137797D01*
X646072Y137946D01*
X645878Y138090D01*
X645681Y138230D01*
X645480Y138365D01*
X645276Y138495D01*
X645070Y138620D01*
X644860Y138740D01*
X644647Y138855D01*
X644432Y138964D01*
X644214Y139069D01*
X643994Y139168D01*
X643771Y139262D01*
X643546Y139350D01*
X643319Y139433D01*
X643090Y139511D01*
X642859Y139582D01*
X642627Y139649D01*
X642393Y139709D01*
X642158Y139764D01*
X641921Y139814D01*
X641684Y139857D01*
X641445Y139895D01*
X641205Y139927D01*
X640965Y139953D01*
X640724Y139974D01*
X640483Y139988D01*
X640242Y139997D01*
X640000Y140000D01*
X500000Y140000D01*
D11*
X290000Y-20000D02*
X290000Y840000D01*
X570000Y840000D02*
X570000Y-20000D01*
X860000Y410000D02*
X0Y410000D01*
X860000Y410000D02*
X880000Y430000D01*
X880000Y390000D01*
X860000Y410000D01*
X920000Y410000D01*
X570000Y-20000D02*
X550000Y-40000D01*
X590000Y-40000D01*
X570000Y-20000D01*
X570000Y-80000D01*
X290000Y-20000D02*
X270000Y-40000D01*
X310000Y-40000D01*
X290000Y-20000D01*
X290000Y-80000D01*
D12*
X307079Y-216326D02*
X274821Y-227079D01*
X274821Y-205574D02*
X307079Y-216326D01*
X294534Y-196599D02*
X294534Y-175094D01*
X307079Y-157181D02*
X307079Y-150013D01*
X307079Y-157181D02*
X307077Y-157354D01*
X307071Y-157527D01*
X307060Y-157700D01*
X307046Y-157873D01*
X307027Y-158045D01*
X307004Y-158217D01*
X306977Y-158388D01*
X306945Y-158558D01*
X306910Y-158728D01*
X306871Y-158896D01*
X306827Y-159064D01*
X306780Y-159231D01*
X306728Y-159396D01*
X306673Y-159560D01*
X306613Y-159723D01*
X306550Y-159884D01*
X306483Y-160044D01*
X306411Y-160202D01*
X306337Y-160358D01*
X306258Y-160512D01*
X306176Y-160665D01*
X306090Y-160815D01*
X306000Y-160963D01*
X305907Y-161109D01*
X305810Y-161253D01*
X305710Y-161394D01*
X305607Y-161533D01*
X305500Y-161669D01*
X305390Y-161803D01*
X305276Y-161934D01*
X305160Y-162063D01*
X305040Y-162188D01*
X304918Y-162310D01*
X304793Y-162430D01*
X304664Y-162546D01*
X304533Y-162660D01*
X304399Y-162770D01*
X304263Y-162877D01*
X304124Y-162980D01*
X303983Y-163080D01*
X303839Y-163177D01*
X303693Y-163270D01*
X303545Y-163360D01*
X303395Y-163446D01*
X303242Y-163528D01*
X303088Y-163607D01*
X302932Y-163681D01*
X302774Y-163753D01*
X302614Y-163820D01*
X302453Y-163883D01*
X302290Y-163943D01*
X302126Y-163998D01*
X301961Y-164050D01*
X301794Y-164097D01*
X301626Y-164141D01*
X301458Y-164180D01*
X301288Y-164215D01*
X301118Y-164247D01*
X300947Y-164274D01*
X300775Y-164297D01*
X300603Y-164316D01*
X300430Y-164330D01*
X300257Y-164341D01*
X300084Y-164347D01*
X299911Y-164349D01*
X281989Y-164349D01*
X281989Y-164350D02*
X281813Y-164348D01*
X281637Y-164341D01*
X281462Y-164331D01*
X281286Y-164315D01*
X281111Y-164296D01*
X280937Y-164272D01*
X280763Y-164244D01*
X280590Y-164212D01*
X280418Y-164176D01*
X280247Y-164135D01*
X280077Y-164090D01*
X279908Y-164041D01*
X279740Y-163988D01*
X279574Y-163931D01*
X279409Y-163870D01*
X279246Y-163804D01*
X279084Y-163735D01*
X278924Y-163662D01*
X278766Y-163585D01*
X278610Y-163504D01*
X278455Y-163419D01*
X278303Y-163330D01*
X278154Y-163238D01*
X278006Y-163142D01*
X277861Y-163042D01*
X277718Y-162939D01*
X277578Y-162833D01*
X277441Y-162723D01*
X277306Y-162609D01*
X277175Y-162493D01*
X277046Y-162373D01*
X276920Y-162250D01*
X276797Y-162124D01*
X276677Y-161995D01*
X276561Y-161864D01*
X276447Y-161729D01*
X276337Y-161592D01*
X276231Y-161452D01*
X276128Y-161309D01*
X276028Y-161164D01*
X275932Y-161016D01*
X275840Y-160867D01*
X275751Y-160715D01*
X275667Y-160560D01*
X275585Y-160404D01*
X275508Y-160246D01*
X275435Y-160086D01*
X275366Y-159925D01*
X275300Y-159761D01*
X275239Y-159596D01*
X275182Y-159430D01*
X275129Y-159262D01*
X275080Y-159093D01*
X275035Y-158923D01*
X274994Y-158752D01*
X274958Y-158580D01*
X274926Y-158407D01*
X274898Y-158233D01*
X274874Y-158059D01*
X274855Y-157884D01*
X274839Y-157708D01*
X274829Y-157533D01*
X274822Y-157357D01*
X274820Y-157181D01*
X274821Y-157181D02*
X274821Y-150013D01*
X274821Y-139562D02*
X298118Y-139562D01*
X298336Y-139559D01*
X298554Y-139551D01*
X298772Y-139538D01*
X298990Y-139520D01*
X299206Y-139496D01*
X299423Y-139467D01*
X299638Y-139432D01*
X299853Y-139392D01*
X300066Y-139348D01*
X300279Y-139298D01*
X300490Y-139242D01*
X300700Y-139182D01*
X300908Y-139117D01*
X301114Y-139046D01*
X301319Y-138971D01*
X301522Y-138890D01*
X301723Y-138805D01*
X301922Y-138715D01*
X302118Y-138620D01*
X302312Y-138520D01*
X302504Y-138415D01*
X302693Y-138306D01*
X302879Y-138193D01*
X303062Y-138074D01*
X303243Y-137952D01*
X303420Y-137825D01*
X303595Y-137694D01*
X303766Y-137558D01*
X303934Y-137419D01*
X304098Y-137275D01*
X304259Y-137127D01*
X304416Y-136976D01*
X304569Y-136821D01*
X304719Y-136662D01*
X304864Y-136499D01*
X305006Y-136333D01*
X305143Y-136164D01*
X305277Y-135991D01*
X305406Y-135815D01*
X305531Y-135636D01*
X305651Y-135454D01*
X305767Y-135269D01*
X305878Y-135081D01*
X305985Y-134891D01*
X306087Y-134698D01*
X306185Y-134503D01*
X306277Y-134305D01*
X306365Y-134106D01*
X306448Y-133904D01*
X306526Y-133700D01*
X306599Y-133494D01*
X306667Y-133287D01*
X306730Y-133078D01*
X306788Y-132868D01*
X306840Y-132656D01*
X306888Y-132443D01*
X306930Y-132229D01*
X306967Y-132014D01*
X306999Y-131798D01*
X307025Y-131581D01*
X307046Y-131364D01*
X307062Y-131146D01*
X307073Y-130928D01*
X307078Y-130710D01*
X307078Y-130492D01*
X307073Y-130274D01*
X307062Y-130056D01*
X307046Y-129838D01*
X307025Y-129621D01*
X306999Y-129404D01*
X306967Y-129188D01*
X306930Y-128973D01*
X306888Y-128759D01*
X306840Y-128546D01*
X306788Y-128334D01*
X306730Y-128124D01*
X306667Y-127915D01*
X306599Y-127708D01*
X306526Y-127502D01*
X306448Y-127298D01*
X306365Y-127096D01*
X306277Y-126897D01*
X306185Y-126699D01*
X306087Y-126504D01*
X305985Y-126311D01*
X305878Y-126120D01*
X305767Y-125933D01*
X305651Y-125748D01*
X305531Y-125566D01*
X305406Y-125387D01*
X305277Y-125211D01*
X305143Y-125038D01*
X305006Y-124869D01*
X304864Y-124703D01*
X304719Y-124540D01*
X304569Y-124381D01*
X304416Y-124226D01*
X304259Y-124075D01*
X304098Y-123927D01*
X303934Y-123783D01*
X303766Y-123644D01*
X303595Y-123508D01*
X303420Y-123377D01*
X303243Y-123250D01*
X303062Y-123128D01*
X302879Y-123009D01*
X302693Y-122896D01*
X302504Y-122787D01*
X302312Y-122682D01*
X302118Y-122582D01*
X301922Y-122487D01*
X301723Y-122397D01*
X301522Y-122312D01*
X301319Y-122231D01*
X301114Y-122156D01*
X300908Y-122085D01*
X300700Y-122020D01*
X300490Y-121960D01*
X300279Y-121904D01*
X300066Y-121854D01*
X299853Y-121810D01*
X299638Y-121770D01*
X299423Y-121735D01*
X299206Y-121706D01*
X298990Y-121682D01*
X298772Y-121664D01*
X298554Y-121651D01*
X298336Y-121643D01*
X298118Y-121640D01*
X298118Y-121641D02*
X274821Y-121641D01*
X274821Y-102979D02*
X307079Y-102979D01*
X274821Y-111939D02*
X274821Y-94018D01*
X554821Y-227079D02*
X587079Y-216326D01*
X554821Y-205574D01*
X574534Y-196599D02*
X574534Y-175094D01*
X587079Y-157181D02*
X587079Y-150013D01*
X587079Y-157181D02*
X587077Y-157354D01*
X587071Y-157527D01*
X587060Y-157700D01*
X587046Y-157873D01*
X587027Y-158045D01*
X587004Y-158217D01*
X586977Y-158388D01*
X586945Y-158558D01*
X586910Y-158728D01*
X586871Y-158896D01*
X586827Y-159064D01*
X586780Y-159231D01*
X586728Y-159396D01*
X586673Y-159560D01*
X586613Y-159723D01*
X586550Y-159884D01*
X586483Y-160044D01*
X586411Y-160202D01*
X586337Y-160358D01*
X586258Y-160512D01*
X586176Y-160665D01*
X586090Y-160815D01*
X586000Y-160963D01*
X585907Y-161109D01*
X585810Y-161253D01*
X585710Y-161394D01*
X585607Y-161533D01*
X585500Y-161669D01*
X585390Y-161803D01*
X585276Y-161934D01*
X585160Y-162063D01*
X585040Y-162188D01*
X584918Y-162310D01*
X584793Y-162430D01*
X584664Y-162546D01*
X584533Y-162660D01*
X584399Y-162770D01*
X584263Y-162877D01*
X584124Y-162980D01*
X583983Y-163080D01*
X583839Y-163177D01*
X583693Y-163270D01*
X583545Y-163360D01*
X583395Y-163446D01*
X583242Y-163528D01*
X583088Y-163607D01*
X582932Y-163681D01*
X582774Y-163753D01*
X582614Y-163820D01*
X582453Y-163883D01*
X582290Y-163943D01*
X582126Y-163998D01*
X581961Y-164050D01*
X581794Y-164097D01*
X581626Y-164141D01*
X581458Y-164180D01*
X581288Y-164215D01*
X581118Y-164247D01*
X580947Y-164274D01*
X580775Y-164297D01*
X580603Y-164316D01*
X580430Y-164330D01*
X580257Y-164341D01*
X580084Y-164347D01*
X579911Y-164349D01*
X561989Y-164349D01*
X561989Y-164350D02*
X561813Y-164348D01*
X561637Y-164341D01*
X561462Y-164331D01*
X561286Y-164315D01*
X561111Y-164296D01*
X560937Y-164272D01*
X560763Y-164244D01*
X560590Y-164212D01*
X560418Y-164176D01*
X560247Y-164135D01*
X560077Y-164090D01*
X559908Y-164041D01*
X559740Y-163988D01*
X559574Y-163931D01*
X559409Y-163870D01*
X559246Y-163804D01*
X559084Y-163735D01*
X558924Y-163662D01*
X558766Y-163585D01*
X558610Y-163504D01*
X558455Y-163419D01*
X558303Y-163330D01*
X558154Y-163238D01*
X558006Y-163142D01*
X557861Y-163042D01*
X557718Y-162939D01*
X557578Y-162833D01*
X557441Y-162723D01*
X557306Y-162609D01*
X557175Y-162493D01*
X557046Y-162373D01*
X556920Y-162250D01*
X556797Y-162124D01*
X556677Y-161995D01*
X556561Y-161864D01*
X556447Y-161729D01*
X556337Y-161592D01*
X556231Y-161452D01*
X556128Y-161309D01*
X556028Y-161164D01*
X555932Y-161016D01*
X555840Y-160867D01*
X555751Y-160715D01*
X555667Y-160560D01*
X555585Y-160404D01*
X555508Y-160246D01*
X555435Y-160086D01*
X555366Y-159925D01*
X555300Y-159761D01*
X555239Y-159596D01*
X555182Y-159430D01*
X555129Y-159262D01*
X555080Y-159093D01*
X555035Y-158923D01*
X554994Y-158752D01*
X554958Y-158580D01*
X554926Y-158407D01*
X554898Y-158233D01*
X554874Y-158059D01*
X554855Y-157884D01*
X554839Y-157708D01*
X554829Y-157533D01*
X554822Y-157357D01*
X554820Y-157181D01*
X554821Y-157181D02*
X554821Y-150013D01*
X554821Y-139562D02*
X578118Y-139562D01*
X578336Y-139559D01*
X578554Y-139551D01*
X578772Y-139538D01*
X578990Y-139520D01*
X579206Y-139496D01*
X579423Y-139467D01*
X579638Y-139432D01*
X579853Y-139392D01*
X580066Y-139348D01*
X580279Y-139298D01*
X580490Y-139242D01*
X580700Y-139182D01*
X580908Y-139117D01*
X581114Y-139046D01*
X581319Y-138971D01*
X581522Y-138890D01*
X581723Y-138805D01*
X581922Y-138715D01*
X582118Y-138620D01*
X582312Y-138520D01*
X582504Y-138415D01*
X582693Y-138306D01*
X582879Y-138193D01*
X583062Y-138074D01*
X583243Y-137952D01*
X583420Y-137825D01*
X583595Y-137694D01*
X583766Y-137558D01*
X583934Y-137419D01*
X584098Y-137275D01*
X584259Y-137127D01*
X584416Y-136976D01*
X584569Y-136821D01*
X584719Y-136662D01*
X584864Y-136499D01*
X585006Y-136333D01*
X585143Y-136164D01*
X585277Y-135991D01*
X585406Y-135815D01*
X585531Y-135636D01*
X585651Y-135454D01*
X585767Y-135269D01*
X585878Y-135081D01*
X585985Y-134891D01*
X586087Y-134698D01*
X586185Y-134503D01*
X586277Y-134305D01*
X586365Y-134106D01*
X586448Y-133904D01*
X586526Y-133700D01*
X586599Y-133494D01*
X586667Y-133287D01*
X586730Y-133078D01*
X586788Y-132868D01*
X586840Y-132656D01*
X586888Y-132443D01*
X586930Y-132229D01*
X586967Y-132014D01*
X586999Y-131798D01*
X587025Y-131581D01*
X587046Y-131364D01*
X587062Y-131146D01*
X587073Y-130928D01*
X587078Y-130710D01*
X587078Y-130492D01*
X587073Y-130274D01*
X587062Y-130056D01*
X587046Y-129838D01*
X587025Y-129621D01*
X586999Y-129404D01*
X586967Y-129188D01*
X586930Y-128973D01*
X586888Y-128759D01*
X586840Y-128546D01*
X586788Y-128334D01*
X586730Y-128124D01*
X586667Y-127915D01*
X586599Y-127708D01*
X586526Y-127502D01*
X586448Y-127298D01*
X586365Y-127096D01*
X586277Y-126897D01*
X586185Y-126699D01*
X586087Y-126504D01*
X585985Y-126311D01*
X585878Y-126120D01*
X585767Y-125933D01*
X585651Y-125748D01*
X585531Y-125566D01*
X585406Y-125387D01*
X585277Y-125211D01*
X585143Y-125038D01*
X585006Y-124869D01*
X584864Y-124703D01*
X584719Y-124540D01*
X584569Y-124381D01*
X584416Y-124226D01*
X584259Y-124075D01*
X584098Y-123927D01*
X583934Y-123783D01*
X583766Y-123644D01*
X583595Y-123508D01*
X583420Y-123377D01*
X583243Y-123250D01*
X583062Y-123128D01*
X582879Y-123009D01*
X582693Y-122896D01*
X582504Y-122787D01*
X582312Y-122682D01*
X582118Y-122582D01*
X581922Y-122487D01*
X581723Y-122397D01*
X581522Y-122312D01*
X581319Y-122231D01*
X581114Y-122156D01*
X580908Y-122085D01*
X580700Y-122020D01*
X580490Y-121960D01*
X580279Y-121904D01*
X580066Y-121854D01*
X579853Y-121810D01*
X579638Y-121770D01*
X579423Y-121735D01*
X579206Y-121706D01*
X578990Y-121682D01*
X578772Y-121664D01*
X578554Y-121651D01*
X578336Y-121643D01*
X578118Y-121640D01*
X578118Y-121641D02*
X554821Y-121641D01*
X554821Y-102979D02*
X587079Y-102979D01*
X554821Y-111939D02*
X554821Y-94018D01*
X943674Y392921D02*
X932921Y425179D01*
X954426Y425179D02*
X943674Y392921D01*
X963401Y405466D02*
X984906Y405466D01*
X1002819Y392921D02*
X1009987Y392921D01*
X1002819Y392921D02*
X1002646Y392923D01*
X1002473Y392929D01*
X1002300Y392940D01*
X1002127Y392954D01*
X1001955Y392973D01*
X1001783Y392996D01*
X1001612Y393023D01*
X1001442Y393055D01*
X1001272Y393090D01*
X1001104Y393129D01*
X1000936Y393173D01*
X1000769Y393220D01*
X1000604Y393272D01*
X1000440Y393327D01*
X1000277Y393387D01*
X1000116Y393450D01*
X999956Y393517D01*
X999798Y393589D01*
X999642Y393663D01*
X999488Y393742D01*
X999335Y393824D01*
X999185Y393910D01*
X999037Y394000D01*
X998891Y394093D01*
X998747Y394190D01*
X998606Y394290D01*
X998467Y394393D01*
X998331Y394500D01*
X998197Y394610D01*
X998066Y394724D01*
X997937Y394840D01*
X997812Y394960D01*
X997690Y395082D01*
X997570Y395207D01*
X997454Y395336D01*
X997340Y395467D01*
X997230Y395601D01*
X997123Y395737D01*
X997020Y395876D01*
X996920Y396017D01*
X996823Y396161D01*
X996730Y396307D01*
X996640Y396455D01*
X996554Y396605D01*
X996472Y396758D01*
X996393Y396912D01*
X996319Y397068D01*
X996247Y397226D01*
X996180Y397386D01*
X996117Y397547D01*
X996057Y397710D01*
X996002Y397874D01*
X995950Y398039D01*
X995903Y398206D01*
X995859Y398374D01*
X995820Y398542D01*
X995785Y398712D01*
X995753Y398882D01*
X995726Y399053D01*
X995703Y399225D01*
X995684Y399397D01*
X995670Y399570D01*
X995659Y399743D01*
X995653Y399916D01*
X995651Y400089D01*
X995651Y418011D01*
X995653Y418187D01*
X995660Y418363D01*
X995670Y418538D01*
X995686Y418714D01*
X995705Y418888D01*
X995729Y419063D01*
X995757Y419236D01*
X995789Y419409D01*
X995825Y419582D01*
X995866Y419753D01*
X995911Y419923D01*
X995960Y420092D01*
X996013Y420259D01*
X996070Y420426D01*
X996131Y420591D01*
X996197Y420754D01*
X996266Y420916D01*
X996339Y421076D01*
X996416Y421234D01*
X996497Y421390D01*
X996582Y421544D01*
X996671Y421696D01*
X996763Y421846D01*
X996859Y421993D01*
X996959Y422138D01*
X997062Y422281D01*
X997168Y422421D01*
X997278Y422558D01*
X997391Y422693D01*
X997508Y422825D01*
X997628Y422954D01*
X997750Y423080D01*
X997876Y423202D01*
X998005Y423322D01*
X998137Y423439D01*
X998272Y423552D01*
X998409Y423662D01*
X998549Y423768D01*
X998692Y423871D01*
X998837Y423971D01*
X998984Y424067D01*
X999134Y424159D01*
X999286Y424248D01*
X999440Y424333D01*
X999596Y424414D01*
X999754Y424491D01*
X999914Y424564D01*
X1000076Y424633D01*
X1000239Y424699D01*
X1000404Y424760D01*
X1000571Y424817D01*
X1000738Y424870D01*
X1000907Y424919D01*
X1001077Y424964D01*
X1001248Y425005D01*
X1001421Y425041D01*
X1001594Y425073D01*
X1001767Y425101D01*
X1001942Y425125D01*
X1002116Y425144D01*
X1002292Y425160D01*
X1002467Y425170D01*
X1002643Y425177D01*
X1002819Y425179D01*
X1009987Y425179D01*
X1020438Y425179D02*
X1020438Y401882D01*
X1020441Y401664D01*
X1020449Y401446D01*
X1020462Y401228D01*
X1020480Y401010D01*
X1020504Y400794D01*
X1020533Y400577D01*
X1020568Y400362D01*
X1020608Y400147D01*
X1020652Y399934D01*
X1020702Y399721D01*
X1020758Y399510D01*
X1020818Y399300D01*
X1020883Y399092D01*
X1020954Y398886D01*
X1021029Y398681D01*
X1021110Y398478D01*
X1021195Y398277D01*
X1021285Y398078D01*
X1021380Y397882D01*
X1021480Y397688D01*
X1021585Y397496D01*
X1021694Y397307D01*
X1021807Y397121D01*
X1021926Y396938D01*
X1022048Y396757D01*
X1022175Y396580D01*
X1022306Y396405D01*
X1022442Y396234D01*
X1022581Y396066D01*
X1022725Y395902D01*
X1022873Y395741D01*
X1023024Y395584D01*
X1023179Y395431D01*
X1023338Y395281D01*
X1023501Y395136D01*
X1023667Y394994D01*
X1023836Y394857D01*
X1024009Y394723D01*
X1024185Y394594D01*
X1024364Y394469D01*
X1024546Y394349D01*
X1024731Y394233D01*
X1024919Y394122D01*
X1025109Y394015D01*
X1025302Y393913D01*
X1025497Y393815D01*
X1025695Y393723D01*
X1025894Y393635D01*
X1026096Y393552D01*
X1026300Y393474D01*
X1026506Y393401D01*
X1026713Y393333D01*
X1026922Y393270D01*
X1027132Y393212D01*
X1027344Y393160D01*
X1027557Y393112D01*
X1027771Y393070D01*
X1027986Y393033D01*
X1028202Y393001D01*
X1028419Y392975D01*
X1028636Y392954D01*
X1028854Y392938D01*
X1029072Y392927D01*
X1029290Y392922D01*
X1029508Y392922D01*
X1029726Y392927D01*
X1029944Y392938D01*
X1030162Y392954D01*
X1030379Y392975D01*
X1030596Y393001D01*
X1030812Y393033D01*
X1031027Y393070D01*
X1031241Y393112D01*
X1031454Y393160D01*
X1031666Y393212D01*
X1031876Y393270D01*
X1032085Y393333D01*
X1032292Y393401D01*
X1032498Y393474D01*
X1032702Y393552D01*
X1032904Y393635D01*
X1033103Y393723D01*
X1033301Y393815D01*
X1033496Y393913D01*
X1033689Y394015D01*
X1033880Y394122D01*
X1034067Y394233D01*
X1034252Y394349D01*
X1034434Y394469D01*
X1034613Y394594D01*
X1034789Y394723D01*
X1034962Y394857D01*
X1035131Y394994D01*
X1035297Y395136D01*
X1035460Y395281D01*
X1035619Y395431D01*
X1035774Y395584D01*
X1035925Y395741D01*
X1036073Y395902D01*
X1036217Y396066D01*
X1036356Y396234D01*
X1036492Y396405D01*
X1036623Y396580D01*
X1036750Y396757D01*
X1036872Y396938D01*
X1036991Y397121D01*
X1037104Y397307D01*
X1037213Y397496D01*
X1037318Y397688D01*
X1037418Y397882D01*
X1037513Y398078D01*
X1037603Y398277D01*
X1037688Y398478D01*
X1037769Y398681D01*
X1037844Y398886D01*
X1037915Y399092D01*
X1037980Y399300D01*
X1038040Y399510D01*
X1038096Y399721D01*
X1038146Y399934D01*
X1038190Y400147D01*
X1038230Y400362D01*
X1038265Y400577D01*
X1038294Y400794D01*
X1038318Y401010D01*
X1038336Y401228D01*
X1038349Y401446D01*
X1038357Y401664D01*
X1038360Y401882D01*
X1038359Y401882D02*
X1038359Y425179D01*
X1057021Y425179D02*
X1057021Y392921D01*
X1048061Y425179D02*
X1065982Y425179D01*
M02*
