G04 EAGLE Gerber X2 export*
G75*
%MOMM*%
%FSLAX34Y34*%
%LPD*%
%AMOC8*
5,1,8,0,0,1.08239X$1,22.5*%
G01*
%ADD10R,1.201600X1.101600*%
%ADD11R,0.701600X1.201600*%
%ADD12C,1.601600*%
%ADD13R,0.751600X0.951600*%
%ADD14R,0.651600X1.301600*%
%ADD15C,1.751600*%
%ADD16R,1.751600X1.751600*%
%ADD17R,0.651600X1.801600*%
%ADD18R,1.101600X1.001600*%
%ADD19R,1.101600X1.201600*%
%ADD20R,1.601600X7.601600*%
%ADD21R,1.101600X6.601600*%
%ADD22R,1.586600X1.001600*%
%ADD23R,5.715000X5.715000*%
%ADD24P,1.842011X8X202.500000*%
%ADD25C,1.701800*%
%ADD26R,0.901600X0.901600*%
%ADD27P,1.842011X8X112.500000*%
%ADD28P,1.842011X8X22.500000*%
%ADD29P,1.842011X8X292.500000*%


D10*
X223500Y160000D03*
X206500Y160000D03*
X93500Y160000D03*
X76500Y160000D03*
X93500Y240000D03*
X76500Y240000D03*
D11*
X214500Y212500D03*
X205000Y212500D03*
X195500Y212500D03*
X195500Y187500D03*
X205000Y187500D03*
X214500Y187500D03*
D12*
X35000Y385000D03*
D13*
X138750Y185000D03*
X161250Y185000D03*
X138750Y215000D03*
X161250Y215000D03*
D12*
X35000Y360000D03*
X35000Y335000D03*
D14*
X85500Y187000D03*
X95000Y187000D03*
X104500Y187000D03*
X104500Y213000D03*
X85500Y213000D03*
D15*
X165000Y380000D03*
D16*
X185000Y380000D03*
D17*
X51000Y230000D03*
D18*
X44750Y250500D03*
X28750Y250500D03*
X44750Y209500D03*
X28750Y209500D03*
D19*
X121500Y240000D03*
X138500Y240000D03*
X206500Y240000D03*
X223500Y240000D03*
X251500Y160000D03*
X268500Y160000D03*
X48500Y160000D03*
X31500Y160000D03*
X48500Y185000D03*
X31500Y185000D03*
D20*
X185000Y97500D03*
D21*
X160000Y102500D03*
D20*
X115000Y97500D03*
D21*
X140000Y102500D03*
D12*
X35000Y310000D03*
D22*
X86075Y389000D03*
X86075Y374000D03*
X86075Y359000D03*
X86075Y344000D03*
X86075Y329000D03*
X86075Y314000D03*
X86075Y299000D03*
X86075Y284000D03*
X86075Y269000D03*
X263925Y269000D03*
X263925Y284000D03*
X263925Y299000D03*
X263925Y314000D03*
X263925Y329000D03*
X263925Y344000D03*
X263925Y359000D03*
X263925Y374000D03*
X263925Y389000D03*
D23*
X190875Y320950D03*
D24*
X62700Y270000D03*
D25*
X37300Y270000D03*
D26*
X177500Y240000D03*
X162500Y240000D03*
D27*
X265000Y187300D03*
D25*
X265000Y212700D03*
D19*
X268500Y240000D03*
X251500Y240000D03*
D10*
X76500Y660000D03*
X93500Y660000D03*
X206500Y660000D03*
X223500Y660000D03*
X206500Y580000D03*
X223500Y580000D03*
D11*
X85500Y607500D03*
X95000Y607500D03*
X104500Y607500D03*
X104500Y632500D03*
X95000Y632500D03*
X85500Y632500D03*
D12*
X265000Y435000D03*
D13*
X161250Y635000D03*
X138750Y635000D03*
X161250Y605000D03*
X138750Y605000D03*
D12*
X265000Y460000D03*
X265000Y485000D03*
D14*
X214500Y633000D03*
X205000Y633000D03*
X195500Y633000D03*
X195500Y607000D03*
X214500Y607000D03*
D15*
X135000Y440000D03*
D16*
X115000Y440000D03*
D17*
X249000Y590000D03*
D18*
X255250Y569500D03*
X271250Y569500D03*
X255250Y610500D03*
X271250Y610500D03*
D19*
X178500Y580000D03*
X161500Y580000D03*
X93500Y580000D03*
X76500Y580000D03*
X48500Y660000D03*
X31500Y660000D03*
X251500Y660000D03*
X268500Y660000D03*
X251500Y635000D03*
X268500Y635000D03*
D20*
X115000Y722500D03*
D21*
X140000Y717500D03*
D20*
X185000Y722500D03*
D21*
X160000Y717500D03*
D12*
X265000Y510000D03*
D22*
X213925Y431000D03*
X213925Y446000D03*
X213925Y461000D03*
X213925Y476000D03*
X213925Y491000D03*
X213925Y506000D03*
X213925Y521000D03*
X213925Y536000D03*
X213925Y551000D03*
X36075Y551000D03*
X36075Y536000D03*
X36075Y521000D03*
X36075Y506000D03*
X36075Y491000D03*
X36075Y476000D03*
X36075Y461000D03*
X36075Y446000D03*
X36075Y431000D03*
D23*
X109125Y499050D03*
D28*
X237300Y550000D03*
D25*
X262700Y550000D03*
D26*
X122500Y580000D03*
X137500Y580000D03*
D29*
X35000Y632700D03*
D25*
X35000Y607300D03*
D19*
X31500Y580000D03*
X48500Y580000D03*
D10*
X503500Y160000D03*
X486500Y160000D03*
X373500Y160000D03*
X356500Y160000D03*
X373500Y240000D03*
X356500Y240000D03*
D11*
X494500Y212500D03*
X485000Y212500D03*
X475500Y212500D03*
X475500Y187500D03*
X485000Y187500D03*
X494500Y187500D03*
D12*
X315000Y385000D03*
D13*
X418750Y185000D03*
X441250Y185000D03*
X418750Y215000D03*
X441250Y215000D03*
D12*
X315000Y360000D03*
X315000Y335000D03*
D14*
X365500Y187000D03*
X375000Y187000D03*
X384500Y187000D03*
X384500Y213000D03*
X365500Y213000D03*
D15*
X445000Y380000D03*
D16*
X465000Y380000D03*
D17*
X331000Y230000D03*
D18*
X324750Y250500D03*
X308750Y250500D03*
X324750Y209500D03*
X308750Y209500D03*
D19*
X401500Y240000D03*
X418500Y240000D03*
X486500Y240000D03*
X503500Y240000D03*
X531500Y160000D03*
X548500Y160000D03*
X328500Y160000D03*
X311500Y160000D03*
X328500Y185000D03*
X311500Y185000D03*
D20*
X465000Y97500D03*
D21*
X440000Y102500D03*
D20*
X395000Y97500D03*
D21*
X420000Y102500D03*
D12*
X315000Y310000D03*
D22*
X366075Y389000D03*
X366075Y374000D03*
X366075Y359000D03*
X366075Y344000D03*
X366075Y329000D03*
X366075Y314000D03*
X366075Y299000D03*
X366075Y284000D03*
X366075Y269000D03*
X543925Y269000D03*
X543925Y284000D03*
X543925Y299000D03*
X543925Y314000D03*
X543925Y329000D03*
X543925Y344000D03*
X543925Y359000D03*
X543925Y374000D03*
X543925Y389000D03*
D23*
X470875Y320950D03*
D24*
X342700Y270000D03*
D25*
X317300Y270000D03*
D26*
X457500Y240000D03*
X442500Y240000D03*
D27*
X545000Y187300D03*
D25*
X545000Y212700D03*
D19*
X548500Y240000D03*
X531500Y240000D03*
D10*
X356500Y660000D03*
X373500Y660000D03*
X486500Y660000D03*
X503500Y660000D03*
X486500Y580000D03*
X503500Y580000D03*
D11*
X365500Y607500D03*
X375000Y607500D03*
X384500Y607500D03*
X384500Y632500D03*
X375000Y632500D03*
X365500Y632500D03*
D12*
X545000Y435000D03*
D13*
X441250Y635000D03*
X418750Y635000D03*
X441250Y605000D03*
X418750Y605000D03*
D12*
X545000Y460000D03*
X545000Y485000D03*
D14*
X494500Y633000D03*
X485000Y633000D03*
X475500Y633000D03*
X475500Y607000D03*
X494500Y607000D03*
D15*
X415000Y440000D03*
D16*
X395000Y440000D03*
D17*
X529000Y590000D03*
D18*
X535250Y569500D03*
X551250Y569500D03*
X535250Y610500D03*
X551250Y610500D03*
D19*
X458500Y580000D03*
X441500Y580000D03*
X373500Y580000D03*
X356500Y580000D03*
X328500Y660000D03*
X311500Y660000D03*
X531500Y660000D03*
X548500Y660000D03*
X531500Y635000D03*
X548500Y635000D03*
D20*
X395000Y722500D03*
D21*
X420000Y717500D03*
D20*
X465000Y722500D03*
D21*
X440000Y717500D03*
D12*
X545000Y510000D03*
D22*
X493925Y431000D03*
X493925Y446000D03*
X493925Y461000D03*
X493925Y476000D03*
X493925Y491000D03*
X493925Y506000D03*
X493925Y521000D03*
X493925Y536000D03*
X493925Y551000D03*
X316075Y551000D03*
X316075Y536000D03*
X316075Y521000D03*
X316075Y506000D03*
X316075Y491000D03*
X316075Y476000D03*
X316075Y461000D03*
X316075Y446000D03*
X316075Y431000D03*
D23*
X389125Y499050D03*
D28*
X517300Y550000D03*
D25*
X542700Y550000D03*
D26*
X402500Y580000D03*
X417500Y580000D03*
D29*
X315000Y632700D03*
D25*
X315000Y607300D03*
D19*
X311500Y580000D03*
X328500Y580000D03*
D10*
X783500Y160000D03*
X766500Y160000D03*
X653500Y160000D03*
X636500Y160000D03*
X653500Y240000D03*
X636500Y240000D03*
D11*
X774500Y212500D03*
X765000Y212500D03*
X755500Y212500D03*
X755500Y187500D03*
X765000Y187500D03*
X774500Y187500D03*
D12*
X595000Y385000D03*
D13*
X698750Y185000D03*
X721250Y185000D03*
X698750Y215000D03*
X721250Y215000D03*
D12*
X595000Y360000D03*
X595000Y335000D03*
D14*
X645500Y187000D03*
X655000Y187000D03*
X664500Y187000D03*
X664500Y213000D03*
X645500Y213000D03*
D15*
X725000Y380000D03*
D16*
X745000Y380000D03*
D17*
X611000Y230000D03*
D18*
X604750Y250500D03*
X588750Y250500D03*
X604750Y209500D03*
X588750Y209500D03*
D19*
X681500Y240000D03*
X698500Y240000D03*
X766500Y240000D03*
X783500Y240000D03*
X811500Y160000D03*
X828500Y160000D03*
X608500Y160000D03*
X591500Y160000D03*
X608500Y185000D03*
X591500Y185000D03*
D20*
X745000Y97500D03*
D21*
X720000Y102500D03*
D20*
X675000Y97500D03*
D21*
X700000Y102500D03*
D12*
X595000Y310000D03*
D22*
X646075Y389000D03*
X646075Y374000D03*
X646075Y359000D03*
X646075Y344000D03*
X646075Y329000D03*
X646075Y314000D03*
X646075Y299000D03*
X646075Y284000D03*
X646075Y269000D03*
X823925Y269000D03*
X823925Y284000D03*
X823925Y299000D03*
X823925Y314000D03*
X823925Y329000D03*
X823925Y344000D03*
X823925Y359000D03*
X823925Y374000D03*
X823925Y389000D03*
D23*
X750875Y320950D03*
D24*
X622700Y270000D03*
D25*
X597300Y270000D03*
D26*
X737500Y240000D03*
X722500Y240000D03*
D27*
X825000Y187300D03*
D25*
X825000Y212700D03*
D19*
X828500Y240000D03*
X811500Y240000D03*
D10*
X636500Y660000D03*
X653500Y660000D03*
X766500Y660000D03*
X783500Y660000D03*
X766500Y580000D03*
X783500Y580000D03*
D11*
X645500Y607500D03*
X655000Y607500D03*
X664500Y607500D03*
X664500Y632500D03*
X655000Y632500D03*
X645500Y632500D03*
D12*
X825000Y435000D03*
D13*
X721250Y635000D03*
X698750Y635000D03*
X721250Y605000D03*
X698750Y605000D03*
D12*
X825000Y460000D03*
X825000Y485000D03*
D14*
X774500Y633000D03*
X765000Y633000D03*
X755500Y633000D03*
X755500Y607000D03*
X774500Y607000D03*
D15*
X695000Y440000D03*
D16*
X675000Y440000D03*
D17*
X809000Y590000D03*
D18*
X815250Y569500D03*
X831250Y569500D03*
X815250Y610500D03*
X831250Y610500D03*
D19*
X738500Y580000D03*
X721500Y580000D03*
X653500Y580000D03*
X636500Y580000D03*
X608500Y660000D03*
X591500Y660000D03*
X811500Y660000D03*
X828500Y660000D03*
X811500Y635000D03*
X828500Y635000D03*
D20*
X675000Y722500D03*
D21*
X700000Y717500D03*
D20*
X745000Y722500D03*
D21*
X720000Y717500D03*
D12*
X825000Y510000D03*
D22*
X773925Y431000D03*
X773925Y446000D03*
X773925Y461000D03*
X773925Y476000D03*
X773925Y491000D03*
X773925Y506000D03*
X773925Y521000D03*
X773925Y536000D03*
X773925Y551000D03*
X596075Y551000D03*
X596075Y536000D03*
X596075Y521000D03*
X596075Y506000D03*
X596075Y491000D03*
X596075Y476000D03*
X596075Y461000D03*
X596075Y446000D03*
X596075Y431000D03*
D23*
X669125Y499050D03*
D28*
X797300Y550000D03*
D25*
X822700Y550000D03*
D26*
X682500Y580000D03*
X697500Y580000D03*
D29*
X595000Y632700D03*
D25*
X595000Y607300D03*
D19*
X591500Y580000D03*
X608500Y580000D03*
M02*
