M48
;GenerationSoftware,Autodesk,EAGLE,9.0.1*%
;CreationDate,2018-06-28T08:46:30Z*%
FMAT,2
ICI,OFF
METRIC,TZ,000.000
T4C0.350
T3C0.600
T2C0.813
T1C1.100
%
G90
M71
T1
X69500Y44000
X74500Y38000
X72500Y38000
X39500Y44000
X41500Y44000
X46500Y38000
X11500Y44000
X44500Y38000
X13500Y44000
X16500Y38000
X67500Y44000
X18500Y38000
T2
X54270Y55000
X31500Y63270
X31500Y60730
X62270Y27000
X59730Y27000
X82500Y21270
X79730Y55000
X82270Y55000
X59500Y63270
X59500Y60730
X34270Y27000
X6270Y27000
X3730Y27000
X26500Y18730
X26500Y21270
X82500Y18730
X23730Y55000
X26270Y55000
X3500Y63270
X3500Y60730
X31730Y27000
X54500Y18730
X54500Y21270
X51730Y55000
T3
X46500Y66000
X18500Y66000
X11500Y16000
X13000Y27500
X13000Y39000
X17000Y54500
X45000Y54500
X39500Y16000
X41000Y27500
X73000Y54500
X73000Y43000
X17000Y43000
X74500Y66000
X45000Y43000
X41000Y39000
X69000Y39000
X69000Y27500
X67500Y16000
T4
X52500Y17500
X45000Y18500
X45000Y17500
X50500Y18500
X50500Y19500
X46000Y22500
X46000Y21500
X46000Y20500
X32500Y20000
X35000Y34500
X39500Y18500
X31000Y20000
X52500Y37500
X48000Y22500
X52500Y33000
X33500Y50500
X33500Y54500
X33500Y47500
X38500Y64500
X33500Y64500
X41000Y63500
X41000Y64500
X35500Y63500
X35500Y62500
X40000Y59500
X40000Y60500
X40000Y61500
X53500Y62000
X51000Y47500
X46500Y63500
X24500Y33000
X33500Y44500
X38000Y59500
X33500Y49000
X80500Y31500
X80500Y27500
X24500Y31500
X24500Y27500
X24500Y34500
X80500Y34500
X75500Y17500
X80500Y17500
X73000Y18500
X73000Y17500
X78500Y18500
X78500Y19500
X74000Y22500
X74000Y21500
X74000Y20500
X60500Y20000
X63000Y34500
X67500Y18500
X59000Y20000
X80500Y37500
X76000Y22500
X80500Y33000
X61500Y50500
X61500Y54500
X19500Y17500
X24500Y17500
X17000Y18500
X61500Y47500
X66500Y64500
X61500Y64500
X69000Y63500
X69000Y64500
X63500Y63500
X63500Y62500
X68000Y59500
X68000Y60500
X68000Y61500
X17000Y17500
X79000Y47500
X74500Y63500
X83000Y62000
X61500Y44500
X66000Y59500
X61500Y49000
X22500Y18500
X22500Y19500
X18000Y22500
X18000Y21500
X18000Y20500
X4500Y20000
X7000Y34500
X11500Y18500
X3000Y20000
X24500Y37500
X20000Y22500
X5500Y50500
X5500Y54500
X5500Y47500
X55000Y62000
X10500Y64500
X5500Y64500
X13000Y63500
X13000Y64500
X7500Y63500
X7500Y62500
X12000Y59500
X12000Y60500
X12000Y61500
X25500Y62000
X23000Y47500
X18500Y63500
X27000Y62000
X5500Y44500
X10000Y59500
X5500Y49000
X52500Y31500
X52500Y27500
X52500Y34500
X47500Y17500
X81500Y62000
M30