G04 EAGLE Gerber X2 export*
G75*
%MOMM*%
%FSLAX34Y34*%
%LPD*%
%AMOC8*
5,1,8,0,0,1.08239X$1,22.5*%
G01*
%ADD10R,0.550000X1.200000*%
%ADD11R,1.500000X0.900000*%
%ADD12R,1.500000X7.500000*%
%ADD13R,1.000000X6.500000*%
%ADD14R,0.600000X1.100000*%
%ADD15C,1.650000*%
%ADD16R,1.650000X1.650000*%
%ADD17R,1.000000X1.100000*%
%ADD18R,1.100000X1.000000*%
%ADD19C,1.500000*%
%ADD20R,2.000000X1.300000*%
%ADD21R,0.300000X1.000000*%
%ADD22C,0.750000*%
%ADD23C,0.700000*%
%ADD24R,2.000000X2.000000*%
%ADD25C,0.600000*%
%ADD26C,0.304800*%
%ADD27C,0.152400*%

G36*
X215020Y274242D02*
X215020Y274242D01*
X215039Y274240D01*
X215141Y274262D01*
X215243Y274279D01*
X215260Y274288D01*
X215280Y274292D01*
X215369Y274345D01*
X215460Y274394D01*
X215474Y274408D01*
X215491Y274418D01*
X215558Y274497D01*
X215630Y274572D01*
X215638Y274590D01*
X215651Y274605D01*
X215690Y274701D01*
X215733Y274795D01*
X215735Y274815D01*
X215743Y274833D01*
X215761Y275000D01*
X215761Y483245D01*
X215751Y483310D01*
X215750Y483375D01*
X215727Y483455D01*
X215722Y483488D01*
X215712Y483505D01*
X215703Y483537D01*
X215672Y483612D01*
X215637Y483667D01*
X215612Y483727D01*
X215560Y483793D01*
X215542Y483821D01*
X215527Y483833D01*
X215507Y483858D01*
X213858Y485507D01*
X213805Y485545D01*
X213759Y485591D01*
X213685Y485632D01*
X213659Y485651D01*
X213640Y485656D01*
X213612Y485672D01*
X213537Y485703D01*
X213473Y485718D01*
X213412Y485743D01*
X213329Y485752D01*
X213297Y485759D01*
X213278Y485758D01*
X213245Y485761D01*
X6755Y485761D01*
X6690Y485751D01*
X6625Y485750D01*
X6545Y485727D01*
X6512Y485722D01*
X6495Y485712D01*
X6463Y485703D01*
X6388Y485672D01*
X6333Y485637D01*
X6273Y485612D01*
X6207Y485560D01*
X6179Y485542D01*
X6167Y485527D01*
X6142Y485507D01*
X4493Y483858D01*
X4455Y483805D01*
X4409Y483758D01*
X4369Y483685D01*
X4349Y483659D01*
X4344Y483640D01*
X4328Y483611D01*
X4297Y483536D01*
X4282Y483473D01*
X4257Y483412D01*
X4248Y483329D01*
X4241Y483297D01*
X4242Y483278D01*
X4239Y483245D01*
X4239Y275000D01*
X4242Y274980D01*
X4240Y274961D01*
X4262Y274859D01*
X4279Y274757D01*
X4288Y274740D01*
X4292Y274720D01*
X4345Y274631D01*
X4394Y274540D01*
X4408Y274526D01*
X4418Y274509D01*
X4497Y274442D01*
X4572Y274371D01*
X4590Y274362D01*
X4605Y274349D01*
X4701Y274310D01*
X4795Y274267D01*
X4815Y274265D01*
X4833Y274257D01*
X5000Y274239D01*
X215000Y274239D01*
X215020Y274242D01*
G37*
G36*
X80020Y84242D02*
X80020Y84242D01*
X80039Y84240D01*
X80141Y84262D01*
X80243Y84279D01*
X80260Y84288D01*
X80280Y84292D01*
X80369Y84345D01*
X80460Y84394D01*
X80474Y84408D01*
X80491Y84418D01*
X80558Y84497D01*
X80630Y84572D01*
X80638Y84590D01*
X80651Y84605D01*
X80690Y84701D01*
X80733Y84795D01*
X80735Y84815D01*
X80743Y84833D01*
X80761Y85000D01*
X80761Y89685D01*
X85315Y94239D01*
X106976Y94239D01*
X106996Y94242D01*
X107015Y94240D01*
X107117Y94262D01*
X107219Y94279D01*
X107236Y94288D01*
X107256Y94292D01*
X107345Y94345D01*
X107436Y94394D01*
X107450Y94408D01*
X107467Y94418D01*
X107534Y94497D01*
X107606Y94572D01*
X107614Y94590D01*
X107627Y94605D01*
X107666Y94701D01*
X107709Y94795D01*
X107711Y94815D01*
X107719Y94833D01*
X107737Y95000D01*
X107737Y110000D01*
X107734Y110020D01*
X107736Y110039D01*
X107714Y110141D01*
X107698Y110243D01*
X107688Y110260D01*
X107684Y110280D01*
X107631Y110369D01*
X107582Y110460D01*
X107568Y110474D01*
X107558Y110491D01*
X107535Y110510D01*
X107606Y110584D01*
X107614Y110602D01*
X107627Y110617D01*
X107666Y110713D01*
X107709Y110807D01*
X107711Y110827D01*
X107719Y110845D01*
X107737Y111012D01*
X107737Y117238D01*
X107734Y117258D01*
X107736Y117277D01*
X107714Y117379D01*
X107698Y117481D01*
X107688Y117498D01*
X107684Y117518D01*
X107631Y117607D01*
X107582Y117698D01*
X107568Y117712D01*
X107558Y117729D01*
X107479Y117796D01*
X107404Y117868D01*
X107386Y117876D01*
X107371Y117889D01*
X107275Y117928D01*
X107181Y117971D01*
X107161Y117973D01*
X107143Y117981D01*
X106976Y117999D01*
X103023Y117999D01*
X103023Y124238D01*
X103020Y124258D01*
X103022Y124277D01*
X103000Y124379D01*
X102983Y124481D01*
X102974Y124498D01*
X102970Y124518D01*
X102917Y124607D01*
X102868Y124698D01*
X102854Y124712D01*
X102844Y124729D01*
X102765Y124796D01*
X102690Y124867D01*
X102672Y124876D01*
X102657Y124889D01*
X102561Y124928D01*
X102467Y124971D01*
X102447Y124973D01*
X102429Y124981D01*
X102262Y124999D01*
X101499Y124999D01*
X101499Y125001D01*
X102262Y125001D01*
X102282Y125004D01*
X102301Y125002D01*
X102403Y125024D01*
X102505Y125041D01*
X102522Y125050D01*
X102542Y125054D01*
X102631Y125107D01*
X102722Y125156D01*
X102736Y125170D01*
X102753Y125180D01*
X102820Y125259D01*
X102891Y125334D01*
X102900Y125352D01*
X102913Y125367D01*
X102952Y125463D01*
X102995Y125557D01*
X102997Y125577D01*
X103005Y125595D01*
X103023Y125762D01*
X103023Y132001D01*
X106976Y132001D01*
X106996Y132004D01*
X107015Y132002D01*
X107117Y132024D01*
X107219Y132040D01*
X107236Y132050D01*
X107256Y132054D01*
X107345Y132107D01*
X107436Y132156D01*
X107450Y132170D01*
X107467Y132180D01*
X107534Y132259D01*
X107606Y132334D01*
X107614Y132352D01*
X107627Y132367D01*
X107666Y132463D01*
X107709Y132557D01*
X107711Y132577D01*
X107719Y132595D01*
X107737Y132762D01*
X107737Y135937D01*
X109286Y137486D01*
X118500Y146700D01*
X118542Y146758D01*
X118591Y146810D01*
X118613Y146857D01*
X118643Y146899D01*
X118664Y146968D01*
X118695Y147033D01*
X118700Y147085D01*
X118716Y147135D01*
X118714Y147206D01*
X118722Y147277D01*
X118711Y147328D01*
X118709Y147380D01*
X118685Y147448D01*
X118669Y147518D01*
X118643Y147563D01*
X118625Y147611D01*
X118580Y147667D01*
X118543Y147729D01*
X118504Y147763D01*
X118471Y147803D01*
X118411Y147842D01*
X118356Y147889D01*
X118308Y147908D01*
X118264Y147936D01*
X118195Y147954D01*
X118128Y147981D01*
X118057Y147989D01*
X118026Y147997D01*
X118002Y147995D01*
X117961Y147999D01*
X112878Y147999D01*
X111999Y148878D01*
X111999Y161122D01*
X112315Y161438D01*
X112357Y161496D01*
X112407Y161548D01*
X112429Y161595D01*
X112459Y161637D01*
X112480Y161706D01*
X112510Y161771D01*
X112516Y161823D01*
X112531Y161873D01*
X112529Y161944D01*
X112537Y162015D01*
X112526Y162066D01*
X112525Y162118D01*
X112500Y162186D01*
X112485Y162256D01*
X112458Y162301D01*
X112440Y162349D01*
X112396Y162405D01*
X112359Y162467D01*
X112319Y162501D01*
X112287Y162541D01*
X112227Y162580D01*
X112172Y162627D01*
X112124Y162646D01*
X112080Y162674D01*
X112011Y162692D01*
X111944Y162719D01*
X111873Y162727D01*
X111841Y162735D01*
X111818Y162733D01*
X111777Y162737D01*
X108223Y162737D01*
X108152Y162726D01*
X108080Y162724D01*
X108031Y162706D01*
X107980Y162698D01*
X107917Y162664D01*
X107849Y162639D01*
X107809Y162607D01*
X107763Y162582D01*
X107713Y162530D01*
X107657Y162486D01*
X107629Y162442D01*
X107593Y162404D01*
X107563Y162339D01*
X107524Y162279D01*
X107512Y162228D01*
X107490Y162181D01*
X107482Y162110D01*
X107464Y162040D01*
X107468Y161988D01*
X107463Y161937D01*
X107478Y161866D01*
X107483Y161795D01*
X107504Y161747D01*
X107515Y161696D01*
X107552Y161635D01*
X107580Y161569D01*
X107625Y161513D01*
X107641Y161485D01*
X107659Y161470D01*
X107685Y161438D01*
X108001Y161122D01*
X108001Y148878D01*
X107122Y147999D01*
X106515Y147999D01*
X106424Y147985D01*
X106334Y147977D01*
X106304Y147965D01*
X106272Y147960D01*
X106191Y147917D01*
X106107Y147881D01*
X106075Y147855D01*
X106054Y147844D01*
X106032Y147821D01*
X105976Y147776D01*
X88974Y130774D01*
X88921Y130700D01*
X88861Y130630D01*
X88849Y130600D01*
X88830Y130574D01*
X88803Y130487D01*
X88769Y130402D01*
X88765Y130361D01*
X88758Y130339D01*
X88759Y130307D01*
X88751Y130235D01*
X88751Y125378D01*
X87851Y124479D01*
X87834Y124477D01*
X87804Y124465D01*
X87772Y124460D01*
X87691Y124417D01*
X87607Y124381D01*
X87575Y124355D01*
X87554Y124344D01*
X87532Y124321D01*
X87476Y124276D01*
X80937Y117737D01*
X69063Y117737D01*
X67737Y119063D01*
X67737Y123738D01*
X67734Y123758D01*
X67736Y123777D01*
X67714Y123879D01*
X67698Y123981D01*
X67688Y123998D01*
X67684Y124018D01*
X67631Y124107D01*
X67582Y124198D01*
X67568Y124212D01*
X67558Y124229D01*
X67479Y124296D01*
X67404Y124368D01*
X67386Y124376D01*
X67371Y124389D01*
X67275Y124428D01*
X67181Y124471D01*
X67161Y124473D01*
X67143Y124481D01*
X66976Y124499D01*
X62128Y124499D01*
X61249Y125378D01*
X61249Y138622D01*
X62128Y139501D01*
X66976Y139501D01*
X66996Y139504D01*
X67015Y139502D01*
X67117Y139524D01*
X67219Y139540D01*
X67236Y139550D01*
X67256Y139554D01*
X67345Y139607D01*
X67436Y139656D01*
X67450Y139670D01*
X67467Y139680D01*
X67534Y139759D01*
X67606Y139834D01*
X67614Y139852D01*
X67627Y139867D01*
X67666Y139963D01*
X67709Y140057D01*
X67711Y140077D01*
X67719Y140095D01*
X67737Y140262D01*
X67737Y140937D01*
X69063Y142263D01*
X83747Y142263D01*
X83838Y142277D01*
X83928Y142285D01*
X83958Y142297D01*
X83990Y142302D01*
X84071Y142345D01*
X84155Y142381D01*
X84187Y142407D01*
X84208Y142418D01*
X84230Y142441D01*
X84286Y142486D01*
X88238Y146438D01*
X88280Y146496D01*
X88329Y146548D01*
X88351Y146595D01*
X88381Y146637D01*
X88402Y146706D01*
X88433Y146771D01*
X88438Y146823D01*
X88454Y146873D01*
X88452Y146944D01*
X88460Y147015D01*
X88449Y147066D01*
X88447Y147118D01*
X88423Y147186D01*
X88407Y147256D01*
X88381Y147301D01*
X88363Y147349D01*
X88318Y147405D01*
X88281Y147467D01*
X88242Y147501D01*
X88209Y147541D01*
X88149Y147580D01*
X88094Y147627D01*
X88046Y147646D01*
X88002Y147674D01*
X87933Y147692D01*
X87866Y147719D01*
X87795Y147727D01*
X87764Y147735D01*
X87740Y147733D01*
X87699Y147737D01*
X79063Y147737D01*
X77737Y149063D01*
X77737Y149238D01*
X77734Y149258D01*
X77736Y149277D01*
X77714Y149379D01*
X77698Y149481D01*
X77688Y149498D01*
X77684Y149518D01*
X77631Y149607D01*
X77582Y149698D01*
X77568Y149712D01*
X77558Y149729D01*
X77479Y149796D01*
X77404Y149868D01*
X77386Y149876D01*
X77371Y149889D01*
X77275Y149928D01*
X77181Y149971D01*
X77161Y149973D01*
X77143Y149981D01*
X76976Y149999D01*
X76374Y149999D01*
X76374Y157387D01*
X76371Y157406D01*
X76373Y157426D01*
X76351Y157528D01*
X76335Y157630D01*
X76325Y157647D01*
X76321Y157667D01*
X76268Y157756D01*
X76219Y157847D01*
X76205Y157861D01*
X76195Y157878D01*
X76116Y157945D01*
X76059Y157999D01*
X76073Y158007D01*
X76087Y158021D01*
X76104Y158031D01*
X76171Y158110D01*
X76243Y158185D01*
X76251Y158203D01*
X76264Y158218D01*
X76303Y158315D01*
X76346Y158408D01*
X76348Y158428D01*
X76356Y158446D01*
X76374Y158613D01*
X76374Y166001D01*
X77485Y166001D01*
X77576Y166015D01*
X77666Y166023D01*
X77696Y166035D01*
X77728Y166040D01*
X77809Y166083D01*
X77893Y166119D01*
X77925Y166145D01*
X77946Y166156D01*
X77968Y166179D01*
X78024Y166224D01*
X88000Y176200D01*
X88042Y176258D01*
X88091Y176310D01*
X88113Y176357D01*
X88143Y176399D01*
X88164Y176468D01*
X88195Y176533D01*
X88200Y176585D01*
X88216Y176635D01*
X88214Y176706D01*
X88222Y176777D01*
X88211Y176828D01*
X88209Y176880D01*
X88185Y176948D01*
X88169Y177018D01*
X88143Y177063D01*
X88125Y177111D01*
X88080Y177167D01*
X88043Y177229D01*
X88004Y177263D01*
X87971Y177303D01*
X87911Y177342D01*
X87856Y177389D01*
X87808Y177408D01*
X87764Y177436D01*
X87695Y177454D01*
X87628Y177481D01*
X87557Y177489D01*
X87526Y177497D01*
X87502Y177495D01*
X87461Y177499D01*
X77378Y177499D01*
X76499Y178378D01*
X76499Y188622D01*
X77378Y189501D01*
X93622Y189501D01*
X94501Y188622D01*
X94501Y187286D01*
X94504Y187266D01*
X94502Y187247D01*
X94524Y187145D01*
X94540Y187043D01*
X94550Y187026D01*
X94554Y187006D01*
X94607Y186917D01*
X94656Y186826D01*
X94670Y186812D01*
X94680Y186795D01*
X94759Y186728D01*
X94834Y186656D01*
X94852Y186648D01*
X94867Y186635D01*
X94963Y186596D01*
X95057Y186553D01*
X95077Y186551D01*
X95095Y186543D01*
X95262Y186525D01*
X101932Y186525D01*
X102022Y186539D01*
X102113Y186547D01*
X102143Y186559D01*
X102175Y186564D01*
X102255Y186607D01*
X102339Y186643D01*
X102371Y186669D01*
X102392Y186680D01*
X102414Y186703D01*
X102470Y186748D01*
X121247Y205525D01*
X176344Y205525D01*
X176434Y205539D01*
X176525Y205547D01*
X176555Y205559D01*
X176587Y205564D01*
X176668Y205607D01*
X176752Y205643D01*
X176784Y205669D01*
X176805Y205680D01*
X176827Y205703D01*
X176883Y205748D01*
X178136Y207001D01*
X181864Y207001D01*
X183117Y205748D01*
X183191Y205695D01*
X183261Y205635D01*
X183291Y205623D01*
X183317Y205604D01*
X183404Y205577D01*
X183489Y205543D01*
X183530Y205539D01*
X183552Y205532D01*
X183584Y205533D01*
X183656Y205525D01*
X196002Y205525D01*
X196117Y205544D01*
X196233Y205561D01*
X196239Y205563D01*
X196245Y205564D01*
X196347Y205619D01*
X196452Y205672D01*
X196457Y205677D01*
X196462Y205680D01*
X196542Y205764D01*
X196624Y205848D01*
X196628Y205854D01*
X196631Y205858D01*
X196639Y205875D01*
X196705Y205995D01*
X197370Y207599D01*
X199901Y210130D01*
X203210Y211501D01*
X206790Y211501D01*
X210099Y210130D01*
X212630Y207599D01*
X214001Y204290D01*
X214001Y200710D01*
X212630Y197401D01*
X210099Y194870D01*
X206790Y193499D01*
X203210Y193499D01*
X199901Y194870D01*
X197370Y197401D01*
X196705Y199005D01*
X196643Y199105D01*
X196584Y199205D01*
X196579Y199209D01*
X196576Y199214D01*
X196485Y199289D01*
X196397Y199365D01*
X196391Y199367D01*
X196386Y199371D01*
X196278Y199413D01*
X196169Y199457D01*
X196161Y199458D01*
X196157Y199459D01*
X196138Y199460D01*
X196002Y199475D01*
X183656Y199475D01*
X183566Y199461D01*
X183475Y199453D01*
X183445Y199441D01*
X183413Y199436D01*
X183332Y199393D01*
X183248Y199357D01*
X183216Y199331D01*
X183195Y199320D01*
X183173Y199297D01*
X183117Y199252D01*
X181864Y197999D01*
X178136Y197999D01*
X176883Y199252D01*
X176809Y199305D01*
X176739Y199365D01*
X176709Y199377D01*
X176683Y199396D01*
X176596Y199423D01*
X176511Y199457D01*
X176470Y199461D01*
X176448Y199468D01*
X176416Y199467D01*
X176344Y199475D01*
X124068Y199475D01*
X123978Y199461D01*
X123887Y199453D01*
X123857Y199441D01*
X123825Y199436D01*
X123745Y199393D01*
X123661Y199357D01*
X123629Y199331D01*
X123608Y199320D01*
X123586Y199297D01*
X123530Y199252D01*
X104753Y180475D01*
X95262Y180475D01*
X95242Y180472D01*
X95223Y180474D01*
X95121Y180452D01*
X95019Y180436D01*
X95002Y180426D01*
X94982Y180422D01*
X94893Y180369D01*
X94802Y180320D01*
X94788Y180306D01*
X94771Y180296D01*
X94704Y180217D01*
X94632Y180142D01*
X94624Y180124D01*
X94611Y180109D01*
X94572Y180013D01*
X94529Y179919D01*
X94527Y179899D01*
X94519Y179881D01*
X94501Y179714D01*
X94501Y178253D01*
X94490Y178229D01*
X94484Y178177D01*
X94469Y178128D01*
X94471Y178056D01*
X94463Y177985D01*
X94474Y177934D01*
X94475Y177882D01*
X94500Y177814D01*
X94515Y177744D01*
X94542Y177700D01*
X94559Y177651D01*
X94604Y177595D01*
X94641Y177533D01*
X94681Y177499D01*
X94713Y177459D01*
X94773Y177420D01*
X94828Y177373D01*
X94876Y177354D01*
X94920Y177326D01*
X94989Y177308D01*
X95056Y177281D01*
X95127Y177273D01*
X95158Y177265D01*
X95182Y177267D01*
X95223Y177263D01*
X108747Y177263D01*
X108838Y177277D01*
X108928Y177285D01*
X108958Y177297D01*
X108990Y177302D01*
X109071Y177345D01*
X109155Y177381D01*
X109187Y177407D01*
X109208Y177418D01*
X109230Y177441D01*
X109286Y177486D01*
X124063Y192263D01*
X140937Y192263D01*
X152263Y180937D01*
X152263Y173378D01*
X152264Y173371D01*
X152264Y173369D01*
X152265Y173362D01*
X152274Y173307D01*
X152276Y173236D01*
X152294Y173187D01*
X152302Y173135D01*
X152336Y173072D01*
X152361Y173005D01*
X152393Y172964D01*
X152418Y172918D01*
X152469Y172869D01*
X152514Y172813D01*
X152558Y172784D01*
X152596Y172749D01*
X152661Y172718D01*
X152721Y172680D01*
X152772Y172667D01*
X152819Y172645D01*
X152890Y172637D01*
X152960Y172620D01*
X153012Y172624D01*
X153063Y172618D01*
X153134Y172633D01*
X153205Y172639D01*
X153253Y172659D01*
X153304Y172670D01*
X153365Y172707D01*
X153431Y172735D01*
X153487Y172780D01*
X153515Y172796D01*
X153530Y172814D01*
X153562Y172840D01*
X157422Y176700D01*
X157464Y176758D01*
X157513Y176810D01*
X157535Y176857D01*
X157566Y176899D01*
X157587Y176968D01*
X157617Y177033D01*
X157623Y177085D01*
X157638Y177135D01*
X157636Y177206D01*
X157644Y177277D01*
X157633Y177328D01*
X157632Y177380D01*
X157607Y177448D01*
X157592Y177518D01*
X157565Y177562D01*
X157547Y177611D01*
X157502Y177667D01*
X157466Y177729D01*
X157426Y177763D01*
X157394Y177803D01*
X157333Y177842D01*
X157279Y177889D01*
X157230Y177908D01*
X157187Y177936D01*
X157117Y177954D01*
X157051Y177981D01*
X156979Y177989D01*
X156948Y177997D01*
X156925Y177995D01*
X156884Y177999D01*
X155878Y177999D01*
X154999Y178878D01*
X154999Y191122D01*
X155878Y192001D01*
X167122Y192001D01*
X168001Y191122D01*
X168001Y178878D01*
X167122Y177999D01*
X165286Y177999D01*
X165266Y177996D01*
X165247Y177998D01*
X165145Y177976D01*
X165043Y177960D01*
X165026Y177950D01*
X165006Y177946D01*
X164917Y177893D01*
X164826Y177844D01*
X164812Y177830D01*
X164795Y177820D01*
X164728Y177741D01*
X164656Y177666D01*
X164648Y177648D01*
X164635Y177633D01*
X164596Y177537D01*
X164553Y177443D01*
X164551Y177423D01*
X164543Y177405D01*
X164525Y177238D01*
X164525Y175262D01*
X164528Y175242D01*
X164526Y175223D01*
X164548Y175121D01*
X164564Y175019D01*
X164574Y175002D01*
X164578Y174982D01*
X164631Y174893D01*
X164680Y174802D01*
X164694Y174788D01*
X164704Y174771D01*
X164783Y174704D01*
X164858Y174632D01*
X164876Y174624D01*
X164891Y174611D01*
X164987Y174572D01*
X165081Y174529D01*
X165101Y174527D01*
X165119Y174519D01*
X165286Y174501D01*
X166864Y174501D01*
X169501Y171864D01*
X169501Y170092D01*
X169515Y170002D01*
X169523Y169911D01*
X169535Y169881D01*
X169540Y169849D01*
X169583Y169769D01*
X169619Y169685D01*
X169645Y169653D01*
X169656Y169632D01*
X169679Y169610D01*
X169724Y169554D01*
X174525Y164753D01*
X174525Y157762D01*
X174528Y157742D01*
X174526Y157723D01*
X174548Y157621D01*
X174564Y157519D01*
X174574Y157502D01*
X174578Y157482D01*
X174631Y157393D01*
X174680Y157302D01*
X174694Y157288D01*
X174704Y157271D01*
X174783Y157204D01*
X174858Y157132D01*
X174876Y157124D01*
X174891Y157111D01*
X174987Y157072D01*
X175081Y157029D01*
X175101Y157027D01*
X175119Y157019D01*
X175286Y157001D01*
X177122Y157001D01*
X178001Y156122D01*
X178001Y143878D01*
X177122Y142999D01*
X165878Y142999D01*
X164999Y143878D01*
X164999Y156122D01*
X165878Y157001D01*
X167714Y157001D01*
X167734Y157004D01*
X167753Y157002D01*
X167855Y157024D01*
X167957Y157040D01*
X167974Y157050D01*
X167994Y157054D01*
X168083Y157107D01*
X168174Y157156D01*
X168188Y157170D01*
X168205Y157180D01*
X168272Y157259D01*
X168344Y157334D01*
X168352Y157352D01*
X168365Y157367D01*
X168404Y157463D01*
X168447Y157557D01*
X168449Y157577D01*
X168457Y157595D01*
X168475Y157762D01*
X168475Y161932D01*
X168461Y162022D01*
X168453Y162113D01*
X168441Y162143D01*
X168436Y162175D01*
X168393Y162255D01*
X168357Y162339D01*
X168331Y162371D01*
X168320Y162392D01*
X168297Y162414D01*
X168252Y162470D01*
X165446Y165276D01*
X165372Y165329D01*
X165303Y165389D01*
X165273Y165401D01*
X165246Y165420D01*
X165159Y165447D01*
X165075Y165481D01*
X165034Y165485D01*
X165011Y165492D01*
X164979Y165491D01*
X164908Y165499D01*
X163136Y165499D01*
X160499Y168136D01*
X160499Y169384D01*
X160488Y169455D01*
X160486Y169526D01*
X160468Y169575D01*
X160460Y169627D01*
X160426Y169690D01*
X160401Y169757D01*
X160369Y169798D01*
X160344Y169844D01*
X160292Y169893D01*
X160248Y169949D01*
X160204Y169977D01*
X160166Y170013D01*
X160101Y170044D01*
X160041Y170082D01*
X159990Y170095D01*
X159943Y170117D01*
X159872Y170125D01*
X159802Y170142D01*
X159750Y170138D01*
X159699Y170144D01*
X159628Y170129D01*
X159557Y170123D01*
X159509Y170103D01*
X159458Y170092D01*
X159397Y170055D01*
X159331Y170027D01*
X159275Y169982D01*
X159247Y169966D01*
X159232Y169948D01*
X159200Y169922D01*
X158248Y168970D01*
X158195Y168896D01*
X158135Y168827D01*
X158123Y168797D01*
X158104Y168770D01*
X158077Y168683D01*
X158043Y168599D01*
X158039Y168558D01*
X158032Y168535D01*
X158033Y168503D01*
X158025Y168432D01*
X158025Y164913D01*
X158039Y164823D01*
X158047Y164732D01*
X158059Y164702D01*
X158064Y164670D01*
X158107Y164590D01*
X158143Y164506D01*
X158169Y164474D01*
X158180Y164453D01*
X158203Y164431D01*
X158248Y164375D01*
X159001Y163622D01*
X159001Y151378D01*
X158122Y150499D01*
X153024Y150499D01*
X153004Y150496D01*
X152985Y150498D01*
X152883Y150476D01*
X152781Y150460D01*
X152764Y150450D01*
X152744Y150446D01*
X152655Y150393D01*
X152564Y150344D01*
X152550Y150330D01*
X152533Y150320D01*
X152466Y150241D01*
X152394Y150166D01*
X152386Y150148D01*
X152373Y150133D01*
X152334Y150037D01*
X152291Y149943D01*
X152289Y149923D01*
X152281Y149905D01*
X152263Y149738D01*
X152263Y140262D01*
X152266Y140242D01*
X152264Y140223D01*
X152286Y140121D01*
X152302Y140019D01*
X152312Y140002D01*
X152316Y139982D01*
X152369Y139893D01*
X152418Y139802D01*
X152432Y139788D01*
X152442Y139771D01*
X152521Y139704D01*
X152596Y139632D01*
X152614Y139624D01*
X152629Y139611D01*
X152725Y139572D01*
X152819Y139529D01*
X152839Y139527D01*
X152857Y139519D01*
X153024Y139501D01*
X158122Y139501D01*
X159001Y138622D01*
X159001Y138024D01*
X159004Y138004D01*
X159002Y137985D01*
X159024Y137883D01*
X159040Y137781D01*
X159050Y137764D01*
X159054Y137744D01*
X159107Y137655D01*
X159156Y137564D01*
X159170Y137550D01*
X159180Y137533D01*
X159259Y137466D01*
X159334Y137394D01*
X159352Y137386D01*
X159367Y137373D01*
X159463Y137334D01*
X159557Y137291D01*
X159577Y137289D01*
X159595Y137281D01*
X159762Y137263D01*
X160582Y137263D01*
X160672Y137277D01*
X160763Y137285D01*
X160793Y137297D01*
X160825Y137302D01*
X160906Y137345D01*
X160990Y137381D01*
X161022Y137407D01*
X161043Y137418D01*
X161065Y137441D01*
X161121Y137486D01*
X163136Y139501D01*
X166864Y139501D01*
X169501Y136864D01*
X169501Y135092D01*
X169515Y135002D01*
X169523Y134911D01*
X169535Y134881D01*
X169540Y134849D01*
X169583Y134769D01*
X169619Y134685D01*
X169645Y134653D01*
X169656Y134632D01*
X169679Y134610D01*
X169724Y134554D01*
X173530Y130748D01*
X173604Y130695D01*
X173673Y130635D01*
X173703Y130623D01*
X173730Y130604D01*
X173817Y130577D01*
X173901Y130543D01*
X173942Y130539D01*
X173965Y130532D01*
X173997Y130533D01*
X174068Y130525D01*
X176272Y130525D01*
X176343Y130536D01*
X176415Y130538D01*
X176464Y130556D01*
X176515Y130564D01*
X176579Y130598D01*
X176646Y130623D01*
X176687Y130655D01*
X176733Y130680D01*
X176782Y130732D01*
X176838Y130776D01*
X176866Y130820D01*
X176902Y130858D01*
X176932Y130923D01*
X176971Y130983D01*
X176984Y131034D01*
X177006Y131081D01*
X177013Y131152D01*
X177031Y131222D01*
X177027Y131274D01*
X177033Y131325D01*
X177017Y131396D01*
X177012Y131467D01*
X176992Y131515D01*
X176980Y131566D01*
X176944Y131627D01*
X176916Y131693D01*
X176871Y131749D01*
X176854Y131777D01*
X176836Y131792D01*
X176811Y131824D01*
X175499Y133136D01*
X175499Y136864D01*
X178136Y139501D01*
X179908Y139501D01*
X179998Y139515D01*
X180089Y139523D01*
X180119Y139535D01*
X180151Y139540D01*
X180231Y139583D01*
X180315Y139619D01*
X180347Y139645D01*
X180368Y139656D01*
X180390Y139679D01*
X180446Y139724D01*
X181247Y140525D01*
X196002Y140525D01*
X196117Y140544D01*
X196233Y140561D01*
X196239Y140563D01*
X196245Y140564D01*
X196347Y140619D01*
X196452Y140672D01*
X196457Y140677D01*
X196462Y140680D01*
X196542Y140764D01*
X196624Y140848D01*
X196628Y140854D01*
X196631Y140858D01*
X196639Y140875D01*
X196705Y140995D01*
X197370Y142599D01*
X199901Y145130D01*
X203210Y146501D01*
X206790Y146501D01*
X210099Y145130D01*
X212630Y142599D01*
X214001Y139290D01*
X214001Y135710D01*
X212630Y132401D01*
X210099Y129870D01*
X206790Y128499D01*
X203210Y128499D01*
X202595Y128754D01*
X202500Y128776D01*
X202407Y128805D01*
X202381Y128804D01*
X202355Y128810D01*
X202259Y128801D01*
X202161Y128798D01*
X202137Y128789D01*
X202111Y128787D01*
X202021Y128747D01*
X201930Y128714D01*
X201910Y128698D01*
X201886Y128687D01*
X201814Y128621D01*
X201738Y128560D01*
X201724Y128538D01*
X201705Y128521D01*
X201658Y128435D01*
X201605Y128353D01*
X201599Y128328D01*
X201586Y128305D01*
X201569Y128209D01*
X201545Y128115D01*
X201547Y128089D01*
X201542Y128063D01*
X201557Y127966D01*
X201564Y127870D01*
X201574Y127846D01*
X201578Y127820D01*
X201622Y127733D01*
X201660Y127643D01*
X201681Y127618D01*
X201690Y127600D01*
X201713Y127577D01*
X201765Y127512D01*
X208025Y121253D01*
X208025Y113998D01*
X208044Y113883D01*
X208061Y113767D01*
X208063Y113761D01*
X208064Y113755D01*
X208119Y113653D01*
X208172Y113548D01*
X208177Y113543D01*
X208180Y113538D01*
X208264Y113458D01*
X208348Y113376D01*
X208354Y113372D01*
X208358Y113369D01*
X208375Y113361D01*
X208495Y113295D01*
X210099Y112630D01*
X212630Y110099D01*
X214001Y106790D01*
X214001Y103210D01*
X212630Y99901D01*
X210099Y97370D01*
X206790Y95999D01*
X203210Y95999D01*
X199901Y97370D01*
X197370Y99901D01*
X195999Y103210D01*
X195999Y106790D01*
X196259Y107418D01*
X196286Y107533D01*
X196315Y107653D01*
X196315Y107655D01*
X196315Y107657D01*
X196304Y107776D01*
X196293Y107898D01*
X196292Y107900D01*
X196292Y107902D01*
X196243Y108013D01*
X196194Y108123D01*
X196193Y108125D01*
X196192Y108127D01*
X196111Y108215D01*
X196029Y108305D01*
X196027Y108306D01*
X196026Y108308D01*
X195920Y108366D01*
X195814Y108425D01*
X195812Y108425D01*
X195810Y108426D01*
X195690Y108448D01*
X195572Y108470D01*
X195570Y108470D01*
X195568Y108470D01*
X195449Y108453D01*
X195329Y108436D01*
X195327Y108435D01*
X195325Y108434D01*
X195318Y108431D01*
X195175Y108368D01*
X194772Y108136D01*
X194263Y107999D01*
X190023Y107999D01*
X190023Y113477D01*
X196001Y113477D01*
X196001Y110568D01*
X196012Y110497D01*
X196014Y110425D01*
X196032Y110376D01*
X196040Y110325D01*
X196074Y110261D01*
X196099Y110194D01*
X196131Y110153D01*
X196156Y110107D01*
X196208Y110058D01*
X196252Y110002D01*
X196296Y109974D01*
X196334Y109938D01*
X196399Y109908D01*
X196459Y109869D01*
X196510Y109856D01*
X196557Y109834D01*
X196628Y109826D01*
X196698Y109809D01*
X196750Y109813D01*
X196801Y109807D01*
X196872Y109823D01*
X196943Y109828D01*
X196991Y109848D01*
X197042Y109860D01*
X197103Y109896D01*
X197169Y109924D01*
X197225Y109969D01*
X197253Y109986D01*
X197268Y110004D01*
X197300Y110029D01*
X199901Y112630D01*
X201505Y113295D01*
X201605Y113357D01*
X201705Y113416D01*
X201709Y113421D01*
X201714Y113424D01*
X201789Y113515D01*
X201865Y113603D01*
X201867Y113609D01*
X201871Y113614D01*
X201913Y113722D01*
X201957Y113831D01*
X201958Y113839D01*
X201959Y113843D01*
X201960Y113862D01*
X201975Y113998D01*
X201975Y118432D01*
X201961Y118522D01*
X201953Y118613D01*
X201941Y118643D01*
X201936Y118675D01*
X201893Y118755D01*
X201857Y118839D01*
X201831Y118871D01*
X201820Y118892D01*
X201797Y118914D01*
X201752Y118970D01*
X196470Y124252D01*
X196396Y124305D01*
X196327Y124365D01*
X196297Y124377D01*
X196270Y124396D01*
X196183Y124423D01*
X196099Y124457D01*
X196058Y124461D01*
X196035Y124468D01*
X196003Y124467D01*
X195932Y124475D01*
X171247Y124475D01*
X165446Y130276D01*
X165372Y130329D01*
X165303Y130389D01*
X165273Y130401D01*
X165246Y130420D01*
X165159Y130447D01*
X165075Y130481D01*
X165034Y130485D01*
X165011Y130492D01*
X164979Y130491D01*
X164908Y130499D01*
X163024Y130499D01*
X163004Y130496D01*
X162985Y130498D01*
X162883Y130476D01*
X162781Y130460D01*
X162764Y130450D01*
X162744Y130446D01*
X162655Y130393D01*
X162564Y130344D01*
X162550Y130330D01*
X162533Y130320D01*
X162466Y130241D01*
X162394Y130166D01*
X162386Y130148D01*
X162373Y130133D01*
X162334Y130037D01*
X162291Y129943D01*
X162289Y129923D01*
X162281Y129905D01*
X162263Y129738D01*
X162263Y126253D01*
X162277Y126162D01*
X162285Y126072D01*
X162297Y126042D01*
X162302Y126010D01*
X162345Y125929D01*
X162381Y125845D01*
X162407Y125813D01*
X162418Y125792D01*
X162441Y125770D01*
X162486Y125714D01*
X165714Y122486D01*
X165788Y122433D01*
X165858Y122373D01*
X165888Y122361D01*
X165914Y122342D01*
X166001Y122315D01*
X166086Y122281D01*
X166127Y122277D01*
X166149Y122270D01*
X166181Y122271D01*
X166253Y122263D01*
X175937Y122263D01*
X176476Y121724D01*
X176550Y121671D01*
X176620Y121611D01*
X176650Y121599D01*
X176676Y121580D01*
X176763Y121553D01*
X176848Y121519D01*
X176889Y121515D01*
X176911Y121508D01*
X176943Y121509D01*
X177015Y121501D01*
X177622Y121501D01*
X178501Y120622D01*
X178501Y109378D01*
X177622Y108499D01*
X177015Y108499D01*
X176924Y108485D01*
X176834Y108477D01*
X176804Y108465D01*
X176772Y108460D01*
X176691Y108417D01*
X176607Y108381D01*
X176575Y108355D01*
X176554Y108344D01*
X176532Y108321D01*
X176476Y108276D01*
X175937Y107737D01*
X171253Y107737D01*
X171162Y107723D01*
X171072Y107715D01*
X171042Y107703D01*
X171010Y107698D01*
X170929Y107655D01*
X170845Y107619D01*
X170813Y107593D01*
X170792Y107582D01*
X170770Y107559D01*
X170714Y107514D01*
X164462Y101262D01*
X164409Y101188D01*
X164349Y101118D01*
X164337Y101088D01*
X164318Y101062D01*
X164291Y100975D01*
X164257Y100890D01*
X164253Y100849D01*
X164246Y100827D01*
X164247Y100795D01*
X164239Y100723D01*
X164239Y95000D01*
X164242Y94980D01*
X164240Y94961D01*
X164262Y94859D01*
X164279Y94757D01*
X164288Y94740D01*
X164292Y94720D01*
X164345Y94631D01*
X164394Y94540D01*
X164408Y94526D01*
X164418Y94509D01*
X164497Y94442D01*
X164572Y94371D01*
X164590Y94362D01*
X164605Y94349D01*
X164701Y94310D01*
X164795Y94267D01*
X164815Y94265D01*
X164833Y94257D01*
X165000Y94239D01*
X213245Y94239D01*
X213310Y94249D01*
X213375Y94250D01*
X213455Y94273D01*
X213488Y94279D01*
X213505Y94288D01*
X213536Y94297D01*
X213611Y94328D01*
X213667Y94362D01*
X213727Y94388D01*
X213792Y94440D01*
X213820Y94457D01*
X213833Y94472D01*
X213858Y94493D01*
X215507Y96142D01*
X215545Y96195D01*
X215591Y96241D01*
X215631Y96315D01*
X215651Y96341D01*
X215656Y96360D01*
X215672Y96388D01*
X215703Y96464D01*
X215718Y96527D01*
X215743Y96588D01*
X215752Y96671D01*
X215759Y96703D01*
X215758Y96722D01*
X215761Y96755D01*
X215761Y245000D01*
X215758Y245020D01*
X215760Y245039D01*
X215738Y245141D01*
X215722Y245243D01*
X215712Y245260D01*
X215708Y245280D01*
X215655Y245369D01*
X215606Y245460D01*
X215592Y245474D01*
X215582Y245491D01*
X215503Y245558D01*
X215428Y245630D01*
X215410Y245638D01*
X215395Y245651D01*
X215299Y245690D01*
X215205Y245733D01*
X215185Y245735D01*
X215167Y245743D01*
X215000Y245761D01*
X5000Y245761D01*
X4980Y245758D01*
X4961Y245760D01*
X4859Y245738D01*
X4757Y245722D01*
X4740Y245712D01*
X4720Y245708D01*
X4631Y245655D01*
X4540Y245606D01*
X4526Y245592D01*
X4509Y245582D01*
X4442Y245503D01*
X4371Y245428D01*
X4362Y245410D01*
X4349Y245395D01*
X4310Y245299D01*
X4267Y245205D01*
X4265Y245185D01*
X4257Y245167D01*
X4239Y245000D01*
X4239Y96755D01*
X4249Y96690D01*
X4250Y96625D01*
X4273Y96545D01*
X4279Y96512D01*
X4288Y96495D01*
X4297Y96464D01*
X4328Y96389D01*
X4362Y96333D01*
X4388Y96273D01*
X4440Y96208D01*
X4457Y96180D01*
X4472Y96167D01*
X4493Y96142D01*
X6142Y94493D01*
X6195Y94455D01*
X6242Y94409D01*
X6315Y94368D01*
X6341Y94349D01*
X6360Y94344D01*
X6389Y94328D01*
X6464Y94297D01*
X6528Y94282D01*
X6588Y94257D01*
X6671Y94248D01*
X6703Y94241D01*
X6723Y94242D01*
X6755Y94239D01*
X64685Y94239D01*
X69239Y89685D01*
X69239Y85000D01*
X69242Y84980D01*
X69240Y84961D01*
X69262Y84859D01*
X69279Y84757D01*
X69288Y84740D01*
X69292Y84720D01*
X69345Y84631D01*
X69394Y84540D01*
X69408Y84526D01*
X69418Y84509D01*
X69497Y84442D01*
X69572Y84371D01*
X69590Y84362D01*
X69605Y84349D01*
X69701Y84310D01*
X69795Y84267D01*
X69815Y84265D01*
X69833Y84257D01*
X70000Y84239D01*
X80000Y84239D01*
X80020Y84242D01*
G37*
%LPC*%
G36*
X80378Y320499D02*
X80378Y320499D01*
X79499Y321378D01*
X79499Y331976D01*
X79496Y331996D01*
X79498Y332015D01*
X79476Y332117D01*
X79460Y332219D01*
X79450Y332236D01*
X79446Y332256D01*
X79393Y332345D01*
X79344Y332436D01*
X79330Y332450D01*
X79320Y332467D01*
X79241Y332534D01*
X79166Y332606D01*
X79148Y332614D01*
X79133Y332627D01*
X79037Y332666D01*
X78943Y332709D01*
X78923Y332711D01*
X78905Y332719D01*
X78738Y332737D01*
X59063Y332737D01*
X47737Y344063D01*
X47737Y350686D01*
X47718Y350801D01*
X47701Y350917D01*
X47699Y350923D01*
X47698Y350929D01*
X47643Y351032D01*
X47590Y351136D01*
X47585Y351141D01*
X47582Y351146D01*
X47498Y351226D01*
X47414Y351309D01*
X47408Y351312D01*
X47404Y351316D01*
X47387Y351324D01*
X47267Y351390D01*
X44901Y352370D01*
X42370Y354901D01*
X40999Y358210D01*
X40999Y361790D01*
X42370Y365099D01*
X44901Y367630D01*
X48210Y369001D01*
X51790Y369001D01*
X55099Y367630D01*
X57630Y365099D01*
X59001Y361790D01*
X59001Y358210D01*
X57630Y354901D01*
X55099Y352370D01*
X52733Y351390D01*
X52633Y351328D01*
X52533Y351268D01*
X52529Y351263D01*
X52524Y351260D01*
X52449Y351170D01*
X52373Y351081D01*
X52371Y351075D01*
X52367Y351070D01*
X52325Y350962D01*
X52281Y350853D01*
X52280Y350845D01*
X52279Y350841D01*
X52278Y350823D01*
X52263Y350686D01*
X52263Y346253D01*
X52277Y346162D01*
X52285Y346072D01*
X52297Y346042D01*
X52302Y346010D01*
X52345Y345929D01*
X52381Y345845D01*
X52407Y345813D01*
X52418Y345792D01*
X52441Y345770D01*
X52486Y345714D01*
X60714Y337486D01*
X60788Y337433D01*
X60858Y337373D01*
X60888Y337361D01*
X60914Y337342D01*
X61001Y337315D01*
X61086Y337281D01*
X61127Y337277D01*
X61149Y337270D01*
X61181Y337271D01*
X61253Y337263D01*
X67699Y337263D01*
X67770Y337274D01*
X67842Y337276D01*
X67891Y337294D01*
X67942Y337302D01*
X68006Y337336D01*
X68073Y337361D01*
X68114Y337393D01*
X68160Y337418D01*
X68209Y337470D01*
X68265Y337514D01*
X68293Y337558D01*
X68329Y337596D01*
X68359Y337661D01*
X68398Y337721D01*
X68411Y337772D01*
X68433Y337819D01*
X68441Y337890D01*
X68458Y337960D01*
X68454Y338012D01*
X68460Y338063D01*
X68444Y338134D01*
X68439Y338205D01*
X68419Y338253D01*
X68407Y338304D01*
X68371Y338365D01*
X68343Y338431D01*
X68298Y338487D01*
X68281Y338515D01*
X68263Y338530D01*
X68238Y338562D01*
X64286Y342514D01*
X62737Y344063D01*
X62737Y368747D01*
X62723Y368838D01*
X62715Y368928D01*
X62703Y368958D01*
X62698Y368990D01*
X62655Y369071D01*
X62619Y369155D01*
X62593Y369187D01*
X62582Y369208D01*
X62559Y369230D01*
X62514Y369286D01*
X47737Y384063D01*
X47737Y390686D01*
X47718Y390801D01*
X47701Y390917D01*
X47699Y390923D01*
X47698Y390929D01*
X47643Y391032D01*
X47590Y391136D01*
X47585Y391141D01*
X47582Y391146D01*
X47498Y391226D01*
X47414Y391309D01*
X47408Y391312D01*
X47404Y391316D01*
X47387Y391324D01*
X47267Y391390D01*
X44901Y392370D01*
X42370Y394901D01*
X40999Y398210D01*
X40999Y401790D01*
X42370Y405099D01*
X44901Y407630D01*
X48210Y409001D01*
X51790Y409001D01*
X55099Y407630D01*
X57630Y405099D01*
X59001Y401790D01*
X59001Y398210D01*
X57630Y394901D01*
X55099Y392370D01*
X52733Y391390D01*
X52633Y391328D01*
X52533Y391268D01*
X52529Y391263D01*
X52524Y391260D01*
X52449Y391170D01*
X52373Y391081D01*
X52371Y391075D01*
X52367Y391070D01*
X52325Y390962D01*
X52281Y390853D01*
X52280Y390845D01*
X52279Y390841D01*
X52278Y390823D01*
X52263Y390686D01*
X52263Y386253D01*
X52277Y386162D01*
X52285Y386072D01*
X52297Y386042D01*
X52302Y386010D01*
X52345Y385929D01*
X52381Y385845D01*
X52407Y385813D01*
X52418Y385792D01*
X52441Y385770D01*
X52486Y385714D01*
X67263Y370937D01*
X67263Y346253D01*
X67277Y346162D01*
X67285Y346072D01*
X67297Y346042D01*
X67302Y346010D01*
X67345Y345929D01*
X67381Y345845D01*
X67407Y345813D01*
X67418Y345792D01*
X67441Y345770D01*
X67486Y345714D01*
X70714Y342486D01*
X70788Y342433D01*
X70858Y342373D01*
X70888Y342361D01*
X70914Y342342D01*
X71001Y342315D01*
X71086Y342281D01*
X71127Y342277D01*
X71149Y342270D01*
X71181Y342271D01*
X71253Y342263D01*
X77699Y342263D01*
X77770Y342274D01*
X77842Y342276D01*
X77891Y342294D01*
X77942Y342302D01*
X78006Y342336D01*
X78073Y342361D01*
X78114Y342393D01*
X78160Y342418D01*
X78209Y342470D01*
X78265Y342514D01*
X78293Y342558D01*
X78329Y342596D01*
X78359Y342661D01*
X78398Y342721D01*
X78411Y342772D01*
X78433Y342819D01*
X78441Y342890D01*
X78458Y342960D01*
X78454Y343012D01*
X78460Y343063D01*
X78444Y343134D01*
X78439Y343205D01*
X78419Y343253D01*
X78407Y343304D01*
X78371Y343365D01*
X78343Y343431D01*
X78298Y343487D01*
X78281Y343515D01*
X78263Y343530D01*
X78238Y343562D01*
X74286Y347514D01*
X72737Y349063D01*
X72737Y398747D01*
X72723Y398838D01*
X72715Y398928D01*
X72703Y398958D01*
X72698Y398990D01*
X72655Y399071D01*
X72619Y399155D01*
X72593Y399187D01*
X72582Y399208D01*
X72559Y399230D01*
X72514Y399286D01*
X47737Y424063D01*
X47737Y430686D01*
X47718Y430801D01*
X47701Y430917D01*
X47699Y430923D01*
X47698Y430929D01*
X47643Y431032D01*
X47590Y431136D01*
X47585Y431141D01*
X47582Y431146D01*
X47498Y431226D01*
X47414Y431309D01*
X47408Y431312D01*
X47404Y431316D01*
X47387Y431324D01*
X47267Y431390D01*
X44901Y432370D01*
X42370Y434901D01*
X40999Y438210D01*
X40999Y441790D01*
X42370Y445099D01*
X44901Y447630D01*
X48210Y449001D01*
X51790Y449001D01*
X55099Y447630D01*
X57630Y445099D01*
X59001Y441790D01*
X59001Y438210D01*
X57630Y434901D01*
X55099Y432370D01*
X52733Y431390D01*
X52633Y431328D01*
X52533Y431268D01*
X52529Y431263D01*
X52524Y431260D01*
X52449Y431170D01*
X52373Y431081D01*
X52371Y431075D01*
X52367Y431070D01*
X52325Y430962D01*
X52281Y430853D01*
X52280Y430845D01*
X52279Y430841D01*
X52278Y430823D01*
X52263Y430686D01*
X52263Y426253D01*
X52277Y426162D01*
X52285Y426072D01*
X52297Y426042D01*
X52302Y426010D01*
X52345Y425929D01*
X52381Y425845D01*
X52407Y425813D01*
X52418Y425792D01*
X52441Y425770D01*
X52486Y425714D01*
X77263Y400937D01*
X77263Y351253D01*
X77277Y351162D01*
X77285Y351072D01*
X77297Y351042D01*
X77302Y351010D01*
X77345Y350929D01*
X77381Y350845D01*
X77407Y350813D01*
X77418Y350792D01*
X77441Y350770D01*
X77486Y350714D01*
X80714Y347486D01*
X80788Y347433D01*
X80858Y347373D01*
X80888Y347361D01*
X80914Y347342D01*
X81001Y347315D01*
X81086Y347281D01*
X81127Y347277D01*
X81149Y347270D01*
X81181Y347271D01*
X81253Y347263D01*
X90937Y347263D01*
X92486Y345714D01*
X93938Y344262D01*
X93996Y344220D01*
X94048Y344171D01*
X94095Y344149D01*
X94137Y344119D01*
X94206Y344098D01*
X94271Y344067D01*
X94323Y344062D01*
X94373Y344046D01*
X94444Y344048D01*
X94515Y344040D01*
X94566Y344051D01*
X94618Y344053D01*
X94686Y344077D01*
X94756Y344093D01*
X94801Y344119D01*
X94849Y344137D01*
X94905Y344182D01*
X94967Y344219D01*
X95001Y344258D01*
X95041Y344291D01*
X95080Y344351D01*
X95127Y344406D01*
X95146Y344454D01*
X95174Y344498D01*
X95192Y344567D01*
X95219Y344634D01*
X95227Y344705D01*
X95235Y344736D01*
X95233Y344760D01*
X95237Y344801D01*
X95237Y351247D01*
X95223Y351337D01*
X95216Y351428D01*
X95203Y351458D01*
X95198Y351490D01*
X95155Y351570D01*
X95119Y351654D01*
X95093Y351687D01*
X95082Y351708D01*
X95059Y351730D01*
X95015Y351785D01*
X94986Y351814D01*
X94921Y351861D01*
X94904Y351877D01*
X94889Y351884D01*
X94797Y351952D01*
X94791Y351954D01*
X94786Y351958D01*
X94675Y351992D01*
X94563Y352028D01*
X94557Y352028D01*
X94551Y352030D01*
X94435Y352027D01*
X94317Y352026D01*
X94310Y352024D01*
X94306Y352024D01*
X94289Y352018D01*
X94156Y351979D01*
X91790Y350999D01*
X88210Y350999D01*
X84901Y352370D01*
X82370Y354901D01*
X80999Y358210D01*
X80999Y361790D01*
X82370Y365099D01*
X84901Y367630D01*
X88210Y369001D01*
X91790Y369001D01*
X95099Y367630D01*
X97630Y365099D01*
X98773Y362341D01*
X98824Y362258D01*
X98870Y362172D01*
X98888Y362154D01*
X98902Y362132D01*
X98978Y362070D01*
X99048Y362003D01*
X99072Y361992D01*
X99092Y361975D01*
X99183Y361940D01*
X99271Y361899D01*
X99297Y361896D01*
X99321Y361887D01*
X99419Y361883D01*
X99515Y361872D01*
X99541Y361877D01*
X99567Y361876D01*
X99661Y361903D01*
X99756Y361924D01*
X99778Y361938D01*
X99803Y361945D01*
X99883Y362000D01*
X99967Y362050D01*
X99984Y362070D01*
X100005Y362085D01*
X100064Y362163D01*
X100127Y362237D01*
X100137Y362262D01*
X100152Y362283D01*
X100182Y362375D01*
X100219Y362465D01*
X100222Y362498D01*
X100228Y362516D01*
X100228Y362549D01*
X100237Y362632D01*
X100237Y386247D01*
X100223Y386338D01*
X100215Y386428D01*
X100203Y386458D01*
X100198Y386490D01*
X100155Y386571D01*
X100119Y386655D01*
X100093Y386687D01*
X100082Y386708D01*
X100059Y386730D01*
X100014Y386786D01*
X94986Y391814D01*
X94892Y391882D01*
X94797Y391952D01*
X94791Y391954D01*
X94786Y391958D01*
X94675Y391992D01*
X94563Y392028D01*
X94557Y392028D01*
X94551Y392030D01*
X94434Y392027D01*
X94317Y392026D01*
X94310Y392024D01*
X94305Y392024D01*
X94288Y392017D01*
X94156Y391979D01*
X91790Y390999D01*
X88210Y390999D01*
X84901Y392370D01*
X82370Y394901D01*
X80999Y398210D01*
X80999Y401790D01*
X82370Y405099D01*
X84901Y407630D01*
X88210Y409001D01*
X91790Y409001D01*
X95099Y407630D01*
X97630Y405099D01*
X99001Y401790D01*
X99001Y398210D01*
X98021Y395844D01*
X97994Y395730D01*
X97966Y395617D01*
X97966Y395610D01*
X97965Y395604D01*
X97976Y395488D01*
X97985Y395371D01*
X97987Y395366D01*
X97988Y395359D01*
X98036Y395252D01*
X98081Y395145D01*
X98086Y395139D01*
X98088Y395135D01*
X98100Y395121D01*
X98186Y395014D01*
X103214Y389986D01*
X103938Y389262D01*
X103996Y389220D01*
X104048Y389171D01*
X104095Y389149D01*
X104137Y389119D01*
X104206Y389098D01*
X104271Y389067D01*
X104323Y389062D01*
X104373Y389046D01*
X104444Y389048D01*
X104515Y389040D01*
X104566Y389051D01*
X104618Y389053D01*
X104686Y389077D01*
X104756Y389093D01*
X104801Y389119D01*
X104849Y389137D01*
X104905Y389182D01*
X104967Y389219D01*
X105001Y389258D01*
X105041Y389291D01*
X105080Y389351D01*
X105127Y389406D01*
X105146Y389454D01*
X105174Y389498D01*
X105192Y389567D01*
X105219Y389634D01*
X105227Y389705D01*
X105235Y389736D01*
X105233Y389760D01*
X105237Y389801D01*
X105237Y421247D01*
X105223Y421338D01*
X105215Y421428D01*
X105203Y421458D01*
X105198Y421490D01*
X105155Y421571D01*
X105119Y421655D01*
X105093Y421687D01*
X105082Y421708D01*
X105059Y421730D01*
X105014Y421786D01*
X94986Y431814D01*
X94892Y431882D01*
X94797Y431952D01*
X94791Y431954D01*
X94786Y431958D01*
X94675Y431992D01*
X94563Y432028D01*
X94557Y432028D01*
X94551Y432030D01*
X94434Y432027D01*
X94317Y432026D01*
X94310Y432024D01*
X94305Y432024D01*
X94288Y432017D01*
X94156Y431979D01*
X91790Y430999D01*
X88210Y430999D01*
X84901Y432370D01*
X82370Y434901D01*
X80999Y438210D01*
X80999Y441790D01*
X82370Y445099D01*
X84901Y447630D01*
X88210Y449001D01*
X91790Y449001D01*
X95099Y447630D01*
X97630Y445099D01*
X99001Y441790D01*
X99001Y438210D01*
X98021Y435844D01*
X97994Y435730D01*
X97966Y435617D01*
X97966Y435610D01*
X97965Y435604D01*
X97976Y435488D01*
X97985Y435371D01*
X97987Y435366D01*
X97988Y435359D01*
X98036Y435252D01*
X98081Y435145D01*
X98086Y435139D01*
X98088Y435135D01*
X98100Y435121D01*
X98186Y435014D01*
X109462Y423738D01*
X109478Y423727D01*
X109490Y423711D01*
X109578Y423655D01*
X109661Y423595D01*
X109680Y423589D01*
X109697Y423578D01*
X109798Y423553D01*
X109897Y423522D01*
X109916Y423523D01*
X109936Y423518D01*
X110039Y423526D01*
X110142Y423529D01*
X110161Y423536D01*
X110181Y423537D01*
X110276Y423577D01*
X110373Y423613D01*
X110389Y423626D01*
X110407Y423633D01*
X110538Y423738D01*
X121814Y435014D01*
X121882Y435108D01*
X121952Y435203D01*
X121954Y435209D01*
X121958Y435214D01*
X121992Y435325D01*
X122028Y435437D01*
X122028Y435443D01*
X122030Y435449D01*
X122027Y435566D01*
X122026Y435683D01*
X122024Y435690D01*
X122024Y435695D01*
X122017Y435712D01*
X121979Y435844D01*
X120999Y438210D01*
X120999Y441790D01*
X122370Y445099D01*
X124901Y447630D01*
X128210Y449001D01*
X131790Y449001D01*
X135099Y447630D01*
X137630Y445099D01*
X139001Y441790D01*
X139001Y438210D01*
X137630Y434901D01*
X135099Y432370D01*
X131790Y430999D01*
X128210Y430999D01*
X125844Y431979D01*
X125730Y432006D01*
X125617Y432034D01*
X125610Y432034D01*
X125604Y432035D01*
X125488Y432024D01*
X125371Y432015D01*
X125366Y432013D01*
X125359Y432012D01*
X125252Y431964D01*
X125145Y431919D01*
X125139Y431914D01*
X125135Y431912D01*
X125121Y431900D01*
X125014Y431814D01*
X114986Y421786D01*
X114933Y421712D01*
X114873Y421642D01*
X114861Y421612D01*
X114842Y421586D01*
X114815Y421499D01*
X114781Y421414D01*
X114777Y421373D01*
X114770Y421351D01*
X114771Y421319D01*
X114763Y421247D01*
X114763Y389801D01*
X114774Y389730D01*
X114776Y389658D01*
X114794Y389609D01*
X114802Y389558D01*
X114836Y389494D01*
X114861Y389427D01*
X114893Y389386D01*
X114918Y389340D01*
X114970Y389291D01*
X115014Y389235D01*
X115058Y389207D01*
X115096Y389171D01*
X115161Y389141D01*
X115221Y389102D01*
X115272Y389089D01*
X115319Y389067D01*
X115390Y389059D01*
X115460Y389042D01*
X115512Y389046D01*
X115563Y389040D01*
X115634Y389056D01*
X115705Y389061D01*
X115753Y389081D01*
X115804Y389093D01*
X115865Y389129D01*
X115931Y389157D01*
X115987Y389202D01*
X116015Y389219D01*
X116030Y389237D01*
X116062Y389262D01*
X121814Y395014D01*
X121882Y395108D01*
X121952Y395203D01*
X121954Y395209D01*
X121958Y395214D01*
X121992Y395325D01*
X122028Y395437D01*
X122028Y395443D01*
X122030Y395449D01*
X122027Y395566D01*
X122026Y395683D01*
X122024Y395690D01*
X122024Y395695D01*
X122017Y395712D01*
X121979Y395844D01*
X120999Y398210D01*
X120999Y401790D01*
X122370Y405099D01*
X124901Y407630D01*
X128210Y409001D01*
X131790Y409001D01*
X135099Y407630D01*
X137630Y405099D01*
X139001Y401790D01*
X139001Y398210D01*
X137630Y394901D01*
X135099Y392370D01*
X131790Y390999D01*
X128210Y390999D01*
X125844Y391979D01*
X125730Y392006D01*
X125617Y392034D01*
X125610Y392034D01*
X125604Y392035D01*
X125488Y392024D01*
X125371Y392015D01*
X125366Y392013D01*
X125359Y392012D01*
X125252Y391964D01*
X125145Y391919D01*
X125139Y391914D01*
X125135Y391912D01*
X125121Y391900D01*
X125014Y391814D01*
X119986Y386786D01*
X119933Y386712D01*
X119873Y386642D01*
X119861Y386612D01*
X119842Y386586D01*
X119815Y386499D01*
X119781Y386414D01*
X119777Y386373D01*
X119770Y386351D01*
X119771Y386319D01*
X119763Y386247D01*
X119763Y362632D01*
X119778Y362536D01*
X119788Y362439D01*
X119798Y362415D01*
X119802Y362389D01*
X119848Y362303D01*
X119888Y362214D01*
X119905Y362195D01*
X119918Y362172D01*
X119988Y362105D01*
X120054Y362033D01*
X120077Y362021D01*
X120096Y362003D01*
X120184Y361962D01*
X120270Y361915D01*
X120295Y361910D01*
X120319Y361899D01*
X120416Y361888D01*
X120512Y361871D01*
X120538Y361875D01*
X120563Y361872D01*
X120659Y361893D01*
X120755Y361907D01*
X120778Y361919D01*
X120804Y361924D01*
X120887Y361974D01*
X120974Y362018D01*
X120993Y362037D01*
X121015Y362050D01*
X121078Y362124D01*
X121146Y362194D01*
X121162Y362222D01*
X121175Y362237D01*
X121187Y362268D01*
X121227Y362341D01*
X122370Y365099D01*
X124901Y367630D01*
X128210Y369001D01*
X131790Y369001D01*
X135099Y367630D01*
X137630Y365099D01*
X139001Y361790D01*
X139001Y358210D01*
X137630Y354901D01*
X135099Y352370D01*
X131790Y350999D01*
X128210Y350999D01*
X125844Y351979D01*
X125730Y352006D01*
X125617Y352034D01*
X125610Y352034D01*
X125604Y352035D01*
X125488Y352024D01*
X125371Y352015D01*
X125366Y352013D01*
X125359Y352012D01*
X125252Y351964D01*
X125145Y351919D01*
X125139Y351914D01*
X125135Y351912D01*
X125121Y351900D01*
X125014Y351814D01*
X124986Y351786D01*
X124964Y351755D01*
X124954Y351746D01*
X124942Y351725D01*
X124933Y351712D01*
X124873Y351642D01*
X124861Y351612D01*
X124842Y351586D01*
X124815Y351499D01*
X124781Y351414D01*
X124777Y351373D01*
X124770Y351351D01*
X124771Y351319D01*
X124763Y351247D01*
X124763Y344801D01*
X124774Y344730D01*
X124776Y344658D01*
X124794Y344609D01*
X124802Y344558D01*
X124836Y344494D01*
X124861Y344427D01*
X124893Y344386D01*
X124918Y344340D01*
X124970Y344291D01*
X125014Y344235D01*
X125058Y344207D01*
X125096Y344171D01*
X125161Y344141D01*
X125221Y344102D01*
X125272Y344089D01*
X125319Y344067D01*
X125390Y344059D01*
X125460Y344042D01*
X125512Y344046D01*
X125563Y344040D01*
X125634Y344056D01*
X125705Y344061D01*
X125753Y344081D01*
X125804Y344093D01*
X125865Y344129D01*
X125931Y344157D01*
X125987Y344202D01*
X126015Y344219D01*
X126030Y344237D01*
X126062Y344262D01*
X127514Y345714D01*
X129063Y347263D01*
X138747Y347263D01*
X138838Y347277D01*
X138928Y347285D01*
X138958Y347297D01*
X138990Y347302D01*
X139071Y347345D01*
X139155Y347381D01*
X139187Y347407D01*
X139208Y347418D01*
X139230Y347441D01*
X139286Y347486D01*
X142514Y350714D01*
X142567Y350788D01*
X142627Y350858D01*
X142639Y350888D01*
X142658Y350914D01*
X142685Y351001D01*
X142719Y351086D01*
X142723Y351127D01*
X142730Y351149D01*
X142729Y351181D01*
X142737Y351253D01*
X142737Y400937D01*
X167514Y425714D01*
X167567Y425788D01*
X167627Y425858D01*
X167639Y425888D01*
X167658Y425914D01*
X167685Y426001D01*
X167719Y426086D01*
X167723Y426127D01*
X167730Y426149D01*
X167729Y426181D01*
X167737Y426253D01*
X167737Y430686D01*
X167718Y430801D01*
X167701Y430917D01*
X167699Y430923D01*
X167698Y430929D01*
X167643Y431032D01*
X167590Y431136D01*
X167585Y431141D01*
X167582Y431146D01*
X167498Y431226D01*
X167414Y431309D01*
X167408Y431312D01*
X167404Y431316D01*
X167387Y431324D01*
X167267Y431390D01*
X164901Y432370D01*
X162370Y434901D01*
X160999Y438210D01*
X160999Y441790D01*
X162370Y445099D01*
X164901Y447630D01*
X168210Y449001D01*
X171790Y449001D01*
X175099Y447630D01*
X177630Y445099D01*
X179001Y441790D01*
X179001Y438210D01*
X177630Y434901D01*
X175099Y432370D01*
X172733Y431390D01*
X172633Y431328D01*
X172533Y431268D01*
X172529Y431263D01*
X172524Y431260D01*
X172449Y431170D01*
X172373Y431081D01*
X172371Y431075D01*
X172367Y431070D01*
X172325Y430962D01*
X172281Y430853D01*
X172280Y430845D01*
X172279Y430841D01*
X172278Y430823D01*
X172263Y430686D01*
X172263Y424063D01*
X147486Y399286D01*
X147433Y399212D01*
X147373Y399142D01*
X147361Y399112D01*
X147342Y399086D01*
X147315Y398999D01*
X147281Y398914D01*
X147277Y398873D01*
X147270Y398851D01*
X147271Y398819D01*
X147263Y398747D01*
X147263Y349063D01*
X145714Y347514D01*
X141762Y343562D01*
X141720Y343504D01*
X141671Y343452D01*
X141649Y343405D01*
X141619Y343363D01*
X141598Y343294D01*
X141567Y343229D01*
X141562Y343177D01*
X141546Y343127D01*
X141548Y343056D01*
X141540Y342985D01*
X141551Y342934D01*
X141553Y342882D01*
X141577Y342814D01*
X141593Y342744D01*
X141619Y342699D01*
X141637Y342651D01*
X141682Y342595D01*
X141719Y342533D01*
X141758Y342499D01*
X141791Y342459D01*
X141851Y342420D01*
X141906Y342373D01*
X141954Y342354D01*
X141998Y342326D01*
X142067Y342308D01*
X142134Y342281D01*
X142205Y342273D01*
X142236Y342265D01*
X142260Y342267D01*
X142301Y342263D01*
X148747Y342263D01*
X148838Y342277D01*
X148928Y342285D01*
X148958Y342297D01*
X148990Y342302D01*
X149071Y342345D01*
X149155Y342381D01*
X149187Y342407D01*
X149208Y342418D01*
X149230Y342441D01*
X149286Y342486D01*
X152514Y345714D01*
X152567Y345788D01*
X152627Y345858D01*
X152639Y345888D01*
X152658Y345914D01*
X152685Y346001D01*
X152719Y346086D01*
X152723Y346127D01*
X152730Y346149D01*
X152729Y346181D01*
X152737Y346253D01*
X152737Y370937D01*
X167514Y385714D01*
X167567Y385788D01*
X167627Y385858D01*
X167639Y385888D01*
X167658Y385914D01*
X167685Y386001D01*
X167719Y386086D01*
X167723Y386127D01*
X167730Y386149D01*
X167729Y386181D01*
X167737Y386253D01*
X167737Y390686D01*
X167718Y390801D01*
X167701Y390917D01*
X167699Y390923D01*
X167698Y390929D01*
X167643Y391032D01*
X167590Y391136D01*
X167585Y391141D01*
X167582Y391146D01*
X167498Y391226D01*
X167414Y391309D01*
X167408Y391312D01*
X167404Y391316D01*
X167387Y391324D01*
X167267Y391390D01*
X164901Y392370D01*
X162370Y394901D01*
X160999Y398210D01*
X160999Y401790D01*
X162370Y405099D01*
X164901Y407630D01*
X168210Y409001D01*
X171790Y409001D01*
X175099Y407630D01*
X177630Y405099D01*
X179001Y401790D01*
X179001Y398210D01*
X177630Y394901D01*
X175099Y392370D01*
X172733Y391390D01*
X172633Y391328D01*
X172533Y391268D01*
X172529Y391263D01*
X172524Y391260D01*
X172449Y391170D01*
X172373Y391081D01*
X172371Y391075D01*
X172367Y391070D01*
X172325Y390962D01*
X172281Y390853D01*
X172280Y390845D01*
X172279Y390841D01*
X172278Y390823D01*
X172263Y390686D01*
X172263Y384063D01*
X157486Y369286D01*
X157433Y369212D01*
X157373Y369142D01*
X157361Y369112D01*
X157342Y369086D01*
X157315Y368999D01*
X157281Y368914D01*
X157277Y368873D01*
X157270Y368851D01*
X157271Y368819D01*
X157263Y368747D01*
X157263Y344063D01*
X155714Y342514D01*
X151762Y338562D01*
X151720Y338504D01*
X151671Y338452D01*
X151649Y338405D01*
X151619Y338363D01*
X151598Y338294D01*
X151567Y338229D01*
X151562Y338177D01*
X151546Y338127D01*
X151548Y338056D01*
X151540Y337985D01*
X151551Y337934D01*
X151553Y337882D01*
X151577Y337814D01*
X151593Y337744D01*
X151619Y337699D01*
X151637Y337651D01*
X151682Y337595D01*
X151719Y337533D01*
X151758Y337499D01*
X151791Y337459D01*
X151851Y337420D01*
X151906Y337373D01*
X151954Y337354D01*
X151998Y337326D01*
X152067Y337308D01*
X152134Y337281D01*
X152205Y337273D01*
X152236Y337265D01*
X152260Y337267D01*
X152301Y337263D01*
X158747Y337263D01*
X158838Y337277D01*
X158928Y337285D01*
X158958Y337297D01*
X158990Y337302D01*
X159071Y337345D01*
X159155Y337381D01*
X159187Y337407D01*
X159208Y337418D01*
X159230Y337441D01*
X159286Y337486D01*
X167514Y345714D01*
X167567Y345788D01*
X167627Y345858D01*
X167639Y345888D01*
X167658Y345914D01*
X167685Y346001D01*
X167719Y346086D01*
X167723Y346127D01*
X167730Y346149D01*
X167729Y346181D01*
X167737Y346253D01*
X167737Y350686D01*
X167718Y350801D01*
X167701Y350917D01*
X167699Y350923D01*
X167698Y350929D01*
X167643Y351032D01*
X167590Y351136D01*
X167585Y351141D01*
X167582Y351146D01*
X167498Y351226D01*
X167414Y351309D01*
X167408Y351312D01*
X167404Y351316D01*
X167387Y351324D01*
X167267Y351390D01*
X164901Y352370D01*
X162370Y354901D01*
X160999Y358210D01*
X160999Y361790D01*
X162370Y365099D01*
X164901Y367630D01*
X168210Y369001D01*
X171790Y369001D01*
X175099Y367630D01*
X177630Y365099D01*
X179001Y361790D01*
X179001Y358210D01*
X177630Y354901D01*
X175099Y352370D01*
X172733Y351390D01*
X172633Y351328D01*
X172533Y351268D01*
X172529Y351263D01*
X172524Y351260D01*
X172449Y351170D01*
X172373Y351081D01*
X172371Y351075D01*
X172367Y351070D01*
X172325Y350962D01*
X172281Y350853D01*
X172280Y350845D01*
X172279Y350841D01*
X172278Y350823D01*
X172263Y350686D01*
X172263Y344063D01*
X160937Y332737D01*
X141262Y332737D01*
X141242Y332734D01*
X141223Y332736D01*
X141121Y332714D01*
X141019Y332698D01*
X141002Y332688D01*
X140982Y332684D01*
X140893Y332631D01*
X140802Y332582D01*
X140788Y332568D01*
X140771Y332558D01*
X140704Y332479D01*
X140632Y332404D01*
X140624Y332386D01*
X140611Y332371D01*
X140572Y332275D01*
X140529Y332181D01*
X140527Y332161D01*
X140519Y332143D01*
X140501Y331976D01*
X140501Y321378D01*
X139622Y320499D01*
X135303Y320499D01*
X135303Y320500D01*
X135202Y320525D01*
X135103Y320555D01*
X135083Y320555D01*
X135064Y320560D01*
X134961Y320552D01*
X134858Y320549D01*
X134839Y320542D01*
X134819Y320540D01*
X134724Y320500D01*
X134722Y320499D01*
X130303Y320499D01*
X130303Y320500D01*
X130202Y320525D01*
X130103Y320555D01*
X130083Y320555D01*
X130064Y320560D01*
X129961Y320552D01*
X129858Y320549D01*
X129839Y320542D01*
X129819Y320540D01*
X129724Y320500D01*
X129722Y320499D01*
X125303Y320499D01*
X125303Y320500D01*
X125202Y320525D01*
X125103Y320555D01*
X125083Y320555D01*
X125064Y320560D01*
X124961Y320552D01*
X124858Y320549D01*
X124839Y320542D01*
X124819Y320540D01*
X124724Y320500D01*
X124722Y320499D01*
X120303Y320499D01*
X120303Y320500D01*
X120202Y320525D01*
X120103Y320555D01*
X120083Y320555D01*
X120064Y320560D01*
X119961Y320552D01*
X119858Y320549D01*
X119839Y320542D01*
X119819Y320540D01*
X119724Y320500D01*
X119722Y320499D01*
X115303Y320499D01*
X115303Y320500D01*
X115202Y320525D01*
X115104Y320555D01*
X115084Y320555D01*
X115064Y320560D01*
X114961Y320552D01*
X114858Y320549D01*
X114839Y320542D01*
X114819Y320540D01*
X114724Y320500D01*
X114722Y320499D01*
X110303Y320499D01*
X110303Y320500D01*
X110202Y320525D01*
X110103Y320555D01*
X110083Y320555D01*
X110064Y320560D01*
X109961Y320552D01*
X109858Y320549D01*
X109839Y320542D01*
X109819Y320540D01*
X109724Y320500D01*
X109722Y320499D01*
X105303Y320499D01*
X105303Y320500D01*
X105202Y320525D01*
X105103Y320555D01*
X105083Y320555D01*
X105064Y320560D01*
X104961Y320552D01*
X104858Y320549D01*
X104839Y320542D01*
X104819Y320540D01*
X104724Y320500D01*
X104722Y320499D01*
X100303Y320499D01*
X100303Y320500D01*
X100202Y320525D01*
X100104Y320555D01*
X100084Y320555D01*
X100064Y320560D01*
X99961Y320552D01*
X99858Y320549D01*
X99839Y320542D01*
X99819Y320540D01*
X99724Y320500D01*
X99722Y320499D01*
X95303Y320499D01*
X95303Y320500D01*
X95202Y320525D01*
X95104Y320555D01*
X95084Y320555D01*
X95064Y320560D01*
X94961Y320552D01*
X94858Y320549D01*
X94839Y320542D01*
X94819Y320540D01*
X94724Y320500D01*
X94722Y320499D01*
X90303Y320499D01*
X90303Y320500D01*
X90202Y320525D01*
X90104Y320555D01*
X90084Y320555D01*
X90064Y320560D01*
X89961Y320552D01*
X89858Y320549D01*
X89839Y320542D01*
X89819Y320540D01*
X89724Y320500D01*
X89722Y320499D01*
X85303Y320499D01*
X85303Y320500D01*
X85202Y320525D01*
X85104Y320555D01*
X85084Y320555D01*
X85064Y320560D01*
X84961Y320552D01*
X84858Y320549D01*
X84839Y320542D01*
X84819Y320540D01*
X84724Y320500D01*
X84722Y320499D01*
X80378Y320499D01*
G37*
%LPD*%
G36*
X125090Y89254D02*
X125090Y89254D01*
X125181Y89261D01*
X125211Y89273D01*
X125243Y89279D01*
X125323Y89321D01*
X125407Y89357D01*
X125439Y89383D01*
X125460Y89394D01*
X125482Y89417D01*
X125538Y89462D01*
X130538Y94462D01*
X130591Y94536D01*
X130651Y94605D01*
X130663Y94635D01*
X130682Y94661D01*
X130709Y94748D01*
X130743Y94833D01*
X130747Y94874D01*
X130754Y94897D01*
X130753Y94929D01*
X130761Y95000D01*
X130761Y105000D01*
X130747Y105090D01*
X130739Y105181D01*
X130727Y105211D01*
X130722Y105243D01*
X130679Y105323D01*
X130643Y105407D01*
X130617Y105439D01*
X130606Y105460D01*
X130583Y105482D01*
X130538Y105538D01*
X125761Y110315D01*
X125761Y117409D01*
X125758Y117427D01*
X125760Y117444D01*
X125741Y117533D01*
X125724Y117643D01*
X125722Y117647D01*
X125722Y117651D01*
X125711Y117671D01*
X125708Y117685D01*
X125671Y117747D01*
X125666Y117756D01*
X125611Y117862D01*
X125608Y117865D01*
X125606Y117869D01*
X125587Y117887D01*
X125582Y117896D01*
X125541Y117931D01*
X125521Y117950D01*
X125435Y118033D01*
X125431Y118035D01*
X125428Y118038D01*
X125401Y118051D01*
X125395Y118056D01*
X125356Y118072D01*
X125321Y118088D01*
X125213Y118139D01*
X125209Y118140D01*
X125205Y118142D01*
X125173Y118145D01*
X125167Y118148D01*
X125000Y118166D01*
X124993Y118166D01*
X124969Y118169D01*
X124964Y118168D01*
X124961Y118169D01*
X124947Y118166D01*
X124803Y118144D01*
X124263Y117999D01*
X120023Y117999D01*
X120023Y124238D01*
X120020Y124258D01*
X120022Y124277D01*
X120000Y124379D01*
X119983Y124481D01*
X119974Y124498D01*
X119970Y124518D01*
X119917Y124607D01*
X119868Y124698D01*
X119854Y124712D01*
X119844Y124729D01*
X119765Y124796D01*
X119690Y124867D01*
X119672Y124876D01*
X119657Y124889D01*
X119561Y124928D01*
X119467Y124971D01*
X119447Y124973D01*
X119429Y124981D01*
X119262Y124999D01*
X118499Y124999D01*
X118499Y125001D01*
X119262Y125001D01*
X119282Y125004D01*
X119301Y125002D01*
X119403Y125024D01*
X119505Y125041D01*
X119522Y125050D01*
X119542Y125054D01*
X119631Y125107D01*
X119722Y125156D01*
X119736Y125170D01*
X119753Y125180D01*
X119820Y125259D01*
X119891Y125334D01*
X119900Y125352D01*
X119913Y125367D01*
X119952Y125463D01*
X119995Y125557D01*
X119997Y125577D01*
X120005Y125595D01*
X120023Y125762D01*
X120023Y132001D01*
X124263Y132001D01*
X124803Y131856D01*
X124922Y131844D01*
X125039Y131831D01*
X125044Y131832D01*
X125048Y131832D01*
X125163Y131858D01*
X125280Y131883D01*
X125283Y131886D01*
X125287Y131887D01*
X125388Y131948D01*
X125491Y132010D01*
X125494Y132013D01*
X125497Y132015D01*
X125572Y132105D01*
X125651Y132197D01*
X125652Y132201D01*
X125655Y132204D01*
X125698Y132313D01*
X125743Y132425D01*
X125743Y132430D01*
X125745Y132433D01*
X125745Y132446D01*
X125761Y132591D01*
X125761Y134685D01*
X130315Y139239D01*
X131301Y139239D01*
X131391Y139254D01*
X131482Y139261D01*
X131512Y139273D01*
X131544Y139279D01*
X131625Y139321D01*
X131708Y139357D01*
X131741Y139383D01*
X131761Y139394D01*
X131783Y139417D01*
X131839Y139462D01*
X131878Y139501D01*
X139122Y139501D01*
X139161Y139462D01*
X139235Y139409D01*
X139304Y139349D01*
X139334Y139337D01*
X139360Y139318D01*
X139447Y139291D01*
X139532Y139257D01*
X139573Y139253D01*
X139595Y139246D01*
X139628Y139247D01*
X139699Y139239D01*
X140801Y139239D01*
X140891Y139254D01*
X140982Y139261D01*
X141012Y139273D01*
X141044Y139279D01*
X141125Y139321D01*
X141208Y139357D01*
X141241Y139383D01*
X141261Y139394D01*
X141283Y139417D01*
X141339Y139462D01*
X141378Y139501D01*
X148622Y139501D01*
X148661Y139462D01*
X148735Y139409D01*
X148804Y139349D01*
X148834Y139337D01*
X148860Y139318D01*
X148947Y139291D01*
X149032Y139257D01*
X149073Y139253D01*
X149095Y139246D01*
X149128Y139247D01*
X149199Y139239D01*
X150000Y139239D01*
X150020Y139242D01*
X150039Y139240D01*
X150141Y139262D01*
X150243Y139279D01*
X150260Y139288D01*
X150280Y139292D01*
X150369Y139345D01*
X150460Y139394D01*
X150474Y139408D01*
X150491Y139418D01*
X150558Y139497D01*
X150630Y139572D01*
X150638Y139590D01*
X150651Y139605D01*
X150690Y139701D01*
X150733Y139795D01*
X150735Y139815D01*
X150743Y139833D01*
X150761Y140000D01*
X150761Y150094D01*
X150750Y150165D01*
X150748Y150236D01*
X150730Y150285D01*
X150722Y150337D01*
X150688Y150400D01*
X150663Y150467D01*
X150631Y150508D01*
X150606Y150554D01*
X150555Y150603D01*
X150510Y150659D01*
X150466Y150688D01*
X150428Y150723D01*
X150363Y150754D01*
X150303Y150792D01*
X150252Y150805D01*
X150205Y150827D01*
X150134Y150835D01*
X150064Y150853D01*
X150012Y150848D01*
X149961Y150854D01*
X149890Y150839D01*
X149819Y150833D01*
X149771Y150813D01*
X149720Y150802D01*
X149659Y150765D01*
X149593Y150737D01*
X149537Y150692D01*
X149509Y150676D01*
X149494Y150658D01*
X149462Y150632D01*
X149228Y150399D01*
X148772Y150136D01*
X148263Y149999D01*
X146499Y149999D01*
X146499Y156762D01*
X146496Y156781D01*
X146498Y156801D01*
X146476Y156903D01*
X146460Y157005D01*
X146450Y157022D01*
X146446Y157042D01*
X146393Y157131D01*
X146344Y157222D01*
X146330Y157236D01*
X146320Y157253D01*
X146241Y157320D01*
X146166Y157391D01*
X146148Y157400D01*
X146133Y157413D01*
X146037Y157451D01*
X145943Y157495D01*
X145923Y157497D01*
X145905Y157504D01*
X145981Y157517D01*
X145998Y157526D01*
X146018Y157530D01*
X146107Y157583D01*
X146198Y157632D01*
X146212Y157646D01*
X146229Y157656D01*
X146296Y157735D01*
X146368Y157810D01*
X146376Y157828D01*
X146389Y157843D01*
X146428Y157940D01*
X146471Y158033D01*
X146473Y158053D01*
X146481Y158071D01*
X146499Y158238D01*
X146499Y165001D01*
X148263Y165001D01*
X148772Y164864D01*
X149228Y164601D01*
X149462Y164368D01*
X149520Y164326D01*
X149572Y164277D01*
X149619Y164255D01*
X149661Y164224D01*
X149730Y164203D01*
X149795Y164173D01*
X149847Y164167D01*
X149897Y164152D01*
X149968Y164154D01*
X150039Y164146D01*
X150090Y164157D01*
X150142Y164158D01*
X150210Y164183D01*
X150280Y164198D01*
X150324Y164225D01*
X150373Y164243D01*
X150429Y164288D01*
X150491Y164324D01*
X150525Y164364D01*
X150565Y164396D01*
X150604Y164457D01*
X150651Y164511D01*
X150670Y164559D01*
X150698Y164603D01*
X150716Y164673D01*
X150743Y164739D01*
X150751Y164811D01*
X150759Y164842D01*
X150757Y164865D01*
X150761Y164906D01*
X150761Y180000D01*
X150747Y180090D01*
X150739Y180181D01*
X150727Y180211D01*
X150722Y180243D01*
X150679Y180323D01*
X150643Y180407D01*
X150617Y180439D01*
X150606Y180460D01*
X150583Y180482D01*
X150538Y180538D01*
X145300Y185776D01*
X145242Y185818D01*
X145190Y185868D01*
X145143Y185890D01*
X145101Y185920D01*
X145032Y185941D01*
X144967Y185971D01*
X144915Y185977D01*
X144865Y185992D01*
X144794Y185990D01*
X144723Y185998D01*
X144672Y185987D01*
X144620Y185986D01*
X144552Y185961D01*
X144482Y185946D01*
X144437Y185919D01*
X144389Y185901D01*
X144333Y185857D01*
X144271Y185820D01*
X144237Y185780D01*
X144197Y185748D01*
X144158Y185687D01*
X144111Y185633D01*
X144092Y185585D01*
X144064Y185541D01*
X144046Y185471D01*
X144019Y185405D01*
X144011Y185333D01*
X144003Y185302D01*
X144005Y185279D01*
X144001Y185238D01*
X144001Y185023D01*
X135262Y185023D01*
X135242Y185020D01*
X135223Y185022D01*
X135121Y185000D01*
X135019Y184983D01*
X135002Y184974D01*
X134982Y184970D01*
X134893Y184917D01*
X134802Y184868D01*
X134788Y184854D01*
X134771Y184844D01*
X134704Y184765D01*
X134633Y184690D01*
X134624Y184672D01*
X134611Y184657D01*
X134572Y184561D01*
X134529Y184467D01*
X134527Y184447D01*
X134519Y184429D01*
X134501Y184262D01*
X134501Y183499D01*
X134499Y183499D01*
X134499Y184262D01*
X134496Y184282D01*
X134498Y184301D01*
X134476Y184403D01*
X134459Y184505D01*
X134450Y184522D01*
X134446Y184542D01*
X134393Y184631D01*
X134344Y184722D01*
X134330Y184736D01*
X134320Y184753D01*
X134241Y184820D01*
X134166Y184891D01*
X134148Y184900D01*
X134133Y184913D01*
X134037Y184952D01*
X133943Y184995D01*
X133923Y184997D01*
X133905Y185005D01*
X133738Y185023D01*
X124999Y185023D01*
X124999Y188263D01*
X125136Y188772D01*
X125399Y189228D01*
X125632Y189462D01*
X125674Y189520D01*
X125723Y189572D01*
X125745Y189619D01*
X125776Y189661D01*
X125797Y189730D01*
X125827Y189795D01*
X125833Y189847D01*
X125848Y189897D01*
X125846Y189968D01*
X125854Y190039D01*
X125843Y190090D01*
X125842Y190142D01*
X125817Y190210D01*
X125802Y190280D01*
X125775Y190324D01*
X125757Y190373D01*
X125712Y190429D01*
X125676Y190491D01*
X125636Y190525D01*
X125604Y190565D01*
X125543Y190604D01*
X125489Y190651D01*
X125441Y190670D01*
X125397Y190698D01*
X125327Y190716D01*
X125261Y190743D01*
X125189Y190751D01*
X125158Y190759D01*
X125135Y190757D01*
X125094Y190761D01*
X125000Y190761D01*
X124910Y190747D01*
X124819Y190739D01*
X124789Y190727D01*
X124757Y190722D01*
X124677Y190679D01*
X124593Y190643D01*
X124561Y190617D01*
X124540Y190606D01*
X124518Y190583D01*
X124462Y190538D01*
X109685Y175761D01*
X90000Y175761D01*
X89910Y175747D01*
X89819Y175739D01*
X89789Y175727D01*
X89757Y175722D01*
X89677Y175679D01*
X89593Y175643D01*
X89561Y175617D01*
X89540Y175606D01*
X89518Y175583D01*
X89462Y175538D01*
X81224Y167300D01*
X81182Y167242D01*
X81132Y167190D01*
X81110Y167143D01*
X81080Y167101D01*
X81059Y167032D01*
X81029Y166967D01*
X81023Y166915D01*
X81008Y166865D01*
X81010Y166794D01*
X81002Y166723D01*
X81013Y166672D01*
X81014Y166620D01*
X81039Y166552D01*
X81054Y166482D01*
X81081Y166438D01*
X81099Y166389D01*
X81143Y166333D01*
X81180Y166271D01*
X81220Y166237D01*
X81252Y166197D01*
X81313Y166158D01*
X81367Y166111D01*
X81415Y166092D01*
X81459Y166064D01*
X81529Y166046D01*
X81595Y166019D01*
X81667Y166011D01*
X81698Y166003D01*
X81721Y166005D01*
X81762Y166001D01*
X83126Y166001D01*
X83126Y158613D01*
X83129Y158594D01*
X83127Y158574D01*
X83149Y158472D01*
X83165Y158370D01*
X83175Y158353D01*
X83179Y158333D01*
X83232Y158244D01*
X83281Y158153D01*
X83295Y158139D01*
X83305Y158122D01*
X83384Y158055D01*
X83459Y157984D01*
X83477Y157975D01*
X83492Y157962D01*
X83588Y157924D01*
X83682Y157880D01*
X83702Y157878D01*
X83720Y157870D01*
X83887Y157852D01*
X85113Y157852D01*
X85133Y157855D01*
X85152Y157853D01*
X85254Y157875D01*
X85356Y157892D01*
X85373Y157901D01*
X85393Y157905D01*
X85482Y157958D01*
X85573Y158007D01*
X85587Y158021D01*
X85604Y158031D01*
X85671Y158110D01*
X85743Y158185D01*
X85751Y158203D01*
X85764Y158218D01*
X85803Y158315D01*
X85846Y158408D01*
X85848Y158428D01*
X85856Y158446D01*
X85874Y158613D01*
X85874Y166001D01*
X87513Y166001D01*
X88022Y165864D01*
X88478Y165601D01*
X88851Y165228D01*
X89114Y164772D01*
X89251Y164263D01*
X89251Y160012D01*
X89252Y160002D01*
X89252Y159996D01*
X89258Y159965D01*
X89262Y159941D01*
X89264Y159870D01*
X89282Y159821D01*
X89290Y159769D01*
X89324Y159706D01*
X89349Y159639D01*
X89381Y159598D01*
X89406Y159552D01*
X89457Y159503D01*
X89502Y159447D01*
X89546Y159418D01*
X89584Y159382D01*
X89649Y159352D01*
X89709Y159314D01*
X89760Y159301D01*
X89807Y159279D01*
X89878Y159271D01*
X89948Y159253D01*
X90000Y159258D01*
X90051Y159252D01*
X90122Y159267D01*
X90193Y159273D01*
X90241Y159293D01*
X90292Y159304D01*
X90353Y159341D01*
X90419Y159369D01*
X90475Y159414D01*
X90503Y159430D01*
X90518Y159448D01*
X90550Y159474D01*
X95315Y164239D01*
X131301Y164239D01*
X131391Y164254D01*
X131482Y164261D01*
X131512Y164273D01*
X131544Y164279D01*
X131625Y164321D01*
X131708Y164357D01*
X131741Y164383D01*
X131761Y164394D01*
X131783Y164417D01*
X131839Y164462D01*
X131878Y164501D01*
X139122Y164501D01*
X139161Y164462D01*
X139235Y164409D01*
X139304Y164349D01*
X139334Y164337D01*
X139360Y164318D01*
X139447Y164291D01*
X139532Y164257D01*
X139573Y164253D01*
X139595Y164246D01*
X139628Y164247D01*
X139638Y164245D01*
X139697Y164208D01*
X139748Y164195D01*
X139795Y164173D01*
X139866Y164165D01*
X139936Y164147D01*
X139988Y164152D01*
X140039Y164146D01*
X140110Y164161D01*
X140181Y164167D01*
X140229Y164187D01*
X140280Y164198D01*
X140341Y164235D01*
X140407Y164263D01*
X140463Y164308D01*
X140491Y164324D01*
X140506Y164342D01*
X140538Y164368D01*
X140772Y164601D01*
X141228Y164864D01*
X141737Y165001D01*
X143501Y165001D01*
X143501Y158238D01*
X143504Y158219D01*
X143502Y158199D01*
X143524Y158097D01*
X143540Y157995D01*
X143550Y157978D01*
X143554Y157958D01*
X143607Y157869D01*
X143656Y157778D01*
X143670Y157764D01*
X143680Y157747D01*
X143759Y157680D01*
X143834Y157609D01*
X143852Y157600D01*
X143867Y157587D01*
X143963Y157549D01*
X144057Y157505D01*
X144077Y157503D01*
X144095Y157496D01*
X144019Y157483D01*
X144002Y157474D01*
X143982Y157470D01*
X143893Y157417D01*
X143802Y157368D01*
X143788Y157354D01*
X143771Y157344D01*
X143704Y157265D01*
X143632Y157190D01*
X143624Y157172D01*
X143611Y157157D01*
X143572Y157060D01*
X143529Y156967D01*
X143527Y156947D01*
X143519Y156929D01*
X143501Y156762D01*
X143501Y149999D01*
X141737Y149999D01*
X141228Y150136D01*
X140772Y150399D01*
X140538Y150632D01*
X140480Y150674D01*
X140428Y150723D01*
X140381Y150745D01*
X140339Y150776D01*
X140270Y150797D01*
X140205Y150827D01*
X140153Y150833D01*
X140104Y150848D01*
X140032Y150846D01*
X139961Y150854D01*
X139910Y150843D01*
X139858Y150842D01*
X139790Y150817D01*
X139720Y150802D01*
X139675Y150775D01*
X139627Y150757D01*
X139614Y150747D01*
X139609Y150747D01*
X139518Y150739D01*
X139488Y150727D01*
X139456Y150722D01*
X139376Y150679D01*
X139292Y150643D01*
X139259Y150617D01*
X139239Y150606D01*
X139217Y150583D01*
X139161Y150538D01*
X139122Y150499D01*
X134738Y150499D01*
X134648Y150485D01*
X134557Y150477D01*
X134527Y150465D01*
X134495Y150460D01*
X134415Y150417D01*
X134331Y150381D01*
X134299Y150355D01*
X134278Y150344D01*
X134256Y150321D01*
X134200Y150276D01*
X129685Y145761D01*
X120000Y145761D01*
X119910Y145747D01*
X119819Y145739D01*
X119789Y145727D01*
X119757Y145722D01*
X119677Y145679D01*
X119593Y145643D01*
X119561Y145617D01*
X119540Y145606D01*
X119518Y145583D01*
X119462Y145538D01*
X109462Y135538D01*
X109409Y135464D01*
X109349Y135395D01*
X109337Y135365D01*
X109318Y135339D01*
X109291Y135252D01*
X109257Y135167D01*
X109253Y135126D01*
X109246Y135103D01*
X109247Y135071D01*
X109239Y135000D01*
X109239Y109699D01*
X109254Y109609D01*
X109261Y109518D01*
X109273Y109488D01*
X109279Y109456D01*
X109321Y109375D01*
X109357Y109292D01*
X109383Y109259D01*
X109394Y109239D01*
X109417Y109217D01*
X109462Y109161D01*
X109751Y108872D01*
X109751Y91128D01*
X109462Y90839D01*
X109409Y90765D01*
X109349Y90696D01*
X109337Y90666D01*
X109318Y90640D01*
X109291Y90553D01*
X109257Y90468D01*
X109253Y90427D01*
X109246Y90405D01*
X109247Y90372D01*
X109239Y90301D01*
X109239Y90000D01*
X109242Y89980D01*
X109240Y89961D01*
X109262Y89859D01*
X109279Y89757D01*
X109288Y89740D01*
X109292Y89720D01*
X109345Y89631D01*
X109394Y89540D01*
X109408Y89526D01*
X109418Y89509D01*
X109497Y89442D01*
X109572Y89371D01*
X109590Y89362D01*
X109605Y89349D01*
X109701Y89310D01*
X109795Y89267D01*
X109815Y89265D01*
X109833Y89257D01*
X110000Y89239D01*
X125000Y89239D01*
X125090Y89254D01*
G37*
%LPC*%
G36*
X13210Y128499D02*
X13210Y128499D01*
X9901Y129870D01*
X7370Y132401D01*
X5999Y135710D01*
X5999Y139290D01*
X7370Y142599D01*
X9901Y145130D01*
X11505Y145795D01*
X11605Y145857D01*
X11705Y145916D01*
X11709Y145921D01*
X11714Y145924D01*
X11789Y146015D01*
X11865Y146103D01*
X11867Y146109D01*
X11871Y146114D01*
X11913Y146222D01*
X11957Y146331D01*
X11958Y146339D01*
X11959Y146343D01*
X11960Y146362D01*
X11975Y146498D01*
X11975Y151253D01*
X23747Y163025D01*
X43432Y163025D01*
X43522Y163039D01*
X43613Y163047D01*
X43643Y163059D01*
X43675Y163064D01*
X43755Y163107D01*
X43839Y163143D01*
X43871Y163169D01*
X43892Y163180D01*
X43914Y163203D01*
X43970Y163248D01*
X50276Y169554D01*
X50329Y169628D01*
X50389Y169697D01*
X50401Y169727D01*
X50420Y169754D01*
X50447Y169841D01*
X50481Y169925D01*
X50485Y169966D01*
X50492Y169989D01*
X50491Y170021D01*
X50499Y170092D01*
X50499Y171864D01*
X53136Y174501D01*
X56864Y174501D01*
X59501Y171864D01*
X59501Y168136D01*
X56864Y165499D01*
X55092Y165499D01*
X55002Y165485D01*
X54911Y165477D01*
X54881Y165465D01*
X54849Y165460D01*
X54769Y165417D01*
X54685Y165381D01*
X54653Y165355D01*
X54632Y165344D01*
X54610Y165321D01*
X54554Y165276D01*
X48248Y158970D01*
X47578Y158300D01*
X47536Y158242D01*
X47487Y158190D01*
X47465Y158143D01*
X47434Y158101D01*
X47413Y158032D01*
X47383Y157967D01*
X47377Y157915D01*
X47362Y157865D01*
X47364Y157794D01*
X47356Y157723D01*
X47367Y157672D01*
X47368Y157620D01*
X47393Y157552D01*
X47408Y157482D01*
X47435Y157437D01*
X47453Y157389D01*
X47498Y157333D01*
X47534Y157271D01*
X47574Y157237D01*
X47606Y157197D01*
X47667Y157158D01*
X47721Y157111D01*
X47770Y157092D01*
X47813Y157064D01*
X47883Y157046D01*
X47949Y157019D01*
X48021Y157011D01*
X48052Y157003D01*
X48075Y157005D01*
X48116Y157001D01*
X54122Y157001D01*
X55001Y156122D01*
X55001Y153786D01*
X55004Y153766D01*
X55002Y153747D01*
X55024Y153645D01*
X55040Y153543D01*
X55050Y153526D01*
X55054Y153506D01*
X55107Y153417D01*
X55156Y153326D01*
X55170Y153312D01*
X55180Y153295D01*
X55259Y153228D01*
X55334Y153156D01*
X55352Y153148D01*
X55367Y153135D01*
X55463Y153096D01*
X55557Y153053D01*
X55577Y153051D01*
X55595Y153043D01*
X55762Y153025D01*
X55932Y153025D01*
X56022Y153039D01*
X56113Y153047D01*
X56143Y153059D01*
X56175Y153064D01*
X56255Y153107D01*
X56339Y153143D01*
X56371Y153169D01*
X56392Y153180D01*
X56414Y153203D01*
X56470Y153248D01*
X61026Y157804D01*
X61079Y157878D01*
X61139Y157947D01*
X61151Y157977D01*
X61170Y158004D01*
X61197Y158091D01*
X61231Y158175D01*
X61235Y158216D01*
X61242Y158239D01*
X61241Y158271D01*
X61249Y158342D01*
X61249Y164622D01*
X62252Y165625D01*
X62305Y165699D01*
X62365Y165768D01*
X62377Y165798D01*
X62396Y165824D01*
X62423Y165911D01*
X62457Y165996D01*
X62461Y166037D01*
X62468Y166059D01*
X62467Y166092D01*
X62475Y166163D01*
X62475Y176432D01*
X62461Y176522D01*
X62453Y176613D01*
X62441Y176643D01*
X62436Y176675D01*
X62393Y176755D01*
X62357Y176839D01*
X62331Y176871D01*
X62320Y176892D01*
X62297Y176914D01*
X62277Y176939D01*
X62274Y176945D01*
X62270Y176948D01*
X62252Y176970D01*
X61446Y177776D01*
X61372Y177829D01*
X61303Y177889D01*
X61273Y177901D01*
X61246Y177920D01*
X61159Y177947D01*
X61075Y177981D01*
X61034Y177985D01*
X61011Y177992D01*
X60979Y177991D01*
X60908Y177999D01*
X52878Y177999D01*
X51999Y178878D01*
X51999Y191122D01*
X52878Y192001D01*
X54714Y192001D01*
X54734Y192004D01*
X54753Y192002D01*
X54855Y192024D01*
X54957Y192040D01*
X54974Y192050D01*
X54994Y192054D01*
X55083Y192107D01*
X55174Y192156D01*
X55188Y192170D01*
X55205Y192180D01*
X55272Y192259D01*
X55344Y192334D01*
X55352Y192352D01*
X55365Y192367D01*
X55404Y192463D01*
X55447Y192557D01*
X55449Y192577D01*
X55457Y192595D01*
X55475Y192762D01*
X55475Y194932D01*
X55461Y195022D01*
X55453Y195113D01*
X55441Y195143D01*
X55436Y195175D01*
X55393Y195255D01*
X55357Y195339D01*
X55331Y195371D01*
X55320Y195392D01*
X55297Y195414D01*
X55252Y195470D01*
X38473Y212249D01*
X38472Y212255D01*
X38474Y212272D01*
X38474Y212274D01*
X38474Y212277D01*
X38452Y212379D01*
X38436Y212481D01*
X38426Y212498D01*
X38422Y212518D01*
X38369Y212607D01*
X38320Y212698D01*
X38306Y212712D01*
X38296Y212729D01*
X38217Y212796D01*
X38142Y212868D01*
X38124Y212876D01*
X38109Y212889D01*
X38013Y212928D01*
X37919Y212971D01*
X37899Y212973D01*
X37881Y212981D01*
X37714Y212999D01*
X35878Y212999D01*
X34999Y213878D01*
X34999Y226122D01*
X35878Y227001D01*
X47122Y227001D01*
X48001Y226122D01*
X48001Y213878D01*
X47238Y213116D01*
X47227Y213100D01*
X47211Y213087D01*
X47155Y213000D01*
X47095Y212916D01*
X47089Y212897D01*
X47078Y212880D01*
X47053Y212780D01*
X47022Y212681D01*
X47023Y212661D01*
X47018Y212642D01*
X47026Y212539D01*
X47029Y212435D01*
X47036Y212416D01*
X47037Y212397D01*
X47078Y212301D01*
X47113Y212204D01*
X47126Y212189D01*
X47133Y212170D01*
X47238Y212039D01*
X61525Y197753D01*
X61525Y192762D01*
X61528Y192742D01*
X61526Y192723D01*
X61548Y192621D01*
X61564Y192519D01*
X61574Y192502D01*
X61578Y192482D01*
X61631Y192393D01*
X61680Y192302D01*
X61694Y192288D01*
X61704Y192271D01*
X61783Y192204D01*
X61858Y192132D01*
X61876Y192124D01*
X61891Y192111D01*
X61987Y192072D01*
X62081Y192029D01*
X62101Y192027D01*
X62119Y192019D01*
X62286Y192001D01*
X64122Y192001D01*
X65001Y191122D01*
X65001Y183092D01*
X65015Y183002D01*
X65023Y182911D01*
X65035Y182881D01*
X65040Y182849D01*
X65083Y182769D01*
X65119Y182685D01*
X65145Y182653D01*
X65156Y182632D01*
X65179Y182610D01*
X65224Y182554D01*
X68525Y179253D01*
X68525Y166163D01*
X68539Y166073D01*
X68547Y165982D01*
X68559Y165952D01*
X68564Y165920D01*
X68607Y165840D01*
X68643Y165756D01*
X68669Y165724D01*
X68680Y165703D01*
X68703Y165681D01*
X68748Y165625D01*
X69397Y164976D01*
X69493Y164907D01*
X69589Y164836D01*
X69593Y164835D01*
X69596Y164832D01*
X69710Y164797D01*
X69823Y164761D01*
X69827Y164761D01*
X69831Y164760D01*
X69950Y164763D01*
X70069Y164765D01*
X70073Y164766D01*
X70077Y164766D01*
X70190Y164807D01*
X70301Y164847D01*
X70304Y164849D01*
X70308Y164851D01*
X70402Y164926D01*
X70495Y164998D01*
X70498Y165002D01*
X70500Y165004D01*
X70508Y165016D01*
X70594Y165133D01*
X70649Y165228D01*
X71022Y165601D01*
X71478Y165864D01*
X71987Y166001D01*
X73626Y166001D01*
X73626Y158613D01*
X73629Y158594D01*
X73627Y158574D01*
X73649Y158472D01*
X73665Y158370D01*
X73675Y158353D01*
X73679Y158333D01*
X73732Y158244D01*
X73781Y158153D01*
X73795Y158139D01*
X73805Y158122D01*
X73884Y158055D01*
X73941Y158001D01*
X73927Y157993D01*
X73913Y157979D01*
X73896Y157969D01*
X73829Y157890D01*
X73757Y157815D01*
X73749Y157797D01*
X73736Y157782D01*
X73697Y157685D01*
X73654Y157592D01*
X73652Y157572D01*
X73644Y157554D01*
X73626Y157387D01*
X73626Y149999D01*
X71987Y149999D01*
X71478Y150136D01*
X71022Y150399D01*
X70649Y150772D01*
X70594Y150867D01*
X70519Y150958D01*
X70445Y151051D01*
X70441Y151054D01*
X70438Y151057D01*
X70338Y151120D01*
X70238Y151184D01*
X70234Y151185D01*
X70230Y151188D01*
X70114Y151215D01*
X69999Y151244D01*
X69995Y151244D01*
X69991Y151245D01*
X69871Y151234D01*
X69754Y151225D01*
X69750Y151224D01*
X69746Y151223D01*
X69635Y151175D01*
X69528Y151129D01*
X69524Y151126D01*
X69521Y151125D01*
X69510Y151115D01*
X69397Y151024D01*
X68872Y150499D01*
X62592Y150499D01*
X62502Y150485D01*
X62411Y150477D01*
X62381Y150465D01*
X62349Y150460D01*
X62269Y150417D01*
X62185Y150381D01*
X62153Y150355D01*
X62132Y150344D01*
X62110Y150321D01*
X62054Y150276D01*
X58753Y146975D01*
X55762Y146975D01*
X55742Y146972D01*
X55723Y146974D01*
X55621Y146952D01*
X55519Y146936D01*
X55502Y146926D01*
X55482Y146922D01*
X55393Y146869D01*
X55302Y146820D01*
X55288Y146806D01*
X55271Y146796D01*
X55204Y146717D01*
X55132Y146642D01*
X55124Y146624D01*
X55111Y146609D01*
X55072Y146513D01*
X55029Y146419D01*
X55027Y146399D01*
X55019Y146381D01*
X55001Y146214D01*
X55001Y143878D01*
X54122Y142999D01*
X42878Y142999D01*
X41999Y143878D01*
X41999Y156214D01*
X41996Y156234D01*
X41998Y156253D01*
X41976Y156355D01*
X41960Y156457D01*
X41950Y156474D01*
X41946Y156494D01*
X41893Y156583D01*
X41844Y156674D01*
X41830Y156688D01*
X41820Y156705D01*
X41741Y156772D01*
X41666Y156844D01*
X41648Y156852D01*
X41633Y156865D01*
X41537Y156904D01*
X41443Y156947D01*
X41423Y156949D01*
X41405Y156957D01*
X41238Y156975D01*
X38762Y156975D01*
X38742Y156972D01*
X38723Y156974D01*
X38621Y156952D01*
X38519Y156936D01*
X38502Y156926D01*
X38482Y156922D01*
X38393Y156869D01*
X38302Y156820D01*
X38288Y156806D01*
X38271Y156796D01*
X38204Y156717D01*
X38132Y156642D01*
X38124Y156624D01*
X38111Y156609D01*
X38072Y156513D01*
X38029Y156419D01*
X38027Y156399D01*
X38019Y156381D01*
X38001Y156214D01*
X38001Y143878D01*
X37238Y143116D01*
X37227Y143100D01*
X37211Y143087D01*
X37155Y143000D01*
X37095Y142916D01*
X37089Y142897D01*
X37078Y142880D01*
X37053Y142780D01*
X37022Y142681D01*
X37023Y142661D01*
X37018Y142642D01*
X37026Y142539D01*
X37029Y142435D01*
X37036Y142416D01*
X37037Y142397D01*
X37078Y142302D01*
X37113Y142204D01*
X37126Y142189D01*
X37133Y142170D01*
X37238Y142039D01*
X39554Y139724D01*
X39628Y139671D01*
X39697Y139611D01*
X39727Y139599D01*
X39754Y139580D01*
X39841Y139553D01*
X39925Y139519D01*
X39966Y139515D01*
X39989Y139508D01*
X40021Y139509D01*
X40092Y139501D01*
X41864Y139501D01*
X44501Y136864D01*
X44501Y133136D01*
X41864Y130499D01*
X38136Y130499D01*
X35499Y133136D01*
X35499Y134908D01*
X35485Y134998D01*
X35477Y135089D01*
X35465Y135119D01*
X35460Y135151D01*
X35417Y135231D01*
X35381Y135315D01*
X35355Y135347D01*
X35344Y135368D01*
X35321Y135390D01*
X35276Y135446D01*
X28473Y142249D01*
X28472Y142258D01*
X28474Y142277D01*
X28452Y142379D01*
X28436Y142481D01*
X28426Y142498D01*
X28422Y142518D01*
X28369Y142607D01*
X28320Y142698D01*
X28306Y142712D01*
X28296Y142729D01*
X28217Y142796D01*
X28142Y142868D01*
X28124Y142876D01*
X28109Y142889D01*
X28013Y142928D01*
X27919Y142971D01*
X27899Y142973D01*
X27881Y142981D01*
X27714Y142999D01*
X25878Y142999D01*
X24999Y143878D01*
X24999Y153884D01*
X24988Y153955D01*
X24986Y154026D01*
X24968Y154075D01*
X24960Y154127D01*
X24926Y154190D01*
X24901Y154257D01*
X24869Y154298D01*
X24844Y154344D01*
X24792Y154393D01*
X24748Y154449D01*
X24704Y154478D01*
X24666Y154513D01*
X24601Y154544D01*
X24541Y154582D01*
X24490Y154595D01*
X24443Y154617D01*
X24372Y154625D01*
X24302Y154642D01*
X24250Y154638D01*
X24199Y154644D01*
X24128Y154629D01*
X24057Y154623D01*
X24009Y154603D01*
X23958Y154592D01*
X23897Y154555D01*
X23831Y154527D01*
X23775Y154482D01*
X23747Y154466D01*
X23732Y154448D01*
X23700Y154422D01*
X18248Y148970D01*
X18195Y148896D01*
X18135Y148827D01*
X18123Y148797D01*
X18104Y148770D01*
X18077Y148683D01*
X18043Y148599D01*
X18039Y148558D01*
X18032Y148535D01*
X18033Y148503D01*
X18025Y148432D01*
X18025Y146498D01*
X18044Y146383D01*
X18061Y146267D01*
X18063Y146261D01*
X18064Y146255D01*
X18119Y146153D01*
X18172Y146048D01*
X18177Y146043D01*
X18180Y146038D01*
X18264Y145958D01*
X18348Y145876D01*
X18354Y145872D01*
X18358Y145869D01*
X18375Y145861D01*
X18495Y145795D01*
X20099Y145130D01*
X22630Y142599D01*
X24001Y139290D01*
X24001Y135710D01*
X22630Y132401D01*
X20099Y129870D01*
X16790Y128499D01*
X13210Y128499D01*
G37*
%LPD*%
G36*
X150020Y14242D02*
X150020Y14242D01*
X150039Y14240D01*
X150141Y14262D01*
X150243Y14279D01*
X150260Y14288D01*
X150280Y14292D01*
X150369Y14345D01*
X150460Y14394D01*
X150474Y14408D01*
X150491Y14418D01*
X150558Y14497D01*
X150630Y14572D01*
X150638Y14590D01*
X150651Y14605D01*
X150690Y14701D01*
X150733Y14795D01*
X150735Y14815D01*
X150743Y14833D01*
X150761Y15000D01*
X150761Y89685D01*
X170315Y109239D01*
X175000Y109239D01*
X175020Y109242D01*
X175039Y109240D01*
X175141Y109262D01*
X175243Y109279D01*
X175260Y109288D01*
X175280Y109292D01*
X175369Y109345D01*
X175460Y109394D01*
X175474Y109408D01*
X175491Y109418D01*
X175558Y109497D01*
X175630Y109572D01*
X175638Y109590D01*
X175651Y109605D01*
X175690Y109701D01*
X175733Y109795D01*
X175735Y109815D01*
X175743Y109833D01*
X175761Y110000D01*
X175761Y120000D01*
X175758Y120020D01*
X175760Y120039D01*
X175738Y120141D01*
X175722Y120243D01*
X175712Y120260D01*
X175708Y120280D01*
X175655Y120369D01*
X175606Y120460D01*
X175592Y120474D01*
X175582Y120491D01*
X175503Y120558D01*
X175428Y120630D01*
X175410Y120638D01*
X175395Y120651D01*
X175299Y120690D01*
X175205Y120733D01*
X175185Y120735D01*
X175167Y120743D01*
X175000Y120761D01*
X165315Y120761D01*
X160761Y125315D01*
X160761Y132558D01*
X160747Y132648D01*
X160739Y132739D01*
X160727Y132769D01*
X160722Y132801D01*
X160679Y132882D01*
X160643Y132966D01*
X160617Y132998D01*
X160606Y133019D01*
X160583Y133041D01*
X160538Y133097D01*
X160499Y133136D01*
X160499Y135000D01*
X160496Y135020D01*
X160498Y135039D01*
X160476Y135141D01*
X160460Y135243D01*
X160450Y135260D01*
X160446Y135280D01*
X160393Y135369D01*
X160344Y135460D01*
X160330Y135474D01*
X160320Y135491D01*
X160241Y135558D01*
X160166Y135630D01*
X160148Y135638D01*
X160133Y135651D01*
X160037Y135690D01*
X159943Y135733D01*
X159923Y135735D01*
X159905Y135743D01*
X159738Y135761D01*
X150262Y135761D01*
X150242Y135758D01*
X150223Y135760D01*
X150121Y135738D01*
X150019Y135722D01*
X150002Y135712D01*
X149982Y135708D01*
X149893Y135655D01*
X149802Y135606D01*
X149788Y135592D01*
X149771Y135582D01*
X149704Y135503D01*
X149632Y135428D01*
X149624Y135410D01*
X149611Y135395D01*
X149572Y135299D01*
X149529Y135205D01*
X149527Y135185D01*
X149519Y135167D01*
X149501Y135000D01*
X149501Y126378D01*
X149462Y126339D01*
X149409Y126265D01*
X149349Y126196D01*
X149337Y126166D01*
X149318Y126140D01*
X149291Y126053D01*
X149257Y125968D01*
X149253Y125927D01*
X149246Y125905D01*
X149247Y125872D01*
X149239Y125801D01*
X149239Y100315D01*
X139462Y90538D01*
X139409Y90464D01*
X139349Y90395D01*
X139337Y90365D01*
X139318Y90339D01*
X139291Y90252D01*
X139257Y90167D01*
X139253Y90126D01*
X139246Y90103D01*
X139247Y90071D01*
X139239Y90000D01*
X139239Y15000D01*
X139242Y14980D01*
X139240Y14961D01*
X139262Y14859D01*
X139279Y14757D01*
X139288Y14740D01*
X139292Y14720D01*
X139345Y14631D01*
X139394Y14540D01*
X139408Y14526D01*
X139418Y14509D01*
X139497Y14442D01*
X139572Y14371D01*
X139590Y14362D01*
X139605Y14349D01*
X139701Y14310D01*
X139795Y14267D01*
X139815Y14265D01*
X139833Y14257D01*
X140000Y14239D01*
X150000Y14239D01*
X150020Y14242D01*
G37*
%LPC*%
G36*
X149063Y207737D02*
X149063Y207737D01*
X147737Y209063D01*
X147737Y235937D01*
X154063Y242263D01*
X185937Y242263D01*
X189952Y238248D01*
X190026Y238195D01*
X190096Y238135D01*
X190126Y238123D01*
X190152Y238104D01*
X190239Y238077D01*
X190324Y238043D01*
X190365Y238039D01*
X190387Y238032D01*
X190419Y238033D01*
X190491Y238025D01*
X196002Y238025D01*
X196117Y238044D01*
X196233Y238061D01*
X196239Y238063D01*
X196245Y238064D01*
X196347Y238119D01*
X196452Y238172D01*
X196457Y238177D01*
X196462Y238180D01*
X196542Y238264D01*
X196624Y238348D01*
X196628Y238354D01*
X196631Y238358D01*
X196639Y238375D01*
X196705Y238495D01*
X197370Y240099D01*
X199901Y242630D01*
X203210Y244001D01*
X206790Y244001D01*
X210099Y242630D01*
X212630Y240099D01*
X214001Y236790D01*
X214001Y233210D01*
X212630Y229901D01*
X210099Y227370D01*
X206790Y225999D01*
X203210Y225999D01*
X199901Y227370D01*
X197370Y229901D01*
X196705Y231505D01*
X196643Y231605D01*
X196584Y231705D01*
X196579Y231709D01*
X196576Y231714D01*
X196485Y231789D01*
X196397Y231865D01*
X196391Y231867D01*
X196386Y231871D01*
X196278Y231913D01*
X196169Y231957D01*
X196161Y231958D01*
X196157Y231959D01*
X196138Y231960D01*
X196002Y231975D01*
X190491Y231975D01*
X190400Y231961D01*
X190310Y231953D01*
X190280Y231941D01*
X190248Y231936D01*
X190167Y231893D01*
X190083Y231857D01*
X190051Y231831D01*
X190030Y231820D01*
X190008Y231797D01*
X189952Y231752D01*
X185937Y227737D01*
X185930Y227737D01*
X185859Y227726D01*
X185788Y227724D01*
X185739Y227706D01*
X185687Y227698D01*
X185624Y227664D01*
X185557Y227639D01*
X185516Y227607D01*
X185470Y227582D01*
X185421Y227531D01*
X185364Y227486D01*
X185336Y227442D01*
X185300Y227404D01*
X185270Y227339D01*
X185232Y227279D01*
X185219Y227228D01*
X185197Y227181D01*
X185189Y227110D01*
X185171Y227040D01*
X185176Y226988D01*
X185170Y226937D01*
X185185Y226866D01*
X185191Y226795D01*
X185211Y226747D01*
X185222Y226696D01*
X185259Y226635D01*
X185287Y226569D01*
X185332Y226513D01*
X185348Y226485D01*
X185366Y226470D01*
X185392Y226438D01*
X185601Y226228D01*
X185864Y225772D01*
X186001Y225263D01*
X186001Y221523D01*
X179262Y221523D01*
X179242Y221520D01*
X179223Y221522D01*
X179121Y221500D01*
X179019Y221483D01*
X179002Y221474D01*
X178982Y221470D01*
X178893Y221417D01*
X178802Y221368D01*
X178788Y221354D01*
X178771Y221344D01*
X178704Y221265D01*
X178633Y221190D01*
X178624Y221172D01*
X178611Y221157D01*
X178572Y221061D01*
X178529Y220967D01*
X178527Y220947D01*
X178519Y220929D01*
X178501Y220762D01*
X178501Y219999D01*
X177738Y219999D01*
X177718Y219996D01*
X177699Y219998D01*
X177597Y219976D01*
X177495Y219959D01*
X177478Y219950D01*
X177458Y219946D01*
X177369Y219893D01*
X177278Y219844D01*
X177264Y219830D01*
X177247Y219820D01*
X177180Y219741D01*
X177109Y219666D01*
X177100Y219648D01*
X177087Y219633D01*
X177048Y219537D01*
X177005Y219443D01*
X177003Y219423D01*
X176995Y219405D01*
X176977Y219238D01*
X176977Y212999D01*
X173024Y212999D01*
X173004Y212996D01*
X172985Y212998D01*
X172883Y212976D01*
X172781Y212960D01*
X172764Y212950D01*
X172744Y212946D01*
X172655Y212893D01*
X172564Y212844D01*
X172550Y212830D01*
X172533Y212820D01*
X172466Y212741D01*
X172394Y212666D01*
X172386Y212648D01*
X172373Y212633D01*
X172334Y212537D01*
X172291Y212443D01*
X172289Y212423D01*
X172281Y212405D01*
X172263Y212238D01*
X172263Y209063D01*
X170937Y207737D01*
X149063Y207737D01*
G37*
%LPD*%
G36*
X170020Y209242D02*
X170020Y209242D01*
X170039Y209240D01*
X170141Y209262D01*
X170243Y209279D01*
X170260Y209288D01*
X170280Y209292D01*
X170369Y209345D01*
X170460Y209394D01*
X170474Y209408D01*
X170491Y209418D01*
X170558Y209497D01*
X170630Y209572D01*
X170638Y209590D01*
X170651Y209605D01*
X170690Y209701D01*
X170733Y209795D01*
X170735Y209815D01*
X170743Y209833D01*
X170761Y210000D01*
X170761Y224685D01*
X171276Y225200D01*
X171329Y225274D01*
X171389Y225343D01*
X171401Y225373D01*
X171420Y225399D01*
X171447Y225486D01*
X171481Y225571D01*
X171485Y225607D01*
X172397Y226519D01*
X172443Y226523D01*
X172473Y226535D01*
X172505Y226540D01*
X172585Y226583D01*
X172669Y226619D01*
X172701Y226645D01*
X172722Y226656D01*
X172744Y226679D01*
X172800Y226724D01*
X175315Y229239D01*
X185000Y229239D01*
X185090Y229254D01*
X185181Y229261D01*
X185211Y229273D01*
X185243Y229279D01*
X185323Y229321D01*
X185407Y229357D01*
X185439Y229383D01*
X185460Y229394D01*
X185482Y229417D01*
X185538Y229462D01*
X190538Y234462D01*
X190550Y234478D01*
X190565Y234490D01*
X190622Y234578D01*
X190682Y234661D01*
X190688Y234680D01*
X190698Y234697D01*
X190724Y234798D01*
X190754Y234897D01*
X190754Y234916D01*
X190759Y234936D01*
X190751Y235039D01*
X190748Y235142D01*
X190741Y235161D01*
X190739Y235181D01*
X190699Y235276D01*
X190663Y235373D01*
X190651Y235389D01*
X190643Y235407D01*
X190538Y235538D01*
X185538Y240538D01*
X185464Y240591D01*
X185395Y240651D01*
X185365Y240663D01*
X185339Y240682D01*
X185252Y240709D01*
X185167Y240743D01*
X185126Y240747D01*
X185103Y240754D01*
X185071Y240753D01*
X185000Y240761D01*
X155000Y240761D01*
X154910Y240747D01*
X154819Y240739D01*
X154789Y240727D01*
X154757Y240722D01*
X154677Y240679D01*
X154593Y240643D01*
X154561Y240617D01*
X154540Y240606D01*
X154518Y240583D01*
X154462Y240538D01*
X149462Y235538D01*
X149409Y235464D01*
X149349Y235395D01*
X149337Y235365D01*
X149318Y235339D01*
X149291Y235252D01*
X149257Y235167D01*
X149253Y235126D01*
X149246Y235103D01*
X149247Y235071D01*
X149239Y235000D01*
X149239Y210000D01*
X149242Y209980D01*
X149240Y209961D01*
X149262Y209859D01*
X149279Y209757D01*
X149288Y209740D01*
X149292Y209720D01*
X149345Y209631D01*
X149394Y209540D01*
X149408Y209526D01*
X149418Y209509D01*
X149497Y209442D01*
X149572Y209371D01*
X149590Y209362D01*
X149605Y209349D01*
X149701Y209310D01*
X149795Y209267D01*
X149815Y209265D01*
X149833Y209257D01*
X150000Y209239D01*
X170000Y209239D01*
X170020Y209242D01*
G37*
G36*
X80090Y119254D02*
X80090Y119254D01*
X80181Y119261D01*
X80211Y119273D01*
X80243Y119279D01*
X80323Y119321D01*
X80407Y119357D01*
X80439Y119383D01*
X80460Y119394D01*
X80482Y119417D01*
X80538Y119462D01*
X85538Y124462D01*
X85591Y124536D01*
X85651Y124605D01*
X85663Y124635D01*
X85682Y124661D01*
X85709Y124748D01*
X85743Y124833D01*
X85747Y124874D01*
X85754Y124897D01*
X85753Y124929D01*
X85761Y125000D01*
X85761Y129685D01*
X105538Y149462D01*
X105591Y149536D01*
X105651Y149605D01*
X105663Y149635D01*
X105682Y149661D01*
X105709Y149748D01*
X105743Y149833D01*
X105747Y149874D01*
X105754Y149897D01*
X105753Y149929D01*
X105761Y150000D01*
X105761Y160000D01*
X105758Y160020D01*
X105760Y160039D01*
X105738Y160141D01*
X105722Y160243D01*
X105712Y160260D01*
X105708Y160280D01*
X105655Y160369D01*
X105606Y160460D01*
X105592Y160474D01*
X105582Y160491D01*
X105503Y160558D01*
X105428Y160630D01*
X105410Y160638D01*
X105395Y160651D01*
X105299Y160690D01*
X105205Y160733D01*
X105185Y160735D01*
X105167Y160743D01*
X105000Y160761D01*
X100000Y160761D01*
X99980Y160758D01*
X99961Y160760D01*
X99859Y160738D01*
X99757Y160722D01*
X99740Y160712D01*
X99720Y160708D01*
X99631Y160655D01*
X99540Y160606D01*
X99526Y160592D01*
X99509Y160582D01*
X99442Y160503D01*
X99371Y160428D01*
X99362Y160410D01*
X99349Y160395D01*
X99310Y160299D01*
X99267Y160205D01*
X99265Y160185D01*
X99257Y160167D01*
X99239Y160000D01*
X99239Y155315D01*
X84685Y140761D01*
X70000Y140761D01*
X69980Y140758D01*
X69961Y140760D01*
X69859Y140738D01*
X69757Y140722D01*
X69740Y140712D01*
X69720Y140708D01*
X69631Y140655D01*
X69540Y140606D01*
X69526Y140592D01*
X69509Y140582D01*
X69442Y140503D01*
X69371Y140428D01*
X69362Y140410D01*
X69349Y140395D01*
X69310Y140299D01*
X69267Y140205D01*
X69265Y140185D01*
X69257Y140167D01*
X69239Y140000D01*
X69239Y139449D01*
X69254Y139359D01*
X69261Y139268D01*
X69273Y139238D01*
X69279Y139206D01*
X69321Y139125D01*
X69357Y139042D01*
X69383Y139009D01*
X69394Y138989D01*
X69417Y138967D01*
X69462Y138911D01*
X69751Y138622D01*
X69751Y125378D01*
X69462Y125089D01*
X69417Y125028D01*
X69387Y124996D01*
X69381Y124984D01*
X69349Y124946D01*
X69337Y124916D01*
X69318Y124890D01*
X69291Y124803D01*
X69257Y124718D01*
X69253Y124677D01*
X69246Y124655D01*
X69247Y124622D01*
X69239Y124551D01*
X69239Y120000D01*
X69242Y119980D01*
X69240Y119961D01*
X69262Y119859D01*
X69279Y119757D01*
X69288Y119740D01*
X69292Y119720D01*
X69345Y119631D01*
X69394Y119540D01*
X69408Y119526D01*
X69418Y119509D01*
X69497Y119442D01*
X69572Y119371D01*
X69590Y119362D01*
X69605Y119349D01*
X69701Y119310D01*
X69795Y119267D01*
X69815Y119265D01*
X69833Y119257D01*
X70000Y119239D01*
X80000Y119239D01*
X80090Y119254D01*
G37*
G36*
X140814Y94254D02*
X140814Y94254D01*
X140904Y94261D01*
X140934Y94273D01*
X140966Y94279D01*
X141047Y94321D01*
X141131Y94357D01*
X141163Y94383D01*
X141184Y94394D01*
X141206Y94417D01*
X141262Y94462D01*
X147514Y100714D01*
X147567Y100788D01*
X147627Y100858D01*
X147639Y100888D01*
X147658Y100914D01*
X147685Y101001D01*
X147719Y101086D01*
X147723Y101127D01*
X147730Y101149D01*
X147729Y101181D01*
X147737Y101253D01*
X147737Y124238D01*
X147734Y124258D01*
X147736Y124277D01*
X147714Y124379D01*
X147698Y124481D01*
X147688Y124498D01*
X147684Y124518D01*
X147631Y124607D01*
X147582Y124698D01*
X147568Y124712D01*
X147558Y124729D01*
X147479Y124796D01*
X147404Y124868D01*
X147386Y124876D01*
X147371Y124889D01*
X147275Y124928D01*
X147181Y124971D01*
X147161Y124973D01*
X147143Y124981D01*
X146976Y124999D01*
X146499Y124999D01*
X146499Y131762D01*
X146496Y131781D01*
X146498Y131801D01*
X146476Y131903D01*
X146460Y132005D01*
X146450Y132022D01*
X146446Y132042D01*
X146393Y132131D01*
X146344Y132222D01*
X146330Y132236D01*
X146320Y132253D01*
X146241Y132320D01*
X146166Y132391D01*
X146148Y132400D01*
X146133Y132413D01*
X146037Y132451D01*
X145943Y132495D01*
X145923Y132497D01*
X145905Y132505D01*
X145738Y132523D01*
X144262Y132523D01*
X144242Y132520D01*
X144222Y132522D01*
X144121Y132500D01*
X144019Y132483D01*
X144002Y132474D01*
X143982Y132470D01*
X143893Y132417D01*
X143802Y132368D01*
X143788Y132354D01*
X143771Y132344D01*
X143704Y132265D01*
X143632Y132190D01*
X143624Y132172D01*
X143611Y132157D01*
X143572Y132060D01*
X143529Y131967D01*
X143527Y131947D01*
X143519Y131929D01*
X143501Y131762D01*
X143501Y124999D01*
X141737Y124999D01*
X141228Y125136D01*
X140772Y125399D01*
X140435Y125736D01*
X140419Y125747D01*
X140406Y125763D01*
X140319Y125819D01*
X140235Y125879D01*
X140216Y125885D01*
X140199Y125896D01*
X140099Y125921D01*
X140000Y125952D01*
X139980Y125951D01*
X139961Y125956D01*
X139858Y125948D01*
X139754Y125945D01*
X139735Y125939D01*
X139715Y125937D01*
X139620Y125896D01*
X139523Y125861D01*
X139507Y125848D01*
X139489Y125841D01*
X139358Y125736D01*
X139089Y125467D01*
X139043Y125460D01*
X139026Y125450D01*
X139006Y125446D01*
X138917Y125393D01*
X138826Y125344D01*
X138812Y125330D01*
X138795Y125320D01*
X138728Y125241D01*
X138656Y125166D01*
X138648Y125148D01*
X138635Y125133D01*
X138596Y125037D01*
X138553Y124943D01*
X138551Y124923D01*
X138543Y124905D01*
X138525Y124738D01*
X138525Y123156D01*
X138527Y123140D01*
X138526Y123127D01*
X138540Y123063D01*
X138547Y122975D01*
X138559Y122945D01*
X138564Y122913D01*
X138578Y122888D01*
X138578Y122886D01*
X138582Y122880D01*
X138607Y122832D01*
X138643Y122748D01*
X138669Y122716D01*
X138680Y122695D01*
X138703Y122673D01*
X138748Y122617D01*
X139501Y121864D01*
X139501Y118136D01*
X136864Y115499D01*
X133136Y115499D01*
X130499Y118136D01*
X130499Y121864D01*
X132252Y123617D01*
X132305Y123691D01*
X132365Y123761D01*
X132377Y123791D01*
X132396Y123817D01*
X132423Y123904D01*
X132457Y123989D01*
X132461Y124030D01*
X132468Y124052D01*
X132467Y124084D01*
X132475Y124156D01*
X132475Y124738D01*
X132472Y124758D01*
X132474Y124777D01*
X132452Y124879D01*
X132436Y124981D01*
X132426Y124998D01*
X132422Y125018D01*
X132369Y125107D01*
X132320Y125198D01*
X132306Y125212D01*
X132296Y125229D01*
X132217Y125296D01*
X132142Y125368D01*
X132124Y125376D01*
X132109Y125389D01*
X132013Y125428D01*
X131919Y125471D01*
X131905Y125473D01*
X130999Y126378D01*
X130999Y135961D01*
X130988Y136032D01*
X130986Y136104D01*
X130968Y136153D01*
X130960Y136204D01*
X130926Y136268D01*
X130901Y136335D01*
X130869Y136376D01*
X130844Y136422D01*
X130792Y136471D01*
X130748Y136527D01*
X130704Y136555D01*
X130666Y136591D01*
X130601Y136621D01*
X130541Y136660D01*
X130490Y136673D01*
X130443Y136695D01*
X130372Y136703D01*
X130302Y136720D01*
X130250Y136716D01*
X130199Y136722D01*
X130128Y136706D01*
X130057Y136701D01*
X130009Y136681D01*
X129958Y136669D01*
X129897Y136633D01*
X129831Y136605D01*
X129775Y136560D01*
X129747Y136543D01*
X129732Y136525D01*
X129700Y136500D01*
X127486Y134286D01*
X127433Y134212D01*
X127373Y134142D01*
X127361Y134112D01*
X127342Y134086D01*
X127315Y133999D01*
X127281Y133914D01*
X127277Y133873D01*
X127270Y133851D01*
X127271Y133819D01*
X127263Y133747D01*
X127263Y111253D01*
X127277Y111162D01*
X127285Y111072D01*
X127297Y111042D01*
X127302Y111010D01*
X127345Y110929D01*
X127381Y110845D01*
X127407Y110813D01*
X127418Y110792D01*
X127441Y110770D01*
X127486Y110714D01*
X132263Y105937D01*
X132263Y95000D01*
X132266Y94980D01*
X132264Y94961D01*
X132286Y94859D01*
X132302Y94757D01*
X132312Y94740D01*
X132316Y94720D01*
X132369Y94631D01*
X132418Y94540D01*
X132432Y94526D01*
X132442Y94509D01*
X132521Y94442D01*
X132596Y94371D01*
X132614Y94362D01*
X132629Y94349D01*
X132725Y94310D01*
X132819Y94267D01*
X132839Y94265D01*
X132857Y94257D01*
X133024Y94239D01*
X140723Y94239D01*
X140814Y94254D01*
G37*
%LPC*%
G36*
X13210Y95999D02*
X13210Y95999D01*
X9901Y97370D01*
X7370Y99901D01*
X5999Y103210D01*
X5999Y106790D01*
X7370Y110099D01*
X9901Y112630D01*
X13210Y114001D01*
X16790Y114001D01*
X20099Y112630D01*
X22630Y110099D01*
X23129Y108895D01*
X23153Y108856D01*
X23169Y108813D01*
X23217Y108752D01*
X23259Y108686D01*
X23294Y108657D01*
X23323Y108621D01*
X23388Y108579D01*
X23448Y108529D01*
X23491Y108513D01*
X23529Y108488D01*
X23605Y108469D01*
X23678Y108441D01*
X23723Y108439D01*
X23768Y108428D01*
X23846Y108434D01*
X23923Y108431D01*
X23968Y108443D01*
X24013Y108447D01*
X24085Y108477D01*
X24160Y108499D01*
X24197Y108525D01*
X24240Y108543D01*
X24346Y108629D01*
X24362Y108639D01*
X24365Y108643D01*
X24371Y108648D01*
X35276Y119554D01*
X35329Y119628D01*
X35389Y119697D01*
X35401Y119727D01*
X35420Y119754D01*
X35447Y119841D01*
X35481Y119925D01*
X35485Y119966D01*
X35492Y119989D01*
X35491Y120021D01*
X35499Y120092D01*
X35499Y121864D01*
X38136Y124501D01*
X41864Y124501D01*
X44501Y121864D01*
X44501Y118136D01*
X41864Y115499D01*
X40092Y115499D01*
X40002Y115485D01*
X39911Y115477D01*
X39881Y115465D01*
X39849Y115460D01*
X39769Y115417D01*
X39685Y115381D01*
X39653Y115355D01*
X39632Y115344D01*
X39610Y115321D01*
X39554Y115276D01*
X26253Y101975D01*
X23998Y101975D01*
X23883Y101956D01*
X23767Y101939D01*
X23761Y101937D01*
X23755Y101936D01*
X23653Y101881D01*
X23548Y101828D01*
X23543Y101823D01*
X23538Y101820D01*
X23458Y101736D01*
X23376Y101652D01*
X23372Y101646D01*
X23369Y101642D01*
X23361Y101625D01*
X23295Y101505D01*
X22630Y99901D01*
X20099Y97370D01*
X16790Y95999D01*
X13210Y95999D01*
G37*
%LPD*%
%LPC*%
G36*
X13210Y193499D02*
X13210Y193499D01*
X9901Y194870D01*
X7370Y197401D01*
X5999Y200710D01*
X5999Y204290D01*
X7370Y207599D01*
X9901Y210130D01*
X13210Y211501D01*
X16790Y211501D01*
X20099Y210130D01*
X22630Y207599D01*
X23295Y205995D01*
X23357Y205895D01*
X23416Y205795D01*
X23421Y205791D01*
X23424Y205786D01*
X23515Y205711D01*
X23603Y205635D01*
X23609Y205633D01*
X23614Y205629D01*
X23722Y205587D01*
X23831Y205543D01*
X23839Y205542D01*
X23843Y205541D01*
X23862Y205540D01*
X23998Y205525D01*
X38753Y205525D01*
X39554Y204724D01*
X39628Y204671D01*
X39697Y204611D01*
X39727Y204599D01*
X39754Y204580D01*
X39841Y204553D01*
X39925Y204519D01*
X39966Y204515D01*
X39989Y204508D01*
X40021Y204509D01*
X40092Y204501D01*
X41864Y204501D01*
X44501Y201864D01*
X44501Y198136D01*
X41864Y195499D01*
X38136Y195499D01*
X35499Y198136D01*
X35499Y198714D01*
X35496Y198734D01*
X35498Y198753D01*
X35476Y198855D01*
X35460Y198957D01*
X35450Y198974D01*
X35446Y198994D01*
X35393Y199083D01*
X35344Y199174D01*
X35330Y199188D01*
X35320Y199205D01*
X35241Y199272D01*
X35166Y199344D01*
X35148Y199352D01*
X35133Y199365D01*
X35037Y199404D01*
X34943Y199447D01*
X34923Y199449D01*
X34905Y199457D01*
X34738Y199475D01*
X23998Y199475D01*
X23883Y199456D01*
X23767Y199439D01*
X23761Y199437D01*
X23755Y199436D01*
X23653Y199381D01*
X23548Y199328D01*
X23543Y199323D01*
X23538Y199320D01*
X23458Y199236D01*
X23376Y199152D01*
X23372Y199146D01*
X23369Y199142D01*
X23361Y199125D01*
X23295Y199005D01*
X22630Y197401D01*
X20099Y194870D01*
X16790Y193499D01*
X13210Y193499D01*
G37*
%LPD*%
%LPC*%
G36*
X13210Y225999D02*
X13210Y225999D01*
X9901Y227370D01*
X7370Y229901D01*
X5999Y233210D01*
X5999Y236790D01*
X7370Y240099D01*
X9901Y242630D01*
X13210Y244001D01*
X16790Y244001D01*
X20099Y242630D01*
X22630Y240099D01*
X23295Y238495D01*
X23357Y238395D01*
X23416Y238295D01*
X23421Y238291D01*
X23424Y238286D01*
X23515Y238211D01*
X23603Y238135D01*
X23609Y238133D01*
X23614Y238129D01*
X23722Y238087D01*
X23831Y238043D01*
X23839Y238042D01*
X23843Y238041D01*
X23862Y238040D01*
X23998Y238025D01*
X36344Y238025D01*
X36434Y238039D01*
X36525Y238047D01*
X36555Y238059D01*
X36587Y238064D01*
X36668Y238107D01*
X36752Y238143D01*
X36784Y238169D01*
X36805Y238180D01*
X36827Y238203D01*
X36883Y238248D01*
X38136Y239501D01*
X41864Y239501D01*
X44501Y236864D01*
X44501Y233136D01*
X41864Y230499D01*
X38136Y230499D01*
X36883Y231752D01*
X36809Y231805D01*
X36739Y231865D01*
X36709Y231877D01*
X36683Y231896D01*
X36596Y231923D01*
X36511Y231957D01*
X36470Y231961D01*
X36448Y231968D01*
X36416Y231967D01*
X36344Y231975D01*
X23998Y231975D01*
X23883Y231956D01*
X23767Y231939D01*
X23761Y231937D01*
X23755Y231936D01*
X23653Y231881D01*
X23548Y231828D01*
X23543Y231823D01*
X23538Y231820D01*
X23458Y231736D01*
X23376Y231652D01*
X23372Y231646D01*
X23369Y231642D01*
X23361Y231625D01*
X23295Y231505D01*
X22630Y229901D01*
X20099Y227370D01*
X16790Y225999D01*
X13210Y225999D01*
G37*
%LPD*%
%LPC*%
G36*
X203210Y160999D02*
X203210Y160999D01*
X199901Y162370D01*
X197370Y164901D01*
X196705Y166505D01*
X196644Y166604D01*
X196584Y166705D01*
X196579Y166709D01*
X196576Y166714D01*
X196485Y166789D01*
X196397Y166865D01*
X196391Y166867D01*
X196386Y166871D01*
X196278Y166913D01*
X196169Y166957D01*
X196161Y166958D01*
X196157Y166959D01*
X196138Y166960D01*
X196002Y166975D01*
X183656Y166975D01*
X183566Y166961D01*
X183475Y166953D01*
X183445Y166941D01*
X183413Y166936D01*
X183332Y166893D01*
X183248Y166857D01*
X183216Y166831D01*
X183195Y166820D01*
X183173Y166797D01*
X183117Y166752D01*
X181864Y165499D01*
X178136Y165499D01*
X175499Y168136D01*
X175499Y171864D01*
X178136Y174501D01*
X181864Y174501D01*
X183117Y173248D01*
X183191Y173195D01*
X183261Y173135D01*
X183291Y173123D01*
X183317Y173104D01*
X183404Y173077D01*
X183489Y173043D01*
X183530Y173039D01*
X183552Y173032D01*
X183584Y173033D01*
X183656Y173025D01*
X196002Y173025D01*
X196117Y173044D01*
X196233Y173061D01*
X196239Y173063D01*
X196245Y173064D01*
X196347Y173119D01*
X196452Y173172D01*
X196457Y173177D01*
X196462Y173180D01*
X196542Y173264D01*
X196624Y173348D01*
X196628Y173354D01*
X196631Y173358D01*
X196639Y173375D01*
X196705Y173495D01*
X197370Y175099D01*
X199901Y177630D01*
X203210Y179001D01*
X206790Y179001D01*
X210099Y177630D01*
X212630Y175099D01*
X214001Y171790D01*
X214001Y168210D01*
X212630Y164901D01*
X210099Y162370D01*
X206790Y160999D01*
X203210Y160999D01*
G37*
%LPD*%
%LPC*%
G36*
X13210Y160999D02*
X13210Y160999D01*
X9901Y162370D01*
X7370Y164901D01*
X5999Y168210D01*
X5999Y171790D01*
X7370Y175099D01*
X9901Y177630D01*
X13210Y179001D01*
X16790Y179001D01*
X20099Y177630D01*
X22630Y175099D01*
X23295Y173495D01*
X23357Y173395D01*
X23416Y173295D01*
X23421Y173291D01*
X23424Y173286D01*
X23515Y173211D01*
X23603Y173135D01*
X23609Y173133D01*
X23614Y173129D01*
X23722Y173087D01*
X23831Y173043D01*
X23839Y173042D01*
X23843Y173041D01*
X23862Y173040D01*
X23998Y173025D01*
X36344Y173025D01*
X36435Y173039D01*
X36525Y173047D01*
X36555Y173059D01*
X36587Y173064D01*
X36668Y173107D01*
X36752Y173143D01*
X36784Y173169D01*
X36805Y173180D01*
X36827Y173203D01*
X36883Y173248D01*
X38136Y174501D01*
X41864Y174501D01*
X44501Y171864D01*
X44501Y168136D01*
X41864Y165499D01*
X38136Y165499D01*
X36883Y166752D01*
X36809Y166805D01*
X36739Y166865D01*
X36709Y166877D01*
X36683Y166896D01*
X36596Y166923D01*
X36511Y166957D01*
X36470Y166961D01*
X36448Y166968D01*
X36416Y166967D01*
X36344Y166975D01*
X23998Y166975D01*
X23883Y166956D01*
X23767Y166939D01*
X23761Y166937D01*
X23755Y166936D01*
X23653Y166881D01*
X23548Y166828D01*
X23543Y166823D01*
X23538Y166820D01*
X23458Y166736D01*
X23376Y166652D01*
X23372Y166646D01*
X23369Y166642D01*
X23361Y166625D01*
X23295Y166505D01*
X22630Y164901D01*
X20099Y162370D01*
X16790Y160999D01*
X13210Y160999D01*
G37*
%LPD*%
%LPC*%
G36*
X52878Y212999D02*
X52878Y212999D01*
X51999Y213878D01*
X51999Y226122D01*
X52878Y227001D01*
X54714Y227001D01*
X54734Y227004D01*
X54753Y227002D01*
X54855Y227024D01*
X54957Y227040D01*
X54974Y227050D01*
X54994Y227054D01*
X55083Y227107D01*
X55174Y227156D01*
X55188Y227170D01*
X55205Y227180D01*
X55272Y227259D01*
X55344Y227334D01*
X55352Y227352D01*
X55365Y227367D01*
X55404Y227463D01*
X55447Y227557D01*
X55449Y227577D01*
X55457Y227595D01*
X55475Y227762D01*
X55475Y230771D01*
X55465Y230831D01*
X55466Y230892D01*
X55441Y230982D01*
X55436Y231014D01*
X55428Y231028D01*
X55421Y231054D01*
X55226Y231540D01*
X55414Y231977D01*
X55431Y232045D01*
X55457Y232110D01*
X55465Y232184D01*
X55473Y232216D01*
X55471Y232238D01*
X55475Y232277D01*
X55475Y232912D01*
X55481Y232925D01*
X55485Y232966D01*
X55492Y232989D01*
X55491Y233021D01*
X55499Y233092D01*
X55499Y236864D01*
X58136Y239501D01*
X61864Y239501D01*
X64501Y236864D01*
X64501Y233136D01*
X61748Y230383D01*
X61695Y230309D01*
X61635Y230239D01*
X61623Y230209D01*
X61604Y230183D01*
X61577Y230096D01*
X61543Y230011D01*
X61539Y229970D01*
X61532Y229948D01*
X61533Y229916D01*
X61525Y229844D01*
X61525Y227762D01*
X61528Y227742D01*
X61526Y227723D01*
X61548Y227621D01*
X61564Y227519D01*
X61574Y227502D01*
X61578Y227482D01*
X61631Y227393D01*
X61680Y227302D01*
X61694Y227288D01*
X61704Y227271D01*
X61783Y227204D01*
X61858Y227132D01*
X61876Y227124D01*
X61891Y227111D01*
X61987Y227072D01*
X62081Y227029D01*
X62101Y227027D01*
X62119Y227019D01*
X62286Y227001D01*
X64122Y227001D01*
X65001Y226122D01*
X65001Y213878D01*
X64122Y212999D01*
X52878Y212999D01*
G37*
%LPD*%
%LPC*%
G36*
X126378Y210499D02*
X126378Y210499D01*
X125499Y211378D01*
X125499Y221622D01*
X126378Y222501D01*
X142622Y222501D01*
X143501Y221622D01*
X143501Y211378D01*
X142622Y210499D01*
X126378Y210499D01*
G37*
%LPD*%
%LPC*%
G36*
X21523Y471523D02*
X21523Y471523D01*
X21523Y482001D01*
X30263Y482001D01*
X30772Y481864D01*
X31228Y481601D01*
X31601Y481228D01*
X31864Y480772D01*
X32001Y480263D01*
X32001Y471523D01*
X21523Y471523D01*
G37*
%LPD*%
%LPC*%
G36*
X201523Y291523D02*
X201523Y291523D01*
X201523Y302001D01*
X210263Y302001D01*
X210772Y301864D01*
X211228Y301601D01*
X211601Y301228D01*
X211864Y300772D01*
X212001Y300263D01*
X212001Y291523D01*
X201523Y291523D01*
G37*
%LPD*%
%LPC*%
G36*
X201523Y471523D02*
X201523Y471523D01*
X201523Y482001D01*
X210263Y482001D01*
X210772Y481864D01*
X211228Y481601D01*
X211601Y481228D01*
X211864Y480772D01*
X212001Y480263D01*
X212001Y471523D01*
X201523Y471523D01*
G37*
%LPD*%
%LPC*%
G36*
X21523Y291523D02*
X21523Y291523D01*
X21523Y302001D01*
X30263Y302001D01*
X30772Y301864D01*
X31228Y301601D01*
X31601Y301228D01*
X31864Y300772D01*
X32001Y300263D01*
X32001Y291523D01*
X21523Y291523D01*
G37*
%LPD*%
%LPC*%
G36*
X187999Y471523D02*
X187999Y471523D01*
X187999Y480263D01*
X188136Y480772D01*
X188399Y481228D01*
X188772Y481601D01*
X189228Y481864D01*
X189737Y482001D01*
X198477Y482001D01*
X198477Y471523D01*
X187999Y471523D01*
G37*
%LPD*%
%LPC*%
G36*
X21523Y457999D02*
X21523Y457999D01*
X21523Y468477D01*
X32001Y468477D01*
X32001Y459737D01*
X31864Y459228D01*
X31601Y458772D01*
X31228Y458399D01*
X30772Y458136D01*
X30263Y457999D01*
X21523Y457999D01*
G37*
%LPD*%
%LPC*%
G36*
X201523Y457999D02*
X201523Y457999D01*
X201523Y468477D01*
X212001Y468477D01*
X212001Y459737D01*
X211864Y459228D01*
X211601Y458772D01*
X211228Y458399D01*
X210772Y458136D01*
X210263Y457999D01*
X201523Y457999D01*
G37*
%LPD*%
%LPC*%
G36*
X187999Y291523D02*
X187999Y291523D01*
X187999Y300263D01*
X188136Y300772D01*
X188399Y301228D01*
X188772Y301601D01*
X189228Y301864D01*
X189737Y302001D01*
X198477Y302001D01*
X198477Y291523D01*
X187999Y291523D01*
G37*
%LPD*%
%LPC*%
G36*
X7999Y291523D02*
X7999Y291523D01*
X7999Y300263D01*
X8136Y300772D01*
X8399Y301228D01*
X8772Y301601D01*
X9228Y301864D01*
X9737Y302001D01*
X18477Y302001D01*
X18477Y291523D01*
X7999Y291523D01*
G37*
%LPD*%
%LPC*%
G36*
X7999Y471523D02*
X7999Y471523D01*
X7999Y480263D01*
X8136Y480772D01*
X8399Y481228D01*
X8772Y481601D01*
X9228Y481864D01*
X9737Y482001D01*
X18477Y482001D01*
X18477Y471523D01*
X7999Y471523D01*
G37*
%LPD*%
%LPC*%
G36*
X201523Y277999D02*
X201523Y277999D01*
X201523Y288477D01*
X212001Y288477D01*
X212001Y279737D01*
X211864Y279228D01*
X211601Y278772D01*
X211228Y278399D01*
X210772Y278136D01*
X210263Y277999D01*
X201523Y277999D01*
G37*
%LPD*%
%LPC*%
G36*
X21523Y277999D02*
X21523Y277999D01*
X21523Y288477D01*
X32001Y288477D01*
X32001Y279737D01*
X31864Y279228D01*
X31601Y278772D01*
X31228Y278399D01*
X30772Y278136D01*
X30263Y277999D01*
X21523Y277999D01*
G37*
%LPD*%
%LPC*%
G36*
X9737Y277999D02*
X9737Y277999D01*
X9228Y278136D01*
X8772Y278399D01*
X8399Y278772D01*
X8136Y279228D01*
X7999Y279737D01*
X7999Y288477D01*
X18477Y288477D01*
X18477Y277999D01*
X9737Y277999D01*
G37*
%LPD*%
%LPC*%
G36*
X189737Y277999D02*
X189737Y277999D01*
X189228Y278136D01*
X188772Y278399D01*
X188399Y278772D01*
X188136Y279228D01*
X187999Y279737D01*
X187999Y288477D01*
X198477Y288477D01*
X198477Y277999D01*
X189737Y277999D01*
G37*
%LPD*%
%LPC*%
G36*
X9737Y457999D02*
X9737Y457999D01*
X9228Y458136D01*
X8772Y458399D01*
X8399Y458772D01*
X8136Y459228D01*
X7999Y459737D01*
X7999Y468477D01*
X18477Y468477D01*
X18477Y457999D01*
X9737Y457999D01*
G37*
%LPD*%
%LPC*%
G36*
X189737Y457999D02*
X189737Y457999D01*
X189228Y458136D01*
X188772Y458399D01*
X188399Y458772D01*
X188136Y459228D01*
X187999Y459737D01*
X187999Y468477D01*
X198477Y468477D01*
X198477Y457999D01*
X189737Y457999D01*
G37*
%LPD*%
%LPC*%
G36*
X61023Y301523D02*
X61023Y301523D01*
X61023Y308501D01*
X69763Y308501D01*
X70272Y308364D01*
X70728Y308101D01*
X71101Y307728D01*
X71364Y307272D01*
X71501Y306763D01*
X71501Y301523D01*
X61023Y301523D01*
G37*
%LPD*%
%LPC*%
G36*
X162023Y301523D02*
X162023Y301523D01*
X162023Y308501D01*
X170763Y308501D01*
X171272Y308364D01*
X171728Y308101D01*
X172101Y307728D01*
X172364Y307272D01*
X172501Y306763D01*
X172501Y301523D01*
X162023Y301523D01*
G37*
%LPD*%
%LPC*%
G36*
X148499Y301523D02*
X148499Y301523D01*
X148499Y306763D01*
X148636Y307272D01*
X148899Y307728D01*
X149272Y308101D01*
X149728Y308364D01*
X150237Y308501D01*
X158977Y308501D01*
X158977Y301523D01*
X148499Y301523D01*
G37*
%LPD*%
%LPC*%
G36*
X47499Y301523D02*
X47499Y301523D01*
X47499Y306763D01*
X47636Y307272D01*
X47899Y307728D01*
X48272Y308101D01*
X48728Y308364D01*
X49237Y308501D01*
X57977Y308501D01*
X57977Y301523D01*
X47499Y301523D01*
G37*
%LPD*%
%LPC*%
G36*
X61023Y291499D02*
X61023Y291499D01*
X61023Y298477D01*
X71501Y298477D01*
X71501Y293237D01*
X71364Y292728D01*
X71101Y292272D01*
X70728Y291899D01*
X70272Y291636D01*
X69763Y291499D01*
X61023Y291499D01*
G37*
%LPD*%
%LPC*%
G36*
X162023Y291499D02*
X162023Y291499D01*
X162023Y298477D01*
X172501Y298477D01*
X172501Y293237D01*
X172364Y292728D01*
X172101Y292272D01*
X171728Y291899D01*
X171272Y291636D01*
X170763Y291499D01*
X162023Y291499D01*
G37*
%LPD*%
%LPC*%
G36*
X49237Y291499D02*
X49237Y291499D01*
X48728Y291636D01*
X48272Y291899D01*
X47899Y292272D01*
X47636Y292728D01*
X47499Y293237D01*
X47499Y298477D01*
X57977Y298477D01*
X57977Y291499D01*
X49237Y291499D01*
G37*
%LPD*%
%LPC*%
G36*
X150237Y291499D02*
X150237Y291499D01*
X149728Y291636D01*
X149272Y291899D01*
X148899Y292272D01*
X148636Y292728D01*
X148499Y293237D01*
X148499Y298477D01*
X158977Y298477D01*
X158977Y291499D01*
X150237Y291499D01*
G37*
%LPD*%
%LPC*%
G36*
X87023Y218023D02*
X87023Y218023D01*
X87023Y223001D01*
X93263Y223001D01*
X93772Y222864D01*
X94228Y222601D01*
X94601Y222228D01*
X94864Y221772D01*
X95001Y221263D01*
X95001Y218023D01*
X87023Y218023D01*
G37*
%LPD*%
%LPC*%
G36*
X75999Y218023D02*
X75999Y218023D01*
X75999Y221263D01*
X76136Y221772D01*
X76399Y222228D01*
X76772Y222601D01*
X77228Y222864D01*
X77737Y223001D01*
X83977Y223001D01*
X83977Y218023D01*
X75999Y218023D01*
G37*
%LPD*%
%LPC*%
G36*
X136023Y176999D02*
X136023Y176999D01*
X136023Y181977D01*
X144001Y181977D01*
X144001Y178737D01*
X143864Y178228D01*
X143601Y177772D01*
X143228Y177399D01*
X142772Y177136D01*
X142263Y176999D01*
X136023Y176999D01*
G37*
%LPD*%
%LPC*%
G36*
X87023Y209999D02*
X87023Y209999D01*
X87023Y214977D01*
X95001Y214977D01*
X95001Y211737D01*
X94864Y211228D01*
X94601Y210772D01*
X94228Y210399D01*
X93772Y210136D01*
X93263Y209999D01*
X87023Y209999D01*
G37*
%LPD*%
%LPC*%
G36*
X126737Y176999D02*
X126737Y176999D01*
X126228Y177136D01*
X125772Y177399D01*
X125399Y177772D01*
X125136Y178228D01*
X124999Y178737D01*
X124999Y181977D01*
X132977Y181977D01*
X132977Y176999D01*
X126737Y176999D01*
G37*
%LPD*%
%LPC*%
G36*
X77737Y209999D02*
X77737Y209999D01*
X77228Y210136D01*
X76772Y210399D01*
X76399Y210772D01*
X76136Y211228D01*
X75999Y211737D01*
X75999Y214977D01*
X83977Y214977D01*
X83977Y209999D01*
X77737Y209999D01*
G37*
%LPD*%
%LPC*%
G36*
X163023Y221523D02*
X163023Y221523D01*
X163023Y227001D01*
X167263Y227001D01*
X167772Y226864D01*
X168228Y226601D01*
X168601Y226228D01*
X168864Y225772D01*
X169001Y225263D01*
X169001Y221523D01*
X163023Y221523D01*
G37*
%LPD*%
%LPC*%
G36*
X190023Y116523D02*
X190023Y116523D01*
X190023Y122001D01*
X194263Y122001D01*
X194772Y121864D01*
X195228Y121601D01*
X195601Y121228D01*
X195864Y120772D01*
X196001Y120263D01*
X196001Y116523D01*
X190023Y116523D01*
G37*
%LPD*%
%LPC*%
G36*
X190023Y151523D02*
X190023Y151523D01*
X190023Y157501D01*
X193763Y157501D01*
X194272Y157364D01*
X194728Y157101D01*
X195101Y156728D01*
X195364Y156272D01*
X195501Y155763D01*
X195501Y151523D01*
X190023Y151523D01*
G37*
%LPD*%
%LPC*%
G36*
X180023Y186523D02*
X180023Y186523D01*
X180023Y192501D01*
X183763Y192501D01*
X184272Y192364D01*
X184728Y192101D01*
X185101Y191728D01*
X185364Y191272D01*
X185501Y190763D01*
X185501Y186523D01*
X180023Y186523D01*
G37*
%LPD*%
%LPC*%
G36*
X43023Y186523D02*
X43023Y186523D01*
X43023Y192501D01*
X46763Y192501D01*
X47272Y192364D01*
X47728Y192101D01*
X48101Y191728D01*
X48364Y191272D01*
X48501Y190763D01*
X48501Y186523D01*
X43023Y186523D01*
G37*
%LPD*%
%LPC*%
G36*
X43023Y177499D02*
X43023Y177499D01*
X43023Y183477D01*
X48501Y183477D01*
X48501Y179237D01*
X48364Y178728D01*
X48101Y178272D01*
X47728Y177899D01*
X47272Y177636D01*
X46763Y177499D01*
X43023Y177499D01*
G37*
%LPD*%
%LPC*%
G36*
X153999Y221523D02*
X153999Y221523D01*
X153999Y225263D01*
X154136Y225772D01*
X154399Y226228D01*
X154772Y226601D01*
X155228Y226864D01*
X155737Y227001D01*
X159977Y227001D01*
X159977Y221523D01*
X153999Y221523D01*
G37*
%LPD*%
%LPC*%
G36*
X180999Y116523D02*
X180999Y116523D01*
X180999Y120263D01*
X181136Y120772D01*
X181399Y121228D01*
X181772Y121601D01*
X182228Y121864D01*
X182737Y122001D01*
X186977Y122001D01*
X186977Y116523D01*
X180999Y116523D01*
G37*
%LPD*%
%LPC*%
G36*
X93999Y126523D02*
X93999Y126523D01*
X93999Y130263D01*
X94136Y130772D01*
X94399Y131228D01*
X94772Y131601D01*
X95228Y131864D01*
X95737Y132001D01*
X99977Y132001D01*
X99977Y126523D01*
X93999Y126523D01*
G37*
%LPD*%
%LPC*%
G36*
X110999Y126523D02*
X110999Y126523D01*
X110999Y130263D01*
X111136Y130772D01*
X111399Y131228D01*
X111772Y131601D01*
X112228Y131864D01*
X112737Y132001D01*
X116977Y132001D01*
X116977Y126523D01*
X110999Y126523D01*
G37*
%LPD*%
%LPC*%
G36*
X181499Y151523D02*
X181499Y151523D01*
X181499Y155763D01*
X181636Y156272D01*
X181899Y156728D01*
X182272Y157101D01*
X182728Y157364D01*
X183237Y157501D01*
X186977Y157501D01*
X186977Y151523D01*
X181499Y151523D01*
G37*
%LPD*%
%LPC*%
G36*
X34499Y186523D02*
X34499Y186523D01*
X34499Y190763D01*
X34636Y191272D01*
X34899Y191728D01*
X35272Y192101D01*
X35728Y192364D01*
X36237Y192501D01*
X39977Y192501D01*
X39977Y186523D01*
X34499Y186523D01*
G37*
%LPD*%
%LPC*%
G36*
X171499Y186523D02*
X171499Y186523D01*
X171499Y190763D01*
X171636Y191272D01*
X171899Y191728D01*
X172272Y192101D01*
X172728Y192364D01*
X173237Y192501D01*
X176977Y192501D01*
X176977Y186523D01*
X171499Y186523D01*
G37*
%LPD*%
%LPC*%
G36*
X190023Y142499D02*
X190023Y142499D01*
X190023Y148477D01*
X195501Y148477D01*
X195501Y144237D01*
X195364Y143728D01*
X195101Y143272D01*
X194728Y142899D01*
X194272Y142636D01*
X193763Y142499D01*
X190023Y142499D01*
G37*
%LPD*%
%LPC*%
G36*
X180023Y177499D02*
X180023Y177499D01*
X180023Y183477D01*
X185501Y183477D01*
X185501Y179237D01*
X185364Y178728D01*
X185101Y178272D01*
X184728Y177899D01*
X184272Y177636D01*
X183763Y177499D01*
X180023Y177499D01*
G37*
%LPD*%
%LPC*%
G36*
X180023Y212999D02*
X180023Y212999D01*
X180023Y218477D01*
X186001Y218477D01*
X186001Y214737D01*
X185864Y214228D01*
X185601Y213772D01*
X185228Y213399D01*
X184772Y213136D01*
X184263Y212999D01*
X180023Y212999D01*
G37*
%LPD*%
%LPC*%
G36*
X163023Y212999D02*
X163023Y212999D01*
X163023Y218477D01*
X169001Y218477D01*
X169001Y214737D01*
X168864Y214228D01*
X168601Y213772D01*
X168228Y213399D01*
X167772Y213136D01*
X167263Y212999D01*
X163023Y212999D01*
G37*
%LPD*%
%LPC*%
G36*
X155737Y212999D02*
X155737Y212999D01*
X155228Y213136D01*
X154772Y213399D01*
X154399Y213772D01*
X154136Y214228D01*
X153999Y214737D01*
X153999Y218477D01*
X159977Y218477D01*
X159977Y212999D01*
X155737Y212999D01*
G37*
%LPD*%
%LPC*%
G36*
X95737Y117999D02*
X95737Y117999D01*
X95228Y118136D01*
X94772Y118399D01*
X94399Y118772D01*
X94136Y119228D01*
X93999Y119737D01*
X93999Y123477D01*
X99977Y123477D01*
X99977Y117999D01*
X95737Y117999D01*
G37*
%LPD*%
%LPC*%
G36*
X182737Y107999D02*
X182737Y107999D01*
X182228Y108136D01*
X181772Y108399D01*
X181399Y108772D01*
X181136Y109228D01*
X180999Y109737D01*
X180999Y113477D01*
X186977Y113477D01*
X186977Y107999D01*
X182737Y107999D01*
G37*
%LPD*%
%LPC*%
G36*
X112737Y117999D02*
X112737Y117999D01*
X112228Y118136D01*
X111772Y118399D01*
X111399Y118772D01*
X111136Y119228D01*
X110999Y119737D01*
X110999Y123477D01*
X116977Y123477D01*
X116977Y117999D01*
X112737Y117999D01*
G37*
%LPD*%
%LPC*%
G36*
X173237Y177499D02*
X173237Y177499D01*
X172728Y177636D01*
X172272Y177899D01*
X171899Y178272D01*
X171636Y178728D01*
X171499Y179237D01*
X171499Y183477D01*
X176977Y183477D01*
X176977Y177499D01*
X173237Y177499D01*
G37*
%LPD*%
%LPC*%
G36*
X36237Y177499D02*
X36237Y177499D01*
X35728Y177636D01*
X35272Y177899D01*
X34899Y178272D01*
X34636Y178728D01*
X34499Y179237D01*
X34499Y183477D01*
X39977Y183477D01*
X39977Y177499D01*
X36237Y177499D01*
G37*
%LPD*%
%LPC*%
G36*
X183237Y142499D02*
X183237Y142499D01*
X182728Y142636D01*
X182272Y142899D01*
X181899Y143272D01*
X181636Y143728D01*
X181499Y144237D01*
X181499Y148477D01*
X186977Y148477D01*
X186977Y142499D01*
X183237Y142499D01*
G37*
%LPD*%
%LPC*%
G36*
X76124Y236124D02*
X76124Y236124D01*
X76124Y240385D01*
X76605Y240289D01*
X77606Y239875D01*
X78507Y239273D01*
X79273Y238507D01*
X79875Y237606D01*
X80289Y236605D01*
X80385Y236124D01*
X76124Y236124D01*
G37*
%LPD*%
%LPC*%
G36*
X141124Y236124D02*
X141124Y236124D01*
X141124Y240385D01*
X141605Y240289D01*
X142606Y239875D01*
X143507Y239273D01*
X144273Y238507D01*
X144875Y237606D01*
X145289Y236605D01*
X145385Y236124D01*
X141124Y236124D01*
G37*
%LPD*%
%LPC*%
G36*
X134615Y236124D02*
X134615Y236124D01*
X134711Y236605D01*
X135125Y237606D01*
X135727Y238507D01*
X136493Y239273D01*
X137394Y239875D01*
X138395Y240289D01*
X138876Y240385D01*
X138876Y236124D01*
X134615Y236124D01*
G37*
%LPD*%
%LPC*%
G36*
X141124Y233876D02*
X141124Y233876D01*
X145385Y233876D01*
X145289Y233395D01*
X144875Y232394D01*
X144273Y231493D01*
X143507Y230727D01*
X142606Y230125D01*
X141605Y229711D01*
X141124Y229615D01*
X141124Y233876D01*
G37*
%LPD*%
%LPC*%
G36*
X76124Y233876D02*
X76124Y233876D01*
X80385Y233876D01*
X80289Y233395D01*
X79875Y232394D01*
X79273Y231493D01*
X78507Y230727D01*
X77606Y230125D01*
X76605Y229711D01*
X76124Y229615D01*
X76124Y233876D01*
G37*
%LPD*%
%LPC*%
G36*
X69615Y236124D02*
X69615Y236124D01*
X69711Y236605D01*
X70125Y237606D01*
X70727Y238507D01*
X71493Y239273D01*
X72394Y239875D01*
X73395Y240289D01*
X73876Y240385D01*
X73876Y236124D01*
X69615Y236124D01*
G37*
%LPD*%
%LPC*%
G36*
X73395Y229711D02*
X73395Y229711D01*
X72394Y230125D01*
X71493Y230727D01*
X70727Y231493D01*
X70125Y232394D01*
X69711Y233395D01*
X69615Y233876D01*
X73876Y233876D01*
X73876Y229615D01*
X73395Y229711D01*
G37*
%LPD*%
%LPC*%
G36*
X138395Y229711D02*
X138395Y229711D01*
X137394Y230125D01*
X136493Y230727D01*
X135727Y231493D01*
X135125Y232394D01*
X134711Y233395D01*
X134615Y233876D01*
X138876Y233876D01*
X138876Y229615D01*
X138395Y229711D01*
G37*
%LPD*%
%LPC*%
G36*
X199999Y469999D02*
X199999Y469999D01*
X199999Y470001D01*
X200001Y470001D01*
X200001Y469999D01*
X199999Y469999D01*
G37*
%LPD*%
%LPC*%
G36*
X199999Y289999D02*
X199999Y289999D01*
X199999Y290001D01*
X200001Y290001D01*
X200001Y289999D01*
X199999Y289999D01*
G37*
%LPD*%
%LPC*%
G36*
X19999Y289999D02*
X19999Y289999D01*
X19999Y290001D01*
X20001Y290001D01*
X20001Y289999D01*
X19999Y289999D01*
G37*
%LPD*%
%LPC*%
G36*
X19999Y469999D02*
X19999Y469999D01*
X19999Y470001D01*
X20001Y470001D01*
X20001Y469999D01*
X19999Y469999D01*
G37*
%LPD*%
%LPC*%
G36*
X160499Y299999D02*
X160499Y299999D01*
X160499Y300001D01*
X160501Y300001D01*
X160501Y299999D01*
X160499Y299999D01*
G37*
%LPD*%
%LPC*%
G36*
X59499Y299999D02*
X59499Y299999D01*
X59499Y300001D01*
X59501Y300001D01*
X59501Y299999D01*
X59499Y299999D01*
G37*
%LPD*%
%LPC*%
G36*
X161499Y219999D02*
X161499Y219999D01*
X161499Y220001D01*
X161501Y220001D01*
X161501Y219999D01*
X161499Y219999D01*
G37*
%LPD*%
%LPC*%
G36*
X178499Y184999D02*
X178499Y184999D01*
X178499Y185001D01*
X178501Y185001D01*
X178501Y184999D01*
X178499Y184999D01*
G37*
%LPD*%
%LPC*%
G36*
X41499Y184999D02*
X41499Y184999D01*
X41499Y185001D01*
X41501Y185001D01*
X41501Y184999D01*
X41499Y184999D01*
G37*
%LPD*%
%LPC*%
G36*
X188499Y149999D02*
X188499Y149999D01*
X188499Y150001D01*
X188501Y150001D01*
X188501Y149999D01*
X188499Y149999D01*
G37*
%LPD*%
%LPC*%
G36*
X85499Y216499D02*
X85499Y216499D01*
X85499Y216501D01*
X85501Y216501D01*
X85501Y216499D01*
X85499Y216499D01*
G37*
%LPD*%
%LPC*%
G36*
X188499Y114999D02*
X188499Y114999D01*
X188499Y115001D01*
X188501Y115001D01*
X188501Y114999D01*
X188499Y114999D01*
G37*
%LPD*%
D10*
X84500Y158000D03*
X75000Y158000D03*
X65500Y158000D03*
X65500Y132000D03*
X84500Y132000D03*
D11*
X134500Y183500D03*
X134500Y216500D03*
X85500Y183500D03*
X85500Y216500D03*
D12*
X145000Y47500D03*
D13*
X120000Y52500D03*
D12*
X75000Y47500D03*
D13*
X100000Y52500D03*
D14*
X154500Y157500D03*
X145000Y157500D03*
X135500Y157500D03*
X135500Y132500D03*
X145000Y132500D03*
X154500Y132500D03*
D15*
X120000Y100000D03*
D16*
X100000Y100000D03*
D17*
X101500Y155000D03*
X118500Y155000D03*
X161500Y185000D03*
X178500Y185000D03*
X171500Y150000D03*
X188500Y150000D03*
X31500Y150000D03*
X48500Y150000D03*
X58500Y220000D03*
X41500Y220000D03*
X41500Y185000D03*
X58500Y185000D03*
D18*
X171500Y115000D03*
X188500Y115000D03*
X118500Y125000D03*
X101500Y125000D03*
X161500Y220000D03*
X178500Y220000D03*
D19*
X15000Y202500D03*
X15000Y235000D03*
X15000Y105000D03*
X15000Y137500D03*
X15000Y170000D03*
X205000Y105000D03*
X205000Y137500D03*
X205000Y170000D03*
X205000Y202500D03*
X205000Y235000D03*
X170000Y360000D03*
X50000Y440000D03*
X50000Y400000D03*
X50000Y360000D03*
X170000Y400000D03*
X170000Y440000D03*
X130000Y360000D03*
X130000Y400000D03*
X130000Y440000D03*
X90000Y440000D03*
X90000Y400000D03*
X90000Y360000D03*
D20*
X59500Y300000D03*
X160500Y300000D03*
D21*
X107500Y327000D03*
X112500Y327000D03*
X117500Y327000D03*
X102500Y327000D03*
X122500Y327000D03*
X97500Y327000D03*
X127500Y327000D03*
X92500Y327000D03*
X132500Y327000D03*
X87500Y327000D03*
X137500Y327000D03*
X82500Y327000D03*
D22*
X80000Y100000D03*
D23*
X75000Y235000D03*
X140000Y235000D03*
D22*
X140000Y100000D03*
D24*
X20000Y470000D03*
X20000Y290000D03*
X200000Y290000D03*
X200000Y470000D03*
D25*
X180000Y235000D03*
X160000Y235000D03*
D26*
X180000Y235000D02*
X205000Y235000D01*
D25*
X75000Y125000D03*
X75000Y135000D03*
D26*
X134500Y183500D02*
X136500Y183500D01*
X118500Y125000D02*
X120000Y123500D01*
D25*
X40000Y235000D03*
D26*
X15000Y235000D01*
X154500Y132500D02*
X155000Y132000D01*
D25*
X40000Y135000D03*
D26*
X31500Y143500D02*
X31500Y150000D01*
X31500Y143500D02*
X40000Y135000D01*
D25*
X155000Y115000D03*
X155000Y100000D03*
D26*
X133000Y155000D02*
X118500Y155000D01*
X133000Y155000D02*
X135500Y157500D01*
X154500Y157500D02*
X155000Y158000D01*
X155000Y170000D01*
X161500Y176500D02*
X161500Y185000D01*
X161500Y176500D02*
X155000Y170000D01*
X170000Y153500D02*
X171500Y150000D01*
D25*
X165000Y170000D03*
X135000Y120000D03*
D26*
X135500Y120500D01*
X135500Y132500D01*
X171500Y163500D02*
X165000Y170000D01*
X171500Y163500D02*
X171500Y150000D01*
X65500Y158000D02*
X57500Y150000D01*
X48500Y150000D01*
X41500Y213500D02*
X41500Y220000D01*
X58500Y196500D02*
X58500Y185000D01*
X58500Y196500D02*
X41500Y213500D01*
X65500Y178000D02*
X65500Y158000D01*
X65500Y178000D02*
X58500Y185000D01*
D25*
X60000Y235000D03*
D26*
X58500Y231500D02*
X58500Y220000D01*
X58500Y231500D02*
X60000Y235000D01*
D25*
X40000Y170000D03*
D26*
X15000Y170000D01*
D25*
X55000Y170000D03*
D26*
X15000Y150000D02*
X15000Y137500D01*
X15000Y150000D02*
X25000Y160000D01*
X45000Y160000D02*
X55000Y170000D01*
X45000Y160000D02*
X25000Y160000D01*
D25*
X40000Y120000D03*
D26*
X25000Y105000D02*
X15000Y105000D01*
X25000Y105000D02*
X40000Y120000D01*
D25*
X40000Y200000D03*
D26*
X37500Y202500D01*
X15000Y202500D01*
D25*
X165000Y135000D03*
D26*
X205000Y120000D02*
X205000Y105000D01*
X205000Y120000D02*
X197500Y127500D01*
X172500Y127500D01*
X165000Y135000D01*
D25*
X180000Y135000D03*
D26*
X182500Y137500D01*
X205000Y137500D01*
D25*
X180000Y170000D03*
D26*
X205000Y170000D01*
D25*
X180000Y202500D03*
D26*
X122500Y202500D01*
X103500Y183500D02*
X85500Y183500D01*
X103500Y183500D02*
X122500Y202500D01*
X180000Y202500D02*
X205000Y202500D01*
D27*
X137500Y327000D02*
X137500Y332500D01*
X140000Y335000D01*
X160000Y335000D01*
X170000Y345000D01*
X170000Y360000D01*
X132500Y337500D02*
X132500Y327000D01*
X132500Y337500D02*
X135000Y340000D01*
X150000Y340000D01*
X155000Y345000D01*
X155000Y370000D01*
X170000Y385000D01*
X170000Y400000D01*
X127500Y342500D02*
X127500Y327000D01*
X127500Y342500D02*
X130000Y345000D01*
X140000Y345000D01*
X145000Y350000D01*
X145000Y400000D01*
X170000Y425000D01*
X170000Y440000D01*
X122500Y352500D02*
X122500Y327000D01*
X122500Y352500D02*
X130000Y360000D01*
X117500Y387500D02*
X117500Y327000D01*
X117500Y387500D02*
X130000Y400000D01*
X112500Y422500D02*
X112500Y327000D01*
X112500Y422500D02*
X130000Y440000D01*
X107500Y422500D02*
X107500Y327000D01*
X107500Y422500D02*
X90000Y440000D01*
X102500Y387500D02*
X102500Y327000D01*
X102500Y387500D02*
X90000Y400000D01*
X97500Y352500D02*
X97500Y327000D01*
X97500Y352500D02*
X90000Y360000D01*
X92500Y342500D02*
X92500Y327000D01*
X92500Y342500D02*
X90000Y345000D01*
X80000Y345000D01*
X75000Y350000D01*
X75000Y400000D01*
X50000Y425000D01*
X50000Y440000D01*
X87500Y337500D02*
X87500Y327000D01*
X87500Y337500D02*
X85000Y340000D01*
X70000Y340000D01*
X65000Y345000D01*
X65000Y370000D01*
X50000Y385000D01*
X50000Y400000D01*
X82500Y332500D02*
X82500Y327000D01*
X82500Y332500D02*
X80000Y335000D01*
X60000Y335000D01*
X50000Y345000D01*
X50000Y360000D01*
M02*
