M48
;GenerationSoftware,Autodesk,EAGLE,9.0.0*%
;CreationDate,2018-04-23T15:37:53Z*%
FMAT,2
ICI,OFF
METRIC,TZ,000.000
T5C0.350
T4C0.450
T3C0.500
T2C1.000
T1C1.100
%
G90
M71
T1
X12000Y10000
X10000Y10000
T2
X2000Y47000
X2000Y29000
X20000Y29000
X20000Y47000
T3
X8000Y10000
X14000Y10000
T4
X7500Y23500
X14000Y23500
T5
X18000Y23500
X16000Y23500
X7500Y12500
X7500Y13500
X4000Y23500
X4000Y13500
X15500Y11500
X15500Y10000
X16500Y17000
X13500Y12000
X6000Y23500
X4000Y17000
X5500Y17000
X4000Y12000
X4000Y20000
X16500Y13500
X18000Y13500
X18000Y17000
X18000Y20250
M30