G04 EAGLE Gerber X2 export*
G75*
%MOMM*%
%FSLAX34Y34*%
%LPD*%
%AMOC8*
5,1,8,0,0,1.08239X$1,22.5*%
G01*
%ADD10C,0.152400*%


D10*
X210000Y90000D02*
X210242Y90003D01*
X210483Y90012D01*
X210724Y90026D01*
X210965Y90047D01*
X211205Y90073D01*
X211445Y90105D01*
X211684Y90143D01*
X211921Y90186D01*
X212158Y90236D01*
X212393Y90291D01*
X212627Y90351D01*
X212859Y90418D01*
X213090Y90489D01*
X213319Y90567D01*
X213546Y90650D01*
X213771Y90738D01*
X213994Y90832D01*
X214214Y90931D01*
X214432Y91036D01*
X214647Y91145D01*
X214860Y91260D01*
X215070Y91380D01*
X215276Y91505D01*
X215480Y91635D01*
X215681Y91770D01*
X215878Y91910D01*
X216072Y92054D01*
X216262Y92203D01*
X216448Y92357D01*
X216631Y92515D01*
X216810Y92677D01*
X216985Y92844D01*
X217156Y93015D01*
X217323Y93190D01*
X217485Y93369D01*
X217643Y93552D01*
X217797Y93738D01*
X217946Y93928D01*
X218090Y94122D01*
X218230Y94319D01*
X218365Y94520D01*
X218495Y94724D01*
X218620Y94930D01*
X218740Y95140D01*
X218855Y95353D01*
X218964Y95568D01*
X219069Y95786D01*
X219168Y96006D01*
X219262Y96229D01*
X219350Y96454D01*
X219433Y96681D01*
X219511Y96910D01*
X219582Y97141D01*
X219649Y97373D01*
X219709Y97607D01*
X219764Y97842D01*
X219814Y98079D01*
X219857Y98316D01*
X219895Y98555D01*
X219927Y98795D01*
X219953Y99035D01*
X219974Y99276D01*
X219988Y99517D01*
X219997Y99758D01*
X220000Y100000D01*
X220000Y480000D01*
X219997Y480242D01*
X219988Y480483D01*
X219974Y480724D01*
X219953Y480965D01*
X219927Y481205D01*
X219895Y481445D01*
X219857Y481684D01*
X219814Y481921D01*
X219764Y482158D01*
X219709Y482393D01*
X219649Y482627D01*
X219582Y482859D01*
X219511Y483090D01*
X219433Y483319D01*
X219350Y483546D01*
X219262Y483771D01*
X219168Y483994D01*
X219069Y484214D01*
X218964Y484432D01*
X218855Y484647D01*
X218740Y484860D01*
X218620Y485070D01*
X218495Y485276D01*
X218365Y485480D01*
X218230Y485681D01*
X218090Y485878D01*
X217946Y486072D01*
X217797Y486262D01*
X217643Y486448D01*
X217485Y486631D01*
X217323Y486810D01*
X217156Y486985D01*
X216985Y487156D01*
X216810Y487323D01*
X216631Y487485D01*
X216448Y487643D01*
X216262Y487797D01*
X216072Y487946D01*
X215878Y488090D01*
X215681Y488230D01*
X215480Y488365D01*
X215276Y488495D01*
X215070Y488620D01*
X214860Y488740D01*
X214647Y488855D01*
X214432Y488964D01*
X214214Y489069D01*
X213994Y489168D01*
X213771Y489262D01*
X213546Y489350D01*
X213319Y489433D01*
X213090Y489511D01*
X212859Y489582D01*
X212627Y489649D01*
X212393Y489709D01*
X212158Y489764D01*
X211921Y489814D01*
X211684Y489857D01*
X211445Y489895D01*
X211205Y489927D01*
X210965Y489953D01*
X210724Y489974D01*
X210483Y489988D01*
X210242Y489997D01*
X210000Y490000D01*
X10000Y490000D01*
X9758Y489997D01*
X9517Y489988D01*
X9276Y489974D01*
X9035Y489953D01*
X8795Y489927D01*
X8555Y489895D01*
X8316Y489857D01*
X8079Y489814D01*
X7842Y489764D01*
X7607Y489709D01*
X7373Y489649D01*
X7141Y489582D01*
X6910Y489511D01*
X6681Y489433D01*
X6454Y489350D01*
X6229Y489262D01*
X6006Y489168D01*
X5786Y489069D01*
X5568Y488964D01*
X5353Y488855D01*
X5140Y488740D01*
X4930Y488620D01*
X4724Y488495D01*
X4520Y488365D01*
X4319Y488230D01*
X4122Y488090D01*
X3928Y487946D01*
X3738Y487797D01*
X3552Y487643D01*
X3369Y487485D01*
X3190Y487323D01*
X3015Y487156D01*
X2844Y486985D01*
X2677Y486810D01*
X2515Y486631D01*
X2357Y486448D01*
X2203Y486262D01*
X2054Y486072D01*
X1910Y485878D01*
X1770Y485681D01*
X1635Y485480D01*
X1505Y485276D01*
X1380Y485070D01*
X1260Y484860D01*
X1145Y484647D01*
X1036Y484432D01*
X931Y484214D01*
X832Y483994D01*
X738Y483771D01*
X650Y483546D01*
X567Y483319D01*
X489Y483090D01*
X418Y482859D01*
X351Y482627D01*
X291Y482393D01*
X236Y482158D01*
X186Y481921D01*
X143Y481684D01*
X105Y481445D01*
X73Y481205D01*
X47Y480965D01*
X26Y480724D01*
X12Y480483D01*
X3Y480242D01*
X0Y480000D01*
X0Y100000D01*
X3Y99758D01*
X12Y99517D01*
X26Y99276D01*
X47Y99035D01*
X73Y98795D01*
X105Y98555D01*
X143Y98316D01*
X186Y98079D01*
X236Y97842D01*
X291Y97607D01*
X351Y97373D01*
X418Y97141D01*
X489Y96910D01*
X567Y96681D01*
X650Y96454D01*
X738Y96229D01*
X832Y96006D01*
X931Y95786D01*
X1036Y95568D01*
X1145Y95353D01*
X1260Y95140D01*
X1380Y94930D01*
X1505Y94724D01*
X1635Y94520D01*
X1770Y94319D01*
X1910Y94122D01*
X2054Y93928D01*
X2203Y93738D01*
X2357Y93552D01*
X2515Y93369D01*
X2677Y93190D01*
X2844Y93015D01*
X3015Y92844D01*
X3190Y92677D01*
X3369Y92515D01*
X3552Y92357D01*
X3738Y92203D01*
X3928Y92054D01*
X4122Y91910D01*
X4319Y91770D01*
X4520Y91635D01*
X4724Y91505D01*
X4930Y91380D01*
X5140Y91260D01*
X5353Y91145D01*
X5568Y91036D01*
X5786Y90931D01*
X6006Y90832D01*
X6229Y90738D01*
X6454Y90650D01*
X6681Y90567D01*
X6910Y90489D01*
X7141Y90418D01*
X7373Y90351D01*
X7607Y90291D01*
X7842Y90236D01*
X8079Y90186D01*
X8316Y90143D01*
X8555Y90105D01*
X8795Y90073D01*
X9035Y90047D01*
X9276Y90026D01*
X9517Y90012D01*
X9758Y90003D01*
X10000Y90000D01*
X40000Y90000D01*
X180000Y90000D02*
X210000Y90000D01*
X50000Y80000D02*
X49997Y80242D01*
X49988Y80483D01*
X49974Y80724D01*
X49953Y80965D01*
X49927Y81205D01*
X49895Y81445D01*
X49857Y81684D01*
X49814Y81921D01*
X49764Y82158D01*
X49709Y82393D01*
X49649Y82627D01*
X49582Y82859D01*
X49511Y83090D01*
X49433Y83319D01*
X49350Y83546D01*
X49262Y83771D01*
X49168Y83994D01*
X49069Y84214D01*
X48964Y84432D01*
X48855Y84647D01*
X48740Y84860D01*
X48620Y85070D01*
X48495Y85276D01*
X48365Y85480D01*
X48230Y85681D01*
X48090Y85878D01*
X47946Y86072D01*
X47797Y86262D01*
X47643Y86448D01*
X47485Y86631D01*
X47323Y86810D01*
X47156Y86985D01*
X46985Y87156D01*
X46810Y87323D01*
X46631Y87485D01*
X46448Y87643D01*
X46262Y87797D01*
X46072Y87946D01*
X45878Y88090D01*
X45681Y88230D01*
X45480Y88365D01*
X45276Y88495D01*
X45070Y88620D01*
X44860Y88740D01*
X44647Y88855D01*
X44432Y88964D01*
X44214Y89069D01*
X43994Y89168D01*
X43771Y89262D01*
X43546Y89350D01*
X43319Y89433D01*
X43090Y89511D01*
X42859Y89582D01*
X42627Y89649D01*
X42393Y89709D01*
X42158Y89764D01*
X41921Y89814D01*
X41684Y89857D01*
X41445Y89895D01*
X41205Y89927D01*
X40965Y89953D01*
X40724Y89974D01*
X40483Y89988D01*
X40242Y89997D01*
X40000Y90000D01*
X50000Y80000D02*
X50000Y10000D01*
X50003Y9758D01*
X50012Y9517D01*
X50026Y9276D01*
X50047Y9035D01*
X50073Y8795D01*
X50105Y8555D01*
X50143Y8316D01*
X50186Y8079D01*
X50236Y7842D01*
X50291Y7607D01*
X50351Y7373D01*
X50418Y7141D01*
X50489Y6910D01*
X50567Y6681D01*
X50650Y6454D01*
X50738Y6229D01*
X50832Y6006D01*
X50931Y5786D01*
X51036Y5568D01*
X51145Y5353D01*
X51260Y5140D01*
X51380Y4930D01*
X51505Y4724D01*
X51635Y4520D01*
X51770Y4319D01*
X51910Y4122D01*
X52054Y3928D01*
X52203Y3738D01*
X52357Y3552D01*
X52515Y3369D01*
X52677Y3190D01*
X52844Y3015D01*
X53015Y2844D01*
X53190Y2677D01*
X53369Y2515D01*
X53552Y2357D01*
X53738Y2203D01*
X53928Y2054D01*
X54122Y1910D01*
X54319Y1770D01*
X54520Y1635D01*
X54724Y1505D01*
X54930Y1380D01*
X55140Y1260D01*
X55353Y1145D01*
X55568Y1036D01*
X55786Y931D01*
X56006Y832D01*
X56229Y738D01*
X56454Y650D01*
X56681Y567D01*
X56910Y489D01*
X57141Y418D01*
X57373Y351D01*
X57607Y291D01*
X57842Y236D01*
X58079Y186D01*
X58316Y143D01*
X58555Y105D01*
X58795Y73D01*
X59035Y47D01*
X59276Y26D01*
X59517Y12D01*
X59758Y3D01*
X60000Y0D01*
X160000Y0D01*
X160242Y3D01*
X160483Y12D01*
X160724Y26D01*
X160965Y47D01*
X161205Y73D01*
X161445Y105D01*
X161684Y143D01*
X161921Y186D01*
X162158Y236D01*
X162393Y291D01*
X162627Y351D01*
X162859Y418D01*
X163090Y489D01*
X163319Y567D01*
X163546Y650D01*
X163771Y738D01*
X163994Y832D01*
X164214Y931D01*
X164432Y1036D01*
X164647Y1145D01*
X164860Y1260D01*
X165070Y1380D01*
X165276Y1505D01*
X165480Y1635D01*
X165681Y1770D01*
X165878Y1910D01*
X166072Y2054D01*
X166262Y2203D01*
X166448Y2357D01*
X166631Y2515D01*
X166810Y2677D01*
X166985Y2844D01*
X167156Y3015D01*
X167323Y3190D01*
X167485Y3369D01*
X167643Y3552D01*
X167797Y3738D01*
X167946Y3928D01*
X168090Y4122D01*
X168230Y4319D01*
X168365Y4520D01*
X168495Y4724D01*
X168620Y4930D01*
X168740Y5140D01*
X168855Y5353D01*
X168964Y5568D01*
X169069Y5786D01*
X169168Y6006D01*
X169262Y6229D01*
X169350Y6454D01*
X169433Y6681D01*
X169511Y6910D01*
X169582Y7141D01*
X169649Y7373D01*
X169709Y7607D01*
X169764Y7842D01*
X169814Y8079D01*
X169857Y8316D01*
X169895Y8555D01*
X169927Y8795D01*
X169953Y9035D01*
X169974Y9276D01*
X169988Y9517D01*
X169997Y9758D01*
X170000Y10000D01*
X170000Y80000D01*
X170003Y80242D01*
X170012Y80483D01*
X170026Y80724D01*
X170047Y80965D01*
X170073Y81205D01*
X170105Y81445D01*
X170143Y81684D01*
X170186Y81921D01*
X170236Y82158D01*
X170291Y82393D01*
X170351Y82627D01*
X170418Y82859D01*
X170489Y83090D01*
X170567Y83319D01*
X170650Y83546D01*
X170738Y83771D01*
X170832Y83994D01*
X170931Y84214D01*
X171036Y84432D01*
X171145Y84647D01*
X171260Y84860D01*
X171380Y85070D01*
X171505Y85276D01*
X171635Y85480D01*
X171770Y85681D01*
X171910Y85878D01*
X172054Y86072D01*
X172203Y86262D01*
X172357Y86448D01*
X172515Y86631D01*
X172677Y86810D01*
X172844Y86985D01*
X173015Y87156D01*
X173190Y87323D01*
X173369Y87485D01*
X173552Y87643D01*
X173738Y87797D01*
X173928Y87946D01*
X174122Y88090D01*
X174319Y88230D01*
X174520Y88365D01*
X174724Y88495D01*
X174930Y88620D01*
X175140Y88740D01*
X175353Y88855D01*
X175568Y88964D01*
X175786Y89069D01*
X176006Y89168D01*
X176229Y89262D01*
X176454Y89350D01*
X176681Y89433D01*
X176910Y89511D01*
X177141Y89582D01*
X177373Y89649D01*
X177607Y89709D01*
X177842Y89764D01*
X178079Y89814D01*
X178316Y89857D01*
X178555Y89895D01*
X178795Y89927D01*
X179035Y89953D01*
X179276Y89974D01*
X179517Y89988D01*
X179758Y89997D01*
X180000Y90000D01*
M02*
